<svg width="504" height="336" viewBox="0 0 504 336" fill="none" xmlns="http://www.w3.org/2000/svg">
<g clip-path="url(#clip0_626_743)">
<path d="M504 0H0V336H504V0Z" fill="#2E2E2E" stroke="#2E2E2E" stroke-miterlimit="10"/>
<path d="M455.616 219.744C476.661 257.405 446.208 331.296 253.068 279.944C156.231 254.196 83.8974 312.198 68.9924 271.712C34.2719 177.408 176.064 68.3206 254.911 144.48C326.983 214.094 417.312 151.2 455.616 219.744Z" stroke="#202020" stroke-width="4" stroke-miterlimit="10" stroke-dasharray="32.09 32.09"/>
<path d="M454.507 302.642H60.7017C73.0261 211.586 156.475 141.154 257.604 141.154C358.727 141.154 442.183 211.586 454.507 302.642Z" fill="#202020" stroke="#202020" stroke-miterlimit="10"/>
<path d="M403.175 301.842H255.052C248.156 301.842 242.567 296.251 242.567 289.357V76.8853C242.567 69.9889 248.158 64.3995 255.052 64.3995H403.175C410.071 64.3995 415.66 69.9906 415.66 76.8853V289.357C415.66 296.251 410.069 301.842 403.175 301.842Z" fill="#56FFC2"/>
<path d="M400.68 73.967H258.209V280.923H400.68V73.967Z" fill="#F6F5F5"/>
<path d="M400.68 73.9688C400.724 154.671 403.329 252 394.264 273.549C354.335 277.44 307.584 278.689 258.208 278.92L276.976 74.592L400.68 73.9688Z" fill="#E4E4E4"/>
<path d="M387.883 267.028C325.65 276.988 284.056 277.512 250.32 275.008C254.691 228.472 256.444 151.161 258.208 73.9772L333.201 74.1435L401.073 78.6241C402.061 158.735 402.17 232.734 387.883 267.028Z" fill="white"/>
<path d="M365.888 94.8048L290.942 93.0431L290.674 104.459L365.619 106.22L365.888 94.8048Z" fill="#16FFAB"/>
<path d="M380.337 122.741L312.735 121.151L312.612 126.376L380.214 127.965L380.337 122.741Z" fill="#16FFAB"/>
<path d="M358.416 133.624L312.467 132.544L312.344 137.769L358.294 138.849L358.416 133.624Z" fill="#96FFD9" stroke="#96FFD9" stroke-miterlimit="10"/>
<path d="M291.434 120.958L275.43 120.582L275.054 136.586L291.058 136.962L291.434 120.958Z" fill="white" stroke="#16FFAB" stroke-width="6" stroke-miterlimit="10"/>
<path d="M278.042 124.802C278.536 126.694 279.448 134.617 283.416 132.403C284.332 131.892 285.106 130.541 285.79 129.763C287.02 128.366 288.251 126.969 289.481 125.572C291.942 122.778 294.403 119.984 296.864 117.19C297.494 116.474 294.711 114.679 293.919 115.577C291.732 118.06 289.545 120.545 287.357 123.028C286.264 124.27 285.17 125.511 284.076 126.753C283.317 127.615 281.561 130.393 280.436 130.64C281.049 130.838 281.66 131.035 282.274 131.233C282.707 131.588 281.902 129.071 281.884 129.002C281.578 127.833 281.274 126.665 280.968 125.496C280.715 124.533 277.669 123.373 278.042 124.802Z" fill="#FF158B"/>
<path d="M367.721 151.555L312.052 150.246L311.93 155.471L367.598 156.78L367.721 151.555Z" fill="#16FFAB"/>
<path d="M379.385 163.228L311.784 161.639L311.661 166.863L379.262 168.453L379.385 163.228Z" fill="#96FFD9" stroke="#96FFD9" stroke-miterlimit="10"/>
<path d="M290.75 150.053L274.746 149.677L274.37 165.681L290.374 166.057L290.75 150.053Z" fill="white" stroke="#16FFAB" stroke-width="6" stroke-miterlimit="10"/>
<path d="M277.346 154.35C277.84 156.242 278.752 164.165 282.721 161.95C283.636 161.44 284.411 160.089 285.094 159.311C286.324 157.913 287.556 156.517 288.785 155.12C291.247 152.326 293.708 149.532 296.169 146.738C296.799 146.022 294.015 144.226 293.224 145.125C291.037 147.608 288.849 150.093 286.662 152.576C285.568 153.818 284.474 155.059 283.381 156.301C282.621 157.162 280.866 159.941 279.74 160.188C280.353 160.386 280.965 160.583 281.578 160.781C282.012 161.136 281.207 158.619 281.188 158.55C280.883 157.381 280.579 156.213 280.273 155.044C280.019 154.081 276.973 152.92 277.346 154.35Z" fill="#FF158B"/>
<path d="M378.969 180.931L311.368 179.342L311.245 184.567L378.846 186.156L378.969 180.931Z" fill="#16FFAB"/>
<path d="M341.332 191.446L311.099 190.735L310.976 195.96L341.209 196.671L341.332 191.446Z" fill="#96FFD9" stroke="#96FFD9" stroke-miterlimit="10"/>
<path d="M290.067 179.149L274.063 178.772L273.687 194.776L289.691 195.152L290.067 179.149Z" fill="white" stroke="#16FFAB" stroke-width="6" stroke-miterlimit="10"/>
<path d="M276.879 183.653C277.373 185.544 278.285 193.467 282.253 191.253C283.169 190.742 283.943 189.391 284.627 188.614C285.857 187.216 287.088 185.82 288.318 184.422C290.779 181.628 293.241 178.834 295.702 176.04C296.332 175.325 293.548 173.529 292.755 174.428C290.568 176.911 288.38 179.395 286.193 181.878C285.099 183.12 284.006 184.362 282.912 185.603C282.153 186.465 280.397 189.244 279.271 189.491C279.885 189.689 280.496 189.885 281.109 190.084C281.543 190.438 280.738 187.921 280.72 187.853C280.414 186.683 280.11 185.516 279.804 184.346C279.552 183.384 276.504 182.223 276.879 183.653Z" fill="#FF158B"/>
<path d="M378.285 210.026L310.683 208.437L310.56 213.662L378.162 215.251L378.285 210.026Z" fill="#16FFAB"/>
<path d="M363.819 221.085L310.416 219.83L310.293 225.055L363.696 226.31L363.819 221.085Z" fill="#96FFD9" stroke="#96FFD9" stroke-miterlimit="10"/>
<path d="M289.382 208.244L273.378 207.868L273.002 223.872L289.006 224.248L289.382 208.244Z" fill="white" stroke="#16FFAB" stroke-width="6" stroke-miterlimit="10"/>
<path d="M276.199 212.559C276.693 214.45 277.605 222.373 281.573 220.159C282.489 219.648 283.263 218.298 283.947 217.52C285.177 216.122 286.408 214.726 287.638 213.328C290.099 210.534 292.56 207.74 295.021 204.947C295.651 204.231 292.868 202.435 292.075 203.334C289.887 205.817 287.7 208.302 285.513 210.785C284.419 212.026 283.325 213.268 282.232 214.509C281.472 215.371 279.717 218.15 278.591 218.397C279.204 218.595 279.816 218.792 280.429 218.99C280.862 219.344 280.058 216.828 280.039 216.759C279.733 215.589 279.429 214.422 279.124 213.253C278.872 212.288 275.824 211.127 276.199 212.559Z" fill="#FF158B"/>
<path d="M336.801 237.942L310.005 237.312L309.882 242.537L336.678 243.167L336.801 237.942Z" fill="#16FFAB"/>
<path d="M377.34 250.312L309.736 248.721L309.614 253.946C335.768 254.559 369.071 255.785 375.866 254.742C376.898 253.569 377.454 252.129 377.34 250.312Z" fill="#96FFD9" stroke="#96FFD9" stroke-miterlimit="10"/>
<path d="M288.928 237.124L272.924 236.748L272.548 252.752L288.552 253.128L288.928 237.124Z" fill="white" stroke="#16FFAB" stroke-width="6" stroke-miterlimit="10"/>
<path d="M275.525 241.211C276.019 243.103 276.931 251.026 280.899 248.811C281.815 248.301 282.589 246.95 283.273 246.172C284.503 244.774 285.734 243.378 286.964 241.981C289.425 239.187 291.886 236.393 294.348 233.599C294.978 232.883 292.194 231.087 291.401 231.986C289.214 234.469 287.026 236.954 284.839 239.437C283.745 240.679 282.652 241.92 281.558 243.163C280.799 244.025 279.043 246.804 277.917 247.051C278.531 247.249 279.142 247.446 279.755 247.644C280.189 247.998 279.384 245.482 279.365 245.413C279.06 244.244 278.756 243.076 278.45 241.907C278.198 240.941 275.15 239.78 275.525 241.211Z" fill="#FF158B"/>
<path d="M361.2 65.8359V81.8093H297.024V65.8359C297.024 63.289 298.059 60.984 299.725 59.3108C299.934 59.1024 300.149 58.9076 300.377 58.7261C301.97 57.4023 304.02 56.6093 306.251 56.6093C307.924 56.6093 309.53 56.2263 310.968 55.5341C311.593 55.2317 312.184 54.8756 312.742 54.4656C314.577 53.1082 315.981 51.1796 316.68 48.8813C317.392 46.536 318.851 44.5738 320.739 43.2096C322.553 41.906 324.764 41.1533 327.109 41.1533H331.115C333.46 41.1533 335.671 41.906 337.485 43.2096C339.373 44.5738 340.832 46.536 341.544 48.8813C342.243 51.1796 343.647 53.1082 345.482 54.4656C346.04 54.8756 346.631 55.2317 347.256 55.5341C348.694 56.2263 350.3 56.6093 351.973 56.6093C354.204 56.6093 356.254 57.4023 357.847 58.7261C359.896 60.4128 361.2 62.9732 361.2 65.8359Z" fill="#FF158B"/>
<path d="M366.408 73.967V85.8413H291.816V73.967H297.024V81.8093H361.2V73.967H366.408Z" fill="#E4E4E4"/>
<path d="M329.114 56.1372C332.257 56.1372 334.805 53.7152 334.805 50.7276C334.805 47.74 332.257 45.318 329.114 45.318C325.97 45.318 323.422 47.74 323.422 50.7276C323.422 53.7152 325.97 56.1372 329.114 56.1372Z" fill="#2E2E2E"/>
<path d="M206.122 125.511C203.846 125.081 201.719 121.278 200.98 119.819C200.799 119.462 200.741 119.057 200.817 118.662L201.723 113.86C201.723 113.86 203.812 114.217 203.651 116.999C203.634 117.288 203.693 117.577 203.797 117.845L204.597 119.939L206.962 118.107L205.666 114.445C205.666 114.445 203.93 114.922 203.033 114.637C201.192 114.049 203.606 112.614 204.369 112.461C205.131 112.308 206.811 111.698 207.574 112.995C208.337 114.292 208.795 115.055 208.795 115.055C208.795 115.055 209.635 112.155 209.062 105.669C209.037 105.376 209.768 105.383 209.973 105.591C210.588 106.216 211.567 108.122 211.619 113.911C211.619 113.911 211.722 107.164 212.879 106.47C213.834 105.897 214.316 109.2 213.644 114.8C213.644 114.8 214.889 109.951 215.781 109.943C217.284 109.928 215.801 122.892 212.021 126.756L206.122 125.511Z" fill="#F9B384"/>
<path d="M213.259 123.527C213.192 124.172 213.118 124.797 213.037 125.402V125.409C212.769 127.559 212.433 129.481 212.043 131.127C212.023 131.208 212.009 131.282 211.989 131.356C210.84 136.067 210.632 138.372 206.707 137.753L202.668 133.157L202.628 133.11L202.332 132.774L203.152 130.355L203.26 130.039L203.865 128.278L203.938 128.05L204.973 125.019L205.39 123.789L213.259 123.527Z" fill="#F9B384"/>
<path d="M138.229 290.899L137.2 294.111C130.151 296.426 126.04 299.08 125.776 302.175H146.16L147.795 291.418C143.667 292.426 140.357 291.725 138.229 290.899Z" fill="#0B8056"/>
<path d="M140.784 282.912L138.229 290.899C140.357 291.724 143.667 292.426 147.795 291.418L148.848 284.48L140.784 282.912Z" fill="#F9B384"/>
<path d="M175.634 290.543L176.232 282.408L166.656 282.912L166.133 290.411C170.187 291.703 173.539 291.198 175.634 290.543Z" fill="#F9B384"/>
<path d="M187.152 302.177C186.888 299.082 183.288 294.84 175.392 293.832L175.634 290.543C173.537 291.198 170.187 291.703 166.133 290.411L165.312 302.177H187.152Z" fill="#0B8056"/>
<path d="M167.872 127.599L156.321 127.68V110.208H167.523L167.53 111.276L167.583 116.814L167.664 125.704L167.872 127.599Z" fill="#F9B384"/>
<path d="M167.583 117.654C165.507 119.838 160.09 117.371 157.806 114.966L167.529 112.116L167.583 117.654Z" fill="#E28B6D"/>
<path d="M170.265 106.176C170.258 107.466 170.177 108.817 169.962 110.107C169.398 113.629 167.906 116.673 164.465 116.767C156.334 117.002 154.016 112.352 152.483 108.548C150.951 104.738 153.438 95.5786 153.438 95.5786L163.961 94.537L169.74 99.2746C169.74 99.2746 170.298 102.493 170.265 106.176Z" fill="#F9B384"/>
<path d="M152.811 106.369C152.811 106.369 155.131 106.262 155.528 100.274C159.676 101.662 162.706 100.397 165.109 97.6349C167.158 100.341 172.894 101.19 174.833 95.6475C176.232 91.644 172.368 85.68 166.74 89.292C161.225 86.5049 152.858 86.6964 150.451 93.5324C150.451 93.5324 142.081 97.3913 150.943 105.887C151.121 106.057 152.811 106.369 152.811 106.369Z" fill="#05402A"/>
<path d="M184.802 190.394L178.416 286.944H163.408L167.16 193.255L169.456 192.192L184.802 190.394Z" fill="#05402A"/>
<path d="M145.713 177.185L135.185 286.944H151.536L167.105 195.776L184.8 190.4L185.585 170.912L146.16 170.016L145.713 177.185Z" fill="#0B8056"/>
<path opacity="0.6" d="M148.06 177.423C156.991 180.629 177.947 176.964 182.298 172.499L179.207 166.315L144.74 170.895L148.06 177.423Z" fill="#05402A"/>
<path d="M181.494 171.011C181.205 171.132 180.909 171.259 180.607 171.373C177.267 172.731 173.463 173.92 169.411 174.707C166.992 175.184 164.472 175.506 161.905 175.627C158.034 175.822 154.056 175.567 150.118 174.673L155.124 127.996L155.736 122.304C155.736 122.304 162.288 130.368 169.512 121.464L181.494 171.011Z" fill="white"/>
<path opacity="0.3" d="M161.905 175.627C158.034 175.822 154.056 175.567 150.118 174.673L155.124 127.996L156.912 125.412C161.327 136.151 165.85 159.929 161.905 175.627Z" fill="#56FFC2"/>
<path d="M156.324 120.456C161.302 141.59 163.35 163.338 156.017 187.488C150.578 189.556 144.656 189.533 138.321 187.711L139.889 143.808L102.984 169.176L100.745 155.345C114.93 141.78 139.458 121.288 156.324 120.456Z" fill="#16FFAB"/>
<path opacity="0.3" d="M180.607 171.373C177.267 172.731 173.463 173.92 169.411 174.707C167.187 161.952 166.696 140.999 168.504 131.544L180.607 171.373Z" fill="#56FFC2"/>
<path opacity="0.6" d="M212.043 131.127C212.023 131.208 212.009 131.282 211.989 131.356C210.84 136.067 210.632 138.372 206.707 137.753L202.668 133.157L202.628 133.11L203.152 130.355L203.26 130.039L203.865 128.278L203.938 128.05L212.043 131.127Z" fill="#E28B6D"/>
<path d="M211.344 135.408C211.344 135.408 201.432 156.408 195.552 156.912C189.852 157.401 187.152 151.872 187.152 151.872L191.184 182.562C186.446 184.78 181.279 185.862 175.278 184.8C169.949 167.496 167.934 145.122 167.538 120.204C171.852 120.473 180.397 120.841 183.456 122.808C188.945 126.336 195.72 138.936 195.72 138.936L203.616 128.184L211.344 135.408Z" fill="#16FFAB"/>
<path d="M90.5083 105.818C90.5083 105.818 91.1081 95.7717 92.1312 96.2455C93.1543 96.7193 95.2039 105.455 95.2039 105.455L93.0115 108.993L90.5083 105.818Z" fill="#800B46"/>
<path d="M120.674 287.225L120.972 290.531C121.496 296.367 117.19 301.525 111.352 302.049L110.502 302.124C104.666 302.649 99.508 298.343 98.9839 292.505L98.6865 289.199L120.674 287.225Z" fill="#FF55AB"/>
<path d="M106.293 127.127L84.3064 129.103L98.6929 289.202L120.68 287.226L106.293 127.127Z" fill="#FF891D"/>
<path opacity="0.3" d="M98.9154 124.552L91.1062 125.254L103.716 265.587L111.526 264.885L98.9154 124.552Z" stroke="#80450F" stroke-width="2" stroke-miterlimit="10"/>
<path d="M120.671 287.226L98.6899 289.202L98.112 282.751L97.7088 278.268L96.4656 264.492L118.453 262.517L119.69 276.293L120.093 280.775L120.671 287.226Z" fill="#05402A"/>
<path d="M119.687 276.3L97.7056 278.275L98.1084 282.758L120.09 280.783L119.687 276.3Z" fill="#FF891D"/>
<path d="M84.3007 129.103L90.4075 104.627C90.4075 104.627 92.5159 105.563 95.0728 103.984L106.288 127.129L84.3007 129.103Z" fill="#FF158B"/>
<path d="M154.027 105.356C153.928 104.995 152.289 104.499 151.927 104.399C151.368 104.244 150.758 104.168 150.214 104.415C148.23 105.313 148.495 108.153 149.523 109.647C150.106 110.494 150.958 111.144 151.951 111.428C152.31 111.53 155.724 111.572 155.575 111.023C155.573 111.021 154.031 105.37 154.027 105.356Z" fill="#F9B384"/>
<path d="M91.5599 162.456C91.0442 160.836 89.3474 159.929 87.7413 160.484C85.2398 161.347 83.0608 162.812 82.7248 165.305C82.4174 167.575 83.553 174.826 88.6233 175.757L88.21 172.032C88.21 172.032 91.3146 171.308 91.9346 169.962C92.3697 169.02 92.3982 165.087 91.5599 162.456Z" fill="#F9B384"/>
<path d="M185.603 137.521C185.87 139.107 186.097 140.7 186.314 142.291C186.539 143.882 186.718 145.48 186.922 147.074L187.443 151.867C187.594 153.466 187.743 155.067 187.841 156.673L187.58 156.704C187.305 155.118 187.081 153.527 186.86 151.934L186.26 147.151C186.09 145.554 185.897 143.958 185.749 142.358C185.593 140.759 185.447 139.158 185.341 137.552L185.603 137.521Z" fill="#0B8056"/>
<path d="M140.411 137.263C140.408 139.045 140.364 140.824 140.312 142.604C140.267 144.383 140.176 146.162 140.109 147.939L139.818 153.271C139.699 155.047 139.576 156.825 139.405 158.597L139.143 158.585C139.138 156.803 139.183 155.024 139.233 153.243L139.447 147.907C139.549 146.13 139.625 144.352 139.747 142.575C139.863 140.799 139.988 139.022 140.152 137.248L140.411 137.263Z" fill="#0B8056"/>
<path d="M162.184 105.19C162.327 105.823 162.064 106.421 161.601 106.526C161.137 106.63 160.645 106.2 160.504 105.566C160.361 104.933 160.623 104.335 161.087 104.231C161.55 104.126 162.041 104.557 162.184 105.19Z" fill="#102048"/>
<path d="M168.882 104.407C168.855 105.056 168.447 105.566 167.971 105.546C167.496 105.526 167.133 104.983 167.162 104.335C167.188 103.686 167.597 103.176 168.072 103.196C168.546 103.216 168.909 103.757 168.882 104.407Z" fill="#102048"/>
<path d="M165.147 104.938C165.377 105.494 165.34 106.092 165.49 106.547C165.566 106.777 165.67 106.981 165.816 107.105C165.95 107.228 166.169 107.308 166.446 107.416C166.732 107.527 167.036 107.723 167.242 108.016C167.462 108.3 167.523 108.793 167.323 109.116C167.145 109.439 166.888 109.617 166.666 109.78C166.436 109.934 166.214 110.101 165.974 110.245L165.801 110.047C165.977 109.828 166.17 109.632 166.357 109.425C166.548 109.229 166.723 109.037 166.79 108.859C166.933 108.548 166.627 108.209 166.187 108.032C165.96 107.928 165.633 107.838 165.367 107.567C165.112 107.307 164.986 106.982 164.936 106.678C164.825 106.055 164.951 105.523 164.892 105.005L165.147 104.938Z" fill="#E28B6D"/>
<path d="M158.977 103.488C159.076 103.09 159.319 102.712 159.662 102.44C160 102.159 160.442 102.006 160.88 101.984C161.762 101.931 162.636 102.433 162.999 103.176L162.794 103.338C162.211 102.88 161.567 102.63 160.914 102.653C160.257 102.67 159.66 103.008 159.215 103.601L158.977 103.488Z" fill="#102048"/>
<path d="M165.913 102.665C166.012 102.354 166.187 102.058 166.441 101.816C166.689 101.568 167.036 101.403 167.395 101.344C168.117 101.225 168.892 101.593 169.178 102.233L168.968 102.391C168.495 102.073 167.98 101.939 167.494 102.006C167.251 102.038 167.02 102.131 166.792 102.263C166.569 102.403 166.364 102.594 166.14 102.799L165.913 102.665Z" fill="#102048"/>
<path d="M162.195 111.446C163.368 113.282 164.932 113.482 166.14 111.549L162.195 111.446Z" fill="white"/>
<path opacity="0.4" d="M170.297 105.728C170.29 107.018 170.177 108.817 169.962 110.107C169.149 109.845 168.558 109.086 168.558 108.179C168.558 107.164 169.336 105.882 170.297 105.728Z" fill="#FC8879"/>
<path opacity="0.4" d="M159.331 111.547C160.528 111.547 161.498 110.577 161.498 109.38C161.498 108.183 160.528 107.213 159.331 107.213C158.134 107.213 157.164 108.183 157.164 109.38C157.164 110.577 158.134 111.547 159.331 111.547Z" fill="#FC8879"/>
<path d="M152.608 107.515C152.179 107.224 151.786 106.905 151.397 106.717C151.203 106.621 151.022 106.564 150.862 106.578C150.699 106.589 150.513 106.685 150.303 106.835L150.083 106.692C150.173 106.423 150.367 106.122 150.721 106.005C151.072 105.882 151.43 105.981 151.694 106.117C152.23 106.41 152.594 106.84 152.818 107.355L152.608 107.515Z" fill="#E28B6D"/>
<path opacity="0.6" d="M91.9346 169.961L88.8148 179.437L88.1714 172.032C90.1101 171.61 91.1685 170.834 91.9346 169.961Z" fill="#6F3428" stroke="#80450F" stroke-miterlimit="10"/>
<path d="M40.3905 302.237H474.818" stroke="#05402A" stroke-width="8" stroke-miterlimit="10"/>
</g>
<defs>
<clipPath id="clip0_626_743">
<rect width="504" height="336" fill="white"/>
</clipPath>
</defs>
</svg>
