<svg width="398" height="346" viewBox="0 0 398 346" fill="none" xmlns="http://www.w3.org/2000/svg">
<g clip-path="url(#clip0_626_602)">
<path d="M398 0H0V346H398V0Z" fill="#2E2E2E"/>
<path d="M232.659 171.6C232.659 171.6 216.09 204.737 199.261 227.611C192.564 236.714 185.826 244.191 180.076 247.31C174.447 250.362 169.681 255.102 165.738 260.356C155.524 273.959 150.813 290.989 150.813 290.989L107.777 225.898C107.777 225.898 109.246 162.272 114.413 151.628C121.944 136.118 125.581 104.781 128.474 98.5408C130.62 93.913 136.749 70.0062 137.338 68.2485C137.594 67.4908 139.632 66.3299 142.281 66.3334C144.406 66.3334 148.016 68.3869 148.925 72.6081C153.528 93.9407 147.987 108.011 148.051 108.637C149.674 125.032 144.794 137.201 148.217 140.424C148.345 140.543 148.58 140.486 148.916 140.274C154.848 136.466 191.672 82.7961 196.205 81.637C200.995 80.4139 232.659 171.6 232.659 171.6Z" fill="#FFB27D"/>
<path d="M163.76 278.106C163.76 278.106 163.173 307.032 161.496 345.988H52.9426C77.7553 293.088 99.3269 248.563 99.3269 248.563C99.3269 248.563 161.136 250.452 163.76 278.106Z" fill="#FF55AB"/>
<path d="M270.285 59.4549L256.957 78.9866L243.881 98.155C243.083 99.1169 242.16 99.4508 241.162 99.3556C238.025 99.058 234.142 94.5324 231.115 92.0273L230.809 91.7747C226.818 88.4739 226.254 82.5106 229.556 78.5247L249.544 54.3687V54.367L255.473 47.203C258.774 43.2136 264.737 42.6497 268.726 45.9505L269.032 46.2031C273.023 49.5022 273.585 55.4655 270.285 59.4549Z" fill="#FFB27D"/>
<path d="M256.958 78.9866L243.881 98.155C243.083 99.1169 242.161 99.4508 241.162 99.3556L249.544 54.3687C249.562 54.6213 250.986 74.8052 256.958 78.9866Z" fill="#EFA26F"/>
<path d="M199.261 227.609C192.564 236.712 185.826 244.189 180.076 247.309C174.447 250.36 169.681 255.101 165.738 260.355C161.202 258.24 156.031 255.761 150.979 253.305C144.825 250.315 144.588 241.579 150.617 238.342C150.676 238.311 150.733 238.278 150.79 238.247C156.438 235.015 162.226 223.608 162.226 223.608L199.261 227.609Z" fill="#EFA26F"/>
<path d="M137.038 69.238L133.552 83.3116C133.552 83.3116 136.601 84.5589 138.558 83.5901C140.515 82.6213 142.112 69.9958 137.038 69.238Z" fill="#FFC197"/>
<path d="M237.315 234.259H162.336C154.96 234.259 148.926 228.227 148.926 220.854V56.0849C148.926 48.7116 154.96 42.6791 162.336 42.6791H237.315C244.69 42.6791 250.724 48.7116 250.724 56.0849V220.854C250.724 228.227 244.69 234.259 237.315 234.259Z" fill="#0B8056"/>
<path d="M245.68 57.3529V218.303C245.68 223.763 241.243 228.23 235.824 228.23H163.827C158.408 228.23 153.972 223.763 153.972 218.303V57.3529C153.972 51.8931 158.408 47.4262 163.827 47.4262H235.824C241.243 47.4262 245.68 51.8931 245.68 57.3529Z" fill="#96FFD9"/>
<path d="M235.824 47.4262L164.718 228.23H163.827C158.408 228.23 153.972 223.763 153.972 218.303V57.3529C153.972 51.8931 158.408 47.4262 163.827 47.4262H235.824Z" fill="#D5FFF0"/>
<path d="M214.871 53.412H184.781C182.331 53.412 180.325 51.407 180.325 48.9573V48.2566C180.325 45.807 182.331 43.8019 184.781 43.8019H214.871C217.322 43.8019 219.327 45.807 219.327 48.2566V48.9573C219.327 51.407 217.322 53.412 214.871 53.412Z" fill="#0B8056"/>
<path d="M263.651 133.215L261.662 133.969L248.298 139.047C247.985 139.166 247.668 139.267 247.352 139.346C242.927 140.497 238.219 138.137 236.559 133.772L236.364 133.258C234.585 128.581 236.959 123.297 241.638 121.519L254.097 116.785L255.002 116.441L256.99 115.687C261.669 113.908 266.952 116.282 268.73 120.962L268.925 121.475C270.704 126.155 268.332 131.437 263.651 133.215Z" fill="#FFB27D"/>
<path d="M252.797 133.521C250.567 134.366 246.53 135.866 244.37 136.175C243.759 136.263 242.633 135.931 241.583 134.781C240.953 134.092 240.349 133.11 239.902 131.75C239.693 131.11 239.518 130.473 239.445 129.816C239.362 129.046 239.385 128.278 239.518 127.515C239.641 126.828 240.11 126.203 240.793 125.873C240.795 125.871 240.8 125.871 240.804 125.868C243.1 124.771 246.194 123.435 248.909 122.69C250.785 122.173 252.683 123 253.277 124.641L253.557 125.408L254.992 129.335C255.585 130.97 254.62 132.835 252.797 133.521Z" fill="#FFD3B6"/>
<path d="M252.797 133.521C250.567 134.366 246.53 135.866 244.37 136.175C243.759 136.263 242.633 135.931 241.582 134.781C241.47 134.52 241.368 134.243 241.269 133.949C241.06 133.309 240.885 132.672 240.812 132.015C240.729 131.245 240.752 130.477 240.885 129.714C241.008 129.027 241.477 128.402 242.16 128.072C242.162 128.07 242.167 128.07 242.171 128.067C244.467 126.97 247.563 125.634 250.276 124.889C251.479 124.557 252.687 124.776 253.557 125.409L254.992 129.337C255.585 130.97 254.619 132.835 252.797 133.521Z" fill="#FFC197"/>
<path d="M257.587 151.999L247.281 154.804C244.149 155.657 240.89 153.792 240.037 150.66L239.72 149.494C238.867 146.363 240.733 143.106 243.865 142.253L254.171 139.448C257.303 138.595 260.562 140.46 261.415 143.592L261.733 144.758C262.583 147.887 260.718 151.147 257.587 151.999Z" fill="#FFB27D"/>
<path d="M252.013 151.494C250.12 151.999 246.698 152.892 244.905 152.989C244.252 153.025 242.946 152.473 242.093 150.759C241.884 150.344 241.705 149.863 241.565 149.306C241.441 148.801 241.345 148.299 241.335 147.792C241.323 147.194 241.399 146.605 241.565 146.029C241.714 145.508 242.147 145.06 242.73 144.853C242.735 144.851 242.737 144.851 242.74 144.848C244.704 144.154 247.341 143.325 249.624 142.927C251.2 142.651 252.695 143.408 253.064 144.708L253.33 145.635L254.125 148.422C254.491 149.711 253.56 151.083 252.013 151.494Z" fill="#FFD3B6"/>
<path d="M252.014 151.494C250.12 151.999 246.698 152.892 244.905 152.989C244.253 153.025 242.946 152.474 242.093 150.759C241.979 150.289 241.896 149.816 241.885 149.337C241.873 148.742 241.949 148.15 242.115 147.574C242.264 147.057 242.697 146.605 243.28 146.398C243.285 146.396 243.287 146.396 243.29 146.393C245.254 145.699 247.893 144.872 250.174 144.476C251.479 144.246 252.73 144.727 253.33 145.637L254.125 148.424C254.491 149.711 253.561 151.083 252.014 151.494Z" fill="#FFC197"/>
<path d="M88.7609 270.51C88.7609 270.51 109.974 290.822 124.273 298.664L135.1 290.986V302.312C135.1 302.312 156.393 306.077 163.109 302.312V271.427L103.302 241.453L88.7609 270.51Z" fill="#FF158B"/>
<path d="M167.627 299.854C159.389 301.542 141.633 295.072 141.633 295.072L144.497 267.416L124.432 290.391C114.221 286.592 98.2506 276.679 88.7609 270.51C84.0368 267.437 80.9186 265.294 80.9186 265.294C94.3087 243.752 107.778 223.604 107.778 223.604C111.732 231.51 121.089 238.377 131.231 243.868C148.087 252.995 167.113 258.327 167.113 258.327C167.106 274.765 167.627 299.854 167.627 299.854Z" fill="#D5FFF0"/>
<path d="M263.325 113.469C263.253 113.495 263.178 113.521 263.102 113.545L249.591 117.014C243.65 118.54 237.507 115.327 235.938 109.872L235.135 107.078C233.628 101.842 236.867 96.3662 242.387 94.5912L246.848 93.4459L255.898 91.1225C261.839 89.5967 267.982 92.8093 269.552 98.264L270.354 101.058C271.841 106.222 268.709 111.618 263.325 113.469Z" fill="#FFB27D"/>
<path d="M257.134 109.698L250.57 112.656C250.56 112.658 250.548 112.661 250.529 112.666C250.266 112.737 249.999 112.791 249.735 112.831C249.624 112.848 249.511 112.86 249.402 112.872C249.356 112.877 249.309 112.877 249.264 112.874C248.541 112.85 248.046 112.083 248.357 111.398C248.977 110.047 249.146 108.485 248.729 106.949L248.573 106.378C248.573 106.372 248.572 106.366 248.568 106.36L248.06 104.497C247.656 103.013 246.8 101.769 245.68 100.871C245.545 100.76 245.407 100.658 245.265 100.561C243.967 99.6636 244.298 97.6291 245.817 97.2052C245.831 97.2 245.845 97.1983 245.858 97.1931L253.062 96.1032C254.843 95.6205 256.558 96.989 257.044 98.7709L257.622 100.894L258.854 105.419C259.337 107.199 258.915 109.215 257.134 109.698Z" fill="#FFD3B6"/>
<path d="M257.134 109.698L250.57 112.656C250.56 112.658 250.548 112.661 250.529 112.666C250.375 112.696 249.894 112.777 249.264 112.874C248.541 112.85 248.046 112.083 248.357 111.398C248.977 110.047 249.146 108.485 248.729 106.949L248.573 106.378C248.573 106.373 248.572 106.366 248.568 106.36L248.06 104.497C247.656 103.013 246.8 101.769 245.68 100.871C245.912 100.532 246.26 100.262 246.713 100.136C246.725 100.131 246.741 100.129 246.755 100.124L253.959 99.0338C255.459 98.6256 256.909 99.5338 257.622 100.892L258.854 105.418C259.337 107.199 258.914 109.215 257.134 109.698Z" fill="#FFC197"/>
<path d="M148.925 183.729C148.925 183.729 145.978 158.006 143.257 152.991C140.537 147.974 138.237 137.928 142.42 130.464C146.604 122.998 148.049 108.637 148.049 108.637C149.672 125.032 144.792 137.201 148.215 140.424C148.343 140.543 148.578 140.486 148.914 140.274L148.925 183.729Z" fill="#EFA26F"/>
<path d="M112.395 141.832H214.761C218.315 141.832 221.195 138.952 221.195 135.4V94.413C221.195 90.8596 218.313 87.9808 214.761 87.9808H112.395C108.841 87.9808 105.961 90.8613 105.961 94.413V135.4C105.961 138.952 108.843 141.832 112.395 141.832Z" fill="#16FFAB"/>
<path d="M215.479 81.1595H175.412C172.44 81.1595 170.031 78.7496 170.031 75.7792V68.1827C170.031 65.2106 172.441 62.8024 175.412 62.8024H215.479C218.452 62.8024 220.861 65.2123 220.861 68.1827V75.7792C220.861 78.7496 218.452 81.1595 215.479 81.1595Z" fill="#56FFC2"/>
<path d="M213.721 215.766H167.529C163.969 215.766 161.083 212.88 161.083 209.321V199.559C161.083 196 163.969 193.115 167.529 193.115H213.721C217.28 193.115 220.167 196 220.167 199.559V209.321C220.167 212.88 217.282 215.766 213.721 215.766Z" fill="#56FFC2"/>
<path d="M231.676 183.729H188.036C183.77 183.729 180.315 180.273 180.315 176.01V158.939C180.315 154.674 183.772 151.219 188.036 151.219H231.676C235.941 151.219 239.397 154.676 239.397 158.939V176.01C239.397 180.273 235.939 183.729 231.676 183.729Z" fill="#FF158B"/>
<path d="M355.052 346H275.442C271.625 343.441 251.799 329.921 243.595 319.842C241.858 317.706 235.498 299.299 230.612 284.353C227.561 275.018 225.083 267.029 224.664 265.197C224.519 264.558 224.422 263.294 224.363 261.581V261.564C224.155 255.452 224.439 243.665 224.732 234.302L224.733 234.259L224.739 234.136C224.752 233.725 224.764 233.32 224.778 232.918V232.905C224.78 232.865 224.78 232.823 224.782 232.784C224.835 231.157 224.887 229.625 224.936 228.23C225.059 224.746 225.162 222.125 225.206 221.099L225.223 220.622C225.223 220.622 225.225 220.622 225.227 220.62C225.353 220.549 229.182 218.506 234.301 222.192C235.536 223.083 236.679 225.236 237.72 228.043C238.386 229.836 239.011 231.894 239.593 234.064C241.828 242.408 243.432 252.383 244.289 255.054C245.67 259.37 261.946 278.352 262.964 279.532C262.979 279.552 262.997 279.571 263.012 279.59V249.615L250.724 216.745L245.68 203.251L243.145 196.469C243.145 196.469 239.257 190.087 235.995 182.409C234.567 179.05 233.259 175.443 232.449 172.014C232.256 171.197 232.091 170.389 231.96 169.599C231.96 169.597 231.96 169.597 231.96 169.595C231.48 166.698 231.447 164.009 232.114 161.821C233.302 157.923 235.981 157.19 238.039 157.269C238.251 157.276 238.457 157.295 238.656 157.318C238.857 157.342 239.056 157.38 239.248 157.432C239.61 157.527 239.953 157.672 240.271 157.857C240.274 157.857 240.274 157.859 240.276 157.861C240.804 158.169 241.259 158.593 241.612 159.11C241.612 159.11 243.349 161.378 245.68 164.426C247.213 166.433 249.004 168.777 250.724 171.036C253.787 175.062 256.632 178.818 257.414 179.918C261.642 185.868 273.025 205.256 273.025 205.256L286.349 205.815C288.46 205.903 290.469 206.744 292.013 208.185C296.751 212.608 306.965 222.18 308.218 223.604C308.218 224.071 316.157 227.888 322.288 231.285C326.675 233.138 335.007 239.705 335.007 239.705C336.734 241.229 338.049 242.747 338.715 244.196C341.572 250.412 349.321 304.473 353.026 331.198C354.218 339.789 354.992 345.555 355.052 346Z" fill="#FFB27D"/>
<path d="M273.024 205.256C273.024 205.256 285.368 225.4 287.001 226.308C288.635 227.216 294.989 228.486 295.714 226.308C296.441 224.128 273.024 205.256 273.024 205.256Z" fill="#EFA26F"/>
<path d="M335.069 239.761C335.048 239.742 335.028 239.724 335.007 239.705C335.007 239.705 326.675 233.138 322.288 231.285C316.659 228.165 309.507 224.694 308.374 223.784C309.68 225.277 318.874 235.678 322.411 236.458C325.517 237.143 332.572 239.072 335.069 239.761Z" fill="#EFA26F"/>
<path d="M263.012 279.59V249.613C263.012 249.613 270.135 261.526 270.68 268.058C271.225 274.591 267.721 285.168 263.012 279.59Z" fill="#EFA26F"/>
<path d="M237.168 169.59C236.126 167.805 234.261 164.568 233.621 162.757C233.439 162.245 233.462 161.22 234.091 160.129C234.469 159.475 235.062 158.795 235.96 158.189C236.383 157.904 236.81 157.651 237.272 157.482C237.812 157.286 238.374 157.179 238.951 157.172C239.471 157.167 240.013 157.47 240.385 158.006C240.387 158.008 240.389 158.011 240.39 158.013C241.627 159.814 243.192 162.265 244.254 164.485C244.991 166.018 244.758 167.787 243.685 168.566L243.185 168.933L240.62 170.805C239.553 171.58 238.016 171.05 237.168 169.59Z" fill="#FFD3B6"/>
<path d="M237.168 169.59C236.126 167.805 234.261 164.568 233.621 162.757C233.439 162.245 233.462 161.22 234.091 160.129C234.259 159.99 234.439 159.857 234.633 159.724C235.055 159.439 235.483 159.186 235.945 159.016C236.485 158.821 237.047 158.715 237.623 158.707C238.144 158.702 238.686 159.004 239.058 159.541C239.06 159.542 239.061 159.546 239.063 159.548C240.3 161.348 241.865 163.8 242.927 166.019C243.399 167.002 243.474 168.08 243.183 168.931L240.619 170.803C239.553 171.58 238.016 171.05 237.168 169.59Z" fill="#FFC197"/>
<path d="M306.69 92.7574H290.002C285.612 92.7574 282.019 89.1659 282.019 84.7769V71.0338C282.019 66.6448 285.612 63.0533 290.002 63.0533H306.69C311.08 63.0533 314.673 66.6448 314.673 71.0338V84.7769C314.671 89.1659 311.08 92.7574 306.69 92.7574Z" fill="#D5FFF0"/>
<path d="M289.668 77.6631C290.575 80.0522 298.35 86.3287 298.35 86.3287C298.35 86.3287 300.883 84.27 303.231 82.0538C304.987 80.4138 306.63 78.6855 307.017 77.6631C307.938 75.2878 306.96 71.8901 303.562 71.3158C300.179 70.7397 298.35 74.281 298.35 74.281C298.35 74.281 296.52 70.7397 293.124 71.3158C292.534 71.4161 292.014 71.6029 291.568 71.8624C289.452 73.0423 288.919 75.7048 289.668 77.6631Z" fill="#FF158B"/>
<path d="M38.3204 170.118H88.3162C92.3014 170.118 95.5615 173.377 95.5615 177.361V199.289C95.5615 202.948 92.5661 205.943 88.9062 205.943H87.6223L90.031 216.113L74.9088 205.943H37.8896C33.9078 205.943 30.6494 202.685 30.6494 198.704V177.785C30.6494 173.569 34.1016 170.118 38.3204 170.118Z" fill="#D5FFF0"/>
<path d="M36.9794 186.034H89.1087C89.8182 186.034 90.3996 185.452 90.3996 184.743C90.3996 184.034 89.8182 183.453 89.1087 183.453H36.9794C36.2699 183.453 35.6885 184.034 35.6885 184.743C35.6885 185.452 36.2682 186.034 36.9794 186.034Z" fill="#CBE1FD"/>
<path d="M36.9794 191.81H89.1087C89.8182 191.81 90.3996 191.229 90.3996 190.52C90.3996 189.81 89.8182 189.229 89.1087 189.229H36.9794C36.2699 189.229 35.6885 189.81 35.6885 190.52C35.6885 191.231 36.2682 191.81 36.9794 191.81Z" fill="#CBE1FD"/>
<path d="M36.9794 197.589H89.1087C89.8182 197.589 90.3996 197.007 90.3996 196.298C90.3996 195.589 89.8182 195.007 89.1087 195.007H36.9794C36.2699 195.007 35.6885 195.589 35.6885 196.298C35.6885 197.007 36.2682 197.589 36.9794 197.589Z" fill="#CBE1FD"/>
<path d="M65.3793 177.06H87.5098C88.3543 177.06 89.0464 176.368 89.0464 175.524C89.0464 174.68 88.3543 173.988 87.5098 173.988H65.3793C64.5348 173.988 63.8427 174.68 63.8427 175.524C63.8427 176.37 64.5348 177.06 65.3793 177.06Z" fill="#CBE1FD"/>
<path d="M46.36 177.06H59.6757C60.3437 177.06 60.8905 176.514 60.8905 175.846V175.202C60.8905 174.534 60.3437 173.988 59.6757 173.988H46.36C45.6921 173.988 45.1453 174.534 45.1453 175.202V175.846C45.1453 176.515 45.6921 177.06 46.36 177.06Z" fill="#CBE1FD"/>
<path d="M289.526 181.238L320.971 191.516L302.136 173.163L300.223 177.647L292.128 177.687L289.526 181.238Z" fill="#56FFC2"/>
<path d="M320.971 191.516L296.567 172.957L270.493 167.002L320.971 191.516Z" fill="white"/>
<path d="M302.135 173.163L320.971 191.516L308.415 165.803L302.135 173.163Z" fill="white"/>
<path d="M104.103 64.1224L74.7114 68.3142L94.2152 55.0244L95.2084 59.2853L102.355 60.5794L104.103 64.1224Z" fill="#56FFC2"/>
<path d="M74.7114 68.3142L99.1694 55.7077L123.141 54.5019L74.7114 68.3142Z" fill="white"/>
<path d="M94.2152 55.0244L74.7114 68.3142L89.8095 47.5421L94.2152 55.0244Z" fill="white"/>
<path d="M150.248 112.874C150.248 116.708 148.958 120.238 146.782 123.057C146.061 123.993 145.242 124.849 144.342 125.61C141.432 128.079 137.666 129.565 133.551 129.565C129.812 129.565 126.362 128.338 123.579 126.261C122.352 125.347 121.255 124.268 120.321 123.055C118.145 120.237 116.854 116.706 116.854 112.872C116.854 103.653 124.33 96.1793 133.551 96.1793C142.773 96.1793 150.248 103.655 150.248 112.874Z" fill="white"/>
<path d="M140.26 120.764C140.215 120.714 140.172 120.667 140.131 120.624C139.938 120.477 139.746 120.385 138.975 120.252C138.582 120.187 138.037 120.109 137.263 120.008C137.263 120.008 137.097 119.989 137.009 119.982C136.95 119.977 136.888 119.972 136.815 119.965C136.594 119.849 136.536 118.931 136.538 117.962C136.538 117.889 136.54 117.816 136.54 117.744C136.543 117.377 136.555 117.015 136.569 116.69C136.569 116.669 136.571 116.65 136.571 116.63C137.049 116.669 137.365 116.666 137.365 116.666C138.255 116.595 138.81 114.211 139.009 112.284C139.009 112.284 139.449 111.227 139.449 110.083C139.449 109.44 139.31 108.77 138.878 108.244C138.653 107.974 138.445 107.796 138.253 107.684C138.198 107.628 138.141 107.578 138.085 107.53C137.258 106.611 133.894 103.169 131.686 105.16C131.629 104.961 130.911 102.726 127.429 103.457C127.645 103.435 129.189 103.29 129.635 103.914C129.575 103.888 128.227 103.29 127.377 103.812C126.984 104.051 126.74 104.547 126.602 105.07C126.6 105.073 126.6 105.077 126.599 105.08C126.599 105.084 126.597 105.085 126.597 105.089V105.091C126.595 105.096 126.593 105.101 126.593 105.106C126.578 105.177 126.561 105.248 126.545 105.319C126.543 105.329 126.54 105.34 126.538 105.352C126.538 105.355 126.536 105.357 126.536 105.36C126.536 105.362 126.536 105.362 126.536 105.364C126.432 105.904 126.432 106.428 126.495 106.682C126.625 107.227 127.585 108.85 128.222 108.85C128.464 108.85 128.72 108.77 128.949 108.672C128.85 108.959 128.762 109.274 128.689 109.616C128.012 112.798 130.127 115.215 131.222 114.616C131.925 114.234 132.456 115.462 132.456 115.462L132.46 115.457C132.356 117.784 131.717 119.303 131.243 119.681C131.073 119.7 130.707 119.745 130.248 119.818V119.816C130.248 119.816 128.634 119.993 127.405 120.527C127.395 120.531 127.386 120.534 127.376 120.539C127.095 120.655 126.856 120.785 126.678 120.927C126.676 120.93 126.675 120.932 126.673 120.932V120.934C126.58 121.007 126.503 121.084 126.448 121.167C126.419 121.202 126.394 121.237 126.375 121.273C125.965 122.055 125.552 123.23 125.155 124.607C127.516 126.368 130.442 127.409 133.614 127.409C137.104 127.409 140.298 126.148 142.766 124.055C141.859 122.166 140.824 121.192 140.26 120.764Z" fill="#0B8056"/>
<path d="M180.65 104.464H161.683C161.026 104.464 160.487 103.926 160.487 103.269V102.698C160.487 102.041 161.026 101.503 161.683 101.503H180.65C181.308 101.503 181.846 102.041 181.846 102.698V103.269C181.844 103.926 181.308 104.464 180.65 104.464Z" fill="white"/>
<path d="M180.879 115.109H161.451C160.92 115.109 160.486 114.675 160.486 114.144C160.486 113.613 160.92 113.178 161.451 113.178H180.879C181.41 113.178 181.844 113.613 181.844 114.144C181.844 114.673 181.41 115.109 180.879 115.109Z" fill="white"/>
<path d="M172.279 119.676H161.224C160.818 119.676 160.486 119.344 160.486 118.937V118.486C160.486 118.079 160.818 117.747 161.224 117.747H172.279C172.685 117.747 173.017 118.079 173.017 118.486V118.937C173.019 119.344 172.685 119.676 172.279 119.676Z" fill="white"/>
<path d="M194.805 119.676H176.945C176.435 119.676 176.018 119.259 176.018 118.749V118.673C176.018 118.162 176.435 117.745 176.945 117.745H194.805C195.316 117.745 195.733 118.162 195.733 118.673V118.749C195.733 119.259 195.316 119.676 194.805 119.676Z" fill="white"/>
<path d="M211.494 115.109H186.02C185.489 115.109 185.054 114.675 185.054 114.144C185.054 113.613 185.489 113.178 186.02 113.178H211.494C212.025 113.178 212.459 113.613 212.459 114.144C212.459 114.673 212.023 115.109 211.494 115.109Z" fill="white"/>
<path d="M180.879 124.245H161.451C160.92 124.245 160.486 123.811 160.486 123.28C160.486 122.749 160.92 122.314 161.451 122.314H180.879C181.41 122.314 181.844 122.749 181.844 123.28C181.844 123.811 181.41 124.245 180.879 124.245Z" fill="white"/>
<path d="M211.494 124.245H186.02C185.489 124.245 185.054 123.811 185.054 123.28C185.054 122.749 185.489 122.314 186.02 122.314H211.494C212.025 122.314 212.459 122.749 212.459 123.28C212.459 123.811 212.023 124.245 211.494 124.245Z" fill="white"/>
<path d="M199.137 104.464H185.515C184.951 104.464 184.49 104.004 184.49 103.44V102.527C184.49 101.964 184.951 101.503 185.515 101.503H199.137C199.699 101.503 200.161 101.963 200.161 102.527V103.44C200.161 104.004 199.701 104.464 199.137 104.464Z" fill="white"/>
<path d="M181.962 199.55H168.477C168.01 199.55 167.627 199.168 167.627 198.701V198.296C167.627 197.829 168.01 197.447 168.477 197.447H181.962C182.43 197.447 182.812 197.829 182.812 198.296V198.701C182.812 199.168 182.43 199.55 181.962 199.55Z" fill="#11BF80"/>
<path d="M182.125 204.939H168.312C167.935 204.939 167.625 204.63 167.625 204.252C167.625 203.875 167.935 203.566 168.312 203.566H182.125C182.502 203.566 182.812 203.873 182.812 204.252C182.812 204.631 182.502 204.939 182.125 204.939Z" fill="#11BF80"/>
<path d="M176.011 208.188H168.153C167.864 208.188 167.627 207.951 167.627 207.662V207.34C167.627 207.051 167.864 206.814 168.153 206.814H176.011C176.3 206.814 176.537 207.051 176.537 207.34V207.662C176.537 207.951 176.3 208.188 176.011 208.188Z" fill="#11BF80"/>
<path d="M192.026 208.188H179.328C178.965 208.188 178.669 207.892 178.669 207.529V207.475C178.669 207.112 178.967 206.816 179.328 206.816H192.026C192.39 206.816 192.686 207.112 192.686 207.475V207.529C192.686 207.89 192.39 208.188 192.026 208.188Z" fill="#11BF80"/>
<path d="M203.89 204.939H185.78C185.402 204.939 185.093 204.63 185.093 204.252C185.093 203.875 185.402 203.566 185.78 203.566H203.89C204.267 203.566 204.577 203.873 204.577 204.252C204.577 204.631 204.267 204.939 203.89 204.939Z" fill="#11BF80"/>
<path d="M182.125 211.435H168.312C167.935 211.435 167.625 211.126 167.625 210.749C167.625 210.371 167.935 210.062 168.312 210.062H182.125C182.502 210.062 182.812 210.371 182.812 210.749C182.812 211.127 182.502 211.435 182.125 211.435Z" fill="#11BF80"/>
<path d="M203.89 211.435H185.78C185.402 211.435 185.093 211.126 185.093 210.749C185.093 210.371 185.402 210.062 185.78 210.062H203.89C204.267 210.062 204.577 210.371 204.577 210.749C204.577 211.127 204.267 211.435 203.89 211.435Z" fill="#11BF80"/>
<path d="M195.107 199.55H185.421C185.022 199.55 184.693 199.223 184.693 198.822V198.173C184.693 197.774 185.02 197.445 185.421 197.445H195.107C195.506 197.445 195.835 197.772 195.835 198.173V198.822C195.835 199.223 195.506 199.55 195.107 199.55Z" fill="#11BF80"/>
<path d="M190.907 68.4476H177.421C176.954 68.4476 176.572 68.0653 176.572 67.5982V67.1934C176.572 66.7263 176.954 66.3439 177.421 66.3439H190.907C191.374 66.3439 191.756 66.7263 191.756 67.1934V67.5982C191.758 68.0636 191.376 68.4476 190.907 68.4476Z" fill="#11BF80"/>
<path d="M191.071 73.8364H177.259C176.882 73.8364 176.572 73.5267 176.572 73.1496C176.572 72.7724 176.882 72.4628 177.259 72.4628H191.071C191.448 72.4628 191.758 72.7724 191.758 73.1496C191.758 73.5267 191.448 73.8364 191.071 73.8364Z" fill="#11BF80"/>
<path d="M184.956 77.0836H177.098C176.809 77.0836 176.572 76.8466 176.572 76.5577V76.2359C176.572 75.947 176.809 75.71 177.098 75.71H184.956C185.245 75.71 185.482 75.947 185.482 76.2359V76.5577C185.482 76.8483 185.245 77.0836 184.956 77.0836Z" fill="#11BF80"/>
<path d="M200.973 77.0836H188.275C187.911 77.0836 187.615 76.7878 187.615 76.4245V76.3709C187.615 76.0076 187.911 75.7117 188.275 75.7117H200.973C201.336 75.7117 201.632 76.0076 201.632 76.3709V76.4245C201.632 76.7878 201.334 77.0836 200.973 77.0836Z" fill="#11BF80"/>
<path d="M212.837 73.8364H194.726C194.349 73.8364 194.039 73.5267 194.039 73.1496C194.039 72.7724 194.349 72.4628 194.726 72.4628H212.837C213.214 72.4628 213.523 72.7724 213.523 73.1496C213.522 73.5267 213.214 73.8364 212.837 73.8364Z" fill="#11BF80"/>
<path d="M204.051 68.4474H194.366C193.966 68.4474 193.637 68.1205 193.637 67.7191V67.0704C193.637 66.6707 193.964 66.342 194.366 66.342H204.051C204.451 66.342 204.78 66.669 204.78 67.0704V67.7191C204.78 68.1187 204.453 68.4474 204.051 68.4474Z" fill="#11BF80"/>
<path d="M202.828 159.482H188.065C187.553 159.482 187.134 159.063 187.134 158.551V158.108C187.134 157.596 187.553 157.177 188.065 157.177H202.828C203.34 157.177 203.759 157.596 203.759 158.108V158.551C203.757 159.063 203.338 159.482 202.828 159.482Z" fill="#BF1068"/>
<path d="M203.006 165.383H187.884C187.47 165.383 187.133 165.045 187.133 164.632C187.133 164.219 187.47 163.881 187.884 163.881H203.006C203.42 163.881 203.757 164.219 203.757 164.632C203.757 165.044 203.42 165.383 203.006 165.383Z" fill="#BF1068"/>
<path d="M196.311 168.938H187.707C187.39 168.938 187.131 168.678 187.131 168.362V168.011C187.131 167.694 187.39 167.435 187.707 167.435H196.311C196.628 167.435 196.887 167.694 196.887 168.011V168.362C196.887 168.678 196.628 168.938 196.311 168.938Z" fill="#BF1068"/>
<path d="M213.845 168.938H199.943C199.547 168.938 199.221 168.613 199.221 168.217V168.158C199.221 167.762 199.547 167.436 199.943 167.436H213.845C214.242 167.436 214.567 167.762 214.567 168.158V168.217C214.567 168.613 214.243 168.938 213.845 168.938Z" fill="#BF1068"/>
<path d="M226.834 165.383H207.007C206.593 165.383 206.256 165.045 206.256 164.632C206.256 164.219 206.593 163.881 207.007 163.881H226.834C227.248 163.881 227.585 164.219 227.585 164.632C227.585 165.044 227.248 165.383 226.834 165.383Z" fill="#BF1068"/>
<path d="M203.006 172.493H187.884C187.47 172.493 187.133 172.156 187.133 171.742C187.133 171.329 187.47 170.991 187.884 170.991H203.006C203.419 170.991 203.757 171.329 203.757 171.742C203.757 172.156 203.419 172.493 203.006 172.493Z" fill="#BF1068"/>
<path d="M226.834 172.493H207.007C206.593 172.493 206.256 172.156 206.256 171.742C206.256 171.329 206.593 170.991 207.007 170.991H226.834C227.248 170.991 227.585 171.329 227.585 171.742C227.585 172.156 227.248 172.493 226.834 172.493Z" fill="#BF1068"/>
<path d="M203.006 176.195H187.884C187.47 176.195 187.133 175.858 187.133 175.444C187.133 175.031 187.47 174.694 187.884 174.694H203.006C203.419 174.694 203.757 175.031 203.757 175.444C203.757 175.858 203.419 176.195 203.006 176.195Z" fill="#BF1068"/>
<path d="M226.834 176.195H207.007C206.593 176.195 206.256 175.858 206.256 175.444C206.256 175.031 206.593 174.694 207.007 174.694H226.834C227.248 174.694 227.585 175.031 227.585 175.444C227.585 175.858 227.248 176.195 226.834 176.195Z" fill="#BF1068"/>
<path d="M217.216 159.482H206.614C206.176 159.482 205.816 159.124 205.816 158.684V157.973C205.816 157.535 206.174 157.176 206.614 157.176H217.218C217.656 157.176 218.016 157.534 218.016 157.973V158.684C218.014 159.124 217.656 159.482 217.216 159.482Z" fill="#BF1068"/>
<path d="M167.856 57.4947L166.829 58.23L165.798 57.5017C166.027 57.1799 166.404 56.9671 166.829 56.9671C167.252 56.9688 167.627 57.1764 167.856 57.4947Z" fill="white"/>
<path d="M166.83 55.1749C165.798 55.1749 164.886 55.6887 164.334 56.4724L164.985 56.9291C165.395 56.3495 166.07 55.9724 166.83 55.9724C167.584 55.9724 168.255 56.3443 168.664 56.9152L169.313 56.4499C168.757 55.6766 167.85 55.1749 166.83 55.1749Z" fill="white"/>
<path d="M166.83 51.765C164.647 51.765 162.718 52.8497 161.548 54.5088L162.201 54.9655C163.225 53.514 164.919 52.5625 166.83 52.5625C168.724 52.5625 170.408 53.4985 171.436 54.9309L172.081 54.4655C170.91 52.8307 168.994 51.765 166.83 51.765Z" fill="white"/>
<path d="M166.83 53.6317C165.277 53.6317 163.902 54.3998 163.064 55.5762L163.715 56.033C164.409 55.0642 165.546 54.4292 166.83 54.4292C168.103 54.4292 169.233 55.0538 169.929 56.0087L170.574 55.5468C169.735 54.386 168.37 53.6317 166.83 53.6317Z" fill="white"/>
<path d="M161.069 166.146C161.069 167.653 161.576 169.038 162.431 170.144C162.714 170.512 163.036 170.848 163.389 171.147C163.741 171.446 164.123 171.706 164.531 171.926C165.454 172.42 166.506 172.702 167.627 172.702C169.027 172.702 170.321 172.263 171.386 171.519C171.439 171.483 171.493 171.443 171.545 171.405C172.026 171.045 172.457 170.623 172.824 170.145C173.679 169.038 174.186 167.653 174.186 166.147C174.186 162.527 171.249 159.592 167.627 159.592C164.005 159.591 161.069 162.527 161.069 166.146Z" fill="white"/>
<path d="M169.403 170.351L168.799 169.817C168.748 169.827 168.698 169.836 168.648 169.844C168.539 169.768 168.42 169.694 168.295 169.625C168.335 169.381 168.368 169.154 168.395 168.953C168.487 168.251 168.497 167.827 168.497 167.762C168.818 167.746 169.034 167.711 169.034 167.711C169.64 167.571 169.669 165.504 169.529 164.426C169.643 164.428 169.754 164.412 169.866 164.362C170.325 164.16 170.351 163.466 170.351 163.466C170.351 163.466 170.218 163.713 170.022 163.793C170.022 163.793 170.789 162.743 169.899 162.025C169.013 161.305 168.108 161.776 167.592 161.807C166.461 161.876 165.729 161.944 165.36 162.687C164.995 163.421 165.139 165.438 165.838 166.18C165.85 166.249 165.862 166.317 165.871 166.386C165.912 166.653 166.009 166.871 166.148 167.045C165.99 167.914 165.632 168.563 165.31 168.993C165.092 169.163 164.893 169.381 164.708 169.642C164.703 169.645 164.696 169.651 164.696 169.651C164.696 169.651 164.697 169.651 164.701 169.652C164.36 170.137 164.08 170.768 163.855 171.509C163.853 171.512 163.853 171.516 163.851 171.519C164.222 171.78 164.623 172 165.047 172.176C165.075 172.189 165.102 172.199 165.13 172.211C165.137 172.213 165.142 172.216 165.149 172.218C165.194 172.237 165.241 172.254 165.286 172.272C165.397 172.315 165.507 172.355 165.62 172.391C165.737 172.429 165.857 172.464 165.976 172.495C166.032 172.509 166.087 172.522 166.142 172.535C166.191 172.547 166.239 172.557 166.289 172.566C166.296 172.567 166.303 172.569 166.31 172.571C166.343 172.578 166.376 172.583 166.409 172.59C166.485 172.604 166.563 172.618 166.641 172.63C166.658 172.631 166.677 172.635 166.694 172.637C166.738 172.644 166.779 172.649 166.822 172.654C166.883 172.661 166.944 172.668 167.004 172.675C167.072 172.682 167.141 172.687 167.21 172.69C167.274 172.695 167.34 172.699 167.406 172.701C167.473 172.702 167.542 172.704 167.612 172.704C167.686 172.704 167.759 172.702 167.833 172.701C167.84 172.701 167.845 172.701 167.852 172.699C167.869 172.699 167.888 172.699 167.906 172.697C167.942 172.697 167.978 172.695 168.015 172.692C168.02 172.69 168.023 172.69 168.029 172.69C168.098 172.687 168.165 172.682 168.234 172.675C169.12 172.592 169.956 172.329 170.706 171.927C170.325 171.275 169.851 170.767 169.403 170.351Z" fill="#56FFC2"/>
<path d="M225.455 204.254C225.455 205.77 225.965 207.166 226.825 208.282C227.111 208.652 227.434 208.991 227.789 209.292C228.94 210.268 230.43 210.856 232.056 210.856C233.534 210.856 234.9 210.371 236 209.55C236.486 209.188 236.919 208.761 237.289 208.282C238.149 207.167 238.66 205.771 238.66 204.254C238.66 200.609 235.704 197.654 232.058 197.654C228.412 197.654 225.455 200.607 225.455 204.254Z" fill="white"/>
<path d="M235.433 207.994C235.424 207.977 235.413 207.96 235.4 207.944C235.374 207.906 235.337 207.87 235.294 207.835L235.292 207.833C235.209 207.766 235.097 207.705 234.967 207.652C234.962 207.65 234.958 207.648 234.953 207.647C234.38 207.396 233.628 207.314 233.628 207.314C233.413 207.282 233.244 207.261 233.164 207.252C232.942 207.074 232.645 206.366 232.596 205.282L232.598 205.285C232.598 205.285 232.846 204.711 233.173 204.891C233.683 205.169 234.669 204.041 234.354 202.559C234.32 202.4 234.278 202.252 234.233 202.119C234.341 202.164 234.46 202.202 234.572 202.202C234.868 202.202 235.317 201.445 235.377 201.19C235.439 200.936 235.372 200.1 234.965 199.853C234.569 199.609 233.941 199.889 233.913 199.9C234.116 199.616 234.808 199.673 234.934 199.687C233.318 199.351 232.984 200.388 232.956 200.481C231.928 199.552 230.359 201.157 229.973 201.586C229.947 201.609 229.921 201.633 229.895 201.659C229.807 201.709 229.708 201.794 229.604 201.919C229.402 202.164 229.338 202.477 229.338 202.777C229.338 203.31 229.542 203.803 229.542 203.803C229.636 204.7 229.895 205.813 230.31 205.846C230.31 205.846 230.457 205.847 230.679 205.828C230.679 205.839 230.681 205.847 230.681 205.858C230.688 206.008 230.693 206.178 230.695 206.347V206.449C230.696 206.901 230.669 207.33 230.567 207.384C230.532 207.387 230.502 207.389 230.477 207.392C230.435 207.394 230.357 207.404 230.357 207.404C229.997 207.451 229.741 207.487 229.559 207.519C229.199 207.579 229.109 207.622 229.021 207.692C229 207.711 228.98 207.733 228.959 207.757C228.696 207.956 228.213 208.41 227.791 209.29C228.942 210.266 230.432 210.854 232.058 210.854C233.538 210.854 234.901 210.37 236.002 209.548C235.817 208.906 235.625 208.358 235.433 207.994Z" fill="#FF158B"/>
<path d="M225.455 71.5857C225.455 73.1012 225.965 74.4973 226.825 75.6114C227.111 75.9816 227.434 76.3207 227.789 76.6217C228.94 77.5974 230.43 78.1856 232.056 78.1856C233.534 78.1856 234.9 77.6995 236 76.8795C236.486 76.5179 236.919 76.0906 237.289 75.6114C238.149 74.4973 238.66 73.1012 238.66 71.5857C238.66 67.9406 235.704 64.9857 232.058 64.9857C228.412 64.9857 225.455 67.9406 225.455 71.5857Z" fill="white"/>
<path d="M235.433 75.3259C235.424 75.3086 235.413 75.2931 235.4 75.2758C235.374 75.2377 235.337 75.2014 235.294 75.1668L235.292 75.165C235.209 75.0993 235.097 75.0387 234.967 74.9834C234.962 74.9817 234.958 74.9799 234.953 74.9782C234.38 74.7291 233.628 74.646 233.628 74.646V74.6478C233.413 74.6132 233.244 74.5924 233.164 74.5838C233.11 74.5405 233.053 74.4696 232.996 74.3675V74.3658C232.813 74.044 232.633 73.4385 232.596 72.6133L232.598 72.6167C232.598 72.6167 232.846 72.0441 233.173 72.2223C233.683 72.5008 234.669 71.3746 234.354 69.892C234.32 69.7311 234.278 69.5841 234.233 69.4508C234.341 69.4958 234.46 69.5339 234.572 69.5339C234.868 69.5339 235.317 68.7761 235.377 68.5236C235.439 68.2675 235.372 67.4319 234.965 67.1845C234.569 66.9423 233.941 67.2209 233.913 67.233C234.116 66.9493 234.81 67.0064 234.934 67.0185C233.318 66.6829 232.984 67.7208 232.956 67.8125C231.928 66.8853 230.359 68.4907 229.973 68.918C229.947 68.9405 229.921 68.9647 229.895 68.9907C229.807 69.0426 229.708 69.1256 229.604 69.2519C229.402 69.4958 229.338 69.809 229.338 70.1082C229.338 70.6428 229.542 71.1341 229.542 71.1341C229.636 72.0337 229.895 73.1444 230.31 73.1773C230.31 73.1773 230.457 73.179 230.679 73.1617C230.679 73.1703 230.681 73.179 230.681 73.1894C230.688 73.3399 230.693 73.5094 230.695 73.6807V73.7828C230.696 74.2343 230.669 74.6616 230.567 74.717C230.532 74.7187 230.502 74.7222 230.477 74.7239C230.435 74.7273 230.357 74.736 230.357 74.736C229.997 74.7827 229.741 74.819 229.559 74.8502C229.199 74.9125 229.109 74.954 229.021 75.0232C229 75.0439 228.98 75.0664 228.959 75.0889C228.696 75.2879 228.213 75.7429 227.791 76.6234C227.853 76.6771 227.917 76.729 227.983 76.7791C227.993 76.7878 228.005 76.7964 228.016 76.8051C228.064 76.8431 228.113 76.8795 228.163 76.9141C228.198 76.9417 228.232 76.9677 228.268 76.9919C228.305 77.0179 228.341 77.0421 228.378 77.0646C228.429 77.1026 228.483 77.1372 228.538 77.1701C228.575 77.1943 228.611 77.2168 228.649 77.2393C228.694 77.267 228.741 77.2947 228.788 77.3206C228.84 77.35 228.891 77.3794 228.943 77.4071C228.949 77.4088 228.952 77.4123 228.957 77.414C228.959 77.4158 228.962 77.4175 228.966 77.4192H228.968C228.975 77.4227 228.983 77.4279 228.99 77.4313C229.032 77.4538 229.073 77.4746 229.115 77.4953C229.118 77.4953 229.12 77.4971 229.123 77.4988C229.135 77.5057 229.149 77.5126 229.161 77.5178C229.184 77.5299 229.208 77.5421 229.232 77.5524C229.255 77.5628 229.277 77.5732 229.302 77.5853C229.353 77.6095 229.409 77.6337 229.463 77.6562C229.516 77.6787 229.572 77.7012 229.625 77.722C229.651 77.7324 229.675 77.7427 229.7 77.7514C229.724 77.76 229.748 77.7704 229.774 77.7791C229.824 77.7981 229.876 77.8154 229.926 77.8327C229.98 77.8517 230.032 77.8673 230.085 77.8846C230.13 77.8984 230.175 77.9123 230.22 77.9261C230.226 77.9278 230.229 77.9278 230.234 77.9296C230.262 77.9382 230.291 77.9469 230.321 77.9538C230.478 77.997 230.639 78.0351 230.802 78.0662C230.873 78.0801 230.944 78.0939 231.015 78.1043C231.034 78.1078 231.051 78.1112 231.07 78.113C231.074 78.113 231.079 78.1147 231.082 78.1147C231.084 78.1147 231.087 78.1147 231.089 78.1164C231.136 78.1233 231.179 78.1285 231.228 78.1337C231.238 78.1354 231.247 78.1372 231.257 78.1372C231.264 78.1389 231.271 78.1389 231.278 78.1406C231.321 78.1476 231.364 78.151 231.406 78.1545C231.413 78.1545 231.421 78.1562 231.428 78.1562C231.44 78.1579 231.454 78.1597 231.468 78.1614C231.546 78.1683 231.622 78.1735 231.7 78.177H231.712C231.736 78.1787 231.759 78.1804 231.785 78.1804C231.8 78.1804 231.814 78.1822 231.83 78.1822C231.906 78.1856 231.982 78.1873 232.058 78.1873C233.538 78.1873 234.901 77.7012 236.002 76.8795C235.817 76.2376 235.625 75.691 235.433 75.3259Z" fill="#FF158B"/>
<path d="M315.055 333.691L291.274 346H275.442C271.625 343.441 251.799 329.921 243.595 319.842C241.858 317.706 235.498 299.299 230.612 284.353V284.346C231.26 286.331 244.898 315.369 248.781 318.669C252.664 321.969 273.052 341.187 278.683 340.992C284.137 340.805 313.174 334.123 314.974 333.71C315.001 333.705 315.027 333.698 315.055 333.691Z" fill="#EFA26F"/>
<path d="M362.905 346H277.169C281.469 344.313 297.92 338.03 314.974 333.71C315.001 333.705 315.027 333.698 315.055 333.691C329.702 329.987 344.779 327.742 352.967 331.11L353.026 331.198L362.905 346Z" fill="#D5FFF0"/>
<path d="M224.78 232.784C224.782 232.784 224.783 232.784 224.785 232.782C226.23 232.252 228.258 231.903 229.244 233.55C230.781 236.114 225.074 258.735 224.361 261.581L224.78 232.784Z" fill="#EFA26F"/>
<path d="M225.223 220.62L224.733 234.302C224.733 234.302 227.611 234.771 229.248 233.55C230.885 232.329 230.016 220.459 225.223 220.62Z" fill="#FFC197"/>
<path d="M167.627 299.854C159.389 301.542 141.633 295.072 141.633 295.072L144.496 267.416L124.432 290.391C114.221 286.592 98.2506 276.679 88.7609 270.51C113.077 267.859 131.231 243.869 131.231 243.869C148.087 252.997 167.113 258.329 167.113 258.329C167.106 274.765 167.627 299.854 167.627 299.854Z" fill="#96FFD9"/>
<path d="M111.092 274.734C111.109 272.89 112.618 271.409 114.463 271.427C116.308 271.444 117.789 272.952 117.772 274.797C117.754 276.641 116.245 278.122 114.401 278.104C112.556 278.087 111.075 276.579 111.092 274.734Z" fill="#FF158B"/>
</g>
<defs>
<clipPath id="clip0_626_602">
<rect width="398" height="346" fill="white"/>
</clipPath>
</defs>
</svg>
