<svg width="370" height="370" viewBox="0 0 370 370" fill="none" xmlns="http://www.w3.org/2000/svg">
<g clip-path="url(#clip0_627_1368)">
<path opacity="0.48" d="M370 0H0V370H370V0Z" fill="#FFEFCA"/>
<g opacity="0.55">
<g opacity="0.55">
<g opacity="0.55">
<g opacity="0.55">
<g opacity="0.21">
<path opacity="0.21" d="M318.2 302.756C329.411 288.393 318.896 269.508 313.923 247.7C310.215 231.435 324.194 218.537 330.277 203.678C335.694 190.454 338.269 174.433 338.173 159.84C338.032 139.927 332.186 119.813 320.679 105.228C302.741 82.5026 273.704 76.0646 247.56 80.4454C236.608 82.2806 225.641 85.7734 214.659 84.2564C198.646 82.0438 185.259 69.671 171.169 60.4728C151.996 47.9594 129.515 40.8702 107.907 45.4508C83.4055 50.6456 62.1231 72.3202 57.7423 101.772C55.7591 115.114 65.0017 138.994 60.7097 151.567C56.3511 164.324 27.9795 202.952 26.8621 232.937C25.6189 266.37 54.8415 283.346 78.4327 302.741C130.751 345.765 296.703 330.284 318.2 302.756Z" fill="#FEAD6C"/>
</g>
<g opacity="0.27">
<path opacity="0.27" d="M265.357 299.234C282.68 298.982 297.073 286.047 298.894 269.079C300.255 256.403 300.803 243.001 298.42 235.549C294.387 222.932 304.562 211.81 308.366 199.659C311.747 188.841 312.702 176.009 311.636 164.48C310.179 148.74 304.192 133.222 294.098 122.448C278.373 105.657 254.975 102.475 234.602 107.655C226.07 109.823 217.634 113.309 208.85 112.835C196.041 112.14 184.615 103.237 172.849 96.8881C156.836 88.2523 138.587 84.1231 121.804 89.1699C102.786 94.8901 87.4237 113.427 85.9585 137.004C85.2925 147.689 94.2243 165.96 91.6787 176.187C89.1035 186.561 69.5305 218.966 70.4333 242.757C70.8625 254.109 85.3221 269.804 101.965 284.212C130.225 308.676 169.216 317.26 205.35 306.974C225.708 301.173 248.137 299.485 265.357 299.234Z" fill="#FEAD6C"/>
</g>
<g opacity="0.21">
<path opacity="0.21" d="M245.547 260.487C245.784 260.347 246.013 260.191 246.242 260.029C251.001 256.551 251.548 248.366 252.244 243.023C253.302 234.906 252.17 226.499 252.051 218.352C251.918 209.065 255.048 201.428 257.032 192.696C258.793 184.926 258.822 176.016 257.55 168.224C255.811 157.583 251.038 147.556 243.726 141.222C232.33 131.343 216.42 131.602 202.945 137.285C197.299 139.668 191.786 142.931 185.844 143.523C177.186 144.381 169.06 139.468 160.832 136.345C149.635 132.09 137.144 131.165 126.089 136.375C113.553 142.28 104.096 156.606 104.236 172.931C104.303 180.331 106.257 187.731 105.036 195.005C103.792 202.39 99.8113 208.414 97.5099 215.31C95.7191 220.668 100.418 228.875 102.86 233.492C106.22 239.856 110.504 245.739 115.521 250.941C125.504 261.287 138.476 268.953 152.699 271.95C168.513 275.287 184.948 273.082 200.873 270.322C214.008 268.043 227.069 265.401 240.049 262.389C241.951 261.945 243.897 261.472 245.547 260.487Z" fill="#FEAD6C"/>
</g>
</g>
</g>
<g opacity="0.21">
<path opacity="0.21" d="M245.132 56.5873C245.242 49.5218 239.514 43.7033 232.338 43.5913C225.162 43.4793 219.256 49.1164 219.145 56.1819C219.035 63.2475 224.763 69.066 231.939 69.1779C239.115 69.2899 245.021 63.6529 245.132 56.5873Z" fill="#FEAD6C"/>
</g>
<g opacity="0.21">
<path opacity="0.21" d="M334.554 98.7234C332.844 100.351 330.114 100.314 328.456 98.6272C326.799 96.9474 326.843 94.2538 328.552 92.6258C330.262 90.9978 332.992 91.0348 334.65 92.722C336.3 94.4018 336.263 97.088 334.554 98.7234Z" fill="#FEAD6C"/>
</g>
<g opacity="0.21">
<path opacity="0.21" d="M50.6013 55.5517C48.8919 57.1797 46.1613 57.1427 44.5036 55.4555C42.846 53.7757 42.8904 51.0821 44.5999 49.4541C46.3093 47.8261 49.0399 47.8631 50.6975 49.5503C52.3477 51.2301 52.3033 53.9163 50.6013 55.5517Z" fill="#FEAD6C"/>
</g>
<g opacity="0.21">
<path opacity="0.21" d="M38.8796 148.326C35.2684 151.774 29.5038 151.685 26.0036 148.126C22.5034 144.574 22.5922 138.898 26.2034 135.45C29.8146 132.001 35.5792 132.097 39.0794 135.649C42.5722 139.209 42.4834 144.885 38.8796 148.326Z" fill="#FEAD6C"/>
</g>
<g opacity="0.21">
<path opacity="0.21" d="M342.583 275.065C338.972 278.514 333.207 278.418 329.707 274.866C326.207 271.314 326.296 265.638 329.907 262.189C333.518 258.741 339.283 258.837 342.783 262.389C346.283 265.941 346.194 271.624 342.583 275.065Z" fill="#FEAD6C"/>
</g>
<g opacity="0.21">
<path opacity="0.21" d="M45.9319 315.514C42.3207 318.962 36.5561 318.866 33.0559 315.314C29.5557 311.762 29.6445 306.086 33.2557 302.638C36.8669 299.189 42.6315 299.278 46.1317 302.838C49.6245 306.39 49.5357 312.065 45.9319 315.514Z" fill="#FEAD6C"/>
</g>
<g opacity="0.21">
<path opacity="0.21" d="M35.8086 122.226C34.6912 123.291 32.9004 123.269 31.82 122.167C30.7322 121.064 30.7618 119.303 31.8792 118.237C32.9966 117.172 34.7874 117.194 35.8678 118.296C36.9556 119.399 36.926 121.153 35.8086 122.226Z" fill="#FEAD6C"/>
</g>
<g opacity="0.21">
<path opacity="0.21" d="M71.2547 315.062C70.1373 316.128 68.3465 316.106 67.2661 315.003C66.1783 313.901 66.2079 312.139 67.3253 311.074C68.4427 310.008 70.2335 310.03 71.3139 311.133C72.4017 312.236 72.3721 313.989 71.2547 315.062Z" fill="#FEAD6C"/>
</g>
<g opacity="0.21">
<path opacity="0.21" d="M309.15 328.516C308.032 329.581 306.242 329.559 305.161 328.456C304.073 327.354 304.103 325.593 305.22 324.527C306.338 323.461 308.129 323.484 309.209 324.586C310.297 325.681 310.267 327.443 309.15 328.516Z" fill="#FEAD6C"/>
</g>
<g opacity="0.1">
<path opacity="0.1" d="M212.395 246.22C212.565 246.168 212.735 246.117 212.898 246.05C216.428 244.681 218.13 239.686 219.447 236.489C221.453 231.62 222.141 226.218 223.421 221.134C224.879 215.347 228.09 211.122 230.769 206.023C233.152 201.487 234.647 195.959 235.15 190.913C235.838 184.016 234.536 177.001 231.043 171.85C225.604 163.829 215.681 161.35 206.371 162.637C202.472 163.177 198.505 164.295 194.716 163.673C189.196 162.77 184.963 158.367 180.375 155.067C174.13 150.568 166.522 147.919 158.789 149.325C150.02 150.916 141.777 158.234 139.157 168.402C137.973 173.005 137.958 177.926 135.99 182.247C133.992 186.628 130.521 189.706 127.946 193.606C125.941 196.64 127.502 202.508 128.25 205.787C129.286 210.293 130.965 214.659 133.215 218.722C137.699 226.803 144.478 233.714 152.818 237.94C162.082 242.631 172.657 243.993 183.002 244.918C191.534 245.68 200.089 246.205 208.651 246.487C209.916 246.531 211.204 246.561 212.395 246.22Z" fill="#FEAD6C"/>
</g>
</g>
</g>
<path d="M370.414 0H0.414429V370H370.414V0Z" fill="#2E2E2E" stroke="#2E2E2E" stroke-miterlimit="10"/>
<path d="M92.5592 51.0601C106.382 43.9265 119.133 44.0005 123.92 44.0893C135.161 44.2891 143.678 47.2935 149.088 49.2471C160.713 53.4503 169.845 59.5479 173.708 62.1601C175.358 63.2775 174.98 63.0851 180.516 66.9331C193.451 75.9389 196.115 77.4263 198.017 78.4105C201.791 80.3715 205.261 82.1697 210.278 83.3833C212.491 83.9161 217.175 84.8633 225.944 84.3083C237.681 83.5609 239.597 81.2151 251.607 79.8535C255.145 79.4539 261.39 78.7731 269.39 79.3947C274.259 79.7721 283.361 80.5491 294.083 85.1667C306.071 90.3245 313.486 97.4285 315.536 99.4635C323.543 107.418 327.406 115.336 329.596 119.917C334.014 129.174 335.553 137.011 336.441 141.732C338.032 150.168 338.128 156.754 338.158 160.417C338.18 163.037 338.165 170.748 336.545 180.649C335.856 184.874 334.939 190.328 332.608 197.217C332.201 198.424 330.336 203.855 326.725 210.87C321.537 220.957 319.118 221.948 316.002 230.162C314.722 233.544 313.501 236.852 313.301 241.41C313.138 245.273 313.797 247.981 315.677 254.664C319.428 268.05 320.05 268.872 321.412 274.866C323.55 284.241 323.432 288.334 322.862 291.701C322.026 296.636 320.294 299.589 319.724 300.514C318.651 302.246 316.809 304.673 312.591 307.699C306.005 312.428 299.633 314.308 297.917 314.803C281.725 319.451 273.622 321.767 264.217 323.491C260.628 324.15 245.325 326.88 224.183 328.412C221.563 328.604 217.072 328.9 211.566 329.13C199.955 329.611 177.852 330.44 151.848 327.228C135.723 325.237 127.657 324.246 116.535 320.642C94.3648 313.464 78.7138 302.142 66.6444 293.41C54.8932 284.907 49.3506 279.239 47.8262 277.648C39.7232 269.219 31.5018 260.672 28.2976 247.241C25.9074 237.244 27.2616 228.534 28.2088 222.385C29.5038 214.001 31.7904 208.007 33.7292 203.026C39.0498 189.314 46.7236 176.793 54.0496 164.842C57.683 158.908 59.9696 155.481 61.2054 149.702C61.5384 148.148 62.2858 144.122 60.6504 130.588C58.9114 116.173 57.2464 114.019 57.4388 106.331C57.6386 98.4423 59.5996 92.5445 60.8502 88.8667C63.566 80.9709 71.854 61.7457 92.5592 51.0601Z" fill="#1F1F1F"/>
<path d="M110.504 94.3351C112.288 93.2251 119.88 88.6741 130.965 87.3125C138.624 86.3727 144.566 87.3643 148.518 88.0599C155.052 89.2069 159.781 91.0273 162.911 92.2483C166.981 93.8393 168.905 94.9271 182.676 102.579C192.23 107.885 197.099 110.556 201.591 111.592C207.17 112.88 211.64 112.754 214.23 112.665C225.315 112.273 228.098 108.787 239.294 106.619C251.711 104.214 261.575 105.938 263.943 106.382C267.858 107.122 276.19 108.787 285.055 114.767C286.55 115.773 293.24 120.398 299.204 128.797C303.496 134.843 305.635 140.356 306.841 143.516C307.241 144.574 308.713 148.488 309.942 153.898C310.319 155.563 311.94 162.911 312.036 172.938C312.095 179.783 311.422 184.956 311.163 186.769C310.652 190.358 310.016 194.827 308.158 200.259C306.094 206.297 304.791 206.86 300.455 217.397C298.62 221.859 298.028 223.761 297.746 226.181C297.228 230.621 298.139 233.596 298.842 237.133C300.018 243.038 299.981 247.382 299.9 256.055C299.826 264.128 299.744 268.946 297.672 275.051C296.829 277.53 295.475 281.437 292.315 285.633C286.669 293.121 279.357 296.111 276.812 297.117C270.366 299.656 266.57 299.093 255.781 299.522C247.715 299.841 234.284 300.373 219.713 303.578C210.486 305.605 207.822 307.167 196.551 309.098C192.792 309.742 187.116 310.711 180.508 311.096C175.04 311.414 162.149 311.725 146.446 307.603C142.376 306.538 126.814 302.209 109.89 290.465C102.275 285.181 97.6726 280.682 89.9322 273.119C74.814 258.341 72.5718 251.992 71.669 248.529C70.2186 242.979 70.5738 238.487 70.9586 233.64C71.7208 223.909 74.5772 216.909 78.9136 206.497C84.9076 192.104 88.4374 184.704 88.4374 184.704C90.0284 181.367 91.427 178.569 91.9968 174.381C92.5148 170.57 92.056 167.78 90.2282 159.618C86.802 144.293 86.1286 143.849 85.9658 139.631C85.6994 132.763 87.2238 127.509 88.245 124.083C91.501 113.176 97.3174 106.168 99.53 103.681C104.399 98.2201 109.143 95.1787 110.504 94.3351Z" fill="#272727"/>
<path d="M151.434 133.666C155.148 134.369 158.449 135.494 159.463 135.849C162.26 136.826 162.674 137.218 168.579 139.594C171.332 140.704 169.393 139.875 175.491 142.221C179.213 143.649 180.308 144.1 182.121 144.174C182.758 144.196 183.964 144.196 187.435 143.301C191.29 142.309 194.169 141.185 195.264 140.748C201.561 138.254 201.687 137.647 205.661 136.227C210.338 134.547 214.119 133.977 215.118 133.829C217.767 133.452 222.333 132.83 228.12 133.903C233.048 134.813 236.474 136.508 237.237 136.893C238.428 137.492 242.335 139.564 246.198 143.627C248.729 146.291 250.231 148.755 251.134 150.235C252.666 152.773 253.561 154.852 254.072 156.073C254.486 157.05 255.855 160.365 256.891 164.939C257.55 167.847 257.823 170.126 257.979 171.465C258.097 172.472 258.327 174.707 258.401 177.6C258.497 181.478 258.245 184.415 258.171 185.185C257.853 188.685 257.313 191.268 256.861 193.392C255.907 197.861 255.492 198.157 254.116 203.833C253.154 207.777 252.673 209.812 252.355 212.661C252.037 215.569 252.059 217.745 252.096 220.631C252.148 224.849 252.414 225.767 252.569 230.621C252.643 232.93 252.725 235.364 252.614 238.465C252.37 245.421 251.4 249.654 250.971 251.341C249.787 256.047 248.714 257.483 248.092 258.201C246.279 260.295 244.089 261.19 242.565 261.753C235.586 264.328 229.015 265.046 227.195 265.26C221.349 265.941 224.953 265.971 207.326 269.19C199.363 270.64 195.219 271.402 189.137 272.187C184.023 272.853 180.22 273.334 175.069 273.526C171.569 273.659 166.093 273.867 159.729 273.097C147.845 271.669 139.046 267.591 136.071 266.126C133.91 265.061 124.416 260.251 114.966 250.379C107.626 242.713 104.133 235.993 100.455 228.912C98.0056 224.19 96.8956 221.201 97.1176 217.59C97.3544 213.668 98.9898 211.988 101.417 205.927C102.201 203.981 104.414 198.461 105.302 192.785C106.619 184.371 103.889 182.876 104.229 172.945C104.347 169.349 104.599 163.481 107.367 156.717C108.521 153.898 111.873 146.002 120.257 139.897C121.863 138.728 126.044 135.886 132.12 134.177C140.763 131.727 148.059 133.022 151.434 133.666Z" fill="#2E2E2E"/>
<path d="M151.989 151.774C154.645 150.338 156.902 149.754 157.613 149.584C158.338 149.406 161.179 148.755 164.968 149.036C168.883 149.325 171.732 150.457 173.338 151.108C176.002 152.196 177.881 153.395 179.036 154.142C181.145 155.511 181.189 155.829 185.977 159.381C187.96 160.854 189.04 161.601 190.631 162.334C191.468 162.719 192.851 163.348 194.724 163.681C195.471 163.814 196.751 163.977 199.837 163.681C203.929 163.288 204.529 162.733 208.081 162.445C209.131 162.363 210.819 162.23 213.024 162.378C214.593 162.482 217.412 162.696 220.801 163.977C221.808 164.354 223.547 165.027 225.559 166.389C228.001 168.047 229.57 169.867 230.421 170.977C232.36 173.508 233.204 175.824 233.722 177.267C233.981 177.992 234.817 180.427 235.172 184.112C235.342 185.829 235.712 190.994 233.973 197.506C232.626 202.538 230.54 206.401 229.282 208.702C227.38 212.18 226.336 213.238 224.901 216.82C223.598 220.083 222.962 222.969 222.762 223.946C221.926 227.972 222.488 228.201 221.689 231.272C221.201 233.144 220.298 235.031 218.5 238.813C216.287 243.46 215.636 244.111 215.111 244.54C213.46 245.895 211.551 246.272 208.673 246.479C203.034 246.886 198.853 246.265 195.471 245.85C188.937 245.058 190.52 245.695 181.855 244.799C174.625 244.052 171.014 243.675 166.567 242.624C162.208 241.595 157.42 240.463 151.885 237.429C149.502 236.119 141.865 231.65 135.679 222.673C132.046 217.397 130.425 212.757 129.167 209.146C128.309 206.682 127.916 204.44 127.125 199.955C126.984 199.156 126.755 197.78 127.102 196.063C127.25 195.308 127.502 194.546 127.961 193.599C129.204 191.046 130.529 190.165 132.519 187.694C133.385 186.621 134.569 185.141 135.62 183.039C136.685 180.9 137.1 179.117 137.677 176.557C138.521 172.849 138.121 172.916 138.809 169.963C139.261 168.024 139.986 165.02 141.947 161.631C142.605 160.491 143.619 158.937 145.084 157.287C148.022 154.001 151.019 152.299 151.989 151.774Z" fill="#323232"/>
<path d="M47.5968 56.7359C49.9345 56.7359 51.8296 54.8408 51.8296 52.5031C51.8296 50.1653 49.9345 48.2703 47.5968 48.2703C45.2591 48.2703 43.364 50.1653 43.364 52.5031C43.364 54.8408 45.2591 56.7359 47.5968 56.7359Z" fill="#1F1F1F"/>
<path d="M33.8402 122.84C35.2829 122.84 36.4524 121.67 36.4524 120.228C36.4524 118.785 35.2829 117.616 33.8402 117.616C32.3975 117.616 31.228 118.785 31.228 120.228C31.228 121.67 32.3975 122.84 33.8402 122.84Z" fill="#1F1F1F"/>
<path d="M32.5378 150.819C37.4707 150.819 41.4696 146.821 41.4696 141.888C41.4696 136.955 37.4707 132.956 32.5378 132.956C27.6049 132.956 23.606 136.955 23.606 141.888C23.606 146.821 27.6049 150.819 32.5378 150.819Z" fill="#1F1F1F"/>
<path d="M39.59 317.874C44.4493 317.874 48.3886 313.935 48.3886 309.076C48.3886 304.216 44.4493 300.277 39.59 300.277C34.7306 300.277 30.7914 304.216 30.7914 309.076C30.7914 313.935 34.7306 317.874 39.59 317.874Z" fill="#1F1F1F"/>
<path d="M69.2935 315.669C70.7321 315.669 71.8983 314.503 71.8983 313.064C71.8983 311.626 70.7321 310.46 69.2935 310.46C67.8549 310.46 66.6887 311.626 66.6887 313.064C66.6887 314.503 67.8549 315.669 69.2935 315.669Z" fill="#1F1F1F"/>
<path d="M307.181 329.263C308.698 329.263 309.927 328.034 309.927 326.518C309.927 325.001 308.698 323.772 307.181 323.772C305.665 323.772 304.436 325.001 304.436 326.518C304.436 328.034 305.665 329.263 307.181 329.263Z" fill="#1F1F1F"/>
<path d="M336.249 277.685C341.251 277.685 345.306 273.63 345.306 268.627C345.306 263.625 341.251 259.57 336.249 259.57C331.246 259.57 327.191 263.625 327.191 268.627C327.191 273.63 331.246 277.685 336.249 277.685Z" fill="#1F1F1F"/>
<path d="M331.55 100.418C334.169 100.418 336.293 98.2943 336.293 95.6746C336.293 93.0548 334.169 90.9312 331.55 90.9312C328.93 90.9312 326.806 93.0548 326.806 95.6746C326.806 98.2943 328.93 100.418 331.55 100.418Z" fill="#1F1F1F"/>
<path d="M232.123 69.153C239.173 69.153 244.888 63.438 244.888 56.388C244.888 49.3381 239.173 43.623 232.123 43.623C225.073 43.623 219.358 49.3381 219.358 56.388C219.358 63.438 225.073 69.153 232.123 69.153Z" fill="#1F1F1F"/>
<path d="M306.33 298.76L294.483 292.692L288.837 303.726L294.216 306.478L292.218 310.386C290.731 313.301 291.878 316.868 294.794 318.355L297.687 319.835L302.386 310.659L307.166 301.321C307.64 300.388 307.27 299.241 306.33 298.76Z" fill="#16FFAB"/>
<path d="M298.247 320.134L308.591 299.924L306.628 298.919L296.284 319.129L298.247 320.134Z" fill="white"/>
<path d="M289.947 305.235L291.101 302.697" stroke="white" stroke-width="0.75" stroke-miterlimit="10" stroke-linecap="round" stroke-linejoin="round"/>
<path d="M291.456 306.131L292.603 303.6" stroke="white" stroke-width="0.75" stroke-miterlimit="10" stroke-linecap="round" stroke-linejoin="round"/>
<path d="M293.01 307.063L294.165 304.525" stroke="white" stroke-width="0.75" stroke-miterlimit="10" stroke-linecap="round" stroke-linejoin="round"/>
<path d="M302.29 300.906C302.29 302.364 301.113 303.541 299.655 303.541C298.198 303.541 297.021 302.364 297.021 300.906C297.021 299.448 298.198 298.272 299.655 298.272C301.113 298.264 302.29 299.448 302.29 300.906Z" fill="white"/>
<path d="M340.896 222.792L335.094 216.443C334.384 215.666 333.178 215.614 332.408 216.324L322.581 225.308L330.943 234.454L335.405 230.377L337.951 233.159C340.156 235.572 343.908 235.742 346.32 233.537L348.718 231.346L340.896 222.792Z" fill="#16FFAB"/>
<path d="M349.175 230.919L334.271 214.615L332.644 216.103L347.547 232.407L349.175 230.919Z" fill="white"/>
<path d="M332.734 233.936L330.765 231.975" stroke="white" stroke-width="0.75" stroke-miterlimit="10" stroke-linecap="round" stroke-linejoin="round"/>
<path d="M334.103 232.841L332.134 230.873" stroke="white" stroke-width="0.75" stroke-miterlimit="10" stroke-linecap="round" stroke-linejoin="round"/>
<path d="M335.516 231.709L333.548 229.74" stroke="white" stroke-width="0.75" stroke-miterlimit="10" stroke-linecap="round" stroke-linejoin="round"/>
<path d="M334.376 223.894C334.376 225.352 333.2 226.529 331.742 226.529C330.284 226.529 329.108 225.352 329.108 223.894C329.108 222.436 330.284 221.26 331.742 221.26C333.2 221.26 334.376 222.444 334.376 223.894Z" fill="white"/>
<path d="M273.807 257.194C277.589 267.014 290.05 269.982 297.85 262.915L332.134 235.527L320.487 223.073L295.534 240.633L288.741 204.802C287.157 196.233 286.38 187.753 281.74 180.375L273.978 170.015L241.484 173.271L235.653 171.021L232.316 210.352L228.653 246.716C227.75 255.692 231.45 264.52 238.495 270.159L287.601 306.841L295.534 291.619L254.501 254.397L262.308 227.343L273.807 257.194Z" fill="#FF158B"/>
<path d="M250.549 189.477L259.94 235.535L262.3 227.335L250.549 189.477Z" fill="#BF1068"/>
<path d="M295.534 240.633L295.992 243.882L303.874 234.765L295.534 240.633Z" fill="#BF1068"/>
<path d="M337.055 180.012C337.24 179.842 337.373 179.613 337.41 179.346C337.484 178.754 337.063 178.207 336.478 178.133L335.997 178.074C335.975 178.059 335.96 178.044 335.938 178.022C335.938 178.022 335.923 177.992 335.901 177.948C336.204 177.829 336.448 177.578 336.508 177.237C336.604 176.719 336.256 176.216 335.738 176.12L334.147 175.824C334.066 175.765 333.984 175.698 333.895 175.646C332.852 175.017 325.926 173.108 322.018 172.753C322.018 172.753 304.525 150.96 303.755 150.486L287.956 133.415L278.721 148.725L291.804 161.49C292.307 162.482 319.902 184.127 319.902 184.127V184.134L320.094 184.275L320.916 184.874C321.012 184.948 321.123 184.993 321.227 185.044C322.048 185.821 323.898 187.42 326.451 188.626C328.96 189.81 327.864 186.791 327.05 185L334.51 184.097L336.071 184.26C336.663 184.319 337.196 183.883 337.255 183.291C337.307 182.802 337.018 182.358 336.589 182.181C336.626 182.166 336.67 182.158 336.707 182.144L336.841 182.158C337.433 182.218 337.965 181.781 338.025 181.189C338.084 180.604 337.647 180.072 337.055 180.012Z" fill="#F9B384"/>
<path d="M206.741 103.644L198.098 78.2106C198.298 77.7 198.631 77.071 199.208 76.4198C200.903 74.5032 200.362 72.1722 200.362 72.1722C201.169 70.8624 202.175 69.671 203.012 68.3834C203.1 68.2502 203.189 68.1022 203.174 67.9468C203.16 67.7692 203.012 67.6212 202.856 67.5102C201.953 66.8442 200.784 67.0144 199.978 67.6286C199.504 67.9912 199.127 68.4278 198.786 68.8866C198.623 69.1086 198.039 69.745 197.92 70.1002L199.267 60.9612C199.386 60.1472 198.853 59.3924 198.076 59.2814C197.691 59.2222 197.314 59.3406 197.018 59.57C196.833 59.718 196.685 59.9104 196.581 60.1398C196.574 60.0806 196.566 60.0436 196.566 60.0436C190.313 57.5572 188.73 71.7726 188.73 71.7726L188.041 78.3364L190.572 107.988C190.58 108.04 190.594 108.084 190.602 108.136C190.646 111.17 192.311 114.093 195.19 115.603L208.821 123.735L215.999 108.558L206.741 103.644Z" fill="#F9B384"/>
<path d="M197.824 69.782C197.824 69.782 195.072 69.19 194.073 71.7874" stroke="#E28B6D" stroke-miterlimit="10" stroke-linecap="round"/>
<path d="M196.773 60.125C196.344 61.161 195.974 62.2488 195.715 63.344C195.582 63.8916 195.486 64.4392 195.449 64.9868C195.412 65.527 195.419 66.082 195.56 66.563V66.5704C195.619 66.7628 195.508 66.97 195.308 67.0292C195.116 67.0884 194.909 66.9774 194.849 66.7776C194.849 66.7702 194.849 66.7628 194.842 66.7628C194.687 66.1264 194.716 65.5196 194.783 64.9276C194.849 64.3356 194.983 63.7584 195.138 63.2034C195.456 62.0786 195.871 61.0056 196.366 59.9474C196.418 59.8364 196.551 59.792 196.662 59.8438C196.773 59.8956 196.818 60.0214 196.773 60.125Z" fill="#E28B6D"/>
<path d="M195.227 59.9252C194.864 60.2656 194.553 60.7762 194.331 61.2794C194.102 61.79 193.947 62.3376 193.836 62.8926C193.717 63.4476 193.665 64.01 193.628 64.5798C193.606 65.1496 193.614 65.7194 193.643 66.2892V66.2966C193.651 66.5038 193.495 66.674 193.295 66.6814C193.088 66.6888 192.918 66.5334 192.911 66.3336C192.911 66.3262 192.911 66.3262 192.911 66.3188C192.903 65.7268 192.918 65.1274 192.97 64.5354C193.036 63.9434 193.11 63.344 193.258 62.7668C193.399 62.1822 193.591 61.605 193.858 61.0648C194.139 60.5172 194.442 60.0066 194.953 59.57C195.049 59.4886 195.19 59.496 195.279 59.5922C195.36 59.6884 195.353 59.8216 195.264 59.9104L195.227 59.9252Z" fill="#E28B6D"/>
<path d="M193.377 60.6208C192.918 61.42 192.548 62.3006 192.289 63.196C192.03 64.0914 191.897 65.009 191.963 65.9044V65.9118C191.978 66.119 191.823 66.2966 191.623 66.3114C191.416 66.3262 191.238 66.1708 191.223 65.971C191.223 65.9636 191.223 65.9562 191.223 65.9488C191.201 64.9276 191.408 63.9434 191.727 63.0184C192.052 62.0934 192.474 61.2202 193.014 60.3914C193.081 60.2878 193.214 60.2656 193.31 60.3248C193.406 60.384 193.436 60.5172 193.377 60.6134V60.6208Z" fill="#E28B6D"/>
<path d="M274.288 118.067C271.351 115.144 267.362 113.523 263.218 113.56L261.176 113.583C260.717 113.538 260.258 113.523 259.792 113.568L259.422 113.605L258.171 113.62L258.193 113.716L257.187 113.805L242.172 115.159C240.234 115.336 238.539 115.677 237.089 116.224V116.217L216.013 108.551L208.835 123.728L208.051 125.378L232.02 140.874C233.167 154.12 234.928 174.721 235.039 178.384C235.076 179.672 276.501 173.863 276.442 173.293C275.502 163.91 273.238 150.849 272.15 144.381L278.018 149.88L278.714 148.725L287.949 133.415L288.97 131.727L274.288 118.067Z" fill="#16FFAB"/>
<path d="M222.94 134.998L234.277 138.395L233.529 158.575L232.012 140.866L222.94 134.998Z" fill="#0C8056"/>
<path d="M272.15 144.374L268.487 137.026V144.566L274.599 159.359L272.15 144.374Z" fill="#0C8056"/>
<path d="M274.843 96.2665C273.186 95.4599 271.055 94.6089 268.339 93.6025L262.049 84.6929C263.233 84.2489 264.38 83.5089 265.349 82.4729C268.169 79.4685 268.494 75.1913 266.067 72.9047C263.64 70.6255 259.385 71.2101 256.565 74.2145C255.996 74.8213 255.529 75.4873 255.167 76.1755C252.754 74.3107 249.306 73.0305 244.355 73.0083C232.071 72.9639 230.621 85.4477 230.621 85.4477C230.621 85.4477 232.397 85.9731 234.58 86.2025C235.32 86.2839 236.112 86.3283 236.889 86.3061L232.419 95.0825C228.623 97.1397 226.07 98.6715 224.449 100.107C222.918 101.469 223.517 103.926 225.448 104.606C226.766 105.065 228.238 106.072 229.415 108.166C232.02 112.798 241.891 114.115 250.512 110.822L250.431 111.155C260.029 114.241 271.114 111.496 273.193 106.123C273.8 104.555 274.621 103.496 275.487 102.779C277.67 100.958 277.404 97.5245 274.843 96.2665Z" fill="#0C8056"/>
<path d="M258.334 92.7737L258.297 93.0845C256.114 94.3647 253.235 93.4767 252.303 91.1235C252.221 90.9311 252.17 90.7239 252.118 90.5093C241.158 88.7333 242.224 83.4867 242.224 83.4867C241.225 86.2987 237.532 86.5207 234.572 86.2025L232.811 96.4811C231.738 102.756 235.956 108.721 242.231 109.794C242.498 109.838 242.757 109.86 243.016 109.89L242.809 117.238C242.72 120.494 245.28 123.21 248.544 123.306C251.8 123.395 254.515 120.834 254.612 117.571L255.041 102.275C255.241 101.72 255.396 101.143 255.507 100.544L256.321 100.684C258.556 101.069 260.672 99.5669 261.05 97.3321C261.405 95.3267 260.213 93.4101 258.334 92.7737Z" fill="#F9B384"/>
<path opacity="0.46" d="M241.699 108.743C235.808 107.737 231.849 102.142 232.856 96.2443L234.624 85.8917L232.811 96.4885C231.738 102.764 235.956 108.728 242.231 109.801C242.49 109.846 242.757 109.868 243.016 109.897L242.794 116.824L251.859 107.034H251.851C253.694 105.391 255.026 103.149 255.514 100.544L254.109 100.3C252.91 105.975 247.448 109.727 241.699 108.743Z" fill="#E28B6D"/>
<path d="M258.245 95.2601L256.869 97.2285L258.112 98.0795" stroke="#E28B6D" stroke-width="0.5" stroke-miterlimit="10" stroke-linecap="round"/>
<path d="M243.86 94.0761C243.8 94.4387 244.045 94.7865 244.407 94.8531C244.77 94.9123 245.118 94.6681 245.184 94.3055C245.243 93.9429 244.999 93.5951 244.637 93.5285C244.267 93.4693 243.919 93.7135 243.86 94.0761Z" fill="#0C8056"/>
<path d="M236.341 92.7367C236.282 93.0993 236.526 93.4471 236.889 93.5137C237.251 93.5729 237.599 93.3287 237.666 92.9661C237.725 92.6035 237.481 92.2557 237.118 92.1891C236.748 92.1299 236.408 92.3741 236.341 92.7367Z" fill="#0C8056"/>
<path d="M240.937 97.7095C240.182 97.5837 239.56 97.5911 238.983 97.0065C238.443 96.4663 238.125 95.5413 238.502 94.8605C238.672 94.5571 239.02 94.3869 239.383 94.4091L240.115 94.4535L241.418 90.6351" stroke="#E28B6D" stroke-width="0.5" stroke-miterlimit="10" stroke-linecap="round"/>
<path d="M239.042 102.86C239.042 102.86 238.398 101.757 237.177 102.009" stroke="#E28B6D" stroke-width="0.5" stroke-miterlimit="10" stroke-linecap="round"/>
<path d="M247.567 92.3223C247.249 92.3223 246.923 92.1447 246.59 91.9893C246.257 91.8265 245.924 91.6711 245.628 91.5453C245.332 91.4195 244.984 91.2863 244.637 91.1679C244.296 91.0421 243.934 90.9237 243.719 90.7017C243.512 90.4871 243.534 90.1319 244 89.8803C244.437 89.6287 245.347 89.5399 246.331 89.9543C247.308 90.3687 247.87 91.0791 247.981 91.5601C248.115 92.0633 247.87 92.3223 247.567 92.3223Z" fill="#0C8056"/>
<path d="M235.779 89.8359C236.016 89.9173 236.319 89.8655 236.608 89.8359C236.904 89.7989 237.2 89.7619 237.451 89.7471C237.71 89.7249 238.006 89.7175 238.302 89.7101C238.598 89.7027 238.902 89.7027 239.124 89.5843C239.338 89.4733 239.405 89.1995 239.124 88.8887C238.85 88.5853 238.184 88.2819 237.325 88.3485C236.474 88.4151 235.868 88.8147 235.653 89.1551C235.424 89.5029 235.542 89.7619 235.779 89.8359Z" fill="#0C8056"/>
<path d="M245.562 96.9769C245.562 96.9769 243.941 98.2571 242.15 98.9083C240.359 99.5669 242.468 102.335 245.236 101.484C248.004 100.64 247.005 96.3331 245.562 96.9769Z" fill="white"/>
<path d="M236.164 93.3953C236.164 93.3953 236.97 93.2547 237.496 93.6691" stroke="#E28B6D" stroke-width="0.25" stroke-miterlimit="10" stroke-linecap="round"/>
<path d="M243.719 94.7421C243.719 94.7421 244.526 94.6015 245.051 95.0159" stroke="#E28B6D" stroke-width="0.25" stroke-miterlimit="10" stroke-linecap="round"/>
<path d="M135.05 322.47L127.879 318.969L130.603 313.397L117.157 306.833L111.141 319.162C110.682 320.109 111.074 321.249 112.014 321.707L123.743 327.435L137.936 334.361L138.639 332.918C140.533 329.041 138.928 324.364 135.05 322.47Z" fill="#FF158B"/>
<path d="M138.635 332.916L111.006 319.424L110.012 321.459L137.641 334.951L138.635 332.916Z" fill="#EAEAEA"/>
<path d="M128.397 319.591C128.101 319.532 128.013 319.155 128.257 318.97C129.248 318.2 131.246 316.905 131.69 318.503C132.134 320.117 129.663 319.835 128.397 319.591Z" stroke="#EAEAEA" stroke-width="0.75" stroke-miterlimit="10" stroke-linecap="round" stroke-linejoin="round"/>
<path d="M124.424 316.986C125.393 315.284 127.213 317.571 128.064 318.821C128.197 319.014 128.131 319.258 127.968 319.376C127.887 319.436 127.783 319.473 127.665 319.458C126.207 319.258 123.462 318.673 124.424 316.986Z" stroke="#EAEAEA" stroke-width="0.75" stroke-miterlimit="10" stroke-linecap="round" stroke-linejoin="round"/>
<path d="M128.057 319.554C128.057 319.554 127.199 321.915 125.09 321.996" stroke="#EAEAEA" stroke-width="0.75" stroke-miterlimit="10" stroke-linecap="round" stroke-linejoin="round"/>
<path d="M120.775 317.097C120.109 318.459 118.459 319.029 117.098 318.363C115.736 317.697 115.166 316.046 115.832 314.685C116.498 313.323 118.148 312.753 119.51 313.419C120.872 314.085 121.441 315.736 120.775 317.097Z" fill="#EAEAEA"/>
<path d="M42.5648 231.946L29.0894 229.378C28.0534 229.178 27.0618 229.859 26.862 230.887L24.42 243.712L21.46 259.222L23.0362 259.525C27.2764 260.332 31.3686 257.55 32.1752 253.309L33.67 245.473L39.7602 246.635L42.5648 231.946Z" fill="#FF158B"/>
<path d="M23.0449 259.516L28.8038 229.313L26.5795 228.889L20.8206 259.092L23.0449 259.516Z" fill="#EAEAEA"/>
<path d="M33.2037 246.146C33.1815 245.843 33.5219 245.665 33.7661 245.843C34.7651 246.598 36.5411 248.189 35.1203 249.032C33.6847 249.883 33.3073 247.426 33.2037 246.146Z" stroke="#EAEAEA" stroke-width="0.75" stroke-miterlimit="10" stroke-linecap="round" stroke-linejoin="round"/>
<path d="M34.6763 241.625C36.5781 242.113 34.8465 244.466 33.8623 245.621C33.7069 245.798 33.4627 245.798 33.2999 245.673C33.2185 245.613 33.1593 245.517 33.1445 245.399C32.9521 243.941 32.7967 241.144 34.6763 241.625Z" stroke="#EAEAEA" stroke-width="0.75" stroke-miterlimit="10" stroke-linecap="round" stroke-linejoin="round"/>
<path d="M33.152 245.806C33.152 245.806 30.6508 245.598 30.0144 243.586" stroke="#EAEAEA" stroke-width="0.75" stroke-miterlimit="10" stroke-linecap="round" stroke-linejoin="round"/>
<path d="M37.7326 236.245C37.7326 237.94 36.3562 239.316 34.6616 239.316C32.967 239.316 31.5906 237.94 31.5906 236.245C31.5906 234.55 32.967 233.174 34.6616 233.174C36.3562 233.167 37.7326 234.543 37.7326 236.245Z" fill="#EAEAEA"/>
<path d="M149.613 225.463L133.836 187.42L118.533 183.601L97.1916 181.367L81.1262 187.116L82.9318 240.019L42.1356 229.356C41.4474 229.555 39.2422 248.766 39.2422 248.766L89.5548 262.67C97.199 264.839 105.435 261.324 108.854 254.153C110.578 250.534 111.651 246.575 111.977 243.083L113.99 224.864L124.668 237.052C124.668 237.052 115.122 307.455 115.299 307.47C115.299 307.47 132.001 316.957 132.112 316.52L150.96 243.763C152.492 237.681 152.018 231.257 149.613 225.463Z" fill="#16FFAB"/>
<path d="M116.809 199.23L118.326 229.822L113.923 225.374L116.809 199.23Z" fill="#0C8056"/>
<path d="M61.3681 178.71C61.2497 177.815 60.9759 176.978 60.4431 176.283C60.2507 176.024 60.0139 175.794 59.8733 175.506C59.5773 174.892 60.0435 173.789 60.1767 173.138C60.2877 172.59 60.3987 172.035 60.5097 171.488C60.4431 171.51 60.3913 171.539 60.3247 171.554L49.8981 173.878C49.8759 173.885 49.8463 173.878 49.8241 173.885C49.0693 175.336 48.2405 177.792 48.6919 181.241L47.4043 188.759C47.3229 189.211 47.6337 189.647 48.0851 189.729L48.5143 189.803C48.9657 189.884 49.4023 189.573 49.4837 189.122L50.7713 181.618L49.3283 190.025C49.2395 190.535 49.5873 191.024 50.0979 191.112L50.5789 191.194C51.0895 191.283 51.5779 190.935 51.6667 190.424L51.4965 191.401C51.4077 191.912 51.7555 192.4 52.2661 192.489L52.7545 192.57C53.2651 192.659 53.7535 192.311 53.8423 191.801L55.4481 182.447L53.9459 191.231C53.8571 191.741 54.2049 192.23 54.7155 192.319L55.1965 192.4C55.7071 192.489 56.1955 192.141 56.2843 191.63L57.9345 182.04C58.2009 182.262 58.2157 183.601 58.2823 183.957C58.4377 184.815 58.7855 185.91 59.5773 185.984C60.5023 186.073 60.8131 185.059 60.9241 184.334C61.1757 182.684 61.6123 180.575 61.3681 178.71Z" fill="#F9B384"/>
<path d="M185.17 77.7001L173.389 74.7771L171.872 74.3997L158.123 101.942L133.992 106.116C131.335 104.355 128.205 103.208 124.801 102.912C121.138 102.594 117.468 102.275 113.805 101.95C108.025 101.447 100.855 99.5819 95.2601 101.439C91.6785 102.631 88.1339 104.725 84.7299 106.36C82.1473 107.603 79.5647 108.839 76.9747 110.082C71.2915 112.813 65.6083 115.544 59.9251 118.274C58.9927 118.718 58.0603 119.17 57.1279 119.614C55.0929 120.59 53.6869 122.522 53.3687 124.757L46.9159 171.14C46.6865 172.812 48.1665 174.196 49.8019 173.878C49.8241 173.87 49.8537 173.878 49.8759 173.87L60.3025 171.547C60.3691 171.532 60.4209 171.495 60.4875 171.48C61.2275 171.243 61.8121 170.666 62.0193 169.904L70.5811 137.596L84.8779 132.571C83.1315 147.171 80.3417 177.837 79.6165 185.94C79.5203 187.02 80.3713 187.945 81.4517 187.945L134.206 188.115C135.316 188.115 136.256 187.279 136.367 186.169L141.962 131.905L167.973 118.999C171.591 117.993 174.181 115.092 174.966 111.673C174.988 111.622 175.01 111.57 175.032 111.511L186.021 77.9073L185.17 77.7001Z" fill="#FF158B"/>
<path d="M185.888 71.0178C185.888 71.0178 187.531 54.5676 179.864 55.8626C179.864 55.8626 179.85 55.907 179.827 55.9736C179.768 55.6924 179.642 55.4408 179.472 55.2262C179.198 54.8932 178.799 54.6786 178.347 54.649C177.445 54.5898 176.66 55.315 176.594 56.2622L175.905 66.9182C175.854 66.489 175.35 65.6232 175.217 65.3346C174.943 64.7278 174.625 64.1432 174.174 63.6252C173.412 62.7372 172.131 62.2636 170.947 62.7964C170.748 62.8852 170.54 63.0184 170.481 63.2108C170.422 63.3884 170.489 63.5734 170.555 63.7436C171.192 65.4012 172.043 66.9996 172.635 68.672C172.635 68.672 171.458 71.1732 172.908 73.7558C173.108 74.111 173.256 74.4514 173.382 74.777L185.163 77.7L185.888 71.0178ZM175.891 67.081C175.891 67.081 175.891 67.0736 175.891 67.081V67.081Z" fill="#F9B384"/>
<path d="M176.09 66.5853C176.09 66.5853 179.346 66.5853 179.85 69.7599" stroke="#E28B6D" stroke-miterlimit="10" stroke-linecap="round"/>
<path d="M180.079 55.8183C180.375 57.1281 180.582 58.4453 180.664 59.7847C180.708 60.4581 180.715 61.1315 180.649 61.8123C180.582 62.4931 180.464 63.1887 180.138 63.8547C180.049 64.0397 179.827 64.1137 179.642 64.0249C179.457 63.9361 179.383 63.7141 179.472 63.5291C179.472 63.5217 179.48 63.5217 179.48 63.5143V63.5069C179.761 62.9889 179.901 62.3599 179.983 61.7309C180.072 61.1019 180.086 60.4507 180.072 59.7995C180.042 58.4971 179.887 57.1873 179.642 55.9071V55.8997C179.62 55.7813 179.702 55.6629 179.82 55.6407C179.938 55.6259 180.049 55.6999 180.079 55.8183Z" fill="#E28B6D"/>
<path d="M181.81 56.0625C182.269 56.6249 182.469 57.2243 182.647 57.8533C182.809 58.4749 182.906 59.1187 182.95 59.7551C183.002 60.3915 182.987 61.0279 182.957 61.6643C182.92 62.3007 182.846 62.9297 182.758 63.5587C182.728 63.7585 182.543 63.8991 182.343 63.8769C182.143 63.8547 182.003 63.6623 182.025 63.4625C182.025 63.4551 182.025 63.4551 182.025 63.4477V63.4403C182.129 62.8335 182.225 62.2267 182.284 61.6199C182.336 61.0131 182.373 60.3989 182.343 59.7921C182.328 59.1853 182.262 58.5785 182.129 57.9939C181.995 57.4167 181.788 56.8099 181.47 56.3881L181.448 56.3585C181.374 56.2549 181.389 56.1143 181.492 56.0403C181.596 55.9515 181.729 55.9663 181.81 56.0625Z" fill="#E28B6D"/>
<path d="M183.979 57.2687C184.393 58.3121 184.697 59.3851 184.845 60.5099C184.985 61.6199 184.978 62.8335 184.378 63.9287C184.282 64.1063 184.053 64.1728 183.875 64.0766C183.698 63.9804 183.631 63.7511 183.727 63.5735C183.727 63.5661 183.735 63.5661 183.735 63.5587L183.742 63.5439C184.253 62.7225 184.349 61.6199 184.26 60.5691C184.171 59.5109 183.92 58.4379 183.572 57.4315L183.564 57.4241C183.527 57.3131 183.587 57.1873 183.698 57.1503C183.823 57.1059 183.942 57.1577 183.979 57.2687Z" fill="#E28B6D"/>
<path d="M158.123 101.942L161.261 107.781L155.274 102.438L158.123 101.942Z" fill="#BF1068"/>
<path d="M141.976 131.912L137.692 129.004L139.83 152.684L141.976 131.912Z" fill="#BF1068"/>
<path d="M84.8927 132.571L88.6963 130.469L82.7911 152.322L84.8927 132.571Z" fill="#BF1068"/>
<path d="M144.848 68.8496C144.019 67.5472 142.383 67.0292 140.711 67.34C142.198 64.3726 142.398 61.1832 140.918 58.5932C138.173 53.7758 130.736 52.8434 124.305 56.5064C121.515 58.0974 119.384 60.2952 118.082 62.6706C117.69 62.9296 117.327 63.2182 116.979 63.5364C115.677 62.5522 113.546 62.5744 111.718 63.7436C109.498 65.157 108.58 67.6952 109.675 69.4046C109.712 69.4564 109.757 69.4934 109.794 69.5452C108.269 71.1288 108.033 73.7336 109.365 75.8352C110.097 76.9822 111.17 77.7666 112.332 78.1218C110.97 79.5352 110.526 81.437 111.392 82.8208C112.465 84.545 115.144 84.8114 117.379 83.4202C119.614 82.029 120.553 79.5056 119.48 77.7814C119.318 77.5224 119.11 77.3078 118.881 77.1228C119.347 76.294 119.754 75.3764 120.087 74.4736C123.624 76.8638 129.241 76.812 134.251 73.9556C134.665 73.7188 135.065 73.4598 135.45 73.2008C135.797 73.2008 136.138 73.2008 136.463 73.2008C136.545 73.4746 136.656 73.741 136.811 73.9852C137.973 75.8056 140.711 76.1386 142.931 74.7252C145.151 73.2896 146.009 70.67 144.848 68.8496Z" fill="#0C8056"/>
<path d="M121.353 70.2186C121.353 70.2186 119.14 80.5638 115.166 79.846C114.833 79.7868 113.583 77.8258 113.316 77.3966C111.718 77.8258 110.482 79.2022 110.327 80.9486C110.134 83.1834 111.784 85.1518 114.019 85.3442L114.981 85.4256L114.596 89.873L113.139 106.567C112.909 109.187 114.848 111.496 117.468 111.725L122.167 112.132C124.786 112.362 127.095 110.423 127.324 107.803L128.116 98.716L129.071 98.7974C133.274 99.1674 136.981 96.052 137.344 91.8488L137.388 91.316L138.95 73.4598C138.299 73.3784 137.492 73.1712 136.589 73.1712C131.387 73.1786 121.885 73.3118 121.353 70.2186Z" fill="#F9B384"/>
<path d="M129.078 81.0226C129.049 81.3852 128.723 81.659 128.36 81.6294C127.998 81.5998 127.724 81.2742 127.754 80.9116C127.783 80.549 128.109 80.2752 128.471 80.3048C128.841 80.3344 129.108 80.66 129.078 81.0226Z" fill="#0C8056"/>
<path d="M137.026 81.7183C136.996 82.0809 136.671 82.3547 136.308 82.3251C135.945 82.2955 135.672 81.9699 135.701 81.6073C135.731 81.2447 136.056 80.9709 136.419 81.0005C136.789 81.0301 137.055 81.3483 137.026 81.7183Z" fill="#0C8056"/>
<path d="M131.831 78.6472L133.415 84.101C133.452 84.2194 133.429 84.3452 133.363 84.4488C133.111 84.8336 132.319 85.6328 130.247 85.1888" stroke="#E28B6D" stroke-miterlimit="10" stroke-linecap="round"/>
<path d="M122.67 77.0489C123.106 77.1821 123.639 77.071 124.157 76.9896C124.683 76.9008 125.208 76.8194 125.667 76.775C126.126 76.7232 126.658 76.6862 127.191 76.6566C127.717 76.6196 128.264 76.6122 128.656 76.3828C129.034 76.1682 129.145 75.6724 128.605 75.1396C128.101 74.6142 126.88 74.1184 125.349 74.2812C123.824 74.4514 122.759 75.2062 122.403 75.8278C122.026 76.4642 122.255 76.9305 122.67 77.0489Z" fill="#0C8056"/>
<path d="M137.499 76.1904C137.181 76.3458 136.759 76.331 136.345 76.3384C135.931 76.3384 135.516 76.3458 135.154 76.3606C134.791 76.3828 134.377 76.4124 133.97 76.4642C133.563 76.5012 133.141 76.5604 132.808 76.442C132.49 76.3236 132.342 75.961 132.689 75.4726C133.008 75.0064 133.888 74.4662 135.087 74.3996C136.286 74.3404 137.196 74.7844 137.551 75.2136C137.921 75.6576 137.803 76.0424 137.499 76.1904Z" fill="#0C8056"/>
<path d="M113.546 79.661L114.367 81.9032L112.961 82.399" stroke="#E28B6D" stroke-miterlimit="10" stroke-linecap="round"/>
<path d="M129.1 81.6739C129.1 81.6739 128.368 81.3852 127.48 81.6073" stroke="#E28B6D" stroke-width="0.5" stroke-miterlimit="10" stroke-linecap="round"/>
<path d="M137.159 82.4064C137.159 82.4064 136.426 82.1178 135.538 82.3398" stroke="#E28B6D" stroke-width="0.5" stroke-miterlimit="10" stroke-linecap="round"/>
<path d="M124.357 84.9743C124.357 84.9743 126.466 86.3063 128.708 86.8613C130.95 87.4163 128.76 91.0201 125.334 90.3541C121.893 89.6955 122.544 84.3971 124.357 84.9743Z" fill="#E28B6D"/>
<path d="M124.453 87.0833C125.201 87.4089 125.541 88.2747 125.223 89.0221" stroke="#FEAD6C" stroke-width="0.5" stroke-miterlimit="10" stroke-linecap="round"/>
<path opacity="0.64" d="M129.626 97.8502L122.559 97.236C118.615 96.8882 115.692 93.4176 116.039 89.466L116.38 85.5514L114.981 85.433L114.596 89.8804C114.271 93.5952 116.668 96.9178 120.139 97.8946L127.524 103.815L127.968 98.716L129.078 98.8122C133.281 99.1822 136.989 96.0668 137.351 91.8636L137.396 91.3308C137.048 95.275 133.57 98.198 129.626 97.8502Z" fill="#E28B6D"/>
<path d="M188.382 35.0538C188.382 35.0538 192.6 44.1484 189.418 51.6446" stroke="#E28B6D" stroke-miterlimit="10" stroke-linecap="round"/>
<path d="M180.538 43.2234C180.538 43.2234 185.444 49.0176 184.97 52.6584" stroke="#E28B6D" stroke-miterlimit="10" stroke-linecap="round"/>
<path d="M200.014 46.1686C200.014 46.1686 193.969 50.764 193.643 54.4196" stroke="#E28B6D" stroke-miterlimit="10" stroke-linecap="round"/>
</g>
<defs>
<clipPath id="clip0_627_1368">
<rect width="370" height="370" fill="white"/>
</clipPath>
</defs>
</svg>
