<svg width="95" height="47" viewBox="0 0 95 47" fill="none" xmlns="http://www.w3.org/2000/svg">
<path d="M24.864 21.018V32H19.288V21.732C19.288 21.12 19.0953 20.6213 18.71 20.236C18.3247 19.8507 17.826 19.658 17.214 19.658C16.602 19.658 16.1033 19.8507 15.718 20.236C15.3553 20.5987 15.174 21.0973 15.174 21.732V32H9.632V15H14.698V16.292C15.786 15.1587 17.214 14.592 18.982 14.592C20.7727 14.592 22.2007 15.1813 23.266 16.36C24.3313 17.516 24.864 19.0687 24.864 21.018ZM38.1253 6.5H43.7013V32H38.6353V30.334C37.7287 31.7167 36.312 32.408 34.3853 32.408C32.2547 32.408 30.532 31.592 29.2173 29.96C27.9253 28.328 27.2793 26.1747 27.2793 23.5C27.2793 20.8253 27.9253 18.672 29.2173 17.04C30.532 15.408 32.2547 14.592 34.3853 14.592C35.972 14.592 37.2187 15.068 38.1253 16.02V6.5ZM38.2273 23.534C38.2273 22.2647 37.9893 21.3013 37.5133 20.644C37.0373 19.9867 36.4027 19.658 35.6093 19.658C34.816 19.658 34.1813 19.9867 33.7053 20.644C33.2293 21.3013 32.9913 22.2533 32.9913 23.5C32.9913 24.7467 33.2293 25.6987 33.7053 26.356C34.1813 27.0133 34.816 27.342 35.6093 27.342C36.4027 27.342 37.0373 27.0247 37.5133 26.39C37.9893 25.7327 38.2273 24.7807 38.2273 23.534ZM46.2383 23.466C46.2383 20.8593 47.009 18.7287 48.5503 17.074C50.1143 15.4193 52.109 14.592 54.5343 14.592C56.9596 14.592 58.943 15.4193 60.4843 17.074C62.0483 18.7287 62.8303 20.8593 62.8303 23.466C62.8303 26.0727 62.0483 28.2147 60.4843 29.892C58.9203 31.5693 56.937 32.408 54.5343 32.408C52.109 32.408 50.1143 31.5807 48.5503 29.926C47.009 28.2487 46.2383 26.0953 46.2383 23.466ZM56.4723 26.322C56.9256 25.6647 57.1523 24.724 57.1523 23.5C57.1523 22.276 56.9256 21.3353 56.4723 20.678C56.019 20.0207 55.3843 19.692 54.5683 19.692C53.7296 19.692 53.0836 20.0207 52.6303 20.678C52.177 21.3353 51.9503 22.276 51.9503 23.5C51.9503 24.724 52.177 25.6647 52.6303 26.322C53.0836 26.9793 53.7296 27.308 54.5683 27.308C55.3843 27.308 56.019 26.9793 56.4723 26.322ZM64.6993 23.466C64.6993 20.8593 65.4699 18.7287 67.0113 17.074C68.5753 15.4193 70.5699 14.592 72.9953 14.592C75.4206 14.592 77.4039 15.4193 78.9453 17.074C80.5093 18.7287 81.2913 20.8593 81.2913 23.466C81.2913 26.0727 80.5093 28.2147 78.9453 29.892C77.3813 31.5693 75.3979 32.408 72.9953 32.408C70.5699 32.408 68.5753 31.5807 67.0113 29.926C65.4699 28.2487 64.6993 26.0953 64.6993 23.466ZM74.9333 26.322C75.3866 25.6647 75.6133 24.724 75.6133 23.5C75.6133 22.276 75.3866 21.3353 74.9333 20.678C74.4799 20.0207 73.8453 19.692 73.0293 19.692C72.1906 19.692 71.5446 20.0207 71.0913 20.678C70.6379 21.3353 70.4113 22.276 70.4113 23.5C70.4113 24.724 70.6379 25.6647 71.0913 26.322C71.5446 26.9793 72.1906 27.308 73.0293 27.308C73.8453 27.308 74.4799 26.9793 74.9333 26.322ZM94.2442 15V20.134H93.0202C91.7962 20.134 90.8895 20.4287 90.3002 21.018C89.7109 21.5847 89.4162 22.4913 89.4162 23.738V32H83.8742V15H88.9402V16.802C89.8922 15.442 91.1842 14.762 92.8162 14.762C93.4282 14.762 93.9042 14.8413 94.2442 15Z" fill="#FF158B"/>
<path d="M1.632 15V32H7.174V15H1.632ZM0.986 37.984C0.986 38.936 1.31467 39.7293 1.972 40.364C2.62933 40.9987 3.434 41.316 4.386 41.316C5.338 41.316 6.14267 40.9987 6.8 40.364C7.48 39.7293 7.82 38.936 7.82 37.984C7.82 37.0773 7.48 36.2953 6.8 35.638C6.14267 35.0033 5.338 34.686 4.386 34.686C3.45667 34.686 2.652 35.0033 1.972 35.638C1.31467 36.2953 0.986 37.0773 0.986 37.984Z" fill="#FF158B"/>
</svg>
