<?xml version="1.0" standalone="no"?>
<!DOCTYPE svg PUBLIC "-//W3C//DTD SVG 1.1//EN" "http://www.w3.org/Graphics/SVG/1.1/DTD/svg11.dtd" >
<svg>
<metadata>
Created by FontForge 20090914 at Thu Mar  3 18:32:02 2022
 By www-data
Copyright (c) 2015, 2018 by Jakob Runge, under exclusive license to TypeMates. All rights reserved.
</metadata>
<defs>
<font id="CeraCompactPro-Medium" horiz-adv-x="507" >
  <font-face 
    font-family="Cera Compact Pro"
    font-weight="500"
    font-stretch="normal"
    units-per-em="1000"
    panose-1="0 0 6 0 0 0 0 0 0 0"
    ascent="808"
    descent="-192"
    x-height="491"
    cap-height="660"
    bbox="-443 -244 1230.09 1000"
    underline-thickness="73"
    underline-position="-172"
    unicode-range="U+0020-U+FB02"
  />
<missing-glyph horiz-adv-x="639" 
d="M73 660h493v-660h-493v660zM495 65v529h-355z" />
    <glyph glyph-name="fi" unicode="fi" horiz-adv-x="545" 
d="M189 592l0.000976562 -100.999h101v-88h-101v-403h-102v403h-69v88h69v111c0 52 14 91.5 42 118.5s67.667 40.5 119 40.5c21.333 0 41.666 -2.66699 60.999 -8v-86c-4.66699 0 -10 0.166992 -16 0.5s-10.5 0.666016 -13.5 0.999023s-5.5 0.5 -7.5 0.5
c-28.667 0 -49.667 -6 -63 -18s-20 -31.667 -20 -59zM377.001 0.000976562v491h102v-491h-102zM359.001 673.001c0 19.333 6.66699 35.5 20 48.5s29.666 19.5 48.999 19.5s35.666 -6.66699 48.999 -20s20 -29.333 20 -48s-6.66699 -34.5 -20 -47.5
s-29.666 -19.5 -48.999 -19.5s-35.666 6.5 -48.999 19.5s-20 28.833 -20 47.5z" />
    <glyph glyph-name="fl" unicode="fl" horiz-adv-x="545" 
d="M189 592l0.000976562 -100.999h101v-88h-101v-403h-102v403h-69v88h69v111c0 52 14 91.5 42 118.5s67.667 40.5 119 40.5c21.333 0 41.666 -2.66699 60.999 -8v-86c-4.66699 0 -10 0.166992 -16 0.5s-10.5 0.666016 -13.5 0.999023s-5.5 0.5 -7.5 0.5
c-28.667 0 -49.667 -6 -63 -18s-20 -31.667 -20 -59zM377.001 0.000976562v750h102v-750h-102z" />
    <glyph glyph-name=".notdef" horiz-adv-x="639" 
d="M73 660h493v-660h-493v660zM495 65v529h-355z" />
    <glyph glyph-name="space" unicode=" " horiz-adv-x="253" 
 />
    <glyph glyph-name="exclam" unicode="!" horiz-adv-x="303" 
d="M110 221l-19 439h121l-19 -439h-83zM78 62c0 20.667 7 38 21 52s31.667 21 53 21c20 0 37 -7 51 -21s21 -31.333 21 -52c0 -21.333 -7 -38.833 -21 -52.5s-31 -20.5 -51 -20.5c-21.333 0 -39 6.83301 -53 20.5s-21 31.167 -21 52.5z" />
    <glyph glyph-name="quotedbl" unicode="&#x22;" horiz-adv-x="463" 
d="M78 394l9 266h116l-46 -266h-79zM277 394l9 266h116l-46 -266h-79z" />
    <glyph glyph-name="numbersign" unicode="#" horiz-adv-x="556" 
d="M531 410h-85l-21 -160h87v-87h-99l-21 -163h-84l21 163h-147l-21 -163h-83l21 163h-74v87h85l21 160h-86v87h97l21 163h85l-21 -163h146l21 163h85l-21 -163h73v-87zM194 247h146l22 166h-147z" />
    <glyph glyph-name="dollar" unicode="$" horiz-adv-x="483" 
d="M288 24l-0.00292969 -118.999h-94v121c-74 15.333 -129 59.666 -165 132.999l72 48c36.667 -63.333 84.334 -95 143.001 -95c28 0 50.5 6.5 67.5 19.5s25.5 30.833 25.5 53.5c0 18.667 -6 34.5 -18 47.5s-33.333 28.833 -64 47.5l-67 37c-83.333 44 -125 98.333 -125 163
c0 38.667 11.833 71.334 35.5 98.001s55.5 44.334 95.5 53.001v119h94v-118c60 -10.667 105.667 -46.667 137 -108l-71 -48c-27.333 45.333 -63.666 68 -108.999 68c-23.333 0 -42.666 -5.5 -57.999 -16.5s-23 -26.833 -23 -47.5c0 -16.667 5.5 -30.834 16.5 -42.501
s30.167 -25.834 57.5 -42.501l70 -37c87.333 -44 131 -101 131 -171c0 -42 -13.667 -77.833 -41 -107.5s-64 -48.167 -110 -55.5z" />
    <glyph glyph-name="percent" unicode="%" horiz-adv-x="780" 
d="M54 509c0 48 14.167 87 42.5 117s64.5 45 108.5 45c44.667 0 81.167 -15 109.5 -45s42.5 -69 42.5 -117s-14.333 -87.167 -43 -117.5s-65 -45.5 -109 -45.5s-80.167 15.167 -108.5 45.5s-42.5 69.5 -42.5 117.5zM175 0l342 660h87l-343 -660h-86zM276 509
c0 28 -6.33301 50.001 -19 66.001s-29.667 24 -51 24c-22 0 -39.167 -8 -51.5 -24s-18.5 -38 -18.5 -66c0 -28.667 6.16699 -50.834 18.5 -66.501s29.5 -23.5 51.5 -23.5c21.333 0 38.333 8 51 24s19 38 19 66zM423 152.001c0 48 14.167 87 42.5 117s64.5 45 108.5 45
s80.333 -15 109 -45s43 -69 43 -117s-14.333 -87.167 -43 -117.5s-65 -45.5 -109 -45.5s-80.167 15.167 -108.5 45.5s-42.5 69.5 -42.5 117.5zM644 152.001c0 28 -6.33301 50 -19 66s-29.334 24 -50.001 24c-22 0 -39.333 -8 -52 -24s-19 -38 -19 -66
s6.33301 -49.833 19 -65.5s30 -23.5 52 -23.5c20.667 0 37.334 8 50.001 24s19 37.667 19 65z" />
    <glyph glyph-name="ampersand" unicode="&#x26;" horiz-adv-x="583" 
d="M461 128l96.001 -128h-115l-42 57c-47.333 -45.333 -102.333 -68 -165 -68c-56 0 -102 16.333 -138 49s-54 74.667 -54 126c0 35.333 9.66699 68.333 29 99s52 65 98 103c-43.333 60 -65 112.667 -65 158c0 43.333 13.667 78.666 41 105.999s63.333 41 108 41
c43.333 0 78.666 -12.833 105.999 -38.5s41 -59.167 41 -100.5c0 -55.333 -34.667 -113.333 -104 -174l-4 -4l109 -146l78 138l80 -49c-39.333 -75.333 -72.333 -131.666 -99 -168.999zM198.001 523c0 -24.667 15.001 -58.332 45.001 -100.999c42.667 38 64 72.333 64 103
c0 18 -4.83301 32.167 -14.5 42.5s-22.834 15.5 -39.501 15.5c-17.333 0 -30.833 -5.33301 -40.5 -16s-14.5 -25.334 -14.5 -44.001zM344.002 132.002l-122 163.999c-31.333 -27.333 -52.333 -49.5 -63 -66.5s-16 -35.5 -16 -55.5c0 -27.333 9 -49.666 27 -66.999
s41 -26 69 -26c36.667 0 71.667 17 105 51z" />
    <glyph glyph-name="quotesingle" unicode="'" horiz-adv-x="264" 
d="M78 394l9 266h116l-46 -266h-79z" />
    <glyph glyph-name="parenleft" unicode="(" horiz-adv-x="318" 
d="M65 302c0 218 61 363.333 183 436l47 -61c-91.333 -74 -137 -199 -137 -375s45.667 -300.667 137 -374l-47 -62c-122 72.667 -183 218 -183 436z" />
    <glyph glyph-name="parenright" unicode=")" horiz-adv-x="318" 
d="M71 -134l-48 61.998c92 73.333 138 198 138 374c0 177.333 -46 302.333 -138 375l48 61c121.333 -73.333 182 -218.666 182 -435.999s-60.667 -362.666 -182 -435.999z" />
    <glyph glyph-name="asterisk" unicode="*" horiz-adv-x="421" 
d="M381 635l-90 -64l90 -64l-30 -51l-101 45l-10 -109h-60l-10 109l-100 -45l-30 51l90 64l-90 64l30 51l100 -45l10 109h60l10 -109l101 45z" />
    <glyph glyph-name="plus" unicode="+" 
d="M206 100v173h-164v89h164v170h97v-170h161v-89h-161v-173h-97z" />
    <glyph glyph-name="comma" unicode="," horiz-adv-x="253" 
d="M67 -179l8 283h117l-43 -283h-82z" />
    <glyph glyph-name="hyphen" unicode="-" horiz-adv-x="309" 
d="M44 273v88h221v-88h-221z" />
    <glyph glyph-name="period" unicode="." horiz-adv-x="253" 
d="M54 62c0 20.667 7 38 21 52s31.333 21 52 21s38 -7 52 -21s21 -31.333 21 -52c0 -21.333 -7 -38.833 -21 -52.5s-31.333 -20.5 -52 -20.5s-38 6.83301 -52 20.5s-21 31.167 -21 52.5z" />
    <glyph glyph-name="slash" unicode="/" horiz-adv-x="587" 
d="M4 -121l469 901h110l-469 -901h-110z" />
    <glyph glyph-name="zero" unicode="0" horiz-adv-x="562" 
d="M54 334c0 108 19.167 191.167 57.5 249.5s94.833 87.5 169.5 87.5c75.333 0 131.833 -29 169.5 -87s56.5 -141.333 56.5 -250c0 -109.333 -19 -194.166 -57 -254.499s-94.333 -90.5 -169 -90.5s-131.167 30.167 -169.5 90.5s-57.5 145.166 -57.5 254.499zM402 333
c0 82.667 -9.66699 144 -29 184s-50 60 -92 60c-42.667 0 -73.667 -19.833 -93 -59.5s-29 -101.167 -29 -184.5c0 -166.667 40.667 -250 122 -250c42 0 72.667 20.667 92 62s29 104 29 188z" />
    <glyph glyph-name="one" unicode="1" horiz-adv-x="353" 
d="M223 660h41v-660h-102v537l-116 -41l-26 90z" />
    <glyph glyph-name="two" unicode="2" horiz-adv-x="511" 
d="M213 89l253 -0.00390625v-89h-425v30l202 242c36.667 44.667 62.334 81.334 77.001 110.001s22 57.667 22 87c0 32 -8.5 58 -25.5 78s-39.833 30 -68.5 30c-29.333 0 -52.666 -10 -69.999 -30s-26 -46.333 -26 -79c0 -17.333 1.66699 -35.333 5 -54h-103
c-4 16 -6 35.667 -6 59c0 54.667 18.667 101.334 56 140.001s85.666 58 144.999 58c57.333 0 104.666 -18.167 141.999 -54.5s56 -82.833 56 -139.5c0 -43.333 -10.333 -83.666 -31 -120.999c-22.667 -39.333 -55.667 -86.666 -99 -141.999z" />
    <glyph glyph-name="three" unicode="3" horiz-adv-x="482" 
d="M442 208c0 -65.333 -20.5 -118.167 -61.5 -158.5s-92.833 -60.5 -155.5 -60.5c-48.667 0 -91.167 13.333 -127.5 40s-63.5 62.667 -81.5 108l78 43c29.333 -64 72 -96 128 -96c34.667 0 62.5 11 83.5 33s31.5 51.667 31.5 89c0 79.333 -44.667 119 -134 119h-67v32
l142 210h-224v93h373v-33l-145 -216c47.333 -8 85.833 -30 115.5 -66s44.5 -81.667 44.5 -137z" />
    <glyph glyph-name="four" unicode="4" horiz-adv-x="510" 
d="M494 206v-89h-78v-117h-102v117h-297v36l185 507h104l-166 -454h174v207h102v-207h78z" />
    <glyph glyph-name="five" unicode="5" horiz-adv-x="496" 
d="M455 208c0 -65.333 -20.667 -118.167 -62 -158.5s-93.333 -60.5 -156 -60.5c-50 0 -93.333 13.167 -130 39.5s-64 62.5 -82 108.5l77 43c31.333 -64 75.333 -96 132 -96c34.667 0 62.667 11 84 33s32 51.667 32 89c0 79.333 -45 119 -135 119h-133v335h340v-92h-241v-161
c24 4.66699 47 7 69 7c59.333 0 108.333 -18.167 147 -54.5s58 -86.833 58 -151.5z" />
    <glyph glyph-name="six" unicode="6" horiz-adv-x="494" 
d="M457 215c0 -66.667 -20.167 -121.001 -60.5 -163.001s-90.166 -63 -149.499 -63c-60 0 -110 20.833 -150 62.5s-60 95.834 -60 162.501c0 26 3 50 9 72c7.33301 22.667 15.666 43 24.999 61l47 81l145 232h119l-142 -226c12 1.33301 20 2 24 2
c54.667 0 100.5 -20.5 137.5 -61.5s55.5 -94.167 55.5 -159.5zM356 215.999c0 40 -10.167 72.166 -30.5 96.499s-46.5 36.5 -78.5 36.5s-58 -12.167 -78 -36.5s-30 -57.166 -30 -98.499c0 -40 10 -72 30 -96s46 -36 78 -36s58.167 12.333 78.5 37s30.5 57 30.5 97z" />
    <glyph glyph-name="seven" unicode="7" horiz-adv-x="463" 
d="M27 660h411v-34l-273 -626h-109l252 568h-281v92z" />
    <glyph glyph-name="eight" unicode="8" horiz-adv-x="523" 
d="M479 169c0 -55.333 -19.667 -99.1689 -59 -131.502s-92 -48.5 -158 -48.5s-118.833 16.333 -158.5 49s-59.5 76.334 -59.5 131.001c0 40.667 11 74.834 33 102.501s55.333 51.834 100 72.501c-71.333 42.667 -107 96 -107 160c0 52 17.5 92.833 52.5 122.5
s81.5 44.5 139.5 44.5c57.333 0 103.5 -14.833 138.5 -44.5s52.5 -70.167 52.5 -121.5c0 -64.667 -36 -118.334 -108 -161.001c89.333 -42 134 -100.333 134 -175zM166 501.997c0 -22.667 7.33301 -42.332 22 -58.999s39.334 -34 74.001 -52
c34 17.333 58.333 34.166 73 50.499s22 36.5 22 60.5c0 26 -8.83301 46.667 -26.5 62s-40.5 23 -68.5 23c-28.667 0 -51.834 -7.66699 -69.501 -23s-26.5 -36 -26.5 -62zM378 169.999c0 27.333 -8.99902 50.167 -26.999 68.5s-48 37.833 -90 58.5
c-41.333 -19.333 -71 -38.333 -89 -57s-27 -42 -27 -70c0 -30 10.167 -53.5 30.5 -70.5s49.166 -25.5 86.499 -25.5c36 0 64.333 8.5 85 25.5s31 40.5 31 70.5z" />
    <glyph glyph-name="nine" unicode="9" horiz-adv-x="497" 
d="M460 447c0 -34.667 -6 -66 -18 -94c-12.667 -30 -33 -68 -61 -114l-146 -239h-118l140 230c-12 -1.33301 -19.667 -2 -23 -2c-56 0 -102.833 20.5 -140.5 61.5s-56.5 93.5 -56.5 157.5c0 65.333 20.167 119 60.5 161s90.833 63 151.5 63s111 -20.833 151 -62.5
s60 -95.5 60 -161.5zM359 446c0 40 -10.167 72 -30.5 96s-46.833 36 -79.5 36s-59.334 -12 -80.001 -36s-31 -56 -31 -96c0 -39.333 10.333 -71 31 -95s47.334 -36 80.001 -36s59.167 12 79.5 36s30.5 55.667 30.5 95z" />
    <glyph glyph-name="colon" unicode=":" horiz-adv-x="253" 
d="M54 426c0 20.667 7 38 21 52s31.333 21 52 21s38 -7 52 -21s21 -31.333 21 -52c0 -21.333 -7 -38.833 -21 -52.5s-31.333 -20.5 -52 -20.5s-38 6.83301 -52 20.5s-21 31.167 -21 52.5zM54 62c0 20.667 7 38 21 52s31.333 21 52 21s38 -7 52 -21s21 -31.333 21 -52
c0 -21.333 -7 -38.833 -21 -52.5s-31.333 -20.5 -52 -20.5s-38 6.83301 -52 20.5s-21 31.167 -21 52.5z" />
    <glyph glyph-name="semicolon" unicode=";" horiz-adv-x="253" 
d="M54 426c0 20.667 7 38 21 52s31.333 21 52 21s38 -7 52 -21s21 -31.333 21 -52c0 -21.333 -7 -38.833 -21 -52.5s-31.333 -20.5 -52 -20.5s-38 6.83301 -52 20.5s-21 31.167 -21 52.5zM67 -179l8 283h117l-43 -283h-82z" />
    <glyph glyph-name="less" unicode="&#x3c;" 
d="M451 527v-95l-253 -114l253 -115v-95l-413 193v32z" />
    <glyph glyph-name="equal" unicode="=" 
d="M51 377v89h405v-89h-405zM51 168v89h405v-89h-405z" />
    <glyph glyph-name="greater" unicode="&#x3e;" 
d="M56 527l412 -194v-32l-412 -193v95l253 115l-253 114v95z" />
    <glyph glyph-name="question" unicode="?" horiz-adv-x="411" 
d="M139 269c0 19.333 5 37.4971 15 54.4971s27.667 38.167 53 63.5c26.667 28.667 44.334 50.334 53.001 65.001s13 30.667 13 48c0 22.667 -6.83301 41.167 -20.5 55.5s-30.834 21.5 -51.501 21.5c-42.667 0 -72 -28.667 -88 -86l-86 32c12.667 48 34.167 84.667 64.5 110
s67.833 38 112.5 38c50 0 91.333 -15.333 124 -46s49 -70 49 -118c0 -27.333 -6.16699 -52.166 -18.5 -74.499s-33.833 -49.833 -64.5 -82.5c-24.667 -25.333 -41.167 -44.666 -49.5 -57.999s-12.5 -27.333 -12.5 -42c0 -1.33301 1 -11 3 -29h-86c-6.66699 16 -10 32 -10 48
zM123 61.9971c0 20.667 7 38 21 52s31.333 21 52 21s38 -7 52 -21s21 -31.333 21 -52c0 -21.333 -7 -38.833 -21 -52.5s-31.333 -20.5 -52 -20.5s-38 6.83301 -52 20.5s-21 31.167 -21 52.5z" />
    <glyph glyph-name="at" unicode="@" horiz-adv-x="857" 
d="M818 286c0 -80.667 -22.333 -143.001 -67 -187.001s-106.334 -66 -185.001 -66h-37v50c-27.333 -40 -68.666 -60 -123.999 -60c-52.667 0 -95.167 19.833 -127.5 59.5s-48.5 91.167 -48.5 154.5c0 64 16.333 115.833 49 155.5s75.334 59.5 128.001 59.5
c54 0 94 -19 120 -57v48h90v-324c77.333 7.33301 116 62.333 116 165c0 88.667 -26 159.667 -78 213s-122 80 -210 80c-94 0 -170.167 -30.5 -228.5 -91.5s-87.5 -141.5 -87.5 -241.5s28.333 -180.333 85 -241s130 -91 220 -91c35.333 0 73 5.66699 113 17l15 -77
c-39.333 -16 -84.333 -24 -135 -24c-111.333 -1.33301 -204 37.334 -278 116.001s-110.333 178.334 -109 299.001c-1.33301 122 36.5 222.5 113.5 301.5s173.5 117.833 289.5 116.5c109.333 1.33301 199.666 -33.834 270.999 -105.501s106.333 -161.5 105 -269.5z
M521 236.999c0 40.667 -8.66797 72.167 -26.001 94.5s-40.333 33.5 -69 33.5c-30 0 -53.833 -11.5 -71.5 -34.5s-26.5 -54.167 -26.5 -93.5c0 -38.667 9 -69.5 27 -92.5s41.333 -34.5 70 -34.5s51.834 11 69.501 33s26.5 53.333 26.5 94z" />
    <glyph glyph-name="A" unicode="A" horiz-adv-x="591" 
d="M465 0l-41 111h-257l-41 -111h-109l258 668h41l258 -668h-109zM391 199l-96 273l-96 -273h192z" />
    <glyph glyph-name="B" unicode="B" horiz-adv-x="559" 
d="M526 190c0 -56 -18.999 -101.667 -56.999 -137s-88 -53 -150 -53h-247v660h204c59.333 0 106.666 -16 141.999 -48s53 -74 53 -126c0 -54.667 -19.667 -97.667 -59 -129c36 -13.333 64 -34.5 84 -63.5s30 -63.5 30 -103.5zM268.001 570l-94.999 -0.000976562v-181h96
c31.333 0 55.666 8 72.999 24s26 38.333 26 67s-8.66699 50.834 -26 66.501s-42 23.5 -74 23.5zM423.002 194.999c0 32.667 -9.83301 58.332 -29.5 76.999s-47.5 28 -83.5 28h-137v-210h136c36 0 64 9.33301 84 28s30 44.334 30 77.001z" />
    <glyph glyph-name="C" unicode="C" horiz-adv-x="620" 
d="M39 330c0 100.667 27.834 182.667 83.501 246s126.834 95 213.501 95c57.333 0 107.166 -13.667 149.499 -41s74.833 -66 97.5 -116l-83 -47c-36.667 72.667 -91 109 -163 109c-57.333 0 -103.666 -22.333 -138.999 -67s-53 -104.334 -53 -179.001
c0 -75.333 17.667 -135.166 53 -179.499s81.666 -66.5 138.999 -66.5c72 0 126.333 36.333 163 109l83 -47c-22 -50 -54.333 -88.667 -97 -116s-92.667 -41 -150 -41c-86.667 0 -157.834 31.667 -213.501 95s-83.5 145.333 -83.5 246z" />
    <glyph glyph-name="D" unicode="D" horiz-adv-x="616" 
d="M72 0v660h183c99.333 0 177.833 -28.667 235.5 -86s86.5 -138 86.5 -242c0 -103.333 -29 -184.5 -87 -243.5s-136.333 -88.5 -235 -88.5h-183zM175 93h80c68.667 0 122 20.833 160 62.5s57 100.5 57 176.5c0 75.333 -19 133.333 -57 174s-91.333 61 -160 61h-80v-474z
" />
    <glyph glyph-name="E" unicode="E" horiz-adv-x="509" 
d="M72 0v660h390v-93h-287v-172h217v-90h-217v-212h298v-93h-401z" />
    <glyph glyph-name="F" unicode="F" horiz-adv-x="475" 
d="M72 0v660h381v-93h-278v-200h229v-93h-229v-274h-103z" />
    <glyph glyph-name="G" unicode="G" horiz-adv-x="644" 
d="M39 331c0 101.333 27.8311 183.334 83.498 246.001s127.834 94 216.501 94c110.667 0 191 -48.333 241 -145l-80 -49c-38 66 -92 99 -162 99c-59.333 0 -106.333 -22 -141 -66s-52 -103.667 -52 -179c0 -76.667 17.833 -137.334 53.5 -182.001s84.167 -67 145.5 -67
c70.667 0 123.334 27 158.001 81v94h-166v91h269v-205c-24.667 -46.667 -60.667 -84 -108 -112s-99.333 -42 -156 -42c-89.333 0 -162 31.5 -218 94.5s-84 145.5 -84 247.5z" />
    <glyph glyph-name="H" unicode="H" horiz-adv-x="635" 
d="M72 0v660h103v-263h285v263h103v-660h-103v304h-285v-304h-103z" />
    <glyph glyph-name="I" unicode="I" horiz-adv-x="247" 
d="M72 0v660h103v-660h-103z" />
    <glyph glyph-name="J" unicode="J" horiz-adv-x="343" 
d="M17 -1l0.000976562 89c31.333 -3.33301 51.666 -5 60.999 -5c30.667 0 53.167 6.5 67.5 19.5s21.5 34.167 21.5 63.5v494h103v-508c0 -54 -14.667 -94.667 -44 -122s-71.333 -41 -126 -41c-28 0 -55.667 3.33301 -83 10z" />
    <glyph glyph-name="K" unicode="K" horiz-adv-x="586" 
d="M72 0v660h103v-660h-103zM302 352l265 -352h-124l-266 352l244 308h123z" />
    <glyph glyph-name="L" unicode="L" horiz-adv-x="459" 
d="M72 0v660h103v-567h263v-93h-366z" />
    <glyph glyph-name="M" unicode="M" horiz-adv-x="710" 
d="M597 668h40v-668h-103v406l-161 -237h-36l-162 238v-407h-103v668h42l241 -358z" />
    <glyph glyph-name="N" unicode="N" horiz-adv-x="635" 
d="M460 660h103v-668h-41l-347 445v-437h-103v668h42l346 -444v436z" />
    <glyph glyph-name="O" unicode="O" horiz-adv-x="674" 
d="M39 330c0 102 27.6689 184.333 83.002 247s126.666 94 213.999 94c88 0 159.833 -31.333 215.5 -94s83.5 -144.667 83.5 -246c0 -102 -28 -184.5 -84 -247.5s-127.667 -94.5 -215 -94.5c-86.667 0 -157.834 31.667 -213.501 95s-83.5 145.333 -83.5 246zM530.002 331
c0 74.667 -17.667 134.167 -53 178.5s-82 66.5 -140 66.5c-58.667 0 -105.334 -21.833 -140.001 -65.5s-52 -103.5 -52 -179.5s17.333 -136.167 52 -180.5s81.334 -66.5 140.001 -66.5c58 0 104.667 22.167 140 66.5s53 104.5 53 180.5z" />
    <glyph glyph-name="P" unicode="P" horiz-adv-x="534" 
d="M72 0v659.999h214c66.667 0 119.5 -18.167 158.5 -54.5s58.5 -85.166 58.5 -146.499c0 -62 -19.667 -111.5 -59 -148.5s-92 -55.5 -158 -55.5h-111v-255h-103zM175 347.999h110c36 0 63.833 9.66699 83.5 29s29.5 46.333 29.5 81s-9.83301 61.667 -29.5 81
s-47.5 29 -83.5 29h-110v-220z" />
    <glyph glyph-name="Q" unicode="Q" horiz-adv-x="674" 
d="M866 -114l0.00195312 -82c-30.667 -6 -60 -9 -88 -9c-144.667 0 -261 69.333 -349 208c-31.333 -9.33301 -62.333 -14 -93 -14c-86.667 0 -157.834 31.667 -213.501 95s-83.5 145.333 -83.5 246c0 102 27.667 184.333 83 247s126.666 94 213.999 94
c88 0 159.833 -31.333 215.5 -94s83.5 -144.667 83.5 -246c0 -126 -40.667 -220.667 -122 -284c40 -58.667 82 -100.667 126 -126s96.333 -38 157 -38c20.667 0 44 1 70 3zM337.002 84c58 0 104.667 22.001 140 66.001s53 104 53 180c0 75.333 -17.667 135.166 -53 179.499
s-82 66.5 -140 66.5c-58.667 0 -105.334 -21.833 -140.001 -65.5s-52 -103.5 -52 -179.5s17.333 -136.167 52 -180.5s81.334 -66.5 140.001 -66.5z" />
    <glyph glyph-name="R" unicode="R" horiz-adv-x="573" 
d="M562 0l-115 -0.000976562l-165 256h-107v-256h-103v660h214c66.667 0 119.5 -18.167 158.5 -54.5s58.5 -85.166 58.5 -146.499c0 -43.333 -10.167 -81 -30.5 -113s-48.833 -55.667 -85.5 -71zM175 567.999v-220h110c36 0 63.833 9.66699 83.5 29s29.5 46.333 29.5 81
c0 34 -9.83301 60.833 -29.5 80.5s-47.5 29.5 -83.5 29.5h-110z" />
    <glyph glyph-name="S" unicode="S" horiz-adv-x="509" 
d="M30 138l78 47.999c37.333 -69.333 87 -104 149 -104c31.333 0 56.333 8 75 24s28 37.333 28 64c0 21.333 -6.16699 39 -18.5 53s-36.166 31.667 -71.499 53l-65 37c-48.667 30 -84.167 59 -106.5 87s-33.5 61 -33.5 99c0 50.667 18.5 92 55.5 124s83.5 48 139.5 48
c45.333 0 85.166 -11.333 119.499 -34s60.833 -54.334 79.5 -95.001l-78 -47c-29.333 55.333 -69.333 83 -120 83c-27.333 0 -49.333 -6.83301 -66 -20.5s-25 -32.5 -25 -56.5c0 -19.333 6 -35.666 18 -48.999s33.667 -29.333 65 -48l66 -38
c52 -31.333 89.333 -61.666 112 -90.999s34 -63.666 34 -102.999c0 -54.667 -19.333 -98.834 -58 -132.501s-88.334 -50.5 -149.001 -50.5c-52 0 -97.667 12.833 -137 38.5s-69.666 62.5 -90.999 110.5z" />
    <glyph glyph-name="T" unicode="T" horiz-adv-x="524" 
d="M210 0v567h-195v93h494v-93h-196v-567h-103z" />
    <glyph glyph-name="U" unicode="U" horiz-adv-x="622" 
d="M66 242v418h103v-424c0 -48 12.833 -85.333 38.5 -112s60.167 -40 103.5 -40s77.833 13.333 103.5 40s38.5 64 38.5 112v424h103v-418c0 -77.333 -22.833 -138.833 -68.5 -184.5s-104.5 -68.5 -176.5 -68.5c-72.667 0 -131.667 22.833 -177 68.5s-68 107.167 -68 184.5z
" />
    <glyph glyph-name="V" unicode="V" horiz-adv-x="591" 
d="M460 660h114l-258 -668h-41l-258 668h114l165 -446z" />
    <glyph glyph-name="W" unicode="W" horiz-adv-x="934" 
d="M793 660h112l-229 -668h-41l-168 453l-168 -453h-42l-228 668h112l143 -438l162 446h41l163 -444z" />
    <glyph glyph-name="X" unicode="X" horiz-adv-x="550" 
d="M530 0h-117l-138 244l-138 -244h-117l195 335l-186 325h117l130 -236l128 236h116l-184 -325z" />
    <glyph glyph-name="Y" unicode="Y" horiz-adv-x="555" 
d="M532 660l-203 -394v-266h-103v264l-204 396h114l142 -286l142 286h112z" />
    <glyph glyph-name="Z" unicode="Z" horiz-adv-x="520" 
d="M174 93h320v-93h-471v33l319 534h-284v93h434v-33z" />
    <glyph glyph-name="bracketleft" unicode="[" horiz-adv-x="317" 
d="M85 -131v860h194v-84h-102v-690h102v-86h-194z" />
    <glyph glyph-name="backslash" unicode="\" horiz-adv-x="587" 
d="M473 -121l-469 901h111l468 -901h-110z" />
    <glyph glyph-name="bracketright" unicode="]" horiz-adv-x="317" 
d="M38 -131v86h102v690h-102v84h194v-860h-194z" />
    <glyph glyph-name="asciicircum" unicode="^" horiz-adv-x="475" 
d="M427 281h-99l-90 214l-91 -214h-99l170 386h39z" />
    <glyph glyph-name="underscore" unicode="_" horiz-adv-x="453" 
d="M35 -154v83h383v-83h-383z" />
    <glyph glyph-name="grave" unicode="`" horiz-adv-x="474" 
d="M258 571l-117 186v18h122l70 -204h-75z" />
    <glyph glyph-name="a" unicode="a" horiz-adv-x="485" 
d="M424 313l0.000976562 -313h-94v50c-33.333 -40.667 -80 -61 -140 -61c-46.667 0 -84.334 13 -113.001 39s-43 59.667 -43 101c0 43.333 15.5 77.833 46.5 103.5s72.5 38.5 124.5 38.5h117v44c0 30.667 -8 54.167 -24 70.5s-38.667 24.5 -68 24.5
c-45.333 0 -85 -23 -119 -69l-62 56c44.667 70 108 105 190 105c57.333 0 102.5 -16.5 135.5 -49.5s49.5 -79.5 49.5 -139.5zM322.001 170l-0.000976562 27h-103c-54.667 0 -82 -21 -82 -63c0 -20 7.16699 -35.833 21.5 -47.5s32.833 -17.5 55.5 -17.5
c30.667 0 56.334 9.5 77.001 28.5s31 43.167 31 72.5z" />
    <glyph glyph-name="b" unicode="b" horiz-adv-x="555" 
d="M516 245c0 -76.667 -19.166 -138.5 -57.499 -185.5s-88.833 -70.5 -151.5 -70.5c-66.667 0 -115.667 24.333 -147 73v-62h-94v750h102v-310c33.333 41.333 79.666 62 138.999 62c62 0 112.333 -23.667 151 -71s58 -109.333 58 -186zM412.001 246
c0 50 -11.167 89.667 -33.5 119s-52.5 44 -90.5 44c-36.667 0 -66 -14.167 -88 -42.5s-33 -68.833 -33 -121.5s11 -93 33 -121s51.333 -42 88 -42c38 0 68.167 14.5 90.5 43.5s33.5 69.167 33.5 120.5z" />
    <glyph glyph-name="c" unicode="c" horiz-adv-x="486" 
d="M40 246c0 76 21.3291 137.667 63.9961 185s97.334 71 164.001 71c86.667 0 148.334 -40 185.001 -120l-76 -46c-27.333 48.667 -63.666 73 -108.999 73c-38 0 -68.333 -14.667 -91 -44s-34 -69 -34 -119c0 -50.667 11.333 -90.667 34 -120s53 -44 91 -44
c46.667 0 82.667 24 108 72l77 -45c-37.333 -80 -99 -120 -185 -120c-67.333 0 -122.166 23.833 -164.499 71.5s-63.5 109.5 -63.5 185.5z" />
    <glyph glyph-name="d" unicode="d" horiz-adv-x="555" 
d="M387 750h102.001v-750h-94v62c-32 -48.667 -81 -73 -147 -73c-62 0 -112.167 23.5 -150.5 70.5s-57.5 108.833 -57.5 185.5s19.167 138.667 57.5 186s88.5 71 150.5 71c59.333 0 105.666 -21 138.999 -63v311zM388.001 245c0 52.667 -11 93.167 -33 121.5
s-51.333 42.5 -88 42.5c-38 0 -68.167 -14.667 -90.5 -44s-33.5 -69 -33.5 -119c0 -51.333 11.167 -91.5 33.5 -120.5s52.5 -43.5 90.5 -43.5c36.667 0 66 14 88 42s33 68.333 33 121z" />
    <glyph glyph-name="e" unicode="e" horiz-adv-x="504" 
d="M458 212h-316.001c5.33301 -43.333 19.5 -76.333 42.5 -99s53.5 -34 91.5 -34c45.333 0 85.333 19 120 57l55 -64c-47.333 -55.333 -106.666 -83 -177.999 -83c-69.333 0 -125.5 23.5 -168.5 70.5s-64.5 108.833 -64.5 185.5c0 75.333 20.833 137 62.5 185
s95.167 72 160.5 72c60 0 108.5 -20.5 145.5 -61.5s55.5 -94.833 55.5 -161.5c0 -26 -2 -48.333 -6 -67zM142.999 291h222.999c0 38.667 -9.66699 69 -29 91s-44.666 33 -75.999 33c-32 0 -58.333 -10.667 -79 -32s-33.667 -52 -39 -92z" />
    <glyph glyph-name="f" unicode="f" horiz-adv-x="297" 
d="M189 592l0.000976562 -100.999h101v-88h-101v-403h-102v403h-69v88h69v111c0 52 14 91.5 42 118.5s67.667 40.5 119 40.5c21.333 0 41.666 -2.66699 60.999 -8v-86c-4.66699 0 -10 0.166992 -16 0.5s-10.5 0.666016 -13.5 0.999023s-5.5 0.5 -7.5 0.5
c-28.667 0 -49.667 -6 -63 -18s-20 -31.667 -20 -59z" />
    <glyph glyph-name="g" unicode="g" horiz-adv-x="557" 
d="M397 491l92.998 -0.000976562v-466c0 -68 -19.667 -121 -59 -159s-92.666 -57 -159.999 -57c-88 0 -158.333 31.333 -211 94l61 66c45.333 -45.333 93.333 -68 144 -68c38.667 0 69 10.5 91 31.5s33 50.833 33 89.5v49c-32.667 -40.667 -79.667 -61 -141 -61
s-111 22.5 -149 67.5s-57 104.5 -57 178.5c0 74.667 19 134.334 57 179.001s87.667 67 149 67c66.667 0 116.334 -24.667 149.001 -74v63zM389.998 255.999c0 50 -11 88.333 -33 115s-51.333 40 -88 40c-38 0 -68.167 -13.833 -90.5 -41.5s-33.5 -65.5 -33.5 -113.5
s11.5 -86 34.5 -114s52.833 -42 89.5 -42s66 13.5 88 40.5s33 65.5 33 115.5z" />
    <glyph glyph-name="h" unicode="h" horiz-adv-x="520" 
d="M458 323l-0.000976562 -323h-101v311c0 29.333 -8.5 53 -25.5 71s-39.5 27 -67.5 27s-51 -9.16699 -69 -27.5s-27 -41.833 -27 -70.5v-311h-102v750h102v-299c30.667 34 72.334 51 125.001 51c50 0 90 -16.333 120 -49s45 -76 45 -130z" />
    <glyph glyph-name="i" unicode="i" horiz-adv-x="234" 
d="M66 0v491h102v-491h-102zM48 673c0 19.333 6.66699 35.5 20 48.5s29.666 19.5 48.999 19.5s35.666 -6.66699 48.999 -20s20 -29.333 20 -48s-6.66699 -34.5 -20 -47.5s-29.666 -19.5 -48.999 -19.5s-35.666 6.5 -48.999 19.5s-20 28.833 -20 47.5z" />
    <glyph glyph-name="j" unicode="j" horiz-adv-x="234" 
d="M-49 -183l-0.000976562 86c22.667 -1.33301 34.334 -2 35.001 -2c27.333 0 47.5 6 60.5 18s19.5 31.333 19.5 58v514h102v-525c0 -50.667 -14 -89.5 -42 -116.5s-67 -40.5 -117 -40.5c-20.667 0 -40 2.66699 -58 8zM47.999 673c0 19.333 6.66699 35.5 20 48.5
s29.666 19.5 48.999 19.5s35.666 -6.66699 48.999 -20s20 -29.333 20 -48s-6.66699 -34.5 -20 -47.5s-29.666 -19.5 -48.999 -19.5s-35.666 6.5 -48.999 19.5s-20 28.833 -20 47.5z" />
    <glyph glyph-name="k" unicode="k" horiz-adv-x="486" 
d="M66 0v750h102v-750h-102zM288 272l190 -272h-119l-190 275l173 216h123z" />
    <glyph glyph-name="l" unicode="l" horiz-adv-x="234" 
d="M66 0v750h102v-750h-102z" />
    <glyph glyph-name="m" unicode="m" horiz-adv-x="798" 
d="M737 323v-323h-102v311c0 29.333 -8 53 -24 71s-37.333 27 -64 27c-28 0 -50.833 -9 -68.5 -27s-26.5 -40.667 -26.5 -68v-314h-101v311c0 29.333 -8.16699 53 -24.5 71s-37.833 27 -64.5 27c-28 0 -50.667 -9 -68 -27s-26 -41.667 -26 -71v-311h-102v491h94v-43
c32 36 75.333 54 130 54c58.667 0 102.667 -23 132 -69c37.333 46 87 69 149 69c50 0 90.167 -16.333 120.5 -49s45.5 -76 45.5 -130z" />
    <glyph glyph-name="n" unicode="n" horiz-adv-x="520" 
d="M458 323v-322.998h-101v311c0 29.333 -8.5 53.166 -25.5 71.499s-39.5 27.5 -67.5 27.5s-51 -9.33301 -69 -28s-27 -42.334 -27 -71.001v-311h-102v491h94v-44c32.667 36.667 76.667 55 132 55c51.333 0 91.833 -16.167 121.5 -48.5s44.5 -75.833 44.5 -130.5z" />
    <glyph glyph-name="o" unicode="o" horiz-adv-x="535" 
d="M40 246c0 75.333 21.333 136.833 64 184.5s97 71.5 163 71.5c66.667 0 121.334 -24 164.001 -72s64 -109.333 64 -184c0 -75.333 -21.333 -137 -64 -185s-97.334 -72 -164.001 -72c-66 0 -120.333 24 -163 72s-64 109.667 -64 185zM392 245
c0 50 -11.333 89.833 -34 119.5s-52.667 44.5 -90 44.5c-38 0 -68.333 -14.667 -91 -44s-34 -69.333 -34 -120s11.167 -90.5 33.5 -119.5s52.5 -43.5 90.5 -43.5s68.333 14.667 91 44s34 69 34 119z" />
    <glyph glyph-name="p" unicode="p" horiz-adv-x="555" 
d="M516 246c0 -76.667 -19.168 -138.667 -57.501 -186s-88.833 -71 -151.5 -71c-59.333 0 -105.666 20.333 -138.999 61v-230h-102v671h94v-63c32.667 49.333 81.667 74 147 74c62.667 0 113.167 -23.5 151.5 -70.5s57.5 -108.833 57.5 -185.5zM411.999 245
c0 51.333 -11.333 91.5 -34 120.5s-53 43.5 -91 43.5c-36 0 -65.167 -14.167 -87.5 -42.5s-33.5 -68.833 -33.5 -121.5c0 -52 11.167 -92.167 33.5 -120.5s51.5 -42.5 87.5 -42.5c38.667 0 69.167 14.333 91.5 43s33.5 68.667 33.5 120z" />
    <glyph glyph-name="q" unicode="q" horiz-adv-x="555" 
d="M395 491h93.999v-671h-102v231c-33.333 -41.333 -79.666 -62 -138.999 -62c-62 0 -112.167 23.5 -150.5 70.5s-57.5 108.833 -57.5 185.5s19.167 138.667 57.5 186s88.5 71 150.5 71c65.333 0 114.333 -24.667 147 -74v63zM387.999 245c0 52.667 -11 93.167 -33 121.5
s-51.333 42.5 -88 42.5c-38 0 -68.167 -14.5 -90.5 -43.5s-33.5 -69.167 -33.5 -120.5c0 -50.667 11.167 -90.5 33.5 -119.5s52.5 -43.5 90.5 -43.5c36.667 0 66 14 88 42s33 68.333 33 121z" />
    <glyph glyph-name="r" unicode="r" horiz-adv-x="341" 
d="M325 491v-93h-31c-38 0 -68.5 -10.667 -91.5 -32s-34.5 -51 -34.5 -89v-277h-102v491h94v-59c30 42.667 73 64 129 64c10.667 0 22.667 -1.66699 36 -5z" />
    <glyph glyph-name="s" unicode="s" horiz-adv-x="417" 
d="M25 89l61.998 56.998c36.667 -46 77 -69 121 -69c20.667 0 37.834 5.16699 51.501 15.5s20.5 23.5 20.5 39.5c0 13.333 -4.5 24.333 -13.5 33s-25.833 19.334 -50.5 32.001l-45 22c-41.333 21.333 -71.333 43 -90 65s-28 48.667 -28 80c0 42 15 75.5 45 100.5
s69 37.5 117 37.5c71.333 0 125 -27.667 161 -83l-60 -57c-28.667 34.667 -62.334 52 -101.001 52c-18.667 0 -33.667 -4.16699 -45 -12.5s-17 -20.166 -17 -35.499c0 -20.667 19.667 -41 59 -61l42 -20c44.667 -22.667 76.834 -45.5 96.501 -68.5s29.5 -50.5 29.5 -82.5
c0 -44.667 -16.333 -80 -49 -106c-32 -26 -72.667 -39 -122 -39c-81.333 0 -142.666 33.333 -183.999 100z" />
    <glyph glyph-name="t" unicode="t" horiz-adv-x="359" 
d="M333 85v-86c-24 -6.66699 -49.667 -10 -77 -10c-52.667 0 -93.167 13.333 -121.5 40s-42.5 65.667 -42.5 117v257h-76v88h76v129h101v-129h127v-88h-127v-248c0 -49.333 28.333 -74 85 -74c20 0 38.333 1.33301 55 4z" />
    <glyph glyph-name="u" unicode="u" horiz-adv-x="515" 
d="M62 187v304h101v-312c0 -30 8.83301 -53.667 26.5 -71s40.5 -26 68.5 -26s50.667 8.83301 68 26.5s26 41.167 26 70.5v312h102v-304c0 -59.333 -18.333 -107.166 -55 -143.499s-83.667 -54.5 -141 -54.5s-104.333 18.167 -141 54.5s-55 84.166 -55 143.499z" />
    <glyph glyph-name="v" unicode="v" horiz-adv-x="496" 
d="M373 491h107l-211 -499h-42l-212 499h108l125 -318z" />
    <glyph glyph-name="w" unicode="w" horiz-adv-x="769" 
d="M646 491h107l-192 -499h-43l-134 322l-134 -322h-41l-194 499h108l112 -314l128 321h42l130 -319z" />
    <glyph glyph-name="x" unicode="x" horiz-adv-x="466" 
d="M455 0h-115l-107 178l-107 -178h-115l161 255l-150 236h115l96 -159l96 159h115l-151 -235z" />
    <glyph glyph-name="y" unicode="y" horiz-adv-x="496" 
d="M373 491l107.998 0.000976562l-216 -550c-18.667 -46.667 -41.167 -80.334 -67.5 -101.001s-59.833 -31 -100.5 -31c-19.333 0 -42.666 3 -69.999 9v86c18.667 -2 35.334 -3 50.001 -3c23.333 0 42.333 5 57 15s27 27.667 37 53l21 54l-177 468h109l122 -351z" />
    <glyph glyph-name="z" unicode="z" horiz-adv-x="415" 
d="M163 88h234v-88h-378v33l232 370h-212v88h355v-34z" />
    <glyph glyph-name="braceleft" unicode="{" horiz-adv-x="366" 
d="M218 580c0 -21.333 3.66699 -55 11 -101c6.66699 -44.667 10 -76 10 -94c0 -44.667 -22 -73.334 -66 -86.001c44 -12.667 66 -41 66 -85c0 -19.333 -3.33301 -50.333 -10 -93c-7.33301 -46 -11 -80 -11 -102c0 -43.333 20.667 -65 62 -65h48v-85h-68
c-89.333 0 -134 42.333 -134 127c0 29.333 4 70.333 12 123c6 36.667 9 63.334 9 80.001c0 38 -18.333 57 -55 57h-48v87h48c36.667 0 55 18.667 55 56c0 15.333 -3 42.333 -9 81c-8 52 -12 93 -12 123c0 84 44.667 126 134 126h68v-84h-48c-41.333 0 -62 -21.667 -62 -65z
" />
    <glyph glyph-name="bar" unicode="|" horiz-adv-x="301" 
d="M106 -121v901h89v-901h-89z" />
    <glyph glyph-name="braceright" unicode="}" horiz-adv-x="366" 
d="M274 343l49 0.00195312v-87h-49c-36.667 0 -55 -19 -55 -57c0 -16.667 3 -43.334 9 -80.001c8 -52.667 12 -93.667 12 -123c0 -84.667 -44.333 -127 -133 -127h-69v85h48c42 0 63 21.667 63 65c0 14 -1.66699 33.667 -5 59l-6 43c-7.33301 42.667 -11 73.667 -11 93
c0 44 22 72.333 66 85c-44 12.667 -66 41.334 -66 86.001c0 17.333 3.66699 48.666 11 93.999l6 43c3.33301 25.333 5 44.666 5 57.999c0 43.333 -21 65 -63 65h-48v84h69c88.667 0 133 -42 133 -126c0 -30 -4 -71 -12 -123c-6 -38.667 -9 -65.667 -9 -81
c0 -37.333 18.333 -56 55 -56z" />
    <glyph glyph-name="asciitilde" unicode="~" 
d="M285 248l-75 46.001c-26.667 16 -44.667 24 -54 24c-10.667 0 -19 -3.83301 -25 -11.5s-9 -17.5 -9 -29.5v-24h-80c0 5.33301 -0.166992 11 -0.5 17s-0.666016 10.667 -0.999023 14s-0.5 5.66602 -0.5 6.99902c0 35.333 9.5 64.166 28.5 86.499s43.5 33.5 73.5 33.5
c23.333 0 49.666 -8.66699 78.999 -26l75 -46c26 -15.333 44.333 -23 55 -23c22 0 33 13.333 33 40v25h81c0 -5.33301 0.166992 -11 0.5 -17s0.666016 -10.667 0.999023 -14s0.5 -5.66602 0.5 -6.99902c0 -35.333 -9.5 -64.333 -28.5 -87s-43.833 -34 -74.5 -34
c-23.333 0 -49.666 8.66699 -78.999 26z" />
    <glyph glyph-name="uni00A0" unicode="&#xa0;" horiz-adv-x="253" 
 />
    <glyph glyph-name="exclamdown" unicode="&#xa1;" horiz-adv-x="303" 
d="M78 436c0 20.667 7 38 21 52s31.667 21 53 21c20 0 37 -7 51 -21s21 -31.333 21 -52c0 -21.333 -7 -38.833 -21 -52.5s-31 -20.5 -51 -20.5c-21.333 0 -39 6.83301 -53 20.5s-21 31.167 -21 52.5zM91 -180l19 457h83l19 -457h-121z" />
    <glyph glyph-name="cent" unicode="&#xa2;" horiz-adv-x="504" 
d="M381 235l72.999 -49.001c-33.333 -66 -83.666 -103.667 -150.999 -113v-168h-93v172c-52.667 13.333 -94.834 42.5 -126.501 87.5s-47.5 99.167 -47.5 162.5s15.833 117.333 47.5 162s73.834 73.667 126.501 87v174h93v-170c68 -9.33301 118.667 -46.666 152 -111.999
l-74 -50c-28 48 -65.333 72 -112 72c-39.333 0 -70.833 -14.833 -94.5 -44.5s-35.5 -69.167 -35.5 -118.5s11.833 -89 35.5 -119s55.167 -45 94.5 -45c46 0 83.333 24 112 72z" />
    <glyph glyph-name="sterling" unicode="&#xa3;" horiz-adv-x="498" 
d="M217 87l240.999 -0.00195312v-87h-415v30c80 56.667 120 117.334 120 182.001c0 2 -0.666992 11 -2 27h-113v89h84l-3.5 7c-1.66699 3.33301 -4 8.33301 -7 15s-5.83301 12.667 -8.5 18c-20.667 45.333 -31 87.333 -31 126c0 52.667 17.667 95.334 53 128.001
s80.333 49 135 49c102 0 167.667 -55 197 -165l-88 -31c-18.667 68 -53 102 -103 102c-27.333 0 -49.166 -8.66699 -65.499 -26s-24.5 -40.333 -24.5 -69c0 -30 12 -71.333 36 -124c4 -6.66699 8.66699 -16.667 14 -30h145v-89h-118l1 -26
c0 -51.333 -15.667 -93.333 -47 -126z" />
    <glyph glyph-name="currency" unicode="&#xa4;" horiz-adv-x="609" 
d="M484 199l105 -114l-65 -61l-107 116c-33.333 -19.333 -71 -29 -113 -29s-79.333 9.33301 -112 28l-106 -115l-65 61l103 113c-28.667 38.667 -43 82.667 -43 132c0 50 14.333 93.667 43 131l-103 113l65 61l105 -115c33.333 19.333 71 29 113 29s79.667 -9.66699 113 -29
l106 115l66 -61l-105 -113c28.667 -37.333 43 -81 43 -131s-14.333 -93.667 -43 -131zM304 204c35.333 0 64.168 11.833 86.501 35.5s33.5 53.834 33.5 90.501s-11.333 67 -34 91s-51.334 36 -86.001 36c-35.333 0 -64 -11.833 -86 -35.5s-33 -54.167 -33 -91.5
c0 -36.667 11.167 -66.834 33.5 -90.501s50.833 -35.5 85.5 -35.5z" />
    <glyph glyph-name="yen" unicode="&#xa5;" horiz-adv-x="523" 
d="M518 660l-188 -294h151v-86h-167v-79h167v-85h-167v-116h-103v116h-168v85h168v79h-168v86h151l-188 294h113l143 -232l143 232h113z" />
    <glyph glyph-name="brokenbar" unicode="&#xa6;" horiz-adv-x="301" 
d="M106 480v300h89v-300h-89zM106 -121v300h89v-300h-89z" />
    <glyph glyph-name="section" unicode="&#xa7;" horiz-adv-x="532" 
d="M399 55c2.66699 -8 4.00195 -19.001 4.00195 -33.001c0 -42.667 -14.833 -77.667 -44.5 -105s-69.167 -41 -118.5 -41c-78.667 0 -136 36 -172 108l75 46c25.333 -42.667 57.666 -64 96.999 -64c20 0 35.667 4.83301 47 14.5s17 23.5 17 41.5
c0 16.667 -4.66699 31 -14 43s-29.333 31 -60 57l-102 88c-36.667 28.667 -62.834 54.667 -78.501 78s-23.5 49 -23.5 77c0 31.333 9.16699 58.166 27.5 80.499s44.5 38.833 78.5 49.5c-2.66699 8.66699 -4 19.667 -4 33c0 42.667 15.167 77.834 45.5 105.501
s69.5 41.5 117.5 41.5c79.333 0 137 -36.333 173 -109l-75 -46c-26.667 43.333 -59.334 65 -98.001 65c-20 0 -35.5 -5 -46.5 -15s-16.5 -24 -16.5 -42c0 -17.333 5 -32 15 -44c14.667 -16 34.334 -34.667 59.001 -56l103 -88c36 -28.667 61.667 -54.5 77 -77.5
s23 -48.833 23 -77.5c0 -31.333 -9.16699 -58.166 -27.5 -80.499s-44.5 -38.833 -78.5 -49.5zM408.002 183.999c0 14 -4.33203 26.832 -12.999 38.499s-26 28.167 -52 49.5l-106 91c-30.667 24.667 -53.334 46 -68.001 64c-29.333 -13.333 -44 -33.666 -44 -60.999
c0 -14 4.5 -27 13.5 -39s26.167 -28.333 51.5 -49l104 -90c30 -24 53 -45.333 69 -64c30 14.667 45 34.667 45 60z" />
    <glyph glyph-name="dieresis" unicode="&#xa8;" horiz-adv-x="514" 
d="M90 674c0 17.333 6.5 32.166 19.5 44.499s28.167 18.5 45.5 18.5s32.333 -6.16699 45 -18.5s19 -27.166 19 -44.499s-6.33301 -32.333 -19 -45s-27.667 -19 -45 -19s-32.5 6.33301 -45.5 19s-19.5 27.667 -19.5 45zM295 674c0 17.333 6.5 32.166 19.5 44.499
s28.167 18.5 45.5 18.5s32.333 -6.16699 45 -18.5s19 -27.166 19 -44.499s-6.33301 -32.333 -19 -45s-27.667 -19 -45 -19s-32.5 6.33301 -45.5 19s-19.5 27.667 -19.5 45z" />
    <glyph glyph-name="copyright" unicode="&#xa9;" horiz-adv-x="736" 
d="M39 330c-1.33301 96 30.167 177.167 94.5 243.5s142.166 98.833 233.499 97.5c90.667 1.33301 168.667 -31.167 234 -97.5s97.333 -147.5 96 -243.5c1.33301 -96 -30.667 -177.167 -96 -243.5s-143.333 -98.833 -234 -97.5
c-91.333 -1.33301 -169.166 31.167 -233.499 97.5s-95.833 147.5 -94.5 243.5zM624 330c0 80.667 -24.5 146.5 -73.5 197.5s-110.167 76.5 -183.5 76.5s-134.166 -25.5 -182.499 -76.5s-72.5 -116.833 -72.5 -197.5c0 -81.333 24.167 -147.333 72.5 -198
s109.166 -76 182.499 -76s134.5 25.5 183.5 76.5s73.5 116.833 73.5 197.5zM203 330c0 56.667 15.998 102.666 47.998 137.999s73.667 53 125 53c62.667 0 109.334 -29 140.001 -87l-63 -39c-19.333 33.333 -45 50 -77 50c-27.333 0 -48.833 -10.167 -64.5 -30.5
s-23.5 -48.5 -23.5 -84.5c0 -35.333 7.83301 -63.166 23.5 -83.499s37.167 -30.5 64.5 -30.5c32.667 0 58.334 16.333 77.001 49l63 -39c-30 -57.333 -77 -86 -141 -86c-50.667 0 -92 17.333 -124 52s-48 80.667 -48 138z" />
    <glyph glyph-name="ordfeminine" unicode="&#xaa;" horiz-adv-x="328" 
d="M282 440l-0.000976562 -196.001h-75v25c-21.333 -21.333 -49 -32 -83 -32c-30 0 -53.833 8.5 -71.5 25.5s-26.5 39.167 -26.5 66.5c0 28.667 9.83301 51.167 29.5 67.5s46.167 24.5 79.5 24.5h65v21c0 32.667 -17 49 -51 49c-24 0 -48 -12 -72 -36l-41 50
c32.667 38.667 73.667 58 123 58c38.667 0 68.834 -10.667 90.501 -32s32.5 -51.666 32.5 -90.999zM199.999 351.999v16h-51c-28 0 -42 -11.667 -42 -35c0 -10.667 3.83301 -19 11.5 -25s17.5 -9 29.5 -9c15.333 0 27.833 4.83301 37.5 14.5s14.5 22.5 14.5 38.5z" />
    <glyph glyph-name="guillemotleft" unicode="&#xab;" horiz-adv-x="508" 
d="M194 61l-165 197v29l165 198l70 -54l-124 -158l124 -159zM407 61l-165 197v29l165 198l70 -54l-124 -158l124 -159z" />
    <glyph glyph-name="logicalnot" unicode="&#xac;" 
d="M337 99v173h-296v89h393v-262h-97z" />
    <glyph glyph-name="uni00AD" unicode="&#xad;" horiz-adv-x="309" 
d="M44 273v88h221v-88h-221z" />
    <glyph glyph-name="registered" unicode="&#xae;" horiz-adv-x="563" 
d="M524 436c1.33301 -69.333 -22.002 -129.167 -70.002 -179.5s-105.333 -74.833 -172 -73.5c-67.333 0 -124.666 24.667 -171.999 74s-71 109 -71 179c-1.33301 68.667 22.334 128.167 71.001 178.5s106 74.833 172 73.5c66.667 1.33301 124 -23.167 172 -73.5
s71.333 -109.833 70 -178.5zM464.998 435.999c0 56 -17.5 102.499 -52.5 139.499s-78.5 55.5 -130.5 55.5s-95.5 -18.667 -130.5 -56s-52.5 -83.666 -52.5 -138.999c0 -56 17.5 -102.667 52.5 -140s78.5 -56 130.5 -56s95.5 18.667 130.5 56s52.5 84 52.5 140z
M339.998 404.998l61 -95h-67l-53 80h-29v-80h-61v251h92c28 0 50.833 -7.66699 68.5 -23s26.5 -36 26.5 -62c0 -31.333 -12.667 -55 -38 -71zM251.998 505.998v-62h31c20.667 0 31 10.333 31 31s-10.333 31 -31 31h-31z" />
    <glyph glyph-name="overscore" unicode="&#xaf;" horiz-adv-x="490" 
d="M113 629v83h263v-83h-263z" />
    <glyph glyph-name="degree" unicode="&#xb0;" horiz-adv-x="346" 
d="M24 523c0 41.333 14.333 76.333 43 105s64 43 106 43s77.333 -14.333 106 -43s43 -63.667 43 -105s-14.333 -76.333 -43 -105s-64 -43 -106 -43s-77.333 14.5 -106 43.5s-43 63.833 -43 104.5zM248 523c0 22 -7.16699 40.167 -21.5 54.5s-32.166 21.5 -53.499 21.5
c-20.667 0 -38.167 -7.33301 -52.5 -22s-21.5 -32.667 -21.5 -54s7.16699 -39.333 21.5 -54s31.833 -22 52.5 -22c21.333 0 39.166 7.33301 53.499 22s21.5 32.667 21.5 54z" />
    <glyph glyph-name="plusminus" unicode="&#xb1;" 
d="M205 161v147h-154v86h154v143h98v-143h153v-86h-153v-147h-98zM51 0v86h405v-86h-405z" />
    <glyph glyph-name="uni00B2" unicode="&#xb2;" horiz-adv-x="347" 
d="M169 437l144.001 0.000976562v-73h-282v23l130 151c22.667 27.333 38.334 49.166 47.001 65.499s13 33.5 13 51.5c0 16.667 -4.83301 30.334 -14.5 41.001s-22.5 16 -38.5 16c-16.667 0 -29.834 -5.33301 -39.501 -16s-14.5 -25 -14.5 -43
c0 -1.33301 0.166992 -3.33301 0.5 -6s0.666016 -6.5 0.999023 -11.5s0.5 -9.5 0.5 -13.5h-78c-2.66699 8.66699 -4 21 -4 37c0 34.667 12.667 64.667 38 90s58 38 98 38c39.333 0 71.5 -11.833 96.5 -35.5s37.5 -53.834 37.5 -90.501c0 -26.667 -6.5 -52 -19.5 -76
s-35.5 -55 -67.5 -93z" />
    <glyph glyph-name="uni00B3" unicode="&#xb3;" horiz-adv-x="328" 
d="M297 498c0 -42 -13.502 -76.002 -40.502 -102.002s-61.5 -39 -103.5 -39c-33.333 0 -62.166 8.83301 -86.499 26.5s-42.5 41.834 -54.5 72.501l62 34c18.667 -38 44 -57 76 -57c19.333 0 34.833 5.83301 46.5 17.5s17.5 27.5 17.5 47.5c0 41.333 -26.333 62 -79 62h-44
v25l85 121h-138v74h252v-27l-89 -128c28.667 -6.66699 51.834 -21.167 69.501 -43.5s26.5 -50.166 26.5 -83.499z" />
    <glyph glyph-name="acute" unicode="&#xb4;" horiz-adv-x="474" 
d="M141 571l69 204h123v-18l-118 -186h-74z" />
    <glyph glyph-name="uni00B5" unicode="&#xb5;" horiz-adv-x="545" 
d="M502 83l25.001 2v-85c-19.333 -5.33301 -38.333 -8 -57 -8c-44 0 -75 16.667 -93 50c-26.667 -35.333 -63.334 -53 -110.001 -53c-41.333 0 -74.333 13.333 -99 40v-209h-102v671h102v-308c0 -30 8.66699 -54.333 26 -73s40 -28 68 -28s50.833 9.33301 68.5 28
s26.5 43 26.5 73v308h101v-349c0 -39.333 14.667 -59 44 -59z" />
    <glyph glyph-name="paragraph" unicode="&#xb6;" horiz-adv-x="539" 
d="M31 445c0 65.333 20.999 117.5 62.999 156.5s97 58.5 165 58.5h44v-433h-44c-67.333 0 -122.166 19.833 -164.499 59.5s-63.5 92.5 -63.5 158.5zM219.999 -180l0.000976562 87.001l22 -2c13.333 -2 25.666 -3 36.999 -3c30 0 51.833 6.66699 65.5 20
s20.5 35.666 20.5 66.999v671h101v-680c0 -114 -55.667 -171 -167 -171c-26.667 0 -53 3.66699 -79 11z" />
    <glyph glyph-name="middot" unicode="&#xb7;" horiz-adv-x="253" 
d="M54 317c0 20.667 7 38 21 52s31.333 21 52 21s38 -7 52 -21s21 -31.333 21 -52c0 -21.333 -7 -38.833 -21 -52.5s-31.333 -20.5 -52 -20.5s-38 6.83301 -52 20.5s-21 31.167 -21 52.5z" />
    <glyph glyph-name="cedilla" unicode="&#xb8;" horiz-adv-x="473" 
d="M138 -182v69.999c20.667 -2 37 -3 49 -3c42 0 63 18.667 63 56c0 22 -7 47 -21 75l44 18c40.667 -25.333 61 -61.666 61 -108.999c0 -34.667 -12 -62.667 -36 -84s-56 -32 -96 -32c-24.667 0 -46 3 -64 9z" />
    <glyph glyph-name="uni00B9" unicode="&#xb9;" horiz-adv-x="332" 
d="M38 364v73h96v269h-91v74h173v-343h82v-73h-260z" />
    <glyph glyph-name="ordmasculine" unicode="&#xba;" horiz-adv-x="356" 
d="M30 400c0 48 13.668 87 41.001 117s62.666 45 105.999 45s79 -15 107 -45s42 -69 42 -117s-14 -87.333 -42 -118c-28 -30 -63.333 -45 -106 -45c-43.333 0 -78.833 15 -106.5 45s-41.5 69.333 -41.5 118zM245.001 400c0 28 -6 49.834 -18 65.501s-28.333 23.5 -49 23.5
c-21.333 0 -37.833 -7.66699 -49.5 -23s-17.5 -37.333 -17.5 -66s5.83301 -50.834 17.5 -66.501s28.167 -23.5 49.5 -23.5c20.667 0 37 8 49 24s18 38 18 66z" />
    <glyph glyph-name="guillemotright" unicode="&#xbb;" 
d="M100 61l-69 53l124 159l-124 158l69 54l165 -198v-29zM313 61l-69 53l124 159l-124 158l69 54l165 -198v-29z" />
    <glyph glyph-name="onequarter" unicode="&#xbc;" horiz-adv-x="842" 
d="M38 244v73h96v269h-91v74h173v-343h82v-73h-260zM230 0l342 660h86l-343 -660h-85zM830 137v-70h-46v-67h-76v67h-193v28l112 321h83l-98 -279h96l2 120h74v-120h46z" />
    <glyph glyph-name="onehalf" unicode="&#xbd;" horiz-adv-x="871" 
d="M38 244v73h96v269h-91v74h173v-343h82v-73h-260zM230 0l342 660h86l-343 -660h-85zM693 73l144.001 0.000976562v-73h-282v23l130 151c22.667 27.333 38.334 49.166 47.001 65.499s13 33.5 13 51.5c0 16.667 -4.83301 30.334 -14.5 41.001s-22.5 16 -38.5 16
c-16.667 0 -29.834 -5.33301 -39.501 -16s-14.5 -25 -14.5 -43c0 -1.33301 0.166992 -3.33301 0.5 -6s0.666016 -6.5 0.999023 -11.5s0.5 -9.5 0.5 -13.5h-78c-2.66699 8.66699 -4 21 -4 37c0 34.667 12.667 64.667 38 90s58 38 98 38c39.333 0 71.5 -11.833 96.5 -35.5
s37.5 -53.834 37.5 -90.501c0 -26.667 -6.5 -52 -19.5 -76s-35.5 -55 -67.5 -93z" />
    <glyph glyph-name="threequarters" unicode="&#xbe;" horiz-adv-x="806" 
d="M297 378c0 -42 -13.502 -76.002 -40.502 -102.002s-61.5 -39 -103.5 -39c-33.333 0 -62.166 8.83301 -86.499 26.5s-42.5 41.834 -54.5 72.501l62 34c18.667 -38 44 -57 76 -57c19.333 0 34.833 5.83301 46.5 17.5s17.5 27.5 17.5 47.5c0 41.333 -26.333 62 -79 62h-44
v25l85 121h-138v74h252v-27l-89 -128c28.667 -6.66699 51.834 -21.167 69.501 -43.5s26.5 -50.166 26.5 -83.499zM193.998 -0.00195312l342 660h86l-343 -660h-85zM793.998 136.998v-70h-46v-67h-76v67h-193v28l112 321h83l-98 -279h96l2 120h74v-120h46z" />
    <glyph glyph-name="questiondown" unicode="&#xbf;" horiz-adv-x="411" 
d="M141 429c0 20.667 7 38 21 52s31.333 21 52 21s38.167 -7 52.5 -21s21.5 -31.333 21.5 -52c0 -21.333 -7.16699 -39 -21.5 -53s-31.833 -21 -52.5 -21s-38 7 -52 21s-21 31.667 -21 53zM34 -25c0 28.667 6.16406 54.5 18.4971 77.5s33.833 50.833 64.5 83.5
c24 25.333 40.333 45 49 59s13 28.667 13 44c0 4.66699 -1 15 -3 31h86c7.33301 -22 11 -38.333 11 -49c0 -20 -5 -38.167 -15 -54.5s-28 -38.833 -54 -67.5c-25.333 -29.333 -42.666 -52 -51.999 -68s-14 -33 -14 -51c0 -22.667 6.83301 -41.167 20.5 -55.5
s30.834 -21.5 51.501 -21.5c41.333 0 71 28.333 89 85l85 -31c-12.667 -48 -34.167 -84.833 -64.5 -110.5s-67.5 -38.5 -111.5 -38.5c-49.333 0 -90.666 15.667 -123.999 47s-50 71.333 -50 120z" />
    <glyph glyph-name="Agrave" unicode="&#xc0;" horiz-adv-x="591" 
d="M465 0l-41 111h-257l-41 -111h-109l258 668h41l258 -668h-109zM391 199l-96 273l-96 -273h192zM258 724l-117 168v18h123l70 -186h-76z" />
    <glyph glyph-name="Aacute" unicode="&#xc1;" horiz-adv-x="591" 
d="M465 0l-41 111h-257l-41 -111h-109l258 668h41l258 -668h-109zM391 199l-96 273l-96 -273h192zM256 724l69 186h123v-18l-117 -168h-75z" />
    <glyph glyph-name="Acircumflex" unicode="&#xc2;" horiz-adv-x="591" 
d="M465 0l-41 111h-257l-41 -111h-109l258 668h41l258 -668h-109zM391 199l-96 273l-96 -273h192zM461 724h-79l-87 93l-86 -93h-79l133 186h65z" />
    <glyph glyph-name="Atilde" unicode="&#xc3;" horiz-adv-x="591" 
d="M465 0l-41 111h-257l-41 -111h-109l258 668h41l258 -668h-109zM391 199l-96 273l-96 -273h192zM304 756l-30 19.001c-20 15.333 -33.667 21.666 -41 18.999c-16.667 0 -25 -11.667 -25 -35v-16h-80c-1.33301 20 -2 30.333 -2 31c0 34 8.66699 61.5 26 82.5
s39.666 31.5 66.999 31.5c20.667 0 42.667 -7.66699 66 -23l31 -20c16.667 -12.667 30.334 -19 41.001 -19c17.333 0 26 11.667 26 35v16h79c1.33301 -20 2 -30.333 2 -31c0 -34 -8.5 -61.333 -25.5 -82s-39.167 -31 -66.5 -31c-20 0 -42.667 7.66699 -68 23z" />
    <glyph glyph-name="Adieresis" unicode="&#xc4;" horiz-adv-x="591" 
d="M465 0l-41 111h-257l-41 -111h-109l258 668h41l258 -668h-109zM391 199l-96 273l-96 -273h192zM119 812c0 17.333 6.5 32.167 19.5 44.5s28.167 18.5 45.5 18.5c18 0 33.167 -6 45.5 -18s18.5 -27 18.5 -45c0 -17.333 -6.33301 -32.166 -19 -44.499
s-27.667 -18.5 -45 -18.5s-32.5 6.16699 -45.5 18.5s-19.5 27.166 -19.5 44.499zM343 811.001c0 18 6.33301 33.165 19 45.498s28 18.5 46 18.5c17.333 0 32.333 -6.16699 45 -18.5s19 -27.5 19 -45.5c0 -17.333 -6.33301 -32.166 -19 -44.499s-27.667 -18.5 -45 -18.5
s-32.5 6.33301 -45.5 19s-19.5 27.334 -19.5 44.001z" />
    <glyph glyph-name="Aring" unicode="&#xc5;" horiz-adv-x="591" 
d="M465 0l-41 111h-257l-41 -111h-109l258 668h41l258 -668h-109zM391 199l-96 273l-96 -273h192zM179 803c0 31.333 11 58 33 80c23.333 22 51 33 83 33c33.333 0 61.166 -10.833 83.499 -32.5s33.5 -48.5 33.5 -80.5c0 -32.667 -11.167 -60 -33.5 -82
s-50.166 -33 -83.499 -33c-32.667 0 -60.167 11.167 -82.5 33.5s-33.5 49.5 -33.5 81.5zM342 803c0 13.333 -4.5 24.5 -13.5 33.5s-19.833 13.5 -32.5 13.5c-13.333 0 -24.333 -4.5 -33 -13.5s-13 -20.167 -13 -33.5s4.5 -24.666 13.5 -33.999s19.833 -14 32.5 -14
s23.5 4.66699 32.5 14s13.5 20.666 13.5 33.999z" />
    <glyph glyph-name="AE" unicode="&#xc6;" horiz-adv-x="757" 
d="M501 93h220v-93h-308l-16 110h-229l-50 -110h-110l301 660h401v-93h-278l25 -172h183v-90h-170zM340 508l-133 -310h177z" />
    <glyph glyph-name="Ccedilla" unicode="&#xc7;" horiz-adv-x="620" 
d="M39 330c0 100.667 27.834 182.667 83.501 246s126.834 95 213.501 95c57.333 0 107.166 -13.667 149.499 -41s74.833 -66 97.5 -116l-83 -47c-36.667 72.667 -91 109 -163 109c-57.333 0 -103.666 -22.333 -138.999 -67s-53 -104.334 -53 -179.001
c0 -75.333 17.667 -135.166 53 -179.499s81.666 -66.5 138.999 -66.5c72 0 126.333 36.333 163 109l83 -47c-22 -50 -54.333 -88.667 -97 -116s-92.667 -41 -150 -41c-86.667 0 -157.834 31.667 -213.501 95s-83.5 145.333 -83.5 246zM220.001 -182v69.999
c20.667 -2 37 -3 49 -3c42 0 63 18.667 63 56c0 22 -7 47 -21 75l44 18c40.667 -25.333 61 -61.666 61 -108.999c0 -34.667 -12 -62.667 -36 -84s-56 -32 -96 -32c-24.667 0 -46 3 -64 9z" />
    <glyph glyph-name="Egrave" unicode="&#xc8;" horiz-adv-x="509" 
d="M72 0v660h390v-93h-287v-172h217v-90h-217v-212h298v-93h-401zM227 724l-117 168v18h123l70 -186h-76z" />
    <glyph glyph-name="Eacute" unicode="&#xc9;" horiz-adv-x="509" 
d="M72 0v660h390v-93h-287v-172h217v-90h-217v-212h298v-93h-401zM226 724l69 186h123v-18l-117 -168h-75z" />
    <glyph glyph-name="Ecircumflex" unicode="&#xca;" horiz-adv-x="509" 
d="M72 0v660h390v-93h-287v-172h217v-90h-217v-212h298v-93h-401zM430 724h-79l-87 93l-86 -93h-79l133 186h65z" />
    <glyph glyph-name="Edieresis" unicode="&#xcb;" horiz-adv-x="509" 
d="M72 0v660h390v-93h-287v-172h217v-90h-217v-212h298v-93h-401zM88 812c0 17.333 6.5 32.167 19.5 44.5s28.167 18.5 45.5 18.5c18 0 33.167 -6 45.5 -18s18.5 -27 18.5 -45c0 -17.333 -6.33301 -32.166 -19 -44.499s-27.667 -18.5 -45 -18.5s-32.5 6.16699 -45.5 18.5
s-19.5 27.166 -19.5 44.499zM312 811.001c0 18 6.33301 33.165 19 45.498s28 18.5 46 18.5c17.333 0 32.333 -6.16699 45 -18.5s19 -27.5 19 -45.5c0 -17.333 -6.33301 -32.166 -19 -44.499s-27.667 -18.5 -45 -18.5s-32.5 6.33301 -45.5 19s-19.5 27.334 -19.5 44.001z" />
    <glyph glyph-name="Igrave" unicode="&#xcc;" horiz-adv-x="247" 
d="M72 0v660h103v-660h-103zM86 724l-117 168v18h123l70 -186h-76z" />
    <glyph glyph-name="Iacute" unicode="&#xcd;" horiz-adv-x="247" 
d="M72 0v660h103v-660h-103zM85 724l69 186h123v-18l-117 -168h-75z" />
    <glyph glyph-name="Icircumflex" unicode="&#xce;" horiz-adv-x="247" 
d="M72 0v660h103v-660h-103zM289 724h-79l-87 93l-86 -93h-79l133 186h65z" />
    <glyph glyph-name="Idieresis" unicode="&#xcf;" horiz-adv-x="247" 
d="M72 0v660h103v-660h-103zM-53 812c0 17.333 6.5 32.167 19.5 44.5s28.167 18.5 45.5 18.5c18 0 33.167 -6 45.5 -18s18.5 -27 18.5 -45c0 -17.333 -6.33301 -32.166 -19 -44.499s-27.667 -18.5 -45 -18.5s-32.5 6.16699 -45.5 18.5s-19.5 27.166 -19.5 44.499z
M171 811.001c0 18 6.33301 33.165 19 45.498s28 18.5 46 18.5c17.333 0 32.333 -6.16699 45 -18.5s19 -27.5 19 -45.5c0 -17.333 -6.33301 -32.166 -19 -44.499s-27.667 -18.5 -45 -18.5s-32.5 6.33301 -45.5 19s-19.5 27.334 -19.5 44.001z" />
    <glyph glyph-name="Eth" unicode="&#xd0;" horiz-adv-x="616" 
d="M577 332c0 -103.333 -29 -184.5 -87 -243.5s-136.333 -88.5 -235 -88.5h-183v270h-77v88h77v302h183c99.333 0 177.833 -28.667 235.5 -86s86.5 -138 86.5 -242zM472 332c0 75.333 -19 133.333 -57 174s-91.333 61 -160 61h-80v-209h108v-88h-108v-177h80
c68.667 0 122 20.833 160 62.5s57 100.5 57 176.5z" />
    <glyph glyph-name="Ntilde" unicode="&#xd1;" horiz-adv-x="636" 
d="M460 660h103v-668h-41l-347 445v-437h-103v668h42l346 -444v436zM327 756l-30 19.001c-20 15.333 -33.667 21.666 -41 18.999c-16.667 0 -25 -11.667 -25 -35v-16h-80c-1.33301 20 -2 30.333 -2 31c0 34 8.66699 61.5 26 82.5s39.666 31.5 66.999 31.5
c20.667 0 42.667 -7.66699 66 -23l31 -20c16.667 -12.667 30.334 -19 41.001 -19c17.333 0 26 11.667 26 35v16h79c1.33301 -20 2 -30.333 2 -31c0 -34 -8.5 -61.333 -25.5 -82s-39.167 -31 -66.5 -31c-20 0 -42.667 7.66699 -68 23z" />
    <glyph glyph-name="Ograve" unicode="&#xd2;" horiz-adv-x="674" 
d="M39 330c0 102 27.6689 184.333 83.002 247s126.666 94 213.999 94c88 0 159.833 -31.333 215.5 -94s83.5 -144.667 83.5 -246c0 -102 -28 -184.5 -84 -247.5s-127.667 -94.5 -215 -94.5c-86.667 0 -157.834 31.667 -213.501 95s-83.5 145.333 -83.5 246zM530.002 331
c0 74.667 -17.667 134.167 -53 178.5s-82 66.5 -140 66.5c-58.667 0 -105.334 -21.833 -140.001 -65.5s-52 -103.5 -52 -179.5s17.333 -136.167 52 -180.5s81.334 -66.5 140.001 -66.5c58 0 104.667 22.167 140 66.5s53 104.5 53 180.5zM299.002 724l-117 168v18h123
l70 -186h-76z" />
    <glyph glyph-name="Oacute" unicode="&#xd3;" horiz-adv-x="674" 
d="M39 330c0 102 27.6689 184.333 83.002 247s126.666 94 213.999 94c88 0 159.833 -31.333 215.5 -94s83.5 -144.667 83.5 -246c0 -102 -28 -184.5 -84 -247.5s-127.667 -94.5 -215 -94.5c-86.667 0 -157.834 31.667 -213.501 95s-83.5 145.333 -83.5 246zM530.002 331
c0 74.667 -17.667 134.167 -53 178.5s-82 66.5 -140 66.5c-58.667 0 -105.334 -21.833 -140.001 -65.5s-52 -103.5 -52 -179.5s17.333 -136.167 52 -180.5s81.334 -66.5 140.001 -66.5c58 0 104.667 22.167 140 66.5s53 104.5 53 180.5zM298.002 724l69 186h123v-18
l-117 -168h-75z" />
    <glyph glyph-name="Ocircumflex" unicode="&#xd4;" horiz-adv-x="674" 
d="M39 330c0 102 27.6689 184.333 83.002 247s126.666 94 213.999 94c88 0 159.833 -31.333 215.5 -94s83.5 -144.667 83.5 -246c0 -102 -28 -184.5 -84 -247.5s-127.667 -94.5 -215 -94.5c-86.667 0 -157.834 31.667 -213.501 95s-83.5 145.333 -83.5 246zM530.002 331
c0 74.667 -17.667 134.167 -53 178.5s-82 66.5 -140 66.5c-58.667 0 -105.334 -21.833 -140.001 -65.5s-52 -103.5 -52 -179.5s17.333 -136.167 52 -180.5s81.334 -66.5 140.001 -66.5c58 0 104.667 22.167 140 66.5s53 104.5 53 180.5zM502.002 724h-79l-87 93l-86 -93h-79
l133 186h65z" />
    <glyph glyph-name="Otilde" unicode="&#xd5;" horiz-adv-x="674" 
d="M39 330c0 102 27.6689 184.333 83.002 247s126.666 94 213.999 94c88 0 159.833 -31.333 215.5 -94s83.5 -144.667 83.5 -246c0 -102 -28 -184.5 -84 -247.5s-127.667 -94.5 -215 -94.5c-86.667 0 -157.834 31.667 -213.501 95s-83.5 145.333 -83.5 246zM530.002 331
c0 74.667 -17.667 134.167 -53 178.5s-82 66.5 -140 66.5c-58.667 0 -105.334 -21.833 -140.001 -65.5s-52 -103.5 -52 -179.5s17.333 -136.167 52 -180.5s81.334 -66.5 140.001 -66.5c58 0 104.667 22.167 140 66.5s53 104.5 53 180.5zM346.002 756l-30 19.001
c-20 15.333 -33.667 21.666 -41 18.999c-16.667 0 -25 -11.667 -25 -35v-16h-80c-1.33301 20 -2 30.333 -2 31c0 34 8.66699 61.5 26 82.5s39.666 31.5 66.999 31.5c20.667 0 42.667 -7.66699 66 -23l31 -20c16.667 -12.667 30.334 -19 41.001 -19c17.333 0 26 11.667 26 35
v16h79c1.33301 -20 2 -30.333 2 -31c0 -34 -8.5 -61.333 -25.5 -82s-39.167 -31 -66.5 -31c-20 0 -42.667 7.66699 -68 23z" />
    <glyph glyph-name="Odieresis" unicode="&#xd6;" horiz-adv-x="674" 
d="M39 330c0 102 27.6689 184.333 83.002 247s126.666 94 213.999 94c88 0 159.833 -31.333 215.5 -94s83.5 -144.667 83.5 -246c0 -102 -28 -184.5 -84 -247.5s-127.667 -94.5 -215 -94.5c-86.667 0 -157.834 31.667 -213.501 95s-83.5 145.333 -83.5 246zM530.002 331
c0 74.667 -17.667 134.167 -53 178.5s-82 66.5 -140 66.5c-58.667 0 -105.334 -21.833 -140.001 -65.5s-52 -103.5 -52 -179.5s17.333 -136.167 52 -180.5s81.334 -66.5 140.001 -66.5c58 0 104.667 22.167 140 66.5s53 104.5 53 180.5zM160.002 812
c0 17.333 6.5 32.167 19.5 44.5s28.167 18.5 45.5 18.5c18 0 33.167 -6 45.5 -18s18.5 -27 18.5 -45c0 -17.333 -6.33301 -32.166 -19 -44.499s-27.667 -18.5 -45 -18.5s-32.5 6.16699 -45.5 18.5s-19.5 27.166 -19.5 44.499zM384.002 811.001
c0 18 6.33301 33.165 19 45.498s28 18.5 46 18.5c17.333 0 32.333 -6.16699 45 -18.5s19 -27.5 19 -45.5c0 -17.333 -6.33301 -32.166 -19 -44.499s-27.667 -18.5 -45 -18.5s-32.5 6.33301 -45.5 19s-19.5 27.334 -19.5 44.001z" />
    <glyph glyph-name="multiply" unicode="&#xd7;" 
d="M116 120l-61 61l137 137l-137 136l63 63l136 -137l137 136l61 -61l-137 -136l137 -137l-62 -62l-137 137z" />
    <glyph glyph-name="Oslash" unicode="&#xd8;" horiz-adv-x="675" 
d="M646 625l-68.999 -81c38.667 -58.667 58 -129.667 58 -213c0 -102 -28 -184.5 -84 -247.5s-127.667 -94.5 -215 -94.5c-69.333 0 -129.333 20.333 -180 61l-62 -72l-66 57l68 81c-38 60 -57 131.333 -57 214c0 102 27.667 184.333 83 247s126.666 94 213.999 94
c70 0 130.333 -20.333 181 -61l64 72zM141.001 331c0 -50 8.00098 -94.333 24.001 -133l291 339c-32.667 28.667 -72.334 43 -119.001 43c-59.333 0 -106.833 -22.5 -142.5 -67.5s-53.5 -105.5 -53.5 -181.5zM534.002 331c0 50.667 -8.33301 95 -25 133l-292 -341
c32.667 -28.667 72.667 -43 120 -43c58.667 0 106.167 22.667 142.5 68s54.5 106.333 54.5 183z" />
    <glyph glyph-name="Ugrave" unicode="&#xd9;" horiz-adv-x="622" 
d="M66 242v418h103v-424c0 -48 12.833 -85.333 38.5 -112s60.167 -40 103.5 -40s77.833 13.333 103.5 40s38.5 64 38.5 112v424h103v-418c0 -77.333 -22.833 -138.833 -68.5 -184.5s-104.5 -68.5 -176.5 -68.5c-72.667 0 -131.667 22.833 -177 68.5s-68 107.167 -68 184.5z
M273 724l-117 168v18h123l70 -186h-76z" />
    <glyph glyph-name="Uacute" unicode="&#xda;" horiz-adv-x="622" 
d="M66 242v418h103v-424c0 -48 12.833 -85.333 38.5 -112s60.167 -40 103.5 -40s77.833 13.333 103.5 40s38.5 64 38.5 112v424h103v-418c0 -77.333 -22.833 -138.833 -68.5 -184.5s-104.5 -68.5 -176.5 -68.5c-72.667 0 -131.667 22.833 -177 68.5s-68 107.167 -68 184.5z
M271 724l69 186h123v-18l-117 -168h-75z" />
    <glyph glyph-name="Ucircumflex" unicode="&#xdb;" horiz-adv-x="622" 
d="M66 242v418h103v-424c0 -48 12.833 -85.333 38.5 -112s60.167 -40 103.5 -40s77.833 13.333 103.5 40s38.5 64 38.5 112v424h103v-418c0 -77.333 -22.833 -138.833 -68.5 -184.5s-104.5 -68.5 -176.5 -68.5c-72.667 0 -131.667 22.833 -177 68.5s-68 107.167 -68 184.5z
M476 724h-79l-87 93l-86 -93h-79l133 186h65z" />
    <glyph glyph-name="Udieresis" unicode="&#xdc;" horiz-adv-x="622" 
d="M66 242v418h103v-424c0 -48 12.833 -85.333 38.5 -112s60.167 -40 103.5 -40s77.833 13.333 103.5 40s38.5 64 38.5 112v424h103v-418c0 -77.333 -22.833 -138.833 -68.5 -184.5s-104.5 -68.5 -176.5 -68.5c-72.667 0 -131.667 22.833 -177 68.5s-68 107.167 -68 184.5z
M134 812c0 17.333 6.5 32.167 19.5 44.5s28.167 18.5 45.5 18.5c18 0 33.167 -6 45.5 -18s18.5 -27 18.5 -45c0 -17.333 -6.33301 -32.166 -19 -44.499s-27.667 -18.5 -45 -18.5s-32.5 6.16699 -45.5 18.5s-19.5 27.166 -19.5 44.499zM358 811.001
c0 18 6.33301 33.165 19 45.498s28 18.5 46 18.5c17.333 0 32.333 -6.16699 45 -18.5s19 -27.5 19 -45.5c0 -17.333 -6.33301 -32.166 -19 -44.499s-27.667 -18.5 -45 -18.5s-32.5 6.33301 -45.5 19s-19.5 27.334 -19.5 44.001z" />
    <glyph glyph-name="Yacute" unicode="&#xdd;" horiz-adv-x="555" 
d="M532 660l-203 -394v-266h-103v264l-204 396h114l142 -286l142 286h112zM237 724l69 186h123v-18l-117 -168h-75z" />
    <glyph glyph-name="Thorn" unicode="&#xde;" horiz-adv-x="534" 
d="M72 0v660h103v-110h111c66.667 0 119.667 -18.5 159 -55.5s59 -86.833 59 -149.5c0 -62 -20 -112 -60 -150c-39.333 -37.333 -92 -56 -158 -56h-111v-139h-103zM175 231h110c36 0 63.833 9.83301 83.5 29.5s29.5 47.5 29.5 83.5s-9.83301 64 -29.5 84s-47.5 30 -83.5 30
h-110v-227z" />
    <glyph glyph-name="germandbls" unicode="&#xdf;" horiz-adv-x="567" 
d="M229 47l41.999 72.998c35.333 -28 71.333 -42 108 -42c20.667 0 36.834 4.5 48.501 13.5s17.5 21.5 17.5 37.5s-5 29 -15 39c-9.33301 10 -29 26 -59 48c-33.333 23.333 -56.833 43.5 -70.5 60.5s-20.5 36.167 -20.5 57.5c0 18 5.66699 44 17 78l35 105
c10 30 15 55 15 75c0 24 -6.83301 42.833 -20.5 56.5s-33.167 20.5 -58.5 20.5c-30.667 0 -55.334 -10.667 -74.001 -32s-28 -51.666 -28 -90.999v-546h-100v548c0 66 18.667 118 56 156s88 57 152 57c53.333 0 95.833 -13.5 127.5 -40.5s47.5 -63.5 47.5 -109.5
c0 -28 -5.33301 -57 -16 -87l-37 -108c-10 -31.333 -15 -52 -15 -62c0 -14 5.16699 -26.5 15.5 -37.5s28.833 -25.5 55.5 -43.5c34.667 -25.333 58.834 -48.166 72.501 -68.499s20.5 -44.833 20.5 -73.5c0 -42 -15.333 -76.167 -46 -102.5s-70 -39.5 -118 -39.5
c-62 0 -112.667 19.333 -152 58z" />
    <glyph glyph-name="agrave" unicode="&#xe0;" horiz-adv-x="485" 
d="M424 313l0.000976562 -313h-94v50c-33.333 -40.667 -80 -61 -140 -61c-46.667 0 -84.334 13 -113.001 39s-43 59.667 -43 101c0 43.333 15.5 77.833 46.5 103.5s72.5 38.5 124.5 38.5h117v44c0 30.667 -8 54.167 -24 70.5s-38.667 24.5 -68 24.5
c-45.333 0 -85 -23 -119 -69l-62 56c44.667 70 108 105 190 105c57.333 0 102.5 -16.5 135.5 -49.5s49.5 -79.5 49.5 -139.5zM322.001 170l-0.000976562 27h-103c-54.667 0 -82 -21 -82 -63c0 -20 7.16699 -35.833 21.5 -47.5s32.833 -17.5 55.5 -17.5
c30.667 0 56.334 9.5 77.001 28.5s31 43.167 31 72.5zM203 571l-117 186v18h122l70 -204h-75z" />
    <glyph glyph-name="aacute" unicode="&#xe1;" horiz-adv-x="485" 
d="M424 313l0.000976562 -313h-94v50c-33.333 -40.667 -80 -61 -140 -61c-46.667 0 -84.334 13 -113.001 39s-43 59.667 -43 101c0 43.333 15.5 77.833 46.5 103.5s72.5 38.5 124.5 38.5h117v44c0 30.667 -8 54.167 -24 70.5s-38.667 24.5 -68 24.5
c-45.333 0 -85 -23 -119 -69l-62 56c44.667 70 108 105 190 105c57.333 0 102.5 -16.5 135.5 -49.5s49.5 -79.5 49.5 -139.5zM322.001 170l-0.000976562 27h-103c-54.667 0 -82 -21 -82 -63c0 -20 7.16699 -35.833 21.5 -47.5s32.833 -17.5 55.5 -17.5
c30.667 0 56.334 9.5 77.001 28.5s31 43.167 31 72.5zM204 571l69 204h123v-18l-118 -186h-74z" />
    <glyph glyph-name="acircumflex" unicode="&#xe2;" horiz-adv-x="485" 
d="M424 313l0.000976562 -313h-94v50c-33.333 -40.667 -80 -61 -140 -61c-46.667 0 -84.334 13 -113.001 39s-43 59.667 -43 101c0 43.333 15.5 77.833 46.5 103.5s72.5 38.5 124.5 38.5h117v44c0 30.667 -8 54.167 -24 70.5s-38.667 24.5 -68 24.5
c-45.333 0 -85 -23 -119 -69l-62 56c44.667 70 108 105 190 105c57.333 0 102.5 -16.5 135.5 -49.5s49.5 -79.5 49.5 -139.5zM322.001 170l-0.000976562 27h-103c-54.667 0 -82 -21 -82 -63c0 -20 7.16699 -35.833 21.5 -47.5s32.833 -17.5 55.5 -17.5
c30.667 0 56.334 9.5 77.001 28.5s31 43.167 31 72.5zM394 571h-75l-78 102l-79 -102h-76l122 204h65z" />
    <glyph glyph-name="atilde" unicode="&#xe3;" horiz-adv-x="485" 
d="M424 313l0.000976562 -313h-94v50c-33.333 -40.667 -80 -61 -140 -61c-46.667 0 -84.334 13 -113.001 39s-43 59.667 -43 101c0 43.333 15.5 77.833 46.5 103.5s72.5 38.5 124.5 38.5h117v44c0 30.667 -8 54.167 -24 70.5s-38.667 24.5 -68 24.5
c-45.333 0 -85 -23 -119 -69l-62 56c44.667 70 108 105 190 105c57.333 0 102.5 -16.5 135.5 -49.5s49.5 -79.5 49.5 -139.5zM322.001 170l-0.000976562 27h-103c-54.667 0 -82 -21 -82 -63c0 -20 7.16699 -35.833 21.5 -47.5s32.833 -17.5 55.5 -17.5
c30.667 0 56.334 9.5 77.001 28.5s31 43.167 31 72.5zM247 611l-25 20c-14 14 -27 21 -39 21c-16 0 -24 -11.667 -24 -35v-18h-79c-1.33301 9.33301 -2 19.666 -2 30.999c0 34.667 8.33301 62.334 25 83.001s38.667 31 66 31c21.333 0 42.666 -7.66699 63.999 -23l25 -20
c15.333 -13.333 28 -20 38 -20c16.667 0 25 11.333 25 34v18h79c1.33301 -17.333 2 -27.666 2 -30.999c0 -34.667 -8.33301 -62.334 -25 -83.001s-38.667 -31 -66 -31c-23.333 0 -44.666 7.66699 -63.999 23z" />
    <glyph glyph-name="adieresis" unicode="&#xe4;" horiz-adv-x="485" 
d="M424 313l0.000976562 -313h-94v50c-33.333 -40.667 -80 -61 -140 -61c-46.667 0 -84.334 13 -113.001 39s-43 59.667 -43 101c0 43.333 15.5 77.833 46.5 103.5s72.5 38.5 124.5 38.5h117v44c0 30.667 -8 54.167 -24 70.5s-38.667 24.5 -68 24.5
c-45.333 0 -85 -23 -119 -69l-62 56c44.667 70 108 105 190 105c57.333 0 102.5 -16.5 135.5 -49.5s49.5 -79.5 49.5 -139.5zM322.001 170l-0.000976562 27h-103c-54.667 0 -82 -21 -82 -63c0 -20 7.16699 -35.833 21.5 -47.5s32.833 -17.5 55.5 -17.5
c30.667 0 56.334 9.5 77.001 28.5s31 43.167 31 72.5zM73 674c0 17.333 6.5 32.166 19.5 44.499s28.167 18.5 45.5 18.5s32.333 -6.16699 45 -18.5s19 -27.166 19 -44.499s-6.33301 -32.333 -19 -45s-27.667 -19 -45 -19s-32.5 6.33301 -45.5 19s-19.5 27.667 -19.5 45z
M278 674c0 17.333 6.5 32.166 19.5 44.499s28.167 18.5 45.5 18.5s32.333 -6.16699 45 -18.5s19 -27.166 19 -44.499s-6.33301 -32.333 -19 -45s-27.667 -19 -45 -19s-32.5 6.33301 -45.5 19s-19.5 27.667 -19.5 45z" />
    <glyph glyph-name="aring" unicode="&#xe5;" horiz-adv-x="485" 
d="M424 313l0.000976562 -313h-94v50c-33.333 -40.667 -80 -61 -140 -61c-46.667 0 -84.334 13 -113.001 39s-43 59.667 -43 101c0 43.333 15.5 77.833 46.5 103.5s72.5 38.5 124.5 38.5h117v44c0 30.667 -8 54.167 -24 70.5s-38.667 24.5 -68 24.5
c-45.333 0 -85 -23 -119 -69l-62 56c44.667 70 108 105 190 105c57.333 0 102.5 -16.5 135.5 -49.5s49.5 -79.5 49.5 -139.5zM322.001 170l-0.000976562 27h-103c-54.667 0 -82 -21 -82 -63c0 -20 7.16699 -35.833 21.5 -47.5s32.833 -17.5 55.5 -17.5
c30.667 0 56.334 9.5 77.001 28.5s31 43.167 31 72.5zM124 668c0 32 11 59.001 33 81.001s49.333 33 82 33c33.333 0 61 -10.833 83 -32.5s33 -48.834 33 -81.501c0 -32 -11.167 -58.833 -33.5 -80.5s-49.833 -32.5 -82.5 -32.5c-32 0 -59.167 10.833 -81.5 32.5
s-33.5 48.5 -33.5 80.5zM285 668.001c0 13.333 -4.33301 24.5 -13 33.5s-19.334 13.5 -32.001 13.5c-13.333 0 -24.333 -4.5 -33 -13.5s-13 -20.167 -13 -33.5c0 -12.667 4.33301 -23.5 13 -32.5s19.667 -13.5 33 -13.5c12.667 0 23.334 4.5 32.001 13.5s13 19.833 13 32.5z
" />
    <glyph glyph-name="ae" unicode="&#xe6;" horiz-adv-x="787" 
d="M740 205l-313.998 0.000976562c6 -40.667 20.5 -71.834 43.5 -93.501s52.5 -32.5 88.5 -32.5c44.667 0 84.667 19 120 57l55 -64c-47.333 -55.333 -106.333 -83 -177 -83c-78.667 0 -139.334 32.333 -182.001 97c-16.667 -30.667 -40.167 -54.5 -70.5 -71.5
s-64.833 -25.5 -103.5 -25.5c-51.333 0 -91.833 12.833 -121.5 38.5s-44.5 60.5 -44.5 104.5c0 44.667 15.5 80.5 46.5 107.5s72.167 40.5 123.5 40.5h118v35c0 30.667 -8 54.167 -24 70.5s-38.667 24.5 -68 24.5c-42.667 0 -82 -23 -118 -69l-62 56
c44.667 70 107.667 105 189 105c69.333 0 118.666 -26.333 147.999 -79c40 52.667 93.333 79 160 79c59.333 0 107.5 -20.667 144.5 -62s55.5 -95.333 55.5 -162c0 -32.667 -2.33301 -57 -7 -73zM424.002 280.001l224 -0.000976562c2 42 -6.66699 75 -26 99
s-45.333 36 -78 36c-33.333 0 -60.5 -11.667 -81.5 -35s-33.833 -56.666 -38.5 -99.999zM322.002 173l-0.000976562 32h-103c-55.333 0 -83 -22 -83 -66c0 -22 7 -39 21 -51s33 -18 57 -18c30.667 0 56.334 9.66699 77.001 29s31 44 31 74z" />
    <glyph glyph-name="ccedilla" unicode="&#xe7;" horiz-adv-x="486" 
d="M40 246c0 76 21.3291 137.667 63.9961 185s97.334 71 164.001 71c86.667 0 148.334 -40 185.001 -120l-76 -46c-27.333 48.667 -63.666 73 -108.999 73c-38 0 -68.333 -14.667 -91 -44s-34 -69 -34 -119c0 -50.667 11.333 -90.667 34 -120s53 -44 91 -44
c46.667 0 82.667 24 108 72l77 -45c-37.333 -80 -99 -120 -185 -120c-67.333 0 -122.166 23.833 -164.499 71.5s-63.5 109.5 -63.5 185.5zM145.996 -182v69.999c20.667 -2 37 -3 49 -3c42 0 63 18.667 63 56c0 22 -7 47 -21 75l44 18c40.667 -25.333 61 -61.666 61 -108.999
c0 -34.667 -12 -62.667 -36 -84s-56 -32 -96 -32c-24.667 0 -46 3 -64 9z" />
    <glyph glyph-name="egrave" unicode="&#xe8;" horiz-adv-x="504" 
d="M458 212h-316.001c5.33301 -43.333 19.5 -76.333 42.5 -99s53.5 -34 91.5 -34c45.333 0 85.333 19 120 57l55 -64c-47.333 -55.333 -106.666 -83 -177.999 -83c-69.333 0 -125.5 23.5 -168.5 70.5s-64.5 108.833 -64.5 185.5c0 75.333 20.833 137 62.5 185
s95.167 72 160.5 72c60 0 108.5 -20.5 145.5 -61.5s55.5 -94.833 55.5 -161.5c0 -26 -2 -48.333 -6 -67zM142.999 291h222.999c0 38.667 -9.66699 69 -29 91s-44.666 33 -75.999 33c-32 0 -58.333 -10.667 -79 -32s-33.667 -52 -39 -92zM224.998 571l-117 186v18h122
l70 -204h-75z" />
    <glyph glyph-name="eacute" unicode="&#xe9;" horiz-adv-x="504" 
d="M458 212h-316.001c5.33301 -43.333 19.5 -76.333 42.5 -99s53.5 -34 91.5 -34c45.333 0 85.333 19 120 57l55 -64c-47.333 -55.333 -106.666 -83 -177.999 -83c-69.333 0 -125.5 23.5 -168.5 70.5s-64.5 108.833 -64.5 185.5c0 75.333 20.833 137 62.5 185
s95.167 72 160.5 72c60 0 108.5 -20.5 145.5 -61.5s55.5 -94.833 55.5 -161.5c0 -26 -2 -48.333 -6 -67zM142.999 291h222.999c0 38.667 -9.66699 69 -29 91s-44.666 33 -75.999 33c-32 0 -58.333 -10.667 -79 -32s-33.667 -52 -39 -92zM224.998 571l69 204h123v-18
l-118 -186h-74z" />
    <glyph glyph-name="ecircumflex" unicode="&#xea;" horiz-adv-x="504" 
d="M458 212h-316.001c5.33301 -43.333 19.5 -76.333 42.5 -99s53.5 -34 91.5 -34c45.333 0 85.333 19 120 57l55 -64c-47.333 -55.333 -106.666 -83 -177.999 -83c-69.333 0 -125.5 23.5 -168.5 70.5s-64.5 108.833 -64.5 185.5c0 75.333 20.833 137 62.5 185
s95.167 72 160.5 72c60 0 108.5 -20.5 145.5 -61.5s55.5 -94.833 55.5 -161.5c0 -26 -2 -48.333 -6 -67zM142.999 291h222.999c0 38.667 -9.66699 69 -29 91s-44.666 33 -75.999 33c-32 0 -58.333 -10.667 -79 -32s-33.667 -52 -39 -92zM415.998 571h-75l-78 102l-79 -102
h-76l122 204h65z" />
    <glyph glyph-name="edieresis" unicode="&#xeb;" horiz-adv-x="504" 
d="M458 212h-316.001c5.33301 -43.333 19.5 -76.333 42.5 -99s53.5 -34 91.5 -34c45.333 0 85.333 19 120 57l55 -64c-47.333 -55.333 -106.666 -83 -177.999 -83c-69.333 0 -125.5 23.5 -168.5 70.5s-64.5 108.833 -64.5 185.5c0 75.333 20.833 137 62.5 185
s95.167 72 160.5 72c60 0 108.5 -20.5 145.5 -61.5s55.5 -94.833 55.5 -161.5c0 -26 -2 -48.333 -6 -67zM142.999 291h222.999c0 38.667 -9.66699 69 -29 91s-44.666 33 -75.999 33c-32 0 -58.333 -10.667 -79 -32s-33.667 -52 -39 -92zM94.998 674
c0 17.333 6.5 32.166 19.5 44.499s28.167 18.5 45.5 18.5s32.333 -6.16699 45 -18.5s19 -27.166 19 -44.499s-6.33301 -32.333 -19 -45s-27.667 -19 -45 -19s-32.5 6.33301 -45.5 19s-19.5 27.667 -19.5 45zM299.998 674c0 17.333 6.5 32.166 19.5 44.499
s28.167 18.5 45.5 18.5s32.333 -6.16699 45 -18.5s19 -27.166 19 -44.499s-6.33301 -32.333 -19 -45s-27.667 -19 -45 -19s-32.5 6.33301 -45.5 19s-19.5 27.667 -19.5 45z" />
    <glyph glyph-name="igrave" unicode="&#xec;" horiz-adv-x="234" 
d="M66 0v491h102v-491h-102zM81 565l-90 195v18h122l43 -213h-75z" />
    <glyph glyph-name="iacute" unicode="&#xed;" horiz-adv-x="234" 
d="M66 0v491h102v-491h-102zM79 565l43 213h122v-18l-90 -195h-75z" />
    <glyph glyph-name="icircumflex" unicode="&#xee;" horiz-adv-x="234" 
d="M66 0v491h102v-491h-102zM271 571h-75l-78 102l-79 -102h-76l122 204h65z" />
    <glyph glyph-name="idieresis" unicode="&#xef;" horiz-adv-x="234" 
d="M66 0v491h102v-491h-102zM-41 673c0 18 6.33301 33.165 19 45.498s28 18.5 46 18.5c17.333 0 32.333 -6.16699 45 -18.5s19 -27.5 19 -45.5c0 -17.333 -6.33301 -32.166 -19 -44.499s-27.667 -18.5 -45 -18.5s-32.5 6.33301 -45.5 19s-19.5 27.334 -19.5 44.001z
M145 672.998c0 18 6.33301 33.165 19 45.498s28 18.5 46 18.5c17.333 0 32.333 -6.16699 45 -18.5s19 -27.5 19 -45.5c0 -17.333 -6.33301 -32.166 -19 -44.499s-27.667 -18.5 -45 -18.5s-32.5 6.33301 -45.5 19s-19.5 27.334 -19.5 44.001z" />
    <glyph glyph-name="eth" unicode="&#xf0;" horiz-adv-x="510" 
d="M470 226c0 -70.667 -20.001 -127.833 -60.001 -171.5s-91.667 -65.5 -155 -65.5c-64 0 -115.833 21.5 -155.5 64.5s-59.5 99.167 -59.5 168.5c0 67.333 18.833 121.833 56.5 163.5s85.834 62.5 144.501 62.5c11.333 0 22.666 -1 33.999 -3l-75 115l-127 -61l-35 73
l118 56l-53 82l79 51l61 -91l134 64l35 -73l-124 -59l82 -124c26.667 -42 45.334 -73 56.001 -93c29.333 -51.333 44 -104.333 44 -159zM367.999 221.001c0 43.333 -10.332 77.5 -30.999 102.5s-48.334 37.5 -83.001 37.5c-34 0 -61 -12.5 -81 -37.5s-30 -59.5 -30 -103.5
s10 -78.333 30 -103s47.333 -37 82 -37s62.167 12.5 82.5 37.5s30.5 59.5 30.5 103.5z" />
    <glyph glyph-name="ntilde" unicode="&#xf1;" horiz-adv-x="520" 
d="M458 323v-322.998h-101v311c0 29.333 -8.5 53.166 -25.5 71.499s-39.5 27.5 -67.5 27.5s-51 -9.33301 -69 -28s-27 -42.334 -27 -71.001v-311h-102v491h94v-44c32.667 36.667 76.667 55 132 55c51.333 0 91.833 -16.167 121.5 -48.5s44.5 -75.833 44.5 -130.5z
M265 611.002l-25 20c-14 14 -27 21 -39 21c-16 0 -24 -11.667 -24 -35v-18h-79c-1.33301 9.33301 -2 19.666 -2 30.999c0 34.667 8.33301 62.334 25 83.001s38.667 31 66 31c21.333 0 42.666 -7.66699 63.999 -23l25 -20c15.333 -13.333 28 -20 38 -20
c16.667 0 25 11.333 25 34v18h79c1.33301 -17.333 2 -27.666 2 -30.999c0 -34.667 -8.33301 -62.334 -25 -83.001s-38.667 -31 -66 -31c-23.333 0 -44.666 7.66699 -63.999 23z" />
    <glyph glyph-name="ograve" unicode="&#xf2;" horiz-adv-x="535" 
d="M40 246c0 75.333 21.333 136.833 64 184.5s97 71.5 163 71.5c66.667 0 121.334 -24 164.001 -72s64 -109.333 64 -184c0 -75.333 -21.333 -137 -64 -185s-97.334 -72 -164.001 -72c-66 0 -120.333 24 -163 72s-64 109.667 -64 185zM392 245
c0 50 -11.333 89.833 -34 119.5s-52.667 44.5 -90 44.5c-38 0 -68.333 -14.667 -91 -44s-34 -69.333 -34 -120s11.167 -90.5 33.5 -119.5s52.5 -43.5 90.5 -43.5s68.333 14.667 91 44s34 69 34 119zM231 571l-117 186v18h122l70 -204h-75z" />
    <glyph glyph-name="oacute" unicode="&#xf3;" horiz-adv-x="535" 
d="M40 246c0 75.333 21.333 136.833 64 184.5s97 71.5 163 71.5c66.667 0 121.334 -24 164.001 -72s64 -109.333 64 -184c0 -75.333 -21.333 -137 -64 -185s-97.334 -72 -164.001 -72c-66 0 -120.333 24 -163 72s-64 109.667 -64 185zM392 245
c0 50 -11.333 89.833 -34 119.5s-52.667 44.5 -90 44.5c-38 0 -68.333 -14.667 -91 -44s-34 -69.333 -34 -120s11.167 -90.5 33.5 -119.5s52.5 -43.5 90.5 -43.5s68.333 14.667 91 44s34 69 34 119zM231 571l69 204h123v-18l-118 -186h-74z" />
    <glyph glyph-name="ocircumflex" unicode="&#xf4;" horiz-adv-x="535" 
d="M40 246c0 75.333 21.333 136.833 64 184.5s97 71.5 163 71.5c66.667 0 121.334 -24 164.001 -72s64 -109.333 64 -184c0 -75.333 -21.333 -137 -64 -185s-97.334 -72 -164.001 -72c-66 0 -120.333 24 -163 72s-64 109.667 -64 185zM392 245
c0 50 -11.333 89.833 -34 119.5s-52.667 44.5 -90 44.5c-38 0 -68.333 -14.667 -91 -44s-34 -69.333 -34 -120s11.167 -90.5 33.5 -119.5s52.5 -43.5 90.5 -43.5s68.333 14.667 91 44s34 69 34 119zM422 571h-75l-78 102l-79 -102h-76l122 204h65z" />
    <glyph glyph-name="otilde" unicode="&#xf5;" horiz-adv-x="535" 
d="M40 246c0 75.333 21.333 136.833 64 184.5s97 71.5 163 71.5c66.667 0 121.334 -24 164.001 -72s64 -109.333 64 -184c0 -75.333 -21.333 -137 -64 -185s-97.334 -72 -164.001 -72c-66 0 -120.333 24 -163 72s-64 109.667 -64 185zM392 245
c0 50 -11.333 89.833 -34 119.5s-52.667 44.5 -90 44.5c-38 0 -68.333 -14.667 -91 -44s-34 -69.333 -34 -120s11.167 -90.5 33.5 -119.5s52.5 -43.5 90.5 -43.5s68.333 14.667 91 44s34 69 34 119zM274 611l-25 20c-14 14 -27 21 -39 21c-16 0 -24 -11.667 -24 -35v-18h-79
c-1.33301 9.33301 -2 19.666 -2 30.999c0 34.667 8.33301 62.334 25 83.001s38.667 31 66 31c21.333 0 42.666 -7.66699 63.999 -23l25 -20c15.333 -13.333 28 -20 38 -20c16.667 0 25 11.333 25 34v18h79c1.33301 -17.333 2 -27.666 2 -30.999
c0 -34.667 -8.33301 -62.334 -25 -83.001s-38.667 -31 -66 -31c-23.333 0 -44.666 7.66699 -63.999 23z" />
    <glyph glyph-name="odieresis" unicode="&#xf6;" horiz-adv-x="535" 
d="M40 246c0 75.333 21.333 136.833 64 184.5s97 71.5 163 71.5c66.667 0 121.334 -24 164.001 -72s64 -109.333 64 -184c0 -75.333 -21.333 -137 -64 -185s-97.334 -72 -164.001 -72c-66 0 -120.333 24 -163 72s-64 109.667 -64 185zM392 245
c0 50 -11.333 89.833 -34 119.5s-52.667 44.5 -90 44.5c-38 0 -68.333 -14.667 -91 -44s-34 -69.333 -34 -120s11.167 -90.5 33.5 -119.5s52.5 -43.5 90.5 -43.5s68.333 14.667 91 44s34 69 34 119zM101 674c0 17.333 6.5 32.166 19.5 44.499s28.167 18.5 45.5 18.5
s32.333 -6.16699 45 -18.5s19 -27.166 19 -44.499s-6.33301 -32.333 -19 -45s-27.667 -19 -45 -19s-32.5 6.33301 -45.5 19s-19.5 27.667 -19.5 45zM306 674c0 17.333 6.5 32.166 19.5 44.499s28.167 18.5 45.5 18.5s32.333 -6.16699 45 -18.5s19 -27.166 19 -44.499
s-6.33301 -32.333 -19 -45s-27.667 -19 -45 -19s-32.5 6.33301 -45.5 19s-19.5 27.667 -19.5 45z" />
    <glyph glyph-name="divide" unicode="&#xf7;" 
d="M187 490c0 18 6.33301 33 19 45s28 18 46 18s33.5 -6 46.5 -18s19.5 -27 19.5 -45s-6.5 -33 -19.5 -45s-28.5 -18 -46.5 -18s-33.333 6 -46 18s-19 27 -19 45zM42 273v88h422v-88h-422zM187 143c0 18 6.33301 33 19 45s28 18 46 18s33.5 -6 46.5 -18s19.5 -27 19.5 -45
s-6.5 -33.167 -19.5 -45.5s-28.5 -18.5 -46.5 -18.5s-33.333 6.16699 -46 18.5s-19 27.5 -19 45.5z" />
    <glyph glyph-name="oslash" unicode="&#xf8;" horiz-adv-x="541" 
d="M509 457l-51.001 -58.998c26.667 -42.667 40 -93.334 40 -152.001c0 -75.333 -21.667 -137 -65 -185s-98 -72 -164 -72c-50 0 -92.667 13.333 -128 40l-46 -51l-63 55l51 59c-27.333 43.333 -41 94.666 -41 153.999c0 76 21.333 137.667 64 185s97.334 71 164.001 71
c48 0 91.333 -13.667 130 -41l46 52zM138.999 245.002c0 -30.667 4.33301 -58 13 -82l193 226c-21.333 16.667 -46.333 25 -75 25c-40 0 -71.833 -15.167 -95.5 -45.5s-35.5 -71.5 -35.5 -123.5zM400.999 245.002c0 30 -4.33301 57 -13 81l-192 -226
c20 -16 44.333 -24 73 -24c40 0 72 15.167 96 45.5s36 71.5 36 123.5z" />
    <glyph glyph-name="ugrave" unicode="&#xf9;" horiz-adv-x="515" 
d="M62 187v304h101v-312c0 -30 8.83301 -53.667 26.5 -71s40.5 -26 68.5 -26s50.667 8.83301 68 26.5s26 41.167 26 70.5v312h102v-304c0 -59.333 -18.333 -107.166 -55 -143.499s-83.667 -54.5 -141 -54.5s-104.333 18.167 -141 54.5s-55 84.166 -55 143.499zM221 571
l-117 186v18h122l70 -204h-75z" />
    <glyph glyph-name="uacute" unicode="&#xfa;" horiz-adv-x="515" 
d="M62 187v304h101v-312c0 -30 8.83301 -53.667 26.5 -71s40.5 -26 68.5 -26s50.667 8.83301 68 26.5s26 41.167 26 70.5v312h102v-304c0 -59.333 -18.333 -107.166 -55 -143.499s-83.667 -54.5 -141 -54.5s-104.333 18.167 -141 54.5s-55 84.166 -55 143.499zM221 571
l69 204h123v-18l-118 -186h-74z" />
    <glyph glyph-name="ucircumflex" unicode="&#xfb;" horiz-adv-x="515" 
d="M62 187v304h101v-312c0 -30 8.83301 -53.667 26.5 -71s40.5 -26 68.5 -26s50.667 8.83301 68 26.5s26 41.167 26 70.5v312h102v-304c0 -59.333 -18.333 -107.166 -55 -143.499s-83.667 -54.5 -141 -54.5s-104.333 18.167 -141 54.5s-55 84.166 -55 143.499zM412 571h-75
l-78 102l-79 -102h-76l122 204h65z" />
    <glyph glyph-name="udieresis" unicode="&#xfc;" horiz-adv-x="515" 
d="M62 187v304h101v-312c0 -30 8.83301 -53.667 26.5 -71s40.5 -26 68.5 -26s50.667 8.83301 68 26.5s26 41.167 26 70.5v312h102v-304c0 -59.333 -18.333 -107.166 -55 -143.499s-83.667 -54.5 -141 -54.5s-104.333 18.167 -141 54.5s-55 84.166 -55 143.499zM91 674
c0 17.333 6.5 32.166 19.5 44.499s28.167 18.5 45.5 18.5s32.333 -6.16699 45 -18.5s19 -27.166 19 -44.499s-6.33301 -32.333 -19 -45s-27.667 -19 -45 -19s-32.5 6.33301 -45.5 19s-19.5 27.667 -19.5 45zM296 674c0 17.333 6.5 32.166 19.5 44.499s28.167 18.5 45.5 18.5
s32.333 -6.16699 45 -18.5s19 -27.166 19 -44.499s-6.33301 -32.333 -19 -45s-27.667 -19 -45 -19s-32.5 6.33301 -45.5 19s-19.5 27.667 -19.5 45z" />
    <glyph glyph-name="yacute" unicode="&#xfd;" horiz-adv-x="496" 
d="M373 491l107.998 0.000976562l-216 -550c-18.667 -46.667 -41.167 -80.334 -67.5 -101.001s-59.833 -31 -100.5 -31c-19.333 0 -42.666 3 -69.999 9v86c18.667 -2 35.334 -3 50.001 -3c23.333 0 42.333 5 57 15s27 27.667 37 53l21 54l-177 468h109l122 -351z
M209.998 571.001l69 204h123v-18l-118 -186h-74z" />
    <glyph glyph-name="thorn" unicode="&#xfe;" horiz-adv-x="554" 
d="M515 246c0 -76.667 -19.166 -138.667 -57.499 -186s-88.833 -71 -151.5 -71c-60 0 -106.333 21 -139 63v-232h-101v930h101v-312c33.333 42.667 79.666 64 138.999 64c62.667 0 113.167 -23.5 151.5 -70.5s57.5 -108.833 57.5 -185.5zM411.001 245
c0 51.333 -11.167 91.5 -33.5 120.5s-52.5 43.5 -90.5 43.5c-36.667 0 -66 -14.167 -88 -42.5s-33 -68.833 -33 -121.5s11 -93 33 -121s51.333 -42 88 -42c38 0 68.167 14.5 90.5 43.5s33.5 68.833 33.5 119.5z" />
    <glyph glyph-name="ydieresis" unicode="&#xff;" horiz-adv-x="496" 
d="M373 491l107.998 0.000976562l-216 -550c-18.667 -46.667 -41.167 -80.334 -67.5 -101.001s-59.833 -31 -100.5 -31c-19.333 0 -42.666 3 -69.999 9v86c18.667 -2 35.334 -3 50.001 -3c23.333 0 42.333 5 57 15s27 27.667 37 53l21 54l-177 468h109l122 -351z
M79.998 674.001c0 17.333 6.5 32.166 19.5 44.499s28.167 18.5 45.5 18.5s32.333 -6.16699 45 -18.5s19 -27.166 19 -44.499s-6.33301 -32.333 -19 -45s-27.667 -19 -45 -19s-32.5 6.33301 -45.5 19s-19.5 27.667 -19.5 45zM284.998 674.001
c0 17.333 6.5 32.166 19.5 44.499s28.167 18.5 45.5 18.5s32.333 -6.16699 45 -18.5s19 -27.166 19 -44.499s-6.33301 -32.333 -19 -45s-27.667 -19 -45 -19s-32.5 6.33301 -45.5 19s-19.5 27.667 -19.5 45z" />
    <glyph glyph-name="Amacron" unicode="&#x100;" horiz-adv-x="591" 
d="M465 0l-41 111h-257l-41 -111h-109l258 668h41l258 -668h-109zM391 199l-96 273l-96 -273h192zM155 763v83h281v-83h-281z" />
    <glyph glyph-name="amacron" unicode="&#x101;" horiz-adv-x="485" 
d="M424 313l0.000976562 -313h-94v50c-33.333 -40.667 -80 -61 -140 -61c-46.667 0 -84.334 13 -113.001 39s-43 59.667 -43 101c0 43.333 15.5 77.833 46.5 103.5s72.5 38.5 124.5 38.5h117v44c0 30.667 -8 54.167 -24 70.5s-38.667 24.5 -68 24.5
c-45.333 0 -85 -23 -119 -69l-62 56c44.667 70 108 105 190 105c57.333 0 102.5 -16.5 135.5 -49.5s49.5 -79.5 49.5 -139.5zM322.001 170l-0.000976562 27h-103c-54.667 0 -82 -21 -82 -63c0 -20 7.16699 -35.833 21.5 -47.5s32.833 -17.5 55.5 -17.5
c30.667 0 56.334 9.5 77.001 28.5s31 43.167 31 72.5zM108 629v83h263v-83h-263z" />
    <glyph glyph-name="Abreve" unicode="&#x102;" horiz-adv-x="591" 
d="M465 0l-41 111h-257l-41 -111h-109l258 668h41l258 -668h-109zM391 199l-96 273l-96 -273h192zM146 881l-0.00195312 29.001h81v-28c0 -24.667 6.33301 -43.834 19 -57.501s30 -20.5 52 -20.5c20.667 0 36.834 7 48.501 21s17.5 33 17.5 57v28h81v-29
c0 -46.667 -13.667 -84.167 -41 -112.5s-63.333 -42.5 -108 -42.5c-45.333 0 -81.666 14 -108.999 42s-41 65.667 -41 113z" />
    <glyph glyph-name="abreve" unicode="&#x103;" horiz-adv-x="485" 
d="M424 313l0.000976562 -313h-94v50c-33.333 -40.667 -80 -61 -140 -61c-46.667 0 -84.334 13 -113.001 39s-43 59.667 -43 101c0 43.333 15.5 77.833 46.5 103.5s72.5 38.5 124.5 38.5h117v44c0 30.667 -8 54.167 -24 70.5s-38.667 24.5 -68 24.5
c-45.333 0 -85 -23 -119 -69l-62 56c44.667 70 108 105 190 105c57.333 0 102.5 -16.5 135.5 -49.5s49.5 -79.5 49.5 -139.5zM322.001 170l-0.000976562 27h-103c-54.667 0 -82 -21 -82 -63c0 -20 7.16699 -35.833 21.5 -47.5s32.833 -17.5 55.5 -17.5
c30.667 0 56.334 9.5 77.001 28.5s31 43.167 31 72.5zM91 728v36h81v-35c0 -24.667 6 -44 18 -58s28.667 -21 50 -21c20.667 0 37 7 49 21s18 33.333 18 58v35h82v-36c0 -46.667 -13.667 -84.167 -41 -112.5s-63.333 -42.5 -108 -42.5s-80.667 14.167 -108 42.5
s-41 65.833 -41 112.5z" />
    <glyph glyph-name="Aogonek" unicode="&#x104;" horiz-adv-x="591" 
d="M465 0l-41 111h-257l-41 -111h-109l258 668h41l258 -668h-109zM391 199l-96 273l-96 -273h192zM398 -102c0 24 9.5 46.667 28.5 68s53.167 48.333 102.5 81l44 -47l-35 -27c-18 -16 -29.5 -27.167 -34.5 -33.5s-7.5 -13.833 -7.5 -22.5c0 -21.333 12.667 -32 38 -32
c9.33301 0 22.333 1.66699 39 5v-70c-22 -7.33301 -44.667 -11 -68 -11c-32.667 0 -58.667 8.16699 -78 24.5s-29 37.833 -29 64.5z" />
    <glyph glyph-name="aogonek" unicode="&#x105;" horiz-adv-x="485" 
d="M424 313l0.000976562 -313h-94v50c-33.333 -40.667 -80 -61 -140 -61c-46.667 0 -84.334 13 -113.001 39s-43 59.667 -43 101c0 43.333 15.5 77.833 46.5 103.5s72.5 38.5 124.5 38.5h117v44c0 30.667 -8 54.167 -24 70.5s-38.667 24.5 -68 24.5
c-45.333 0 -85 -23 -119 -69l-62 56c44.667 70 108 105 190 105c57.333 0 102.5 -16.5 135.5 -49.5s49.5 -79.5 49.5 -139.5zM322.001 170l-0.000976562 27h-103c-54.667 0 -82 -21 -82 -63c0 -20 7.16699 -35.833 21.5 -47.5s32.833 -17.5 55.5 -17.5
c30.667 0 56.334 9.5 77.001 28.5s31 43.167 31 72.5zM248 -102c0 24 9.5 46.667 28.5 68s53.167 48.333 102.5 81l44 -47l-35 -27c-18 -16 -29.5 -27.167 -34.5 -33.5s-7.5 -13.833 -7.5 -22.5c0 -21.333 12.667 -32 38 -32c9.33301 0 22.333 1.66699 39 5v-70
c-22 -7.33301 -44.667 -11 -68 -11c-32.667 0 -58.667 8.16699 -78 24.5s-29 37.833 -29 64.5z" />
    <glyph glyph-name="Cacute" unicode="&#x106;" horiz-adv-x="620" 
d="M39 330c0 100.667 27.834 182.667 83.501 246s126.834 95 213.501 95c57.333 0 107.166 -13.667 149.499 -41s74.833 -66 97.5 -116l-83 -47c-36.667 72.667 -91 109 -163 109c-57.333 0 -103.666 -22.333 -138.999 -67s-53 -104.334 -53 -179.001
c0 -75.333 17.667 -135.166 53 -179.499s81.666 -66.5 138.999 -66.5c72 0 126.333 36.333 163 109l83 -47c-22 -50 -54.333 -88.667 -97 -116s-92.667 -41 -150 -41c-86.667 0 -157.834 31.667 -213.501 95s-83.5 145.333 -83.5 246zM297.001 724l69 186h123v-18l-117 -168
h-75z" />
    <glyph glyph-name="cacute" unicode="&#x107;" horiz-adv-x="486" 
d="M40 246c0 76 21.3291 137.667 63.9961 185s97.334 71 164.001 71c86.667 0 148.334 -40 185.001 -120l-76 -46c-27.333 48.667 -63.666 73 -108.999 73c-38 0 -68.333 -14.667 -91 -44s-34 -69 -34 -119c0 -50.667 11.333 -90.667 34 -120s53 -44 91 -44
c46.667 0 82.667 24 108 72l77 -45c-37.333 -80 -99 -120 -185 -120c-67.333 0 -122.166 23.833 -164.499 71.5s-63.5 109.5 -63.5 185.5zM230.996 571l69 204h123v-18l-118 -186h-74z" />
    <glyph glyph-name="Ccircumflex" unicode="&#x108;" horiz-adv-x="620" 
d="M39 330c0 100.667 27.834 182.667 83.501 246s126.834 95 213.501 95c57.333 0 107.166 -13.667 149.499 -41s74.833 -66 97.5 -116l-83 -47c-36.667 72.667 -91 109 -163 109c-57.333 0 -103.666 -22.333 -138.999 -67s-53 -104.334 -53 -179.001
c0 -75.333 17.667 -135.166 53 -179.499s81.666 -66.5 138.999 -66.5c72 0 126.333 36.333 163 109l83 -47c-22 -50 -54.333 -88.667 -97 -116s-92.667 -41 -150 -41c-86.667 0 -157.834 31.667 -213.501 95s-83.5 145.333 -83.5 246zM501.001 724h-79l-87 93l-86 -93h-79
l133 186h65z" />
    <glyph glyph-name="ccircumflex" unicode="&#x109;" horiz-adv-x="486" 
d="M40 246c0 76 21.3291 137.667 63.9961 185s97.334 71 164.001 71c86.667 0 148.334 -40 185.001 -120l-76 -46c-27.333 48.667 -63.666 73 -108.999 73c-38 0 -68.333 -14.667 -91 -44s-34 -69 -34 -119c0 -50.667 11.333 -90.667 34 -120s53 -44 91 -44
c46.667 0 82.667 24 108 72l77 -45c-37.333 -80 -99 -120 -185 -120c-67.333 0 -122.166 23.833 -164.499 71.5s-63.5 109.5 -63.5 185.5zM420.996 571h-75l-78 102l-79 -102h-76l122 204h65z" />
    <glyph glyph-name="Cdotaccent" unicode="&#x10a;" horiz-adv-x="620" 
d="M39 330c0 100.667 27.834 182.667 83.501 246s126.834 95 213.501 95c57.333 0 107.166 -13.667 149.499 -41s74.833 -66 97.5 -116l-83 -47c-36.667 72.667 -91 109 -163 109c-57.333 0 -103.666 -22.333 -138.999 -67s-53 -104.334 -53 -179.001
c0 -75.333 17.667 -135.166 53 -179.499s81.666 -66.5 138.999 -66.5c72 0 126.333 36.333 163 109l83 -47c-22 -50 -54.333 -88.667 -97 -116s-92.667 -41 -150 -41c-86.667 0 -157.834 31.667 -213.501 95s-83.5 145.333 -83.5 246zM267.001 812
c0 19.333 6.66895 35.5 20.002 48.5s29.333 19.5 48 19.5c19.333 0 35.666 -6.66699 48.999 -20s20 -29.333 20 -48s-6.83301 -34.5 -20.5 -47.5s-29.834 -19.5 -48.501 -19.5s-34.667 6.5 -48 19.5s-20 28.833 -20 47.5z" />
    <glyph glyph-name="cdotaccent" unicode="&#x10b;" horiz-adv-x="486" 
d="M40 246c0 76 21.3291 137.667 63.9961 185s97.334 71 164.001 71c86.667 0 148.334 -40 185.001 -120l-76 -46c-27.333 48.667 -63.666 73 -108.999 73c-38 0 -68.333 -14.667 -91 -44s-34 -69 -34 -119c0 -50.667 11.333 -90.667 34 -120s53 -44 91 -44
c46.667 0 82.667 24 108 72l77 -45c-37.333 -80 -99 -120 -185 -120c-67.333 0 -122.166 23.833 -164.499 71.5s-63.5 109.5 -63.5 185.5zM197.996 673c0 19.333 6.66699 35.5 20 48.5s29.666 19.5 48.999 19.5s35.666 -6.66699 48.999 -20s20 -29.333 20 -48
s-6.66699 -34.5 -20 -47.5s-29.666 -19.5 -48.999 -19.5s-35.666 6.5 -48.999 19.5s-20 28.833 -20 47.5z" />
    <glyph glyph-name="Ccaron" unicode="&#x10c;" horiz-adv-x="620" 
d="M39 330c0 100.667 27.834 182.667 83.501 246s126.834 95 213.501 95c57.333 0 107.166 -13.667 149.499 -41s74.833 -66 97.5 -116l-83 -47c-36.667 72.667 -91 109 -163 109c-57.333 0 -103.666 -22.333 -138.999 -67s-53 -104.334 -53 -179.001
c0 -75.333 17.667 -135.166 53 -179.499s81.666 -66.5 138.999 -66.5c72 0 126.333 36.333 163 109l83 -47c-22 -50 -54.333 -88.667 -97 -116s-92.667 -41 -150 -41c-86.667 0 -157.834 31.667 -213.501 95s-83.5 145.333 -83.5 246zM422.001 910h79l-133 -186h-65
l-133 186h79l86 -93z" />
    <glyph glyph-name="ccaron" unicode="&#x10d;" horiz-adv-x="486" 
d="M40 246c0 76 21.3291 137.667 63.9961 185s97.334 71 164.001 71c86.667 0 148.334 -40 185.001 -120l-76 -46c-27.333 48.667 -63.666 73 -108.999 73c-38 0 -68.333 -14.667 -91 -44s-34 -69 -34 -119c0 -50.667 11.333 -90.667 34 -120s53 -44 91 -44
c46.667 0 82.667 24 108 72l77 -45c-37.333 -80 -99 -120 -185 -120c-67.333 0 -122.166 23.833 -164.499 71.5s-63.5 109.5 -63.5 185.5zM345.996 775h75l-121 -204h-65l-122 204h76l79 -103z" />
    <glyph glyph-name="Dcaron" unicode="&#x10e;" horiz-adv-x="616" 
d="M72 0v660h183c99.333 0 177.833 -28.667 235.5 -86s86.5 -138 86.5 -242c0 -103.333 -29 -184.5 -87 -243.5s-136.333 -88.5 -235 -88.5h-183zM175 93h80c68.667 0 122 20.833 160 62.5s57 100.5 57 176.5c0 75.333 -19 133.333 -57 174s-91.333 61 -160 61h-80v-474z
M334 910h79l-133 -186h-65l-133 186h79l86 -93z" />
    <glyph glyph-name="dcaron" unicode="&#x10f;" horiz-adv-x="684" 
d="M387 750h102.001v-750h-94v62c-32 -48.667 -81 -73 -147 -73c-62 0 -112.167 23.5 -150.5 70.5s-57.5 108.833 -57.5 185.5s19.167 138.667 57.5 186s88.5 71 150.5 71c59.333 0 105.666 -21 138.999 -63v311zM388.001 245c0 52.667 -11 93.167 -33 121.5
s-51.333 42.5 -88 42.5c-38 0 -68.167 -14.667 -90.5 -44s-33.5 -69 -33.5 -119c0 -51.333 11.167 -91.5 33.5 -120.5s52.5 -43.5 90.5 -43.5c36.667 0 66 14 88 42s33 68.333 33 121zM572.001 542l7 208h106l-39 -208h-74z" />
    <glyph glyph-name="Dcroat" unicode="&#x110;" horiz-adv-x="616" 
d="M577 332c0 -103.333 -29 -184.5 -87 -243.5s-136.333 -88.5 -235 -88.5h-183v270h-77v88h77v302h183c99.333 0 177.833 -28.667 235.5 -86s86.5 -138 86.5 -242zM472 332c0 75.333 -19 133.333 -57 174s-91.333 61 -160 61h-80v-209h108v-88h-108v-177h80
c68.667 0 122 20.833 160 62.5s57 100.5 57 176.5z" />
    <glyph glyph-name="dslash" unicode="&#x111;" horiz-adv-x="556" 
d="M556 654v-84.999h-72v-569h-93v64c-33.333 -50 -83 -75 -149 -75c-60.667 0 -110.167 22.667 -148.5 68s-57.5 104.666 -57.5 177.999c0 74 19 133.5 57 178.5s87.667 67.5 149 67.5c60.667 0 108 -21.667 142 -65v153h-187v85h187v96h100v-96h72zM385 234.001
c0 51.333 -11.167 90.833 -33.5 118.5s-51.833 41.5 -88.5 41.5c-38 0 -68.167 -14.333 -90.5 -43s-33.5 -67.667 -33.5 -117s11.167 -88 33.5 -116s52.5 -42 90.5 -42c36.667 0 66.167 13.667 88.5 41s33.5 66.333 33.5 117z" />
    <glyph glyph-name="Emacron" unicode="&#x112;" horiz-adv-x="509" 
d="M72 0v660h390v-93h-287v-172h217v-90h-217v-212h298v-93h-401zM124 763v83h281v-83h-281z" />
    <glyph glyph-name="emacron" unicode="&#x113;" horiz-adv-x="504" 
d="M458 212h-316.001c5.33301 -43.333 19.5 -76.333 42.5 -99s53.5 -34 91.5 -34c45.333 0 85.333 19 120 57l55 -64c-47.333 -55.333 -106.666 -83 -177.999 -83c-69.333 0 -125.5 23.5 -168.5 70.5s-64.5 108.833 -64.5 185.5c0 75.333 20.833 137 62.5 185
s95.167 72 160.5 72c60 0 108.5 -20.5 145.5 -61.5s55.5 -94.833 55.5 -161.5c0 -26 -2 -48.333 -6 -67zM142.999 291h222.999c0 38.667 -9.66699 69 -29 91s-44.666 33 -75.999 33c-32 0 -58.333 -10.667 -79 -32s-33.667 -52 -39 -92zM129.998 629v83h263v-83h-263z" />
    <glyph glyph-name="Ebreve" unicode="&#x114;" horiz-adv-x="509" 
d="M72 0v660h390v-93h-287v-172h217v-90h-217v-212h298v-93h-401zM115 881l-0.00195312 29.001h81v-28c0 -24.667 6.33301 -43.834 19 -57.501s30 -20.5 52 -20.5c20.667 0 36.834 7 48.501 21s17.5 33 17.5 57v28h81v-29c0 -46.667 -13.667 -84.167 -41 -112.5
s-63.333 -42.5 -108 -42.5c-45.333 0 -81.666 14 -108.999 42s-41 65.667 -41 113z" />
    <glyph glyph-name="ebreve" unicode="&#x115;" horiz-adv-x="504" 
d="M458 212h-316.001c5.33301 -43.333 19.5 -76.333 42.5 -99s53.5 -34 91.5 -34c45.333 0 85.333 19 120 57l55 -64c-47.333 -55.333 -106.666 -83 -177.999 -83c-69.333 0 -125.5 23.5 -168.5 70.5s-64.5 108.833 -64.5 185.5c0 75.333 20.833 137 62.5 185
s95.167 72 160.5 72c60 0 108.5 -20.5 145.5 -61.5s55.5 -94.833 55.5 -161.5c0 -26 -2 -48.333 -6 -67zM142.999 291h222.999c0 38.667 -9.66699 69 -29 91s-44.666 33 -75.999 33c-32 0 -58.333 -10.667 -79 -32s-33.667 -52 -39 -92zM112.998 728v36h81v-35
c0 -24.667 6 -44 18 -58s28.667 -21 50 -21c20.667 0 37 7 49 21s18 33.333 18 58v35h82v-36c0 -46.667 -13.667 -84.167 -41 -112.5s-63.333 -42.5 -108 -42.5s-80.667 14.167 -108 42.5s-41 65.833 -41 112.5z" />
    <glyph glyph-name="Edotaccent" unicode="&#x116;" horiz-adv-x="509" 
d="M72 0v660h390v-93h-287v-172h217v-90h-217v-212h298v-93h-401zM196 812c0 19.333 6.66895 35.5 20.002 48.5s29.333 19.5 48 19.5c19.333 0 35.666 -6.66699 48.999 -20s20 -29.333 20 -48s-6.83301 -34.5 -20.5 -47.5s-29.834 -19.5 -48.501 -19.5s-34.667 6.5 -48 19.5
s-20 28.833 -20 47.5z" />
    <glyph glyph-name="edotaccent" unicode="&#x117;" horiz-adv-x="504" 
d="M458 212h-316.001c5.33301 -43.333 19.5 -76.333 42.5 -99s53.5 -34 91.5 -34c45.333 0 85.333 19 120 57l55 -64c-47.333 -55.333 -106.666 -83 -177.999 -83c-69.333 0 -125.5 23.5 -168.5 70.5s-64.5 108.833 -64.5 185.5c0 75.333 20.833 137 62.5 185
s95.167 72 160.5 72c60 0 108.5 -20.5 145.5 -61.5s55.5 -94.833 55.5 -161.5c0 -26 -2 -48.333 -6 -67zM142.999 291h222.999c0 38.667 -9.66699 69 -29 91s-44.666 33 -75.999 33c-32 0 -58.333 -10.667 -79 -32s-33.667 -52 -39 -92zM192.998 673
c0 19.333 6.66699 35.5 20 48.5s29.666 19.5 48.999 19.5s35.666 -6.66699 48.999 -20s20 -29.333 20 -48s-6.66699 -34.5 -20 -47.5s-29.666 -19.5 -48.999 -19.5s-35.666 6.5 -48.999 19.5s-20 28.833 -20 47.5z" />
    <glyph glyph-name="Eogonek" unicode="&#x118;" horiz-adv-x="509" 
d="M72 0v660h390v-93h-287v-172h217v-90h-217v-212h298v-93h-401zM298 -102c0 24 9.5 46.667 28.5 68s53.167 48.333 102.5 81l44 -47l-35 -27c-18 -16 -29.5 -27.167 -34.5 -33.5s-7.5 -13.833 -7.5 -22.5c0 -21.333 12.667 -32 38 -32c9.33301 0 22.333 1.66699 39 5v-70
c-22 -7.33301 -44.667 -11 -68 -11c-32.667 0 -58.667 8.16699 -78 24.5s-29 37.833 -29 64.5z" />
    <glyph glyph-name="eogonek" unicode="&#x119;" horiz-adv-x="504" 
d="M458 212h-316.001c5.33301 -43.333 19.5 -76.333 42.5 -99s53.5 -34 91.5 -34c45.333 0 85.333 19 120 57l55 -64c-47.333 -55.333 -106.666 -83 -177.999 -83c-69.333 0 -125.5 23.5 -168.5 70.5s-64.5 108.833 -64.5 185.5c0 75.333 20.833 137 62.5 185
s95.167 72 160.5 72c60 0 108.5 -20.5 145.5 -61.5s55.5 -94.833 55.5 -161.5c0 -26 -2 -48.333 -6 -67zM142.999 291h222.999c0 38.667 -9.66699 69 -29 91s-44.666 33 -75.999 33c-32 0 -58.333 -10.667 -79 -32s-33.667 -52 -39 -92zM243.998 -102
c0.666992 24.667 7.83301 47.001 21.5 67.001s45.167 56 94.5 108h90l-77 -91c-21.333 -26.667 -32 -48.334 -32 -65.001c0 -21.333 13 -32 39 -32c9.33301 0 22.333 1.66699 39 5v-70c-20 -7.33301 -43 -11 -69 -11c-32 0 -57.667 8 -77 24s-29 37.667 -29 65z" />
    <glyph glyph-name="Ecaron" unicode="&#x11a;" horiz-adv-x="509" 
d="M72 0v660h390v-93h-287v-172h217v-90h-217v-212h298v-93h-401zM351 910h79l-133 -186h-65l-133 186h79l86 -93z" />
    <glyph glyph-name="ecaron" unicode="&#x11b;" horiz-adv-x="504" 
d="M458 212h-316.001c5.33301 -43.333 19.5 -76.333 42.5 -99s53.5 -34 91.5 -34c45.333 0 85.333 19 120 57l55 -64c-47.333 -55.333 -106.666 -83 -177.999 -83c-69.333 0 -125.5 23.5 -168.5 70.5s-64.5 108.833 -64.5 185.5c0 75.333 20.833 137 62.5 185
s95.167 72 160.5 72c60 0 108.5 -20.5 145.5 -61.5s55.5 -94.833 55.5 -161.5c0 -26 -2 -48.333 -6 -67zM142.999 291h222.999c0 38.667 -9.66699 69 -29 91s-44.666 33 -75.999 33c-32 0 -58.333 -10.667 -79 -32s-33.667 -52 -39 -92zM340.998 775h75l-121 -204h-65
l-122 204h76l79 -103z" />
    <glyph glyph-name="Gcircumflex" unicode="&#x11c;" horiz-adv-x="644" 
d="M39 331c0 101.333 27.8311 183.334 83.498 246.001s127.834 94 216.501 94c110.667 0 191 -48.333 241 -145l-80 -49c-38 66 -92 99 -162 99c-59.333 0 -106.333 -22 -141 -66s-52 -103.667 -52 -179c0 -76.667 17.833 -137.334 53.5 -182.001s84.167 -67 145.5 -67
c70.667 0 123.334 27 158.001 81v94h-166v91h269v-205c-24.667 -46.667 -60.667 -84 -108 -112s-99.333 -42 -156 -42c-89.333 0 -162 31.5 -218 94.5s-84 145.5 -84 247.5zM502.998 724.001h-79l-87 93l-86 -93h-79l133 186h65z" />
    <glyph glyph-name="gcircumflex" unicode="&#x11d;" horiz-adv-x="557" 
d="M397 491l92.998 -0.000976562v-466c0 -68 -19.667 -121 -59 -159s-92.666 -57 -159.999 -57c-88 0 -158.333 31.333 -211 94l61 66c45.333 -45.333 93.333 -68 144 -68c38.667 0 69 10.5 91 31.5s33 50.833 33 89.5v49c-32.667 -40.667 -79.667 -61 -141 -61
s-111 22.5 -149 67.5s-57 104.5 -57 178.5c0 74.667 19 134.334 57 179.001s87.667 67 149 67c66.667 0 116.334 -24.667 149.001 -74v63zM389.998 255.999c0 50 -11 88.333 -33 115s-51.333 40 -88 40c-38 0 -68.167 -13.833 -90.5 -41.5s-33.5 -65.5 -33.5 -113.5
s11.5 -86 34.5 -114s52.833 -42 89.5 -42s66 13.5 88 40.5s33 65.5 33 115.5zM427.998 570.999h-75l-78 102l-79 -102h-76l122 204h65z" />
    <glyph glyph-name="Gbreve" unicode="&#x11e;" horiz-adv-x="644" 
d="M39 331c0 101.333 27.8311 183.334 83.498 246.001s127.834 94 216.501 94c110.667 0 191 -48.333 241 -145l-80 -49c-38 66 -92 99 -162 99c-59.333 0 -106.333 -22 -141 -66s-52 -103.667 -52 -179c0 -76.667 17.833 -137.334 53.5 -182.001s84.167 -67 145.5 -67
c70.667 0 123.334 27 158.001 81v94h-166v91h269v-205c-24.667 -46.667 -60.667 -84 -108 -112s-99.333 -42 -156 -42c-89.333 0 -162 31.5 -218 94.5s-84 145.5 -84 247.5zM187.998 881.001l-0.00195312 29.001h81v-28c0 -24.667 6.33301 -43.834 19 -57.501
s30 -20.5 52 -20.5c20.667 0 36.834 7 48.501 21s17.5 33 17.5 57v28h81v-29c0 -46.667 -13.667 -84.167 -41 -112.5s-63.333 -42.5 -108 -42.5c-45.333 0 -81.666 14 -108.999 42s-41 65.667 -41 113z" />
    <glyph glyph-name="gbreve" unicode="&#x11f;" horiz-adv-x="557" 
d="M397 491l92.998 -0.000976562v-466c0 -68 -19.667 -121 -59 -159s-92.666 -57 -159.999 -57c-88 0 -158.333 31.333 -211 94l61 66c45.333 -45.333 93.333 -68 144 -68c38.667 0 69 10.5 91 31.5s33 50.833 33 89.5v49c-32.667 -40.667 -79.667 -61 -141 -61
s-111 22.5 -149 67.5s-57 104.5 -57 178.5c0 74.667 19 134.334 57 179.001s87.667 67 149 67c66.667 0 116.334 -24.667 149.001 -74v63zM389.998 255.999c0 50 -11 88.333 -33 115s-51.333 40 -88 40c-38 0 -68.167 -13.833 -90.5 -41.5s-33.5 -65.5 -33.5 -113.5
s11.5 -86 34.5 -114s52.833 -42 89.5 -42s66 13.5 88 40.5s33 65.5 33 115.5zM124.998 727.999v36h81v-35c0 -24.667 6 -44 18 -58s28.667 -21 50 -21c20.667 0 37 7 49 21s18 33.333 18 58v35h82v-36c0 -46.667 -13.667 -84.167 -41 -112.5s-63.333 -42.5 -108 -42.5
s-80.667 14.167 -108 42.5s-41 65.833 -41 112.5z" />
    <glyph glyph-name="Gdotaccent" unicode="&#x120;" horiz-adv-x="644" 
d="M39 331c0 101.333 27.8311 183.334 83.498 246.001s127.834 94 216.501 94c110.667 0 191 -48.333 241 -145l-80 -49c-38 66 -92 99 -162 99c-59.333 0 -106.333 -22 -141 -66s-52 -103.667 -52 -179c0 -76.667 17.833 -137.334 53.5 -182.001s84.167 -67 145.5 -67
c70.667 0 123.334 27 158.001 81v94h-166v91h269v-205c-24.667 -46.667 -60.667 -84 -108 -112s-99.333 -42 -156 -42c-89.333 0 -162 31.5 -218 94.5s-84 145.5 -84 247.5zM268.998 812.001c0 19.333 6.66895 35.5 20.002 48.5s29.333 19.5 48 19.5
c19.333 0 35.666 -6.66699 48.999 -20s20 -29.333 20 -48s-6.83301 -34.5 -20.5 -47.5s-29.834 -19.5 -48.501 -19.5s-34.667 6.5 -48 19.5s-20 28.833 -20 47.5z" />
    <glyph glyph-name="gdotaccent" unicode="&#x121;" horiz-adv-x="557" 
d="M397 491l92.998 -0.000976562v-466c0 -68 -19.667 -121 -59 -159s-92.666 -57 -159.999 -57c-88 0 -158.333 31.333 -211 94l61 66c45.333 -45.333 93.333 -68 144 -68c38.667 0 69 10.5 91 31.5s33 50.833 33 89.5v49c-32.667 -40.667 -79.667 -61 -141 -61
s-111 22.5 -149 67.5s-57 104.5 -57 178.5c0 74.667 19 134.334 57 179.001s87.667 67 149 67c66.667 0 116.334 -24.667 149.001 -74v63zM389.998 255.999c0 50 -11 88.333 -33 115s-51.333 40 -88 40c-38 0 -68.167 -13.833 -90.5 -41.5s-33.5 -65.5 -33.5 -113.5
s11.5 -86 34.5 -114s52.833 -42 89.5 -42s66 13.5 88 40.5s33 65.5 33 115.5zM204.998 672.999c0 19.333 6.66699 35.5 20 48.5s29.666 19.5 48.999 19.5s35.666 -6.66699 48.999 -20s20 -29.333 20 -48s-6.66699 -34.5 -20 -47.5s-29.666 -19.5 -48.999 -19.5
s-35.666 6.5 -48.999 19.5s-20 28.833 -20 47.5z" />
    <glyph glyph-name="uni0122" unicode="&#x122;" horiz-adv-x="644" 
d="M39 331c0 101.333 27.8311 183.334 83.498 246.001s127.834 94 216.501 94c110.667 0 191 -48.333 241 -145l-80 -49c-38 66 -92 99 -162 99c-59.333 0 -106.333 -22 -141 -66s-52 -103.667 -52 -179c0 -76.667 17.833 -137.334 53.5 -182.001s84.167 -67 145.5 -67
c70.667 0 123.334 27 158.001 81v94h-166v91h269v-205c-24.667 -46.667 -60.667 -84 -108 -112s-99.333 -42 -156 -42c-89.333 0 -162 31.5 -218 94.5s-84 145.5 -84 247.5zM283.998 -219.999l6 172h96l-23 -172h-79z" />
    <glyph glyph-name="uni0123" unicode="&#x123;" horiz-adv-x="557" 
d="M397 491l92.998 -0.000976562v-466c0 -68 -19.667 -121 -59 -159s-92.666 -57 -159.999 -57c-88 0 -158.333 31.333 -211 94l61 66c45.333 -45.333 93.333 -68 144 -68c38.667 0 69 10.5 91 31.5s33 50.833 33 89.5v49c-32.667 -40.667 -79.667 -61 -141 -61
s-111 22.5 -149 67.5s-57 104.5 -57 178.5c0 74.667 19 134.334 57 179.001s87.667 67 149 67c66.667 0 116.334 -24.667 149.001 -74v63zM389.998 255.999c0 50 -11 88.333 -33 115s-51.333 40 -88 40c-38 0 -68.167 -13.833 -90.5 -41.5s-33.5 -65.5 -33.5 -113.5
s11.5 -86 34.5 -114s52.833 -42 89.5 -42s66 13.5 88 40.5s33 65.5 33 115.5zM223.998 567.999l30 212h75l-9 -212h-96z" />
    <glyph glyph-name="Hcircumflex" unicode="&#x124;" horiz-adv-x="636" 
d="M72 0v660h103v-263h285v263h103v-660h-103v304h-285v-304h-103zM483 724h-79l-87 93l-86 -93h-79l133 186h65z" />
    <glyph glyph-name="hcircumflex" unicode="&#x125;" horiz-adv-x="520" 
d="M458 323l-0.000976562 -323h-101v311c0 29.333 -8.5 53 -25.5 71s-39.5 27 -67.5 27s-51 -9.16699 -69 -27.5s-27 -41.833 -27 -70.5v-311h-102v750h102v-299c30.667 34 72.334 51 125.001 51c50 0 90 -16.333 120 -49s45 -76 45 -130zM327.999 814h-79l-87 93l-86 -93
h-79l133 186h65z" />
    <glyph glyph-name="Hbar" unicode="&#x126;" horiz-adv-x="650" 
d="M79 0v448h-84v89h84v123h103v-123h285v123h103v-123h85v-89h-85v-448h-103v236h-285v-236h-103zM182 326h285v122h-285v-122z" />
    <glyph glyph-name="hbar" unicode="&#x127;" horiz-adv-x="525" 
d="M464 303l0.000976562 -303h-102v290c0 29.333 -8.33301 53 -25 71s-39 27 -67 27c-28.667 0 -52 -9.16699 -70 -27.5s-27 -41.833 -27 -70.5v-290h-101v568h-72v87h72v95h101v-95h175v-87h-175v-140c29.333 35.333 70.666 53 123.999 53
c50.667 0 91.167 -16.333 121.5 -49s45.5 -75.667 45.5 -129z" />
    <glyph glyph-name="Itilde" unicode="&#x128;" horiz-adv-x="247" 
d="M72 0v660h103v-660h-103zM133 756l-30 19.001c-20 15.333 -33.667 21.666 -41 18.999c-16.667 0 -25 -11.667 -25 -35v-16h-80c-1.33301 20 -2 30.333 -2 31c0 34 8.66699 61.5 26 82.5s39.666 31.5 66.999 31.5c20.667 0 42.667 -7.66699 66 -23l31 -20
c16.667 -12.667 30.334 -19 41.001 -19c17.333 0 26 11.667 26 35v16h79c1.33301 -20 2 -30.333 2 -31c0 -34 -8.5 -61.333 -25.5 -82s-39.167 -31 -66.5 -31c-20 0 -42.667 7.66699 -68 23z" />
    <glyph glyph-name="itilde" unicode="&#x129;" horiz-adv-x="234" 
d="M66 0v491h102v-491h-102zM118 615l-19.001 17c-15.333 15.333 -25.666 22 -30.999 20c-16 0 -24 -12 -24 -36v-17h-78c-1.33301 14.667 -2 25 -2 31c0 34.667 8 62.5 24 83.5s37.667 31.5 65 31.5c21.333 0 42 -9 62 -27l19 -18c12.667 -12.667 23 -19 31 -19
c15.333 0 23 11.667 23 35v17h78c1.33301 -12 2 -22 2 -30c0 -34.667 -8.16699 -62.667 -24.5 -84s-37.833 -32 -64.5 -32c-20 0 -40.333 9.33301 -61 28z" />
    <glyph glyph-name="Imacron" unicode="&#x12a;" horiz-adv-x="247" 
d="M72 0v660h103v-660h-103zM-17 763v83h281v-83h-281z" />
    <glyph glyph-name="imacron" unicode="&#x12b;" horiz-adv-x="234" 
d="M66 0v491h102v-491h-102zM8 632v82h218v-82h-218z" />
    <glyph glyph-name="Ibreve" unicode="&#x12c;" horiz-adv-x="247" 
d="M72 0v660h103v-660h-103zM-26 881l-0.00195312 29.001h81v-28c0 -24.667 6.33301 -43.834 19 -57.501s30 -20.5 52 -20.5c20.667 0 36.834 7 48.501 21s17.5 33 17.5 57v28h81v-29c0 -46.667 -13.667 -84.167 -41 -112.5s-63.333 -42.5 -108 -42.5
c-45.333 0 -81.666 14 -108.999 42s-41 65.667 -41 113z" />
    <glyph glyph-name="ibreve" unicode="&#x12d;" horiz-adv-x="234" 
d="M66 0v491h102v-491h-102zM-32 728v36h81v-35c0 -24.667 6 -44 18 -58s28.667 -21 50 -21c20.667 0 37 7 49 21s18 33.333 18 58v35h82v-36c0 -46.667 -13.667 -84.167 -41 -112.5s-63.333 -42.5 -108 -42.5s-80.667 14.167 -108 42.5s-41 65.833 -41 112.5z" />
    <glyph glyph-name="Iogonek" unicode="&#x12e;" horiz-adv-x="247" 
d="M72 0v660h103v-660h-103zM0 -102c0 24 9.5 46.667 28.5 68s53.167 48.333 102.5 81l44 -47l-35 -27c-18 -16 -29.5 -27.167 -34.5 -33.5s-7.5 -13.833 -7.5 -22.5c0 -21.333 12.667 -32 38 -32c9.33301 0 22.333 1.66699 39 5v-70c-22 -7.33301 -44.667 -11 -68 -11
c-32.667 0 -58.667 8.16699 -78 24.5s-29 37.833 -29 64.5z" />
    <glyph glyph-name="iogonek" unicode="&#x12f;" horiz-adv-x="234" 
d="M66 0v491h102v-491h-102zM48 673c0 19.333 6.66699 35.5 20 48.5s29.666 19.5 48.999 19.5s35.666 -6.66699 48.999 -20s20 -29.333 20 -48s-6.66699 -34.5 -20 -47.5s-29.666 -19.5 -48.999 -19.5s-35.666 6.5 -48.999 19.5s-20 28.833 -20 47.5zM-8 -102
c0 24 9.5 46.667 28.5 68s53.167 48.333 102.5 81l44 -47l-35 -27c-18 -16 -29.5 -27.167 -34.5 -33.5s-7.5 -13.833 -7.5 -22.5c0 -21.333 12.667 -32 38 -32c9.33301 0 22.333 1.66699 39 5v-70c-22 -7.33301 -44.667 -11 -68 -11c-32.667 0 -58.667 8.16699 -78 24.5
s-29 37.833 -29 64.5z" />
    <glyph glyph-name="Idot" unicode="&#x130;" horiz-adv-x="247" 
d="M72 0v660h103v-660h-103zM55 812c0 19.333 6.66895 35.5 20.002 48.5s29.333 19.5 48 19.5c19.333 0 35.666 -6.66699 48.999 -20s20 -29.333 20 -48s-6.83301 -34.5 -20.5 -47.5s-29.834 -19.5 -48.501 -19.5s-34.667 6.5 -48 19.5s-20 28.833 -20 47.5z" />
    <glyph glyph-name="dotlessi" unicode="&#x131;" horiz-adv-x="234" 
d="M66 0v491h102v-491h-102z" />
    <glyph glyph-name="IJ" unicode="&#x132;" horiz-adv-x="590" 
d="M72 0v660h103v-660h-103zM264 -1l0.000976562 89c31.333 -3.33301 51.666 -5 60.999 -5c30.667 0 53.167 6.5 67.5 19.5s21.5 34.167 21.5 63.5v494h103v-508c0 -54 -14.667 -94.667 -44 -122s-71.333 -41 -126 -41c-28 0 -55.667 3.33301 -83 10z" />
    <glyph glyph-name="ij" unicode="&#x133;" horiz-adv-x="468" 
d="M66 0v491h102v-491h-102zM48 673c0 19.333 6.66699 35.5 20 48.5s29.666 19.5 48.999 19.5s35.666 -6.66699 48.999 -20s20 -29.333 20 -48s-6.66699 -34.5 -20 -47.5s-29.666 -19.5 -48.999 -19.5s-35.666 6.5 -48.999 19.5s-20 28.833 -20 47.5zM185 -183
l-0.000976562 86c22.667 -1.33301 34.334 -2 35.001 -2c27.333 0 47.5 6 60.5 18s19.5 31.333 19.5 58v514h102v-525c0 -50.667 -14 -89.5 -42 -116.5s-67 -40.5 -117 -40.5c-20.667 0 -40 2.66699 -58 8zM281.999 673c0 19.333 6.66699 35.5 20 48.5
s29.666 19.5 48.999 19.5s35.666 -6.66699 48.999 -20s20 -29.333 20 -48s-6.66699 -34.5 -20 -47.5s-29.666 -19.5 -48.999 -19.5s-35.666 6.5 -48.999 19.5s-20 28.833 -20 47.5z" />
    <glyph glyph-name="Jcircumflex" unicode="&#x134;" horiz-adv-x="343" 
d="M17 -1l0.000976562 89c31.333 -3.33301 51.666 -5 60.999 -5c30.667 0 53.167 6.5 67.5 19.5s21.5 34.167 21.5 63.5v494h103v-508c0 -54 -14.667 -94.667 -44 -122s-71.333 -41 -126 -41c-28 0 -55.667 3.33301 -83 10zM371.001 724h-79l-87 93l-86 -93h-79l133 186h65z
" />
    <glyph glyph-name="jcircumflex" unicode="&#x135;" horiz-adv-x="234" 
d="M-49 -183l-0.000976562 86c22.667 -1.33301 34.334 -2 35.001 -2c27.333 0 47.5 6 60.5 18s19.5 31.333 19.5 58v514h102v-525c0 -50.667 -14 -89.5 -42 -116.5s-67 -40.5 -117 -40.5c-20.667 0 -40 2.66699 -58 8zM270.999 571h-75l-78 102l-79 -102h-76l122 204h65z
" />
    <glyph glyph-name="uni0136" unicode="&#x136;" horiz-adv-x="587" 
d="M72 0v660h103v-660h-103zM302 352l265 -352h-124l-266 352l244 308h123zM227 -220l6 172h96l-23 -172h-79z" />
    <glyph glyph-name="uni0137" unicode="&#x137;" horiz-adv-x="486" 
d="M66 0v750h102v-750h-102zM288 272l190 -272h-119l-190 275l173 216h123zM193 -220l6 172h96l-23 -172h-79z" />
    <glyph glyph-name="Lacute" unicode="&#x139;" horiz-adv-x="459" 
d="M72 0v660h103v-567h263v-93h-366zM85 724l69 186h123v-18l-117 -168h-75z" />
    <glyph glyph-name="lacute" unicode="&#x13a;" horiz-adv-x="234" 
d="M66 0v750h102v-750h-102zM78 814l69 186h123v-18l-117 -168h-75z" />
    <glyph glyph-name="uni013B" unicode="&#x13b;" horiz-adv-x="459" 
d="M72 0v660h103v-567h263v-93h-366zM198 -220l6 172h96l-23 -172h-79z" />
    <glyph glyph-name="uni013C" unicode="&#x13c;" horiz-adv-x="234" 
d="M66 0v750h102v-750h-102zM64 -220l6 172h96l-23 -172h-79z" />
    <glyph glyph-name="Lcaron" unicode="&#x13d;" horiz-adv-x="459" 
d="M72 0v660h103v-567h263v-93h-366zM319 512l7 208h106l-39 -208h-74z" />
    <glyph glyph-name="lcaron" unicode="&#x13e;" horiz-adv-x="363" 
d="M66 0v750h102v-750h-102zM251 542l7 208h106l-39 -208h-74z" />
    <glyph glyph-name="Ldot" unicode="&#x13f;" horiz-adv-x="467" 
d="M72 0v660h103v-567h263v-93h-366zM288 373c0 20.667 7 38 21 52s31.333 21 52 21s38 -7 52 -21s21 -31.333 21 -52c0 -21.333 -7 -38.833 -21 -52.5s-31.333 -20.5 -52 -20.5s-38 6.83301 -52 20.5s-21 31.167 -21 52.5z" />
    <glyph glyph-name="ldot" unicode="&#x140;" horiz-adv-x="339" 
d="M66 0v750h102v-750h-102zM215 317c0 20.667 7 38 21 52s31.333 21 52 21s38 -7 52 -21s21 -31.333 21 -52c0 -21.333 -7 -38.833 -21 -52.5s-31.333 -20.5 -52 -20.5s-38 6.83301 -52 20.5s-21 31.167 -21 52.5z" />
    <glyph glyph-name="Lslash" unicode="&#x141;" horiz-adv-x="459" 
d="M175 93h264v-93h-367v229l-66 -32v99l66 32v332h103v-288l185 90v-99l-185 -90v-180z" />
    <glyph glyph-name="lslash" unicode="&#x142;" horiz-adv-x="301" 
d="M272 462v-98l-75 -36v-328h-101v287l-70 -35v98l70 35v365h101v-324z" />
    <glyph glyph-name="Nacute" unicode="&#x143;" horiz-adv-x="636" 
d="M460 660h103v-668h-41l-347 445v-437h-103v668h42l346 -444v436zM278 724l69 186h123v-18l-117 -168h-75z" />
    <glyph glyph-name="nacute" unicode="&#x144;" horiz-adv-x="520" 
d="M458 323v-322.998h-101v311c0 29.333 -8.5 53.166 -25.5 71.499s-39.5 27.5 -67.5 27.5s-51 -9.33301 -69 -28s-27 -42.334 -27 -71.001v-311h-102v491h94v-44c32.667 36.667 76.667 55 132 55c51.333 0 91.833 -16.167 121.5 -48.5s44.5 -75.833 44.5 -130.5z
M222 571.002l69 204h123v-18l-118 -186h-74z" />
    <glyph glyph-name="uni0145" unicode="&#x145;" horiz-adv-x="636" 
d="M460 660h103v-668h-41l-347 445v-437h-103v668h42l346 -444v436zM264 -220l6 172h96l-23 -172h-79z" />
    <glyph glyph-name="uni0146" unicode="&#x146;" horiz-adv-x="520" 
d="M458 323v-322.998h-101v311c0 29.333 -8.5 53.166 -25.5 71.499s-39.5 27.5 -67.5 27.5s-51 -9.33301 -69 -28s-27 -42.334 -27 -71.001v-311h-102v491h94v-44c32.667 36.667 76.667 55 132 55c51.333 0 91.833 -16.167 121.5 -48.5s44.5 -75.833 44.5 -130.5z
M209 -219.998l6 172h96l-23 -172h-79z" />
    <glyph glyph-name="Ncaron" unicode="&#x147;" horiz-adv-x="636" 
d="M460 660h103v-668h-41l-347 445v-437h-103v668h42l346 -444v436zM404 910h79l-133 -186h-65l-133 186h79l86 -93z" />
    <glyph glyph-name="ncaron" unicode="&#x148;" horiz-adv-x="520" 
d="M458 323v-322.998h-101v311c0 29.333 -8.5 53.166 -25.5 71.499s-39.5 27.5 -67.5 27.5s-51 -9.33301 -69 -28s-27 -42.334 -27 -71.001v-311h-102v491h94v-44c32.667 36.667 76.667 55 132 55c51.333 0 91.833 -16.167 121.5 -48.5s44.5 -75.833 44.5 -130.5z
M337 775.002h75l-121 -204h-65l-122 204h76l79 -103z" />
    <glyph glyph-name="Eng" unicode="&#x14a;" horiz-adv-x="635" 
d="M460 660h103v-694c0 -51.333 -13.833 -90.333 -41.5 -117s-66.5 -40 -116.5 -40c-21.333 0 -41 2.66699 -59 8v86c22.667 -1.33301 34.667 -2 36 -2c52 0 78 25 78 75v39l-285 402v-417h-103v668h42l346 -486v478z" />
    <glyph glyph-name="eng" unicode="&#x14b;" horiz-adv-x="519" 
d="M458 323l0.000976562 -357.001c0 -50.667 -14 -89.5 -42 -116.5s-67 -40.5 -117 -40.5c-20 0 -39.667 2.66699 -59 8v85c5.33301 0 10.666 -0.166992 15.999 -0.5s9.5 -0.666016 12.5 -0.999023s5.16699 -0.5 6.5 -0.5c28 0 48.667 6 62 18s20 31.333 20 58v335
c0 29.333 -8.5 53 -25.5 71s-39.5 27 -67.5 27s-51.167 -9.16699 -69.5 -27.5s-27.5 -41.833 -27.5 -70.5v-311h-101v491h94v-45c32 37.333 75.667 56 131 56c51.333 0 92 -16.333 122 -49s45 -76 45 -130z" />
    <glyph glyph-name="Omacron" unicode="&#x14c;" horiz-adv-x="674" 
d="M39 330c0 102 27.6689 184.333 83.002 247s126.666 94 213.999 94c88 0 159.833 -31.333 215.5 -94s83.5 -144.667 83.5 -246c0 -102 -28 -184.5 -84 -247.5s-127.667 -94.5 -215 -94.5c-86.667 0 -157.834 31.667 -213.501 95s-83.5 145.333 -83.5 246zM530.002 331
c0 74.667 -17.667 134.167 -53 178.5s-82 66.5 -140 66.5c-58.667 0 -105.334 -21.833 -140.001 -65.5s-52 -103.5 -52 -179.5s17.333 -136.167 52 -180.5s81.334 -66.5 140.001 -66.5c58 0 104.667 22.167 140 66.5s53 104.5 53 180.5zM196.002 763v83h281v-83h-281z" />
    <glyph glyph-name="omacron" unicode="&#x14d;" horiz-adv-x="535" 
d="M40 246c0 75.333 21.333 136.833 64 184.5s97 71.5 163 71.5c66.667 0 121.334 -24 164.001 -72s64 -109.333 64 -184c0 -75.333 -21.333 -137 -64 -185s-97.334 -72 -164.001 -72c-66 0 -120.333 24 -163 72s-64 109.667 -64 185zM392 245
c0 50 -11.333 89.833 -34 119.5s-52.667 44.5 -90 44.5c-38 0 -68.333 -14.667 -91 -44s-34 -69.333 -34 -120s11.167 -90.5 33.5 -119.5s52.5 -43.5 90.5 -43.5s68.333 14.667 91 44s34 69 34 119zM136 629v83h263v-83h-263z" />
    <glyph glyph-name="Obreve" unicode="&#x14e;" horiz-adv-x="674" 
d="M39 330c0 102 27.6689 184.333 83.002 247s126.666 94 213.999 94c88 0 159.833 -31.333 215.5 -94s83.5 -144.667 83.5 -246c0 -102 -28 -184.5 -84 -247.5s-127.667 -94.5 -215 -94.5c-86.667 0 -157.834 31.667 -213.501 95s-83.5 145.333 -83.5 246zM530.002 331
c0 74.667 -17.667 134.167 -53 178.5s-82 66.5 -140 66.5c-58.667 0 -105.334 -21.833 -140.001 -65.5s-52 -103.5 -52 -179.5s17.333 -136.167 52 -180.5s81.334 -66.5 140.001 -66.5c58 0 104.667 22.167 140 66.5s53 104.5 53 180.5zM187.002 881l-0.00195312 29.001h81
v-28c0 -24.667 6.33301 -43.834 19 -57.501s30 -20.5 52 -20.5c20.667 0 36.834 7 48.501 21s17.5 33 17.5 57v28h81v-29c0 -46.667 -13.667 -84.167 -41 -112.5s-63.333 -42.5 -108 -42.5c-45.333 0 -81.666 14 -108.999 42s-41 65.667 -41 113z" />
    <glyph glyph-name="obreve" unicode="&#x14f;" horiz-adv-x="535" 
d="M40 246c0 75.333 21.333 136.833 64 184.5s97 71.5 163 71.5c66.667 0 121.334 -24 164.001 -72s64 -109.333 64 -184c0 -75.333 -21.333 -137 -64 -185s-97.334 -72 -164.001 -72c-66 0 -120.333 24 -163 72s-64 109.667 -64 185zM392 245
c0 50 -11.333 89.833 -34 119.5s-52.667 44.5 -90 44.5c-38 0 -68.333 -14.667 -91 -44s-34 -69.333 -34 -120s11.167 -90.5 33.5 -119.5s52.5 -43.5 90.5 -43.5s68.333 14.667 91 44s34 69 34 119zM119 728v36h81v-35c0 -24.667 6 -44 18 -58s28.667 -21 50 -21
c20.667 0 37 7 49 21s18 33.333 18 58v35h82v-36c0 -46.667 -13.667 -84.167 -41 -112.5s-63.333 -42.5 -108 -42.5s-80.667 14.167 -108 42.5s-41 65.833 -41 112.5z" />
    <glyph glyph-name="Ohungarumlaut" unicode="&#x150;" horiz-adv-x="674" 
d="M39 330c0 102 27.6689 184.333 83.002 247s126.666 94 213.999 94c88 0 159.833 -31.333 215.5 -94s83.5 -144.667 83.5 -246c0 -102 -28 -184.5 -84 -247.5s-127.667 -94.5 -215 -94.5c-86.667 0 -157.834 31.667 -213.501 95s-83.5 145.333 -83.5 246zM530.002 331
c0 74.667 -17.667 134.167 -53 178.5s-82 66.5 -140 66.5c-58.667 0 -105.334 -21.833 -140.001 -65.5s-52 -103.5 -52 -179.5s17.333 -136.167 52 -180.5s81.334 -66.5 140.001 -66.5c58 0 104.667 22.167 140 66.5s53 104.5 53 180.5zM187.002 724l70 186h106v-18
l-106 -168h-70zM397.002 724l70 186h106v-18l-107 -168h-69z" />
    <glyph glyph-name="ohungarumlaut" unicode="&#x151;" horiz-adv-x="535" 
d="M40 246c0 75.333 21.333 136.833 64 184.5s97 71.5 163 71.5c66.667 0 121.334 -24 164.001 -72s64 -109.333 64 -184c0 -75.333 -21.333 -137 -64 -185s-97.334 -72 -164.001 -72c-66 0 -120.333 24 -163 72s-64 109.667 -64 185zM392 245
c0 50 -11.333 89.833 -34 119.5s-52.667 44.5 -90 44.5c-38 0 -68.333 -14.667 -91 -44s-34 -69.333 -34 -120s11.167 -90.5 33.5 -119.5s52.5 -43.5 90.5 -43.5s68.333 14.667 91 44s34 69 34 119zM136 571l70 204h106v-18l-107 -186h-69zM324 571l70 204h105v-18
l-106 -186h-69z" />
    <glyph glyph-name="OE" unicode="&#x152;" horiz-adv-x="964" 
d="M633 93h295v-93h-396v78c-46 -59.333 -112 -89 -198 -89c-86.667 0 -157.5 31.5 -212.5 94.5s-82.5 145.5 -82.5 247.5c0 101.333 27.5 183.333 82.5 246s125.833 94 212.5 94s152.667 -29.667 198 -89v78h385v-93h-284v-172h213v-90h-213v-212zM530 330
c0 75.333 -17.667 135.168 -53 179.501s-82.333 66.5 -141 66.5c-58 0 -104.333 -22 -139 -66s-52 -104 -52 -180s17.333 -136 52 -180s81 -66 139 -66c58.667 0 105.667 22.167 141 66.5s53 104.166 53 179.499z" />
    <glyph glyph-name="oe" unicode="&#x153;" horiz-adv-x="842" 
d="M796 211l-311.999 -0.000976562c4.66699 -43.333 18.167 -76.166 40.5 -98.499s52.5 -33.5 90.5 -33.5c44.667 0 84 19 118 57l56 -64c-48 -55.333 -107.333 -83 -178 -83c-79.333 0 -138.333 31.667 -177 95c-37.333 -63.333 -94 -95 -170 -95
c-66 0 -119.833 23.833 -161.5 71.5s-62.5 109.5 -62.5 185.5c0 75.333 21.167 136.833 63.5 184.5s96.166 71.5 161.499 71.5c75.333 0 132 -32 170 -96c38.667 63.333 95 95 169 95c58.667 0 106.5 -20.333 143.5 -61s55.5 -94.667 55.5 -162
c0 -18.667 -2.33301 -41 -7 -67zM485.001 289.999h218.999c0 38.667 -9.66699 69.167 -29 91.5s-44.666 33.5 -75.999 33.5c-30.667 0 -56.167 -11 -76.5 -33s-32.833 -52.667 -37.5 -92zM387 244.999c0 50.667 -10.832 90.667 -32.499 120s-51.167 44 -88.5 44
c-38 0 -68 -14.667 -90 -44s-33 -69.333 -33 -120c0 -50 11.167 -89.667 33.5 -119s52.166 -44 89.499 -44s66.833 14.5 88.5 43.5s32.5 68.833 32.5 119.5z" />
    <glyph glyph-name="Racute" unicode="&#x154;" horiz-adv-x="573" 
d="M562 0l-115 -0.000976562l-165 256h-107v-256h-103v660h214c66.667 0 119.5 -18.167 158.5 -54.5s58.5 -85.166 58.5 -146.499c0 -43.333 -10.167 -81 -30.5 -113s-48.833 -55.667 -85.5 -71zM175 567.999v-220h110c36 0 63.833 9.66699 83.5 29s29.5 46.333 29.5 81
c0 34 -9.83301 60.833 -29.5 80.5s-47.5 29.5 -83.5 29.5h-110zM209 723.999l69 186h123v-18l-117 -168h-75z" />
    <glyph glyph-name="racute" unicode="&#x155;" horiz-adv-x="341" 
d="M325 491v-93h-31c-38 0 -68.5 -10.667 -91.5 -32s-34.5 -51 -34.5 -89v-277h-102v491h94v-59c30 42.667 73 64 129 64c10.667 0 22.667 -1.66699 36 -5zM132 571l69 204h123v-18l-118 -186h-74z" />
    <glyph glyph-name="uni0156" unicode="&#x156;" horiz-adv-x="573" 
d="M562 0l-115 -0.000976562l-165 256h-107v-256h-103v660h214c66.667 0 119.5 -18.167 158.5 -54.5s58.5 -85.166 58.5 -146.499c0 -43.333 -10.167 -81 -30.5 -113s-48.833 -55.667 -85.5 -71zM175 567.999v-220h110c36 0 63.833 9.66699 83.5 29s29.5 46.333 29.5 81
c0 34 -9.83301 60.833 -29.5 80.5s-47.5 29.5 -83.5 29.5h-110zM238 -220.001l6 172h96l-23 -172h-79z" />
    <glyph glyph-name="uni0157" unicode="&#x157;" horiz-adv-x="341" 
d="M325 491v-93h-31c-38 0 -68.5 -10.667 -91.5 -32s-34.5 -51 -34.5 -89v-277h-102v491h94v-59c30 42.667 73 64 129 64c10.667 0 22.667 -1.66699 36 -5zM64 -220l6 172h96l-23 -172h-79z" />
    <glyph glyph-name="Rcaron" unicode="&#x158;" horiz-adv-x="573" 
d="M562 0l-115 -0.000976562l-165 256h-107v-256h-103v660h214c66.667 0 119.5 -18.167 158.5 -54.5s58.5 -85.166 58.5 -146.499c0 -43.333 -10.167 -81 -30.5 -113s-48.833 -55.667 -85.5 -71zM175 567.999v-220h110c36 0 63.833 9.66699 83.5 29s29.5 46.333 29.5 81
c0 34 -9.83301 60.833 -29.5 80.5s-47.5 29.5 -83.5 29.5h-110zM335 909.999h79l-133 -186h-65l-133 186h79l86 -93z" />
    <glyph glyph-name="rcaron" unicode="&#x159;" horiz-adv-x="341" 
d="M325 491v-93h-31c-38 0 -68.5 -10.667 -91.5 -32s-34.5 -51 -34.5 -89v-277h-102v491h94v-59c30 42.667 73 64 129 64c10.667 0 22.667 -1.66699 36 -5zM248 775h75l-121 -204h-65l-122 204h76l79 -103z" />
    <glyph glyph-name="Sacute" unicode="&#x15a;" horiz-adv-x="509" 
d="M30 138l78 47.999c37.333 -69.333 87 -104 149 -104c31.333 0 56.333 8 75 24s28 37.333 28 64c0 21.333 -6.16699 39 -18.5 53s-36.166 31.667 -71.499 53l-65 37c-48.667 30 -84.167 59 -106.5 87s-33.5 61 -33.5 99c0 50.667 18.5 92 55.5 124s83.5 48 139.5 48
c45.333 0 85.166 -11.333 119.499 -34s60.833 -54.334 79.5 -95.001l-78 -47c-29.333 55.333 -69.333 83 -120 83c-27.333 0 -49.333 -6.83301 -66 -20.5s-25 -32.5 -25 -56.5c0 -19.333 6 -35.666 18 -48.999s33.667 -29.333 65 -48l66 -38
c52 -31.333 89.333 -61.666 112 -90.999s34 -63.666 34 -102.999c0 -54.667 -19.333 -98.834 -58 -132.501s-88.334 -50.5 -149.001 -50.5c-52 0 -97.667 12.833 -137 38.5s-69.666 62.5 -90.999 110.5zM221 723.999l69 186h123v-18l-117 -168h-75z" />
    <glyph glyph-name="sacute" unicode="&#x15b;" horiz-adv-x="417" 
d="M25 89l61.998 56.998c36.667 -46 77 -69 121 -69c20.667 0 37.834 5.16699 51.501 15.5s20.5 23.5 20.5 39.5c0 13.333 -4.5 24.333 -13.5 33s-25.833 19.334 -50.5 32.001l-45 22c-41.333 21.333 -71.333 43 -90 65s-28 48.667 -28 80c0 42 15 75.5 45 100.5
s69 37.5 117 37.5c71.333 0 125 -27.667 161 -83l-60 -57c-28.667 34.667 -62.334 52 -101.001 52c-18.667 0 -33.667 -4.16699 -45 -12.5s-17 -20.166 -17 -35.499c0 -20.667 19.667 -41 59 -61l42 -20c44.667 -22.667 76.834 -45.5 96.501 -68.5s29.5 -50.5 29.5 -82.5
c0 -44.667 -16.333 -80 -49 -106c-32 -26 -72.667 -39 -122 -39c-81.333 0 -142.666 33.333 -183.999 100zM175.998 570.998l69 204h123v-18l-118 -186h-74z" />
    <glyph glyph-name="Scircumflex" unicode="&#x15c;" horiz-adv-x="509" 
d="M30 138l78 47.999c37.333 -69.333 87 -104 149 -104c31.333 0 56.333 8 75 24s28 37.333 28 64c0 21.333 -6.16699 39 -18.5 53s-36.166 31.667 -71.499 53l-65 37c-48.667 30 -84.167 59 -106.5 87s-33.5 61 -33.5 99c0 50.667 18.5 92 55.5 124s83.5 48 139.5 48
c45.333 0 85.166 -11.333 119.499 -34s60.833 -54.334 79.5 -95.001l-78 -47c-29.333 55.333 -69.333 83 -120 83c-27.333 0 -49.333 -6.83301 -66 -20.5s-25 -32.5 -25 -56.5c0 -19.333 6 -35.666 18 -48.999s33.667 -29.333 65 -48l66 -38
c52 -31.333 89.333 -61.666 112 -90.999s34 -63.666 34 -102.999c0 -54.667 -19.333 -98.834 -58 -132.501s-88.334 -50.5 -149.001 -50.5c-52 0 -97.667 12.833 -137 38.5s-69.666 62.5 -90.999 110.5zM425 723.999h-79l-87 93l-86 -93h-79l133 186h65z" />
    <glyph glyph-name="scircumflex" unicode="&#x15d;" horiz-adv-x="417" 
d="M25 89l61.998 56.998c36.667 -46 77 -69 121 -69c20.667 0 37.834 5.16699 51.501 15.5s20.5 23.5 20.5 39.5c0 13.333 -4.5 24.333 -13.5 33s-25.833 19.334 -50.5 32.001l-45 22c-41.333 21.333 -71.333 43 -90 65s-28 48.667 -28 80c0 42 15 75.5 45 100.5
s69 37.5 117 37.5c71.333 0 125 -27.667 161 -83l-60 -57c-28.667 34.667 -62.334 52 -101.001 52c-18.667 0 -33.667 -4.16699 -45 -12.5s-17 -20.166 -17 -35.499c0 -20.667 19.667 -41 59 -61l42 -20c44.667 -22.667 76.834 -45.5 96.501 -68.5s29.5 -50.5 29.5 -82.5
c0 -44.667 -16.333 -80 -49 -106c-32 -26 -72.667 -39 -122 -39c-81.333 0 -142.666 33.333 -183.999 100zM365.998 570.998h-75l-78 102l-79 -102h-76l122 204h65z" />
    <glyph glyph-name="Scedilla" unicode="&#x15e;" horiz-adv-x="509" 
d="M30 138l78 47.999c37.333 -69.333 87 -104 149 -104c31.333 0 56.333 8 75 24s28 37.333 28 64c0 21.333 -6.16699 39 -18.5 53s-36.166 31.667 -71.499 53l-65 37c-48.667 30 -84.167 59 -106.5 87s-33.5 61 -33.5 99c0 50.667 18.5 92 55.5 124s83.5 48 139.5 48
c45.333 0 85.166 -11.333 119.499 -34s60.833 -54.334 79.5 -95.001l-78 -47c-29.333 55.333 -69.333 83 -120 83c-27.333 0 -49.333 -6.83301 -66 -20.5s-25 -32.5 -25 -56.5c0 -19.333 6 -35.666 18 -48.999s33.667 -29.333 65 -48l66 -38
c52 -31.333 89.333 -61.666 112 -90.999s34 -63.666 34 -102.999c0 -54.667 -19.333 -98.834 -58 -132.501s-88.334 -50.5 -149.001 -50.5c-52 0 -97.667 12.833 -137 38.5s-69.666 62.5 -90.999 110.5zM144 -182.001v69.999c20.667 -2 37 -3 49 -3c42 0 63 18.667 63 56
c0 22 -7 47 -21 75l44 18c40.667 -25.333 61 -61.666 61 -108.999c0 -34.667 -12 -62.667 -36 -84s-56 -32 -96 -32c-24.667 0 -46 3 -64 9z" />
    <glyph glyph-name="scedilla" unicode="&#x15f;" horiz-adv-x="417" 
d="M25 89l61.998 56.998c36.667 -46 77 -69 121 -69c20.667 0 37.834 5.16699 51.501 15.5s20.5 23.5 20.5 39.5c0 13.333 -4.5 24.333 -13.5 33s-25.833 19.334 -50.5 32.001l-45 22c-41.333 21.333 -71.333 43 -90 65s-28 48.667 -28 80c0 42 15 75.5 45 100.5
s69 37.5 117 37.5c71.333 0 125 -27.667 161 -83l-60 -57c-28.667 34.667 -62.334 52 -101.001 52c-18.667 0 -33.667 -4.16699 -45 -12.5s-17 -20.166 -17 -35.499c0 -20.667 19.667 -41 59 -61l42 -20c44.667 -22.667 76.834 -45.5 96.501 -68.5s29.5 -50.5 29.5 -82.5
c0 -44.667 -16.333 -80 -49 -106c-32 -26 -72.667 -39 -122 -39c-81.333 0 -142.666 33.333 -183.999 100zM98.998 -182.002l0.000976562 69.999c21.333 -2 37.666 -3 48.999 -3c42 0 63 18.667 63 56c0 22 -7 47 -21 75l44 18c40.667 -25.333 61 -61.666 61 -108.999
c0 -34.667 -12 -62.667 -36 -84s-56 -32 -96 -32c-24.667 0 -46 3 -64 9z" />
    <glyph glyph-name="Scaron" unicode="&#x160;" horiz-adv-x="509" 
d="M30 138l78 47.999c37.333 -69.333 87 -104 149 -104c31.333 0 56.333 8 75 24s28 37.333 28 64c0 21.333 -6.16699 39 -18.5 53s-36.166 31.667 -71.499 53l-65 37c-48.667 30 -84.167 59 -106.5 87s-33.5 61 -33.5 99c0 50.667 18.5 92 55.5 124s83.5 48 139.5 48
c45.333 0 85.166 -11.333 119.499 -34s60.833 -54.334 79.5 -95.001l-78 -47c-29.333 55.333 -69.333 83 -120 83c-27.333 0 -49.333 -6.83301 -66 -20.5s-25 -32.5 -25 -56.5c0 -19.333 6 -35.666 18 -48.999s33.667 -29.333 65 -48l66 -38
c52 -31.333 89.333 -61.666 112 -90.999s34 -63.666 34 -102.999c0 -54.667 -19.333 -98.834 -58 -132.501s-88.334 -50.5 -149.001 -50.5c-52 0 -97.667 12.833 -137 38.5s-69.666 62.5 -90.999 110.5zM346 909.999h79l-133 -186h-65l-133 186h79l86 -93z" />
    <glyph glyph-name="scaron" unicode="&#x161;" horiz-adv-x="417" 
d="M25 89l61.998 56.998c36.667 -46 77 -69 121 -69c20.667 0 37.834 5.16699 51.501 15.5s20.5 23.5 20.5 39.5c0 13.333 -4.5 24.333 -13.5 33s-25.833 19.334 -50.5 32.001l-45 22c-41.333 21.333 -71.333 43 -90 65s-28 48.667 -28 80c0 42 15 75.5 45 100.5
s69 37.5 117 37.5c71.333 0 125 -27.667 161 -83l-60 -57c-28.667 34.667 -62.334 52 -101.001 52c-18.667 0 -33.667 -4.16699 -45 -12.5s-17 -20.166 -17 -35.499c0 -20.667 19.667 -41 59 -61l42 -20c44.667 -22.667 76.834 -45.5 96.501 -68.5s29.5 -50.5 29.5 -82.5
c0 -44.667 -16.333 -80 -49 -106c-32 -26 -72.667 -39 -122 -39c-81.333 0 -142.666 33.333 -183.999 100zM290.998 774.998h75l-121 -204h-65l-122 204h76l79 -103z" />
    <glyph glyph-name="uni0162" unicode="&#x162;" horiz-adv-x="524" 
d="M210 0v567h-195v93h494v-93h-196v-567h-103zM140 -182v69.999c20.667 -2 37 -3 49 -3c42 0 63 18.667 63 56c0 22 -7 47 -21 75l44 18c40.667 -25.333 61 -61.666 61 -108.999c0 -34.667 -12 -62.667 -36 -84s-56 -32 -96 -32c-24.667 0 -46 3 -64 9z" />
    <glyph glyph-name="uni0163" unicode="&#x163;" horiz-adv-x="359" 
d="M333 85v-86c-24 -6.66699 -49.667 -10 -77 -10c-52.667 0 -93.167 13.333 -121.5 40s-42.5 65.667 -42.5 117v257h-76v88h76v129h101v-129h127v-88h-127v-248c0 -49.333 28.333 -74 85 -74c20 0 38.333 1.33301 55 4zM82 -182l0.000976562 69.999
c21.333 -2 37.666 -3 48.999 -3c42 0 63 18.667 63 56c0 22 -7 47 -21 75l44 18c40.667 -25.333 61 -61.666 61 -108.999c0 -34.667 -12 -62.667 -36 -84s-56 -32 -96 -32c-24.667 0 -46 3 -64 9z" />
    <glyph glyph-name="Tcaron" unicode="&#x164;" horiz-adv-x="524" 
d="M210 0v567h-195v93h494v-93h-196v-567h-103zM348 910h79l-133 -186h-65l-133 186h79l86 -93z" />
    <glyph glyph-name="tcaron" unicode="&#x165;" horiz-adv-x="359" 
d="M333 85v-86c-24 -6.66699 -49.667 -10 -77 -10c-52.667 0 -93.167 13.333 -121.5 40s-42.5 65.667 -42.5 117v257h-76v88h76v129h101v-129h127v-88h-127v-248c0 -49.333 28.333 -74 85 -74c20 0 38.333 1.33301 55 4zM269 542l7 208h106l-39 -208h-74z" />
    <glyph glyph-name="Tbar" unicode="&#x166;" horiz-adv-x="524" 
d="M210 0v246h-163v87h163v234h-195v93h494v-93h-196v-234h164v-87h-164v-246h-103z" />
    <glyph glyph-name="tbar" unicode="&#x167;" horiz-adv-x="376" 
d="M344 85l-0.00195312 -86c-24 -6.66699 -49.667 -10 -77 -10c-52 0 -92.333 13.333 -121 40s-43 65.667 -43 117v64h-75v85h75v112h-76v84h76v129h101v-129h127v-84h-127v-112h127v-85h-127v-55c0 -26 6.83301 -44.833 20.5 -56.5s34.834 -17.5 63.501 -17.5
c20.667 0 39.334 1.33301 56.001 4z" />
    <glyph glyph-name="Utilde" unicode="&#x168;" horiz-adv-x="622" 
d="M66 242v418h103v-424c0 -48 12.833 -85.333 38.5 -112s60.167 -40 103.5 -40s77.833 13.333 103.5 40s38.5 64 38.5 112v424h103v-418c0 -77.333 -22.833 -138.833 -68.5 -184.5s-104.5 -68.5 -176.5 -68.5c-72.667 0 -131.667 22.833 -177 68.5s-68 107.167 -68 184.5z
M320 756l-30 19.001c-20 15.333 -33.667 21.666 -41 18.999c-16.667 0 -25 -11.667 -25 -35v-16h-80c-1.33301 20 -2 30.333 -2 31c0 34 8.66699 61.5 26 82.5s39.666 31.5 66.999 31.5c20.667 0 42.667 -7.66699 66 -23l31 -20c16.667 -12.667 30.334 -19 41.001 -19
c17.333 0 26 11.667 26 35v16h79c1.33301 -20 2 -30.333 2 -31c0 -34 -8.5 -61.333 -25.5 -82s-39.167 -31 -66.5 -31c-20 0 -42.667 7.66699 -68 23z" />
    <glyph glyph-name="utilde" unicode="&#x169;" horiz-adv-x="515" 
d="M62 187v304h101v-312c0 -30 8.83301 -53.667 26.5 -71s40.5 -26 68.5 -26s50.667 8.83301 68 26.5s26 41.167 26 70.5v312h102v-304c0 -59.333 -18.333 -107.166 -55 -143.499s-83.667 -54.5 -141 -54.5s-104.333 18.167 -141 54.5s-55 84.166 -55 143.499zM265 611
l-25 20c-14 14 -27 21 -39 21c-16 0 -24 -11.667 -24 -35v-18h-79c-1.33301 9.33301 -2 19.666 -2 30.999c0 34.667 8.33301 62.334 25 83.001s38.667 31 66 31c21.333 0 42.666 -7.66699 63.999 -23l25 -20c15.333 -13.333 28 -20 38 -20c16.667 0 25 11.333 25 34v18h79
c1.33301 -17.333 2 -27.666 2 -30.999c0 -34.667 -8.33301 -62.334 -25 -83.001s-38.667 -31 -66 -31c-23.333 0 -44.666 7.66699 -63.999 23z" />
    <glyph glyph-name="Umacron" unicode="&#x16a;" horiz-adv-x="622" 
d="M66 242v418h103v-424c0 -48 12.833 -85.333 38.5 -112s60.167 -40 103.5 -40s77.833 13.333 103.5 40s38.5 64 38.5 112v424h103v-418c0 -77.333 -22.833 -138.833 -68.5 -184.5s-104.5 -68.5 -176.5 -68.5c-72.667 0 -131.667 22.833 -177 68.5s-68 107.167 -68 184.5z
M170 763v83h281v-83h-281z" />
    <glyph glyph-name="umacron" unicode="&#x16b;" horiz-adv-x="515" 
d="M62 187v304h101v-312c0 -30 8.83301 -53.667 26.5 -71s40.5 -26 68.5 -26s50.667 8.83301 68 26.5s26 41.167 26 70.5v312h102v-304c0 -59.333 -18.333 -107.166 -55 -143.499s-83.667 -54.5 -141 -54.5s-104.333 18.167 -141 54.5s-55 84.166 -55 143.499zM126 629v83
h263v-83h-263z" />
    <glyph glyph-name="Ubreve" unicode="&#x16c;" horiz-adv-x="622" 
d="M66 242v418h103v-424c0 -48 12.833 -85.333 38.5 -112s60.167 -40 103.5 -40s77.833 13.333 103.5 40s38.5 64 38.5 112v424h103v-418c0 -77.333 -22.833 -138.833 -68.5 -184.5s-104.5 -68.5 -176.5 -68.5c-72.667 0 -131.667 22.833 -177 68.5s-68 107.167 -68 184.5z
M161 881l-0.00195312 29.001h81v-28c0 -24.667 6.33301 -43.834 19 -57.501s30 -20.5 52 -20.5c20.667 0 36.834 7 48.501 21s17.5 33 17.5 57v28h81v-29c0 -46.667 -13.667 -84.167 -41 -112.5s-63.333 -42.5 -108 -42.5c-45.333 0 -81.666 14 -108.999 42
s-41 65.667 -41 113z" />
    <glyph glyph-name="ubreve" unicode="&#x16d;" horiz-adv-x="515" 
d="M62 187v304h101v-312c0 -30 8.83301 -53.667 26.5 -71s40.5 -26 68.5 -26s50.667 8.83301 68 26.5s26 41.167 26 70.5v312h102v-304c0 -59.333 -18.333 -107.166 -55 -143.499s-83.667 -54.5 -141 -54.5s-104.333 18.167 -141 54.5s-55 84.166 -55 143.499zM109 728v36
h81v-35c0 -24.667 6 -44 18 -58s28.667 -21 50 -21c20.667 0 37 7 49 21s18 33.333 18 58v35h82v-36c0 -46.667 -13.667 -84.167 -41 -112.5s-63.333 -42.5 -108 -42.5s-80.667 14.167 -108 42.5s-41 65.833 -41 112.5z" />
    <glyph glyph-name="Uring" unicode="&#x16e;" horiz-adv-x="622" 
d="M66 242v418h103v-424c0 -48 12.833 -85.333 38.5 -112s60.167 -40 103.5 -40s77.833 13.333 103.5 40s38.5 64 38.5 112v424h103v-418c0 -77.333 -22.833 -138.833 -68.5 -184.5s-104.5 -68.5 -176.5 -68.5c-72.667 0 -131.667 22.833 -177 68.5s-68 107.167 -68 184.5z
M194 803c0 31.333 11 58 33 80c23.333 22 51 33 83 33c33.333 0 61.166 -10.833 83.499 -32.5s33.5 -48.5 33.5 -80.5c0 -32.667 -11.167 -60 -33.5 -82s-50.166 -33 -83.499 -33c-32.667 0 -60.167 11.167 -82.5 33.5s-33.5 49.5 -33.5 81.5zM357 803
c0 13.333 -4.5 24.5 -13.5 33.5s-19.833 13.5 -32.5 13.5c-13.333 0 -24.333 -4.5 -33 -13.5s-13 -20.167 -13 -33.5s4.5 -24.666 13.5 -33.999s19.833 -14 32.5 -14s23.5 4.66699 32.5 14s13.5 20.666 13.5 33.999z" />
    <glyph glyph-name="uring" unicode="&#x16f;" horiz-adv-x="515" 
d="M62 187v304h101v-312c0 -30 8.83301 -53.667 26.5 -71s40.5 -26 68.5 -26s50.667 8.83301 68 26.5s26 41.167 26 70.5v312h102v-304c0 -59.333 -18.333 -107.166 -55 -143.499s-83.667 -54.5 -141 -54.5s-104.333 18.167 -141 54.5s-55 84.166 -55 143.499zM142 668
c0 32 11 59.001 33 81.001s49.333 33 82 33c33.333 0 61 -10.833 83 -32.5s33 -48.834 33 -81.501c0 -32 -11.167 -58.833 -33.5 -80.5s-49.833 -32.5 -82.5 -32.5c-32 0 -59.167 10.833 -81.5 32.5s-33.5 48.5 -33.5 80.5zM303 668.001c0 13.333 -4.33301 24.5 -13 33.5
s-19.334 13.5 -32.001 13.5c-13.333 0 -24.333 -4.5 -33 -13.5s-13 -20.167 -13 -33.5c0 -12.667 4.33301 -23.5 13 -32.5s19.667 -13.5 33 -13.5c12.667 0 23.334 4.5 32.001 13.5s13 19.833 13 32.5z" />
    <glyph glyph-name="Uhungarumlaut" unicode="&#x170;" horiz-adv-x="622" 
d="M66 242v418h103v-424c0 -48 12.833 -85.333 38.5 -112s60.167 -40 103.5 -40s77.833 13.333 103.5 40s38.5 64 38.5 112v424h103v-418c0 -77.333 -22.833 -138.833 -68.5 -184.5s-104.5 -68.5 -176.5 -68.5c-72.667 0 -131.667 22.833 -177 68.5s-68 107.167 -68 184.5z
M161 724l70 186h106v-18l-106 -168h-70zM371 724l70 186h106v-18l-107 -168h-69z" />
    <glyph glyph-name="uhungarumlaut" unicode="&#x171;" horiz-adv-x="515" 
d="M62 187v304h101v-312c0 -30 8.83301 -53.667 26.5 -71s40.5 -26 68.5 -26s50.667 8.83301 68 26.5s26 41.167 26 70.5v312h102v-304c0 -59.333 -18.333 -107.166 -55 -143.499s-83.667 -54.5 -141 -54.5s-104.333 18.167 -141 54.5s-55 84.166 -55 143.499zM127 571
l70 204h106v-18l-107 -186h-69zM315 571l70 204h105v-18l-106 -186h-69z" />
    <glyph glyph-name="Uogonek" unicode="&#x172;" horiz-adv-x="622" 
d="M66 242v418h103v-424c0 -48 12.833 -85.333 38.5 -112s60.167 -40 103.5 -40s77.833 13.333 103.5 40s38.5 64 38.5 112v424h103v-418c0 -77.333 -22.833 -138.833 -68.5 -184.5s-104.5 -68.5 -176.5 -68.5c-72.667 0 -131.667 22.833 -177 68.5s-68 107.167 -68 184.5z
M293 -102c0.666992 24.667 7.83301 47.001 21.5 67.001s45.167 56 94.5 108h90l-77 -91c-21.333 -26.667 -32 -48.334 -32 -65.001c0 -21.333 13 -32 39 -32c9.33301 0 22.333 1.66699 39 5v-70c-20 -7.33301 -43 -11 -69 -11c-32 0 -57.667 8 -77 24s-29 37.667 -29 65z
" />
    <glyph glyph-name="uogonek" unicode="&#x173;" horiz-adv-x="515" 
d="M352 -3c-30.667 -32.667 -46.002 -58.666 -46.002 -77.999c0 -24 13.333 -36 40 -36c3.33301 0 7.5 0.333008 12.5 1s10.333 1.5 16 2.5s9.16699 1.5 10.5 1.5v-67c-23.333 -8 -46.666 -12 -69.999 -12c-32 0 -57.333 7.5 -76 22.5s-28 36.167 -28 63.5
c0 32.667 17 64 51 94h-4c-57.333 0 -104.333 18.167 -141 54.5s-55 84.166 -55 143.499v304h100v-310c0 -30 8.83301 -54 26.5 -72s40.834 -27 69.501 -27c28 0 50.667 9 68 27s26 42 26 72v310h102v-304c0 -27.333 -3.66699 -51.333 -11 -72
c-6 -18 -15.167 -34.667 -27.5 -50s-33.5 -38 -63.5 -68z" />
    <glyph glyph-name="Wcircumflex" unicode="&#x174;" horiz-adv-x="934" 
d="M793 660h112l-229 -668h-41l-168 453l-168 -453h-42l-228 668h112l143 -438l162 446h41l163 -444zM632 724h-79l-87 93l-86 -93h-79l133 186h65z" />
    <glyph glyph-name="wcircumflex" unicode="&#x175;" horiz-adv-x="769" 
d="M646 491h107l-192 -499h-43l-134 322l-134 -322h-41l-194 499h108l112 -314l128 321h42l130 -319zM538 571h-75l-78 102l-79 -102h-76l122 204h65z" />
    <glyph glyph-name="Ycircumflex" unicode="&#x176;" horiz-adv-x="555" 
d="M532 660l-203 -394v-266h-103v264l-204 396h114l142 -286l142 286h112zM441 724h-79l-87 93l-86 -93h-79l133 186h65z" />
    <glyph glyph-name="ycircumflex" unicode="&#x177;" horiz-adv-x="496" 
d="M373 491l107.998 0.000976562l-216 -550c-18.667 -46.667 -41.167 -80.334 -67.5 -101.001s-59.833 -31 -100.5 -31c-19.333 0 -42.666 3 -69.999 9v86c18.667 -2 35.334 -3 50.001 -3c23.333 0 42.333 5 57 15s27 27.667 37 53l21 54l-177 468h109l122 -351z
M400.998 571.001h-75l-78 102l-79 -102h-76l122 204h65z" />
    <glyph glyph-name="Ydieresis" unicode="&#x178;" horiz-adv-x="555" 
d="M532 660l-203 -394v-266h-103v264l-204 396h114l142 -286l142 286h112zM99 812c0 17.333 6.5 32.167 19.5 44.5s28.167 18.5 45.5 18.5c18 0 33.167 -6 45.5 -18s18.5 -27 18.5 -45c0 -17.333 -6.33301 -32.166 -19 -44.499s-27.667 -18.5 -45 -18.5
s-32.5 6.16699 -45.5 18.5s-19.5 27.166 -19.5 44.499zM323 811.001c0 18 6.33301 33.165 19 45.498s28 18.5 46 18.5c17.333 0 32.333 -6.16699 45 -18.5s19 -27.5 19 -45.5c0 -17.333 -6.33301 -32.166 -19 -44.499s-27.667 -18.5 -45 -18.5s-32.5 6.33301 -45.5 19
s-19.5 27.334 -19.5 44.001z" />
    <glyph glyph-name="Zacute" unicode="&#x179;" horiz-adv-x="520" 
d="M174 93h320v-93h-471v33l319 534h-284v93h434v-33zM225 724l69 186h123v-18l-117 -168h-75z" />
    <glyph glyph-name="zacute" unicode="&#x17a;" horiz-adv-x="415" 
d="M163 88h234v-88h-378v33l232 370h-212v88h355v-34zM177 571l69 204h123v-18l-118 -186h-74z" />
    <glyph glyph-name="Zdotaccent" unicode="&#x17b;" horiz-adv-x="520" 
d="M174 93h320v-93h-471v33l319 534h-284v93h434v-33zM196 812c0 19.333 6.66895 35.5 20.002 48.5s29.333 19.5 48 19.5c19.333 0 35.666 -6.66699 48.999 -20s20 -29.333 20 -48s-6.83301 -34.5 -20.5 -47.5s-29.834 -19.5 -48.501 -19.5s-34.667 6.5 -48 19.5
s-20 28.833 -20 47.5z" />
    <glyph glyph-name="zdotaccent" unicode="&#x17c;" horiz-adv-x="415" 
d="M163 88h234v-88h-378v33l232 370h-212v88h355v-34zM144 673c0 19.333 6.66699 35.5 20 48.5s29.666 19.5 48.999 19.5s35.666 -6.66699 48.999 -20s20 -29.333 20 -48s-6.66699 -34.5 -20 -47.5s-29.666 -19.5 -48.999 -19.5s-35.666 6.5 -48.999 19.5
s-20 28.833 -20 47.5z" />
    <glyph glyph-name="Zcaron" unicode="&#x17d;" horiz-adv-x="520" 
d="M174 93h320v-93h-471v33l319 534h-284v93h434v-33zM351 910h79l-133 -186h-65l-133 186h79l86 -93z" />
    <glyph glyph-name="zcaron" unicode="&#x17e;" horiz-adv-x="415" 
d="M163 88h234v-88h-378v33l232 370h-212v88h355v-34zM292 775h75l-121 -204h-65l-122 204h76l79 -103z" />
    <glyph glyph-name="uni018F" unicode="&#x18f;" horiz-adv-x="642" 
d="M603 332c0 -102.667 -26.668 -185.499 -80.001 -248.499s-123 -94.5 -209 -94.5c-80.667 0 -146.667 27.333 -198 82s-77 126.667 -77 216c0 25.333 2.33301 50.666 7 75.999h451c-4.66699 68 -23 120.667 -55 158s-74.333 56 -127 56c-72 0 -128.667 -34.667 -170 -104
l-77 50c52.667 98.667 135 148 247 148c86.667 0 156.334 -31 209.001 -93s79 -144 79 -246zM494.999 275.001h-355c0 -59.333 16.667 -106 50 -140s75.333 -51 126 -51c48.667 0 88.667 16.667 120 50s51 80.333 59 141z" />
    <glyph glyph-name="florin" unicode="&#x192;" horiz-adv-x="404" 
d="M403 662l0.000976562 -85.001c-14.667 2 -28.334 3 -41.001 3c-26.667 0 -46.834 -6.66699 -60.501 -20s-21.834 -34.666 -24.501 -63.999l-10 -95h92v-88h-102l-30 -277c-10.667 -112.667 -66 -169 -166 -169c-22 0 -42 2.66699 -60 8v86c14.667 -2 28 -3 40 -3
c26.667 0 46.834 6.66699 60.501 20s22.167 35 25.5 65l29 270h-84v88h93l11 101c12.667 112.667 68.334 169 167.001 169c22 0 42 -3 60 -9z" />
    <glyph glyph-name="uni01D4" unicode="&#x1d4;" horiz-adv-x="515" 
d="M62 187v304h101v-312c0 -30 8.83301 -53.667 26.5 -71s40.5 -26 68.5 -26s50.667 8.83301 68 26.5s26 41.167 26 70.5v312h102v-304c0 -59.333 -18.333 -107.166 -55 -143.499s-83.667 -54.5 -141 -54.5s-104.333 18.167 -141 54.5s-55 84.166 -55 143.499zM337 775h75
l-121 -204h-65l-122 204h76l79 -103z" />
    <glyph glyph-name="AEacute" unicode="&#x1fc;" horiz-adv-x="757" 
d="M501 93h220v-93h-308l-16 110h-229l-50 -110h-110l301 660h401v-93h-278l25 -172h183v-90h-170zM340 508l-133 -310h177zM336 724l69 186h123v-18l-117 -168h-75z" />
    <glyph glyph-name="aeacute" unicode="&#x1fd;" horiz-adv-x="787" 
d="M740 205l-313.998 0.000976562c6 -40.667 20.5 -71.834 43.5 -93.501s52.5 -32.5 88.5 -32.5c44.667 0 84.667 19 120 57l55 -64c-47.333 -55.333 -106.333 -83 -177 -83c-78.667 0 -139.334 32.333 -182.001 97c-16.667 -30.667 -40.167 -54.5 -70.5 -71.5
s-64.833 -25.5 -103.5 -25.5c-51.333 0 -91.833 12.833 -121.5 38.5s-44.5 60.5 -44.5 104.5c0 44.667 15.5 80.5 46.5 107.5s72.167 40.5 123.5 40.5h118v35c0 30.667 -8 54.167 -24 70.5s-38.667 24.5 -68 24.5c-42.667 0 -82 -23 -118 -69l-62 56
c44.667 70 107.667 105 189 105c69.333 0 118.666 -26.333 147.999 -79c40 52.667 93.333 79 160 79c59.333 0 107.5 -20.667 144.5 -62s55.5 -95.333 55.5 -162c0 -32.667 -2.33301 -57 -7 -73zM424.002 280.001l224 -0.000976562c2 42 -6.66699 75 -26 99
s-45.333 36 -78 36c-33.333 0 -60.5 -11.667 -81.5 -35s-33.833 -56.666 -38.5 -99.999zM322.002 173l-0.000976562 32h-103c-55.333 0 -83 -22 -83 -66c0 -22 7 -39 21 -51s33 -18 57 -18c30.667 0 56.334 9.66699 77.001 29s31 44 31 74zM349.001 571l69 204h123v-18
l-118 -186h-74z" />
    <glyph glyph-name="Oslashacute" unicode="&#x1fe;" horiz-adv-x="675" 
d="M646 625l-68.999 -81c38.667 -58.667 58 -129.667 58 -213c0 -102 -28 -184.5 -84 -247.5s-127.667 -94.5 -215 -94.5c-69.333 0 -129.333 20.333 -180 61l-62 -72l-66 57l68 81c-38 60 -57 131.333 -57 214c0 102 27.667 184.333 83 247s126.666 94 213.999 94
c70 0 130.333 -20.333 181 -61l64 72zM141.001 331c0 -50 8.00098 -94.333 24.001 -133l291 339c-32.667 28.667 -72.334 43 -119.001 43c-59.333 0 -106.833 -22.5 -142.5 -67.5s-53.5 -105.5 -53.5 -181.5zM534.002 331c0 50.667 -8.33301 95 -25 133l-292 -341
c32.667 -28.667 72.667 -43 120 -43c58.667 0 106.167 22.667 142.5 68s54.5 106.333 54.5 183zM298.002 724l69 186h123v-18l-117 -168h-75z" />
    <glyph glyph-name="oslashacute" unicode="&#x1ff;" horiz-adv-x="541" 
d="M509 457l-51.001 -58.998c26.667 -42.667 40 -93.334 40 -152.001c0 -75.333 -21.667 -137 -65 -185s-98 -72 -164 -72c-50 0 -92.667 13.333 -128 40l-46 -51l-63 55l51 59c-27.333 43.333 -41 94.666 -41 153.999c0 76 21.333 137.667 64 185s97.334 71 164.001 71
c48 0 91.333 -13.667 130 -41l46 52zM138.999 245.002c0 -30.667 4.33301 -58 13 -82l193 226c-21.333 16.667 -46.333 25 -75 25c-40 0 -71.833 -15.167 -95.5 -45.5s-35.5 -71.5 -35.5 -123.5zM400.999 245.002c0 30 -4.33301 57 -13 81l-192 -226
c20 -16 44.333 -24 73 -24c40 0 72 15.167 96 45.5s36 71.5 36 123.5zM234.999 571.002l69 204h123v-18l-118 -186h-74z" />
    <glyph glyph-name="uni0218" unicode="&#x218;" horiz-adv-x="509" 
d="M30 138l78 47.999c37.333 -69.333 87 -104 149 -104c31.333 0 56.333 8 75 24s28 37.333 28 64c0 21.333 -6.16699 39 -18.5 53s-36.166 31.667 -71.499 53l-65 37c-48.667 30 -84.167 59 -106.5 87s-33.5 61 -33.5 99c0 50.667 18.5 92 55.5 124s83.5 48 139.5 48
c45.333 0 85.166 -11.333 119.499 -34s60.833 -54.334 79.5 -95.001l-78 -47c-29.333 55.333 -69.333 83 -120 83c-27.333 0 -49.333 -6.83301 -66 -20.5s-25 -32.5 -25 -56.5c0 -19.333 6 -35.666 18 -48.999s33.667 -29.333 65 -48l66 -38
c52 -31.333 89.333 -61.666 112 -90.999s34 -63.666 34 -102.999c0 -54.667 -19.333 -98.834 -58 -132.501s-88.334 -50.5 -149.001 -50.5c-52 0 -97.667 12.833 -137 38.5s-69.666 62.5 -90.999 110.5zM211 -220.001l6 172h96l-23 -172h-79z" />
    <glyph glyph-name="uni0219" unicode="&#x219;" horiz-adv-x="417" 
d="M25 89l61.998 56.998c36.667 -46 77 -69 121 -69c20.667 0 37.834 5.16699 51.501 15.5s20.5 23.5 20.5 39.5c0 13.333 -4.5 24.333 -13.5 33s-25.833 19.334 -50.5 32.001l-45 22c-41.333 21.333 -71.333 43 -90 65s-28 48.667 -28 80c0 42 15 75.5 45 100.5
s69 37.5 117 37.5c71.333 0 125 -27.667 161 -83l-60 -57c-28.667 34.667 -62.334 52 -101.001 52c-18.667 0 -33.667 -4.16699 -45 -12.5s-17 -20.166 -17 -35.499c0 -20.667 19.667 -41 59 -61l42 -20c44.667 -22.667 76.834 -45.5 96.501 -68.5s29.5 -50.5 29.5 -82.5
c0 -44.667 -16.333 -80 -49 -106c-32 -26 -72.667 -39 -122 -39c-81.333 0 -142.666 33.333 -183.999 100zM166.998 -220.002l6 172h96l-23 -172h-79z" />
    <glyph glyph-name="uni021A" unicode="&#x21a;" horiz-adv-x="524" 
d="M210 0v567h-195v93h494v-93h-196v-567h-103zM208 -220l6 172h96l-23 -172h-79z" />
    <glyph glyph-name="uni021B" unicode="&#x21b;" horiz-adv-x="359" 
d="M333 85v-86c-24 -6.66699 -49.667 -10 -77 -10c-52.667 0 -93.167 13.333 -121.5 40s-42.5 65.667 -42.5 117v257h-76v88h76v129h101v-129h127v-88h-127v-248c0 -49.333 28.333 -74 85 -74c20 0 38.333 1.33301 55 4zM150 -220l6 172h96l-23 -172h-79z" />
    <glyph glyph-name="uni0237" unicode="&#x237;" horiz-adv-x="234" 
d="M-49 -183l-0.000976562 86c22.667 -1.33301 34.334 -2 35.001 -2c27.333 0 47.5 6 60.5 18s19.5 31.333 19.5 58v514h102v-525c0 -50.667 -14 -89.5 -42 -116.5s-67 -40.5 -117 -40.5c-20.667 0 -40 2.66699 -58 8z" />
    <glyph glyph-name="uni0259" unicode="&#x259;" horiz-adv-x="504" 
d="M465 245c0 -76 -20.334 -137.667 -61.001 -185s-93.667 -71 -159 -71c-61.333 0 -110.833 20.333 -148.5 61s-56.5 94.667 -56.5 162c0 24.667 2 47 6 67h316c-9.33301 88.667 -52.666 133 -129.999 133c-48.667 0 -90 -19.333 -124 -58l-55 64c48 56 108.667 84 182 84
c68.667 0 124.167 -23.667 166.5 -71s63.5 -109.333 63.5 -186zM360.999 200h-222c0.666992 -39.333 10.667 -70 30 -92s45.333 -33 78 -33c31.333 0 56.833 10.833 76.5 32.5s32.167 52.5 37.5 92.5z" />
    <glyph glyph-name="circumflex" unicode="&#x2c6;" horiz-adv-x="503" 
d="M405 571h-75l-78 102l-79 -102h-76l122 204h65z" />
    <glyph glyph-name="caron" unicode="&#x2c7;" horiz-adv-x="503" 
d="M330 775h75l-121 -204h-65l-122 204h76l79 -103z" />
    <glyph glyph-name="breve" unicode="&#x2d8;" horiz-adv-x="502" 
d="M102 728v36h81v-35c0 -24.667 6 -44 18 -58s28.667 -21 50 -21c20.667 0 37 7 49 21s18 33.333 18 58v35h82v-36c0 -46.667 -13.667 -84.167 -41 -112.5s-63.333 -42.5 -108 -42.5s-80.667 14.167 -108 42.5s-41 65.833 -41 112.5z" />
    <glyph glyph-name="dotaccent" unicode="&#x2d9;" horiz-adv-x="462" 
d="M162 673c0 19.333 6.66699 35.5 20 48.5s29.666 19.5 48.999 19.5s35.666 -6.66699 48.999 -20s20 -29.333 20 -48s-6.66699 -34.5 -20 -47.5s-29.666 -19.5 -48.999 -19.5s-35.666 6.5 -48.999 19.5s-20 28.833 -20 47.5z" />
    <glyph glyph-name="ring" unicode="&#x2da;" horiz-adv-x="495" 
d="M131 668c0 32 11 59.001 33 81.001s49.333 33 82 33c33.333 0 61 -10.833 83 -32.5s33 -48.834 33 -81.501c0 -32 -11.167 -58.833 -33.5 -80.5s-49.833 -32.5 -82.5 -32.5c-32 0 -59.167 10.833 -81.5 32.5s-33.5 48.5 -33.5 80.5zM292 668.001
c0 13.333 -4.33301 24.5 -13 33.5s-19.334 13.5 -32.001 13.5c-13.333 0 -24.333 -4.5 -33 -13.5s-13 -20.167 -13 -33.5c0 -12.667 4.33301 -23.5 13 -32.5s19.667 -13.5 33 -13.5c12.667 0 23.334 4.5 32.001 13.5s13 19.833 13 32.5z" />
    <glyph glyph-name="ogonek" unicode="&#x2db;" horiz-adv-x="467" 
d="M146 -102c0 24 9.5 46.667 28.5 68s53.167 48.333 102.5 81l44 -47l-35 -27c-18 -16 -29.5 -27.167 -34.5 -33.5s-7.5 -13.833 -7.5 -22.5c0 -21.333 12.667 -32 38 -32c9.33301 0 22.333 1.66699 39 5v-70c-22 -7.33301 -44.667 -11 -68 -11
c-32.667 0 -58.667 8.16699 -78 24.5s-29 37.833 -29 64.5z" />
    <glyph glyph-name="tilde" unicode="&#x2dc;" horiz-adv-x="509" 
d="M262 611l-25 20c-14 14 -27 21 -39 21c-16 0 -24 -11.667 -24 -35v-18h-79c-1.33301 9.33301 -2 19.666 -2 30.999c0 34.667 8.33301 62.334 25 83.001s38.667 31 66 31c21.333 0 42.666 -7.66699 63.999 -23l25 -20c15.333 -13.333 28 -20 38 -20
c16.667 0 25 11.333 25 34v18h79c1.33301 -17.333 2 -27.666 2 -30.999c0 -34.667 -8.33301 -62.334 -25 -83.001s-38.667 -31 -66 -31c-23.333 0 -44.666 7.66699 -63.999 23z" />
    <glyph glyph-name="hungarumlaut" unicode="&#x2dd;" horiz-adv-x="521" 
d="M78 571l70 204h106v-18l-107 -186h-69zM266 571l70 204h105v-18l-106 -186h-69z" />
    <glyph glyph-name="gravecomb" unicode="&#x300;" horiz-adv-x="0" 
d="M-229 571l-117 186v18h122l70 -204h-75z" />
    <glyph glyph-name="acutecomb" unicode="&#x301;" horiz-adv-x="0" 
d="M-346 571l69 204h123v-18l-118 -186h-74z" />
    <glyph glyph-name="uni0302" unicode="&#x302;" horiz-adv-x="0" 
d="M-96 571h-75l-78 102l-79 -102h-76l122 204h65z" />
    <glyph glyph-name="tildecomb" unicode="&#x303;" horiz-adv-x="0" 
d="M-243 611l-25 20c-14 14 -27 21 -39 21c-16 0 -24 -11.667 -24 -35v-18h-79c-1.33301 9.33301 -2 19.666 -2 30.999c0 34.667 8.33301 62.334 25 83.001s38.667 31 66 31c21.333 0 42.666 -7.66699 63.999 -23l25 -20c15.333 -13.333 28 -20 38 -20
c16.667 0 25 11.333 25 34v18h79c1.33301 -17.333 2 -27.666 2 -30.999c0 -34.667 -8.33301 -62.334 -25 -83.001s-38.667 -31 -66 -31c-23.333 0 -44.666 7.66699 -63.999 23z" />
    <glyph glyph-name="uni0304" unicode="&#x304;" horiz-adv-x="0" 
d="M-382 629v83h263v-83h-263z" />
    <glyph glyph-name="uni0306" unicode="&#x306;" horiz-adv-x="0" 
d="M-399 728v36h81v-35c0 -24.667 6 -44 18 -58s28.667 -21 50 -21c20.667 0 37 7 49 21s18 33.333 18 58v35h82v-36c0 -46.667 -13.667 -84.167 -41 -112.5s-63.333 -42.5 -108 -42.5s-80.667 14.167 -108 42.5s-41 65.833 -41 112.5z" />
    <glyph glyph-name="uni0307" unicode="&#x307;" horiz-adv-x="0" 
d="M-319 673c0 19.333 6.66699 35.5 20 48.5s29.666 19.5 48.999 19.5s35.666 -6.66699 48.999 -20s20 -29.333 20 -48s-6.66699 -34.5 -20 -47.5s-29.666 -19.5 -48.999 -19.5s-35.666 6.5 -48.999 19.5s-20 28.833 -20 47.5z" />
    <glyph glyph-name="uni0308" unicode="&#x308;" horiz-adv-x="0" 
d="M-417 674c0 17.333 6.5 32.166 19.5 44.499s28.167 18.5 45.5 18.5s32.333 -6.16699 45 -18.5s19 -27.166 19 -44.499s-6.33301 -32.333 -19 -45s-27.667 -19 -45 -19s-32.5 6.33301 -45.5 19s-19.5 27.667 -19.5 45zM-212 674c0 17.333 6.5 32.166 19.5 44.499
s28.167 18.5 45.5 18.5s32.333 -6.16699 45 -18.5s19 -27.166 19 -44.499s-6.33301 -32.333 -19 -45s-27.667 -19 -45 -19s-32.5 6.33301 -45.5 19s-19.5 27.667 -19.5 45z" />
    <glyph glyph-name="uni030A" unicode="&#x30a;" horiz-adv-x="0" 
d="M-366 668c0 32 11 59.001 33 81.001s49.333 33 82 33c33.333 0 61 -10.833 83 -32.5s33 -48.834 33 -81.501c0 -32 -11.167 -58.833 -33.5 -80.5s-49.833 -32.5 -82.5 -32.5c-32 0 -59.167 10.833 -81.5 32.5s-33.5 48.5 -33.5 80.5zM-205 668.001
c0 13.333 -4.33301 24.5 -13 33.5s-19.334 13.5 -32.001 13.5c-13.333 0 -24.333 -4.5 -33 -13.5s-13 -20.167 -13 -33.5c0 -12.667 4.33301 -23.5 13 -32.5s19.667 -13.5 33 -13.5c12.667 0 23.334 4.5 32.001 13.5s13 19.833 13 32.5z" />
    <glyph glyph-name="uni030B" unicode="&#x30b;" horiz-adv-x="0" 
d="M-431 571l70 204h106v-18l-107 -186h-69zM-243 571l70 204h105v-18l-106 -186h-69z" />
    <glyph glyph-name="uni030C" unicode="&#x30c;" horiz-adv-x="0" 
d="M-171 775h75l-121 -204h-65l-122 204h76l79 -103z" />
    <glyph glyph-name="uni0326" unicode="&#x326;" horiz-adv-x="0" 
d="M-301 -220l6 172h96l-23 -172h-79z" />
    <glyph glyph-name="uni0327" unicode="&#x327;" horiz-adv-x="0" 
d="M-348 -182l0.000976562 69.999c21.333 -2 37.666 -3 48.999 -3c42 0 63 18.667 63 56c0 22 -7 47 -21 75l44 18c40.667 -25.333 61 -61.666 61 -108.999c0 -34.667 -12 -62.667 -36 -84s-56 -32 -96 -32c-24.667 0 -46 3 -64 9z" />
    <glyph glyph-name="uni0328" unicode="&#x328;" horiz-adv-x="0" 
d="M-338 -102c0 24 9.5 46.667 28.5 68s53.167 48.333 102.5 81l44 -47l-35 -27c-18 -16 -29.5 -27.167 -34.5 -33.5s-7.5 -13.833 -7.5 -22.5c0 -21.333 12.667 -32 38 -32c9.33301 0 22.333 1.66699 39 5v-70c-22 -7.33301 -44.667 -11 -68 -11
c-32.667 0 -58.667 8.16699 -78 24.5s-29 37.833 -29 64.5z" />
    <glyph glyph-name="tonos" unicode="&#x384;" horiz-adv-x="500" 
d="M178 568l22 212h121v-18l-67 -194h-76z" />
    <glyph glyph-name="dieresistonos" unicode="&#x385;" horiz-adv-x="500" 
d="M186 568l26 212h116v-18l-72 -194h-70zM28 673c0 17.333 6.5 32.3311 19.5 44.998s27.833 19 44.5 19c18 0 33.167 -6.16699 45.5 -18.5s18.5 -27.5 18.5 -45.5c0 -17.333 -6.33301 -32.166 -19 -44.499s-27.667 -18.5 -45 -18.5c-16 0 -30.667 6.33301 -44 19
s-20 27.334 -20 44.001zM343 672.998c0 17.333 6.5 32.3311 19.5 44.998s27.833 19 44.5 19c18 0 33.167 -6.16699 45.5 -18.5s18.5 -27.5 18.5 -45.5c0 -17.333 -6.33301 -32.166 -19 -44.499s-27.667 -18.5 -45 -18.5c-16.667 0 -31.5 6.33301 -44.5 19
s-19.5 27.334 -19.5 44.001z" />
    <glyph glyph-name="Alphatonos" unicode="&#x386;" horiz-adv-x="591" 
d="M465 0l-41 111h-257l-41 -111h-109l258 668h41l258 -668h-109zM391 199l-96 273l-96 -273h192zM10 452l7 208h106l-39 -208h-74z" />
    <glyph glyph-name="anoteleia" unicode="&#x387;" horiz-adv-x="253" 
d="M54 317c0 20.667 7 38 21 52s31.333 21 52 21s38 -7 52 -21s21 -31.333 21 -52c0 -21.333 -7 -38.833 -21 -52.5s-31.333 -20.5 -52 -20.5s-38 6.83301 -52 20.5s-21 31.167 -21 52.5z" />
    <glyph glyph-name="Epsilontonos" unicode="&#x388;" horiz-adv-x="509" 
d="M72 0v660h390v-93h-287v-172h217v-90h-217v-212h298v-93h-401zM-113 452l7 208h106l-39 -208h-74z" />
    <glyph glyph-name="Etatonos" unicode="&#x389;" horiz-adv-x="636" 
d="M72 0v660h103v-263h285v263h103v-660h-103v304h-285v-304h-103zM-113 452l7 208h106l-39 -208h-74z" />
    <glyph glyph-name="Iotatonos" unicode="&#x38a;" horiz-adv-x="247" 
d="M72 0v660h103v-660h-103zM-113 452l7 208h106l-39 -208h-74z" />
    <glyph glyph-name="Omicrontonos" unicode="&#x38c;" horiz-adv-x="674" 
d="M39 330c0 102 27.6689 184.333 83.002 247s126.666 94 213.999 94c88 0 159.833 -31.333 215.5 -94s83.5 -144.667 83.5 -246c0 -102 -28 -184.5 -84 -247.5s-127.667 -94.5 -215 -94.5c-86.667 0 -157.834 31.667 -213.501 95s-83.5 145.333 -83.5 246zM530.002 331
c0 74.667 -17.667 134.167 -53 178.5s-82 66.5 -140 66.5c-58.667 0 -105.334 -21.833 -140.001 -65.5s-52 -103.5 -52 -179.5s17.333 -136.167 52 -180.5s81.334 -66.5 140.001 -66.5c58 0 104.667 22.167 140 66.5s53 104.5 53 180.5zM-78.998 452l7 208h106l-39 -208h-74
z" />
    <glyph glyph-name="Upsilontonos" unicode="&#x38e;" horiz-adv-x="555" 
d="M532 660l-203 -394v-266h-103v264l-204 396h114l142 -286l142 286h112zM-134 452l7 208h106l-39 -208h-74z" />
    <glyph glyph-name="Omegatonos" unicode="&#x38f;" horiz-adv-x="683" 
d="M521 93l110.001 0.000976562v-93h-240v92c95.333 58.667 143 143 143 253c0 71.333 -17.5 127.666 -52.5 168.999s-81.833 62 -140.5 62s-105.334 -20.5 -140.001 -61.5s-52 -97.167 -52 -168.5c0 -110 47.667 -194.667 143 -254v-92h-240v93h106
c-76.667 68.667 -115 154.667 -115 258c0 94.667 27.833 171.667 83.5 231s127.167 89 214.5 89c86.667 0 158.167 -29.833 214.5 -89.5s84.5 -136.5 84.5 -230.5c0 -102 -39.667 -188 -119 -258zM-70.999 452.001l7 208h106l-39 -208h-74z" />
    <glyph glyph-name="iotadieresistonos" unicode="&#x390;" horiz-adv-x="284" 
d="M65 141v350h101v-338c0 -24.667 4.83301 -42.667 14.5 -54s25.167 -17 46.5 -17c14 0 30 1 48 3v-86c-24.667 -6 -49.667 -9 -75 -9c-90 0 -135 50.333 -135 151zM62 568l26 212h116v-18l-72 -194h-70zM-96 673c0 17.333 6.5 32.3311 19.5 44.998s27.833 19 44.5 19
c18 0 33.167 -6.16699 45.5 -18.5s18.5 -27.5 18.5 -45.5c0 -17.333 -6.33301 -32.166 -19 -44.499s-27.667 -18.5 -45 -18.5c-16 0 -30.667 6.33301 -44 19s-20 27.334 -20 44.001zM219 672.998c0 17.333 6.5 32.3311 19.5 44.998s27.833 19 44.5 19
c18 0 33.167 -6.16699 45.5 -18.5s18.5 -27.5 18.5 -45.5c0 -17.333 -6.33301 -32.166 -19 -44.499s-27.667 -18.5 -45 -18.5c-16.667 0 -31.5 6.33301 -44.5 19s-19.5 27.334 -19.5 44.001z" />
    <glyph glyph-name="Alpha" unicode="&#x391;" horiz-adv-x="591" 
d="M465 0l-41 111h-257l-41 -111h-109l258 668h41l258 -668h-109zM391 199l-96 273l-96 -273h192z" />
    <glyph glyph-name="Beta" unicode="&#x392;" horiz-adv-x="559" 
d="M526 190c0 -56 -18.999 -101.667 -56.999 -137s-88 -53 -150 -53h-247v660h204c59.333 0 106.666 -16 141.999 -48s53 -74 53 -126c0 -54.667 -19.667 -97.667 -59 -129c36 -13.333 64 -34.5 84 -63.5s30 -63.5 30 -103.5zM268.001 570l-94.999 -0.000976562v-181h96
c31.333 0 55.666 8 72.999 24s26 38.333 26 67s-8.66699 50.834 -26 66.501s-42 23.5 -74 23.5zM423.002 194.999c0 32.667 -9.83301 58.332 -29.5 76.999s-47.5 28 -83.5 28h-137v-210h136c36 0 64 9.33301 84 28s30 44.334 30 77.001z" />
    <glyph glyph-name="Gamma" unicode="&#x393;" horiz-adv-x="459" 
d="M72 0v660h366v-93h-263v-567h-103z" />
    <glyph glyph-name="uni0394" unicode="&#x394;" horiz-adv-x="591" 
d="M316 668l245 -635v-33h-531v33l245 635h41zM296 457l-136 -364h270z" />
    <glyph glyph-name="Epsilon" unicode="&#x395;" horiz-adv-x="509" 
d="M72 0v660h390v-93h-287v-172h217v-90h-217v-212h298v-93h-401z" />
    <glyph glyph-name="Zeta" unicode="&#x396;" horiz-adv-x="520" 
d="M174 93h320v-93h-471v33l319 534h-284v93h434v-33z" />
    <glyph glyph-name="Eta" unicode="&#x397;" horiz-adv-x="636" 
d="M72 0v660h103v-263h285v263h103v-660h-103v304h-285v-304h-103z" />
    <glyph glyph-name="Theta" unicode="&#x398;" horiz-adv-x="674" 
d="M39 330c0 102 27.6689 184.333 83.002 247s126.666 94 213.999 94c88 0 159.833 -31.333 215.5 -94s83.5 -144.667 83.5 -246c0 -102 -28 -184.5 -84 -247.5s-127.667 -94.5 -215 -94.5c-86.667 0 -157.834 31.667 -213.501 95s-83.5 145.333 -83.5 246zM535.002 330
c0 76.667 -18.333 137.5 -55 182.5s-84.667 67.5 -144 67.5c-60 0 -107.667 -22.333 -143 -67s-53 -105.667 -53 -183c0 -76.667 17.833 -137.5 53.5 -182.5s83.167 -67.5 142.5 -67.5s107.333 22.5 144 67.5s55 105.833 55 182.5zM212.002 283v89h251v-89h-251z" />
    <glyph glyph-name="Iota" unicode="&#x399;" horiz-adv-x="247" 
d="M72 0v660h103v-660h-103z" />
    <glyph glyph-name="Kappa" unicode="&#x39a;" horiz-adv-x="587" 
d="M72 0v660h103v-660h-103zM302 352l265 -352h-124l-266 352l244 308h123z" />
    <glyph glyph-name="Lambda" unicode="&#x39b;" horiz-adv-x="591" 
d="M574 0h-110l-169 449l-168 -449h-110l258 668h41z" />
    <glyph glyph-name="Mu" unicode="&#x39c;" horiz-adv-x="710" 
d="M597 668h40v-668h-103v406l-161 -237h-36l-162 238v-407h-103v668h42l241 -358z" />
    <glyph glyph-name="Nu" unicode="&#x39d;" horiz-adv-x="636" 
d="M460 660h103v-668h-41l-347 445v-437h-103v668h42l346 -444v436z" />
    <glyph glyph-name="Xi" unicode="&#x39e;" horiz-adv-x="540" 
d="M36 567v93h468v-93h-468zM97 283v93h347v-93h-347zM36 0v93h468v-93h-468z" />
    <glyph glyph-name="Omicron" unicode="&#x39f;" horiz-adv-x="674" 
d="M39 330c0 102 27.6689 184.333 83.002 247s126.666 94 213.999 94c88 0 159.833 -31.333 215.5 -94s83.5 -144.667 83.5 -246c0 -102 -28 -184.5 -84 -247.5s-127.667 -94.5 -215 -94.5c-86.667 0 -157.834 31.667 -213.501 95s-83.5 145.333 -83.5 246zM530.002 331
c0 74.667 -17.667 134.167 -53 178.5s-82 66.5 -140 66.5c-58.667 0 -105.334 -21.833 -140.001 -65.5s-52 -103.5 -52 -179.5s17.333 -136.167 52 -180.5s81.334 -66.5 140.001 -66.5c58 0 104.667 22.167 140 66.5s53 104.5 53 180.5z" />
    <glyph glyph-name="Pi" unicode="&#x3a0;" horiz-adv-x="614" 
d="M72 0v660h470v-660h-103v567h-264v-567h-103z" />
    <glyph glyph-name="Rho" unicode="&#x3a1;" horiz-adv-x="534" 
d="M72 0v659.999h214c66.667 0 119.5 -18.167 158.5 -54.5s58.5 -85.166 58.5 -146.499c0 -62 -19.667 -111.5 -59 -148.5s-92 -55.5 -158 -55.5h-111v-255h-103zM175 347.999h110c36 0 63.833 9.66699 83.5 29s29.5 46.333 29.5 81s-9.83301 61.667 -29.5 81
s-47.5 29 -83.5 29h-110v-220z" />
    <glyph glyph-name="Sigma" unicode="&#x3a3;" horiz-adv-x="509" 
d="M192 93h281v-93h-434v29l202 309l-202 293v29h423v-93h-267l152 -219v-18z" />
    <glyph glyph-name="Tau" unicode="&#x3a4;" horiz-adv-x="524" 
d="M210 0v567h-195v93h494v-93h-196v-567h-103z" />
    <glyph glyph-name="Upsilon" unicode="&#x3a5;" horiz-adv-x="555" 
d="M532 660l-203 -394v-266h-103v264l-204 396h114l142 -286l142 286h112z" />
    <glyph glyph-name="Phi" unicode="&#x3a6;" horiz-adv-x="732" 
d="M417 19l-0.000976562 -60h-103v60c-81.333 3.33301 -147.5 33.666 -198.5 90.999s-76.5 131 -76.5 221s25.333 163.167 76 219.5s117 86.166 199 89.499v61h103v-61c82.667 -3.33301 149.334 -33.166 200.001 -89.499s76 -129.5 76 -219.5s-25.5 -163.667 -76.5 -221
s-117.5 -87.666 -199.5 -90.999zM590.999 330c0 65.333 -15.667 117.5 -47 156.5s-74 59.833 -128 62.5v-438c54 2.66699 96.667 23.5 128 62.5s47 91.167 47 156.5zM314.999 111v438.002c-53.333 -2.66699 -95.5 -23.334 -126.5 -62.001s-46.5 -91 -46.5 -157
s15.5 -118.333 46.5 -157s73.167 -59.334 126.5 -62.001z" />
    <glyph glyph-name="Chi" unicode="&#x3a7;" horiz-adv-x="550" 
d="M530 0h-117l-138 244l-138 -244h-117l195 335l-186 325h117l130 -236l128 236h116l-184 -325z" />
    <glyph glyph-name="Psi" unicode="&#x3a8;" horiz-adv-x="718" 
d="M308 0l0.000976562 149c-78.667 5.33301 -140.334 31.166 -185.001 77.499s-67 108.5 -67 186.5v247h102v-245c0 -51.333 13.333 -92.333 40 -123s63.334 -47 110.001 -49v417h102v-417c46 2 82.333 18.333 109 49s40 71.667 40 123v245h103v-247
c0 -78 -22.333 -140.167 -67 -186.5s-106.334 -72.166 -185.001 -77.499v-149h-102z" />
    <glyph glyph-name="uni03A9" unicode="&#x3a9;" horiz-adv-x="683" 
d="M521 93l110.001 0.000976562v-93h-240v92c95.333 58.667 143 143 143 253c0 71.333 -17.5 127.666 -52.5 168.999s-81.833 62 -140.5 62s-105.334 -20.5 -140.001 -61.5s-52 -97.167 -52 -168.5c0 -110 47.667 -194.667 143 -254v-92h-240v93h106
c-76.667 68.667 -115 154.667 -115 258c0 94.667 27.833 171.667 83.5 231s127.167 89 214.5 89c86.667 0 158.167 -29.833 214.5 -89.5s84.5 -136.5 84.5 -230.5c0 -102 -39.667 -188 -119 -258z" />
    <glyph glyph-name="Iotadieresis" unicode="&#x3aa;" horiz-adv-x="247" 
d="M72 0v660h103v-660h-103zM-53 812c0 17.333 6.5 32.167 19.5 44.5s28.167 18.5 45.5 18.5c18 0 33.167 -6 45.5 -18s18.5 -27 18.5 -45c0 -17.333 -6.33301 -32.166 -19 -44.499s-27.667 -18.5 -45 -18.5s-32.5 6.16699 -45.5 18.5s-19.5 27.166 -19.5 44.499z
M171 811.001c0 18 6.33301 33.165 19 45.498s28 18.5 46 18.5c17.333 0 32.333 -6.16699 45 -18.5s19 -27.5 19 -45.5c0 -17.333 -6.33301 -32.166 -19 -44.499s-27.667 -18.5 -45 -18.5s-32.5 6.33301 -45.5 19s-19.5 27.334 -19.5 44.001z" />
    <glyph glyph-name="Upsilondieresis" unicode="&#x3ab;" horiz-adv-x="555" 
d="M532 660l-203 -394v-266h-103v264l-204 396h114l142 -286l142 286h112zM100 812c0 17.333 6.5 32.167 19.5 44.5s28.167 18.5 45.5 18.5c18 0 33.167 -6 45.5 -18s18.5 -27 18.5 -45c0 -17.333 -6.33301 -32.166 -19 -44.499s-27.667 -18.5 -45 -18.5
s-32.5 6.16699 -45.5 18.5s-19.5 27.166 -19.5 44.499zM324 811.001c0 18 6.33301 33.165 19 45.498s28 18.5 46 18.5c17.333 0 32.333 -6.16699 45 -18.5s19 -27.5 19 -45.5c0 -17.333 -6.33301 -32.166 -19 -44.499s-27.667 -18.5 -45 -18.5s-32.5 6.33301 -45.5 19
s-19.5 27.334 -19.5 44.001z" />
    <glyph glyph-name="alphatonos" unicode="&#x3ac;" horiz-adv-x="570" 
d="M552 85l-0.000976562 -85.001c-20 -5.33301 -39.333 -8 -58 -8c-53.333 0 -87.333 24 -102 72c-31.333 -50 -79.666 -75 -144.999 -75c-62.667 0 -112.834 23.5 -150.501 70.5s-56.5 108.833 -56.5 185.5s18.833 138.667 56.5 186s87.167 71 148.5 71
c66.667 0 116 -26.333 148 -79c0.666992 10.667 2 33.334 4 68.001h95c-6 -98 -9 -175.667 -9 -233v-118c0 -38 14.333 -57 43 -57c6.66699 0 15.334 0.666992 26.001 2zM382.999 244.999c0 52.667 -10.833 93.167 -32.5 121.5s-50.834 42.5 -87.501 42.5
s-65.834 -14.667 -87.501 -44s-32.5 -69.333 -32.5 -120c0 -51.333 10.833 -91.333 32.5 -120s50.834 -43 87.501 -43s65.834 14 87.501 42s32.5 68.333 32.5 121zM210.999 567.999l22 212h121v-18l-67 -194h-76z" />
    <glyph glyph-name="epsilontonos" unicode="&#x3ad;" horiz-adv-x="457" 
d="M361 142l67.001 -54c-38.667 -66 -104 -99 -196 -99c-62 0 -109.5 12.333 -142.5 37s-49.5 60 -49.5 106c0 58.667 27.333 98.334 82 119.001c-42.667 24 -64 60.667 -64 110c0 43.333 15.833 77.666 47.5 102.999s75.5 38 131.5 38c85.333 0 147 -31 185 -93l-68 -54
c-26 38 -63.667 57 -113 57c-54.667 0 -82 -21.333 -82 -64c0 -39.333 23.667 -59 71 -59h80v-82h-81c-30.667 0 -53.167 -4.83301 -67.5 -14.5s-21.5 -25.167 -21.5 -46.5c0 -23.333 7.5 -40.333 22.5 -51s38.833 -16 71.5 -16c57.333 0 99.666 21 126.999 63zM184.001 568
l22 212h121v-18l-67 -194h-76z" />
    <glyph glyph-name="etatonos" unicode="&#x3ae;" horiz-adv-x="540" 
d="M479 323l0.000976562 -503h-102v491c0 29.333 -8.5 53 -25.5 71s-39.167 27 -66.5 27c-28.667 0 -52 -9.16699 -70 -27.5s-27 -41.833 -27 -70.5v-311h-101v350c0 38 -14.333 57 -43 57l-26 -1v85c19.333 5.33301 38.666 8 57.999 8c46 0 77.667 -17.667 95 -53
c34 37.333 79.667 56 137 56c52 0 93.5 -16.167 124.5 -48.5s46.5 -75.833 46.5 -130.5zM236.001 568l22 212h121v-18l-67 -194h-76z" />
    <glyph glyph-name="iotatonos" unicode="&#x3af;" horiz-adv-x="284" 
d="M65 141v350h101v-338c0 -24.667 4.83301 -42.667 14.5 -54s25.167 -17 46.5 -17c14 0 30 1 48 3v-86c-24.667 -6 -49.667 -9 -75 -9c-90 0 -135 50.333 -135 151zM64 568l22 212h121v-18l-67 -194h-76z" />
    <glyph glyph-name="upsilondieresistonos" unicode="&#x3b0;" horiz-adv-x="521" 
d="M62 190v301h101v-309c0 -30.667 8.83301 -55.167 26.5 -73.5s41.167 -27.5 70.5 -27.5s52.833 9.16699 70.5 27.5s26.5 42.833 26.5 73.5v309h102v-301c0 -60.667 -18.333 -109.334 -55 -146.001c-36 -36.667 -84 -55 -144 -55s-108 18.333 -144 55
s-54 85.334 -54 146.001zM204 568l26 212h116v-18l-72 -194h-70zM46 673c0 17.333 6.5 32.3311 19.5 44.998s27.833 19 44.5 19c18 0 33.167 -6.16699 45.5 -18.5s18.5 -27.5 18.5 -45.5c0 -17.333 -6.33301 -32.166 -19 -44.499s-27.667 -18.5 -45 -18.5
c-16 0 -30.667 6.33301 -44 19s-20 27.334 -20 44.001zM361 672.998c0 17.333 6.5 32.3311 19.5 44.998s27.833 19 44.5 19c18 0 33.167 -6.16699 45.5 -18.5s18.5 -27.5 18.5 -45.5c0 -17.333 -6.33301 -32.166 -19 -44.499s-27.667 -18.5 -45 -18.5
c-16.667 0 -31.5 6.33301 -44.5 19s-19.5 27.334 -19.5 44.001z" />
    <glyph glyph-name="alpha" unicode="&#x3b1;" horiz-adv-x="570" 
d="M552 85l-0.000976562 -85.001c-20 -5.33301 -39.333 -8 -58 -8c-53.333 0 -87.333 24 -102 72c-31.333 -50 -79.666 -75 -144.999 -75c-62.667 0 -112.834 23.5 -150.501 70.5s-56.5 108.833 -56.5 185.5s18.833 138.667 56.5 186s87.167 71 148.5 71
c66.667 0 116 -26.333 148 -79c0.666992 10.667 2 33.334 4 68.001h95c-6 -98 -9 -175.667 -9 -233v-118c0 -38 14.333 -57 43 -57c6.66699 0 15.334 0.666992 26.001 2zM382.999 244.999c0 52.667 -10.833 93.167 -32.5 121.5s-50.834 42.5 -87.501 42.5
s-65.834 -14.667 -87.501 -44s-32.5 -69.333 -32.5 -120c0 -51.333 10.833 -91.333 32.5 -120s50.834 -43 87.501 -43s65.834 14 87.501 42s32.5 68.333 32.5 121z" />
    <glyph glyph-name="beta" unicode="&#x3b2;" horiz-adv-x="549" 
d="M509 217c0 -70 -19.499 -125.499 -58.499 -166.499s-91.5 -61.5 -157.5 -61.5c-46 0 -87.667 13 -125 39v-208h-102v735c0 61.333 19 111.166 57 149.499s87.667 57.5 149 57.5c58.667 0 105.667 -17.167 141 -51.5s53 -79.833 53 -136.5
c0 -71.333 -26.667 -123 -80 -155c39.333 -15.333 69.666 -40.333 90.999 -75s32 -77 32 -127zM407.001 220.001c0 44 -11.501 78.5 -34.501 103.5s-54.5 37.5 -94.5 37.5h-46v88h33c30 0 53.667 10.167 71 30.5s26 48.5 26 84.5c0 32.667 -8.16699 58.334 -24.5 77.001
s-39.166 28 -68.499 28c-30.667 0 -55.167 -10.5 -73.5 -31.5s-27.5 -49.167 -27.5 -84.5v-431c33.333 -26.667 70.333 -40 111 -40c40 0 71.333 12.167 94 36.5s34 58.166 34 101.499z" />
    <glyph glyph-name="gamma" unicode="&#x3b3;" horiz-adv-x="503" 
d="M488 491l-185 -498v-173h-101v170l-187 501h109l128 -377l128 377h108z" />
    <glyph glyph-name="delta" unicode="&#x3b4;" horiz-adv-x="530" 
d="M490 242c0 -74 -21.167 -134.666 -63.5 -181.999s-96.5 -71 -162.5 -71s-119.833 23.333 -161.5 70s-62.5 107 -62.5 181c0 70 19.5 127.667 58.5 173s89.5 69.666 151.5 72.999l-199 230v34h415v-92h-238l169 -197c34 -38.667 58 -74.5 72 -107.5s21 -70.167 21 -111.5z
M386 239.001c0 49.333 -10.999 88.167 -32.999 116.5s-52 42.5 -90 42.5c-36.667 0 -65.834 -14 -87.501 -42s-32.5 -66.667 -32.5 -116c0 -50 10.833 -88.833 32.5 -116.5s51.5 -41.5 89.5 -41.5s67.667 13.667 89 41s32 66 32 116z" />
    <glyph glyph-name="epsilon" unicode="&#x3b5;" horiz-adv-x="457" 
d="M361 142l67.001 -54c-38.667 -66 -104 -99 -196 -99c-62 0 -109.5 12.333 -142.5 37s-49.5 60 -49.5 106c0 58.667 27.333 98.334 82 119.001c-42.667 24 -64 60.667 -64 110c0 43.333 15.833 77.666 47.5 102.999s75.5 38 131.5 38c85.333 0 147 -31 185 -93l-68 -54
c-26 38 -63.667 57 -113 57c-54.667 0 -82 -21.333 -82 -64c0 -39.333 23.667 -59 71 -59h80v-82h-81c-30.667 0 -53.167 -4.83301 -67.5 -14.5s-21.5 -25.167 -21.5 -46.5c0 -23.333 7.5 -40.333 22.5 -51s38.833 -16 71.5 -16c57.333 0 99.666 21 126.999 63z" />
    <glyph glyph-name="zeta" unicode="&#x3b6;" horiz-adv-x="415" 
d="M420 716l-190 -318.001c-32 -52.667 -55 -93.334 -69 -122.001c-12.667 -26 -19 -50.667 -19 -74c0 -29.333 8.16699 -52.666 24.5 -69.999s42.833 -31.333 79.5 -42l41 -12c78.667 -24.667 118 -75.667 118 -153c0 -34 -8 -69 -24 -105h-100c14 34 21 62.333 21 85
c0 25.333 -5.83301 45 -17.5 59s-31.167 25 -58.5 33l-41 13c-96.667 28.667 -145 89.334 -145 182.001c0 30 7.66699 63 23 99c12.667 29.333 41 80 85 152l126 215h-228v92h374v-34z" />
    <glyph glyph-name="eta" unicode="&#x3b7;" horiz-adv-x="540" 
d="M479 323l0.000976562 -503h-102v491c0 29.333 -8.5 53 -25.5 71s-39.167 27 -66.5 27c-28.667 0 -52 -9.16699 -70 -27.5s-27 -41.833 -27 -70.5v-311h-101v350c0 38 -14.333 57 -43 57l-26 -1v85c19.333 5.33301 38.666 8 57.999 8c46 0 77.667 -17.667 95 -53
c34 37.333 79.667 56 137 56c52 0 93.5 -16.167 124.5 -48.5s46.5 -75.833 46.5 -130.5z" />
    <glyph glyph-name="theta" unicode="&#x3b8;" horiz-adv-x="551" 
d="M508 376c0 -258 -77.667 -387 -233 -387c-154.667 0 -232 129 -232 387c0 256.667 77.333 385 232 385c155.333 0 233 -128.333 233 -385zM147 421h257c-2.66699 86 -14.5 148.667 -35.5 188s-52.167 59 -93.5 59c-40.667 0 -71.5 -19.833 -92.5 -59.5
s-32.833 -102.167 -35.5 -187.5zM404 331h-257c2.66699 -86 14.5 -149.167 35.5 -189.5s51.833 -60.5 92.5 -60.5c41.333 0 72.5 20 93.5 60s32.833 103.333 35.5 190z" />
    <glyph glyph-name="iota" unicode="&#x3b9;" horiz-adv-x="284" 
d="M65 141v350h101v-338c0 -24.667 4.83301 -42.667 14.5 -54s25.167 -17 46.5 -17c14 0 30 1 48 3v-86c-24.667 -6 -49.667 -9 -75 -9c-90 0 -135 50.333 -135 151z" />
    <glyph glyph-name="kappa" unicode="&#x3ba;" horiz-adv-x="487" 
d="M66 0v491h102v-491h-102zM291 263l188 -263h-119l-190 263l178 228h122z" />
    <glyph glyph-name="lambda" unicode="&#x3bb;" 
d="M482 84l20.0029 0.000976562v-84c-13.333 -4.66699 -29 -7 -47 -7c-27.333 0 -49.333 7 -66 21s-30.334 37.333 -41.001 70l-93 285l-141 -369h-108l202 498l-30 96c-8.66699 27.333 -19.334 46.666 -32.001 57.999s-30 17 -52 17c-14 0 -28.333 -0.666992 -43 -2v85
c16 6 36.667 9 62 9c39.333 0 71.166 -10.667 95.499 -32s44.5 -55.333 60.5 -102l165 -499c10.667 -29.333 26.667 -44 48 -44z" />
    <glyph glyph-name="uni03BC" unicode="&#x3bc;" horiz-adv-x="545" 
d="M502 83l25.001 2v-85c-19.333 -5.33301 -38.333 -8 -57 -8c-44 0 -75 16.667 -93 50c-26.667 -35.333 -63.334 -53 -110.001 -53c-41.333 0 -74.333 13.333 -99 40v-209h-102v671h102v-308c0 -30 8.66699 -54.333 26 -73s40 -28 68 -28s50.833 9.33301 68.5 28
s26.5 43 26.5 73v308h101v-349c0 -39.333 14.667 -59 44 -59z" />
    <glyph glyph-name="nu" unicode="&#x3bd;" horiz-adv-x="496" 
d="M373 491h107l-211 -499h-42l-212 499h108l125 -318z" />
    <glyph glyph-name="xi" unicode="&#x3be;" horiz-adv-x="430" 
d="M413 -75c0 -36.667 -7.99902 -71.667 -23.999 -105h-99c13.333 34.667 20 63 20 85c0 26 -5.5 45.833 -16.5 59.5s-29.833 23.834 -56.5 30.501l-37 10c-50 12.667 -88.333 35.834 -115 69.501s-40 76.167 -40 127.5c0 92.667 36 154.667 108 186
c-56.667 28 -85 75 -85 141c0 54 19.667 96.667 59 128h-78v93h361v-93h-130c-34.667 0 -61.834 -10.5 -81.501 -31.5s-29.5 -48.167 -29.5 -81.5s9.5 -60.833 28.5 -82.5s44.5 -32.5 76.5 -32.5h97v-89h-98c-39.333 0 -70 -11 -92 -33s-33 -53 -33 -93
c0 -34.667 8.83301 -61.834 26.5 -81.501s46.167 -34.834 85.5 -45.501l36 -11c78 -20.667 117 -71 117 -151z" />
    <glyph glyph-name="omicron" unicode="&#x3bf;" horiz-adv-x="535" 
d="M40 246c0 75.333 21.333 136.833 64 184.5s97 71.5 163 71.5c66.667 0 121.334 -24 164.001 -72s64 -109.333 64 -184c0 -75.333 -21.333 -137 -64 -185s-97.334 -72 -164.001 -72c-66 0 -120.333 24 -163 72s-64 109.667 -64 185zM392 245
c0 50 -11.333 89.833 -34 119.5s-52.667 44.5 -90 44.5c-38 0 -68.333 -14.667 -91 -44s-34 -69.333 -34 -120s11.167 -90.5 33.5 -119.5s52.5 -43.5 90.5 -43.5s68.333 14.667 91 44s34 69 34 119z" />
    <glyph glyph-name="pi" unicode="&#x3c0;" horiz-adv-x="539" 
d="M80 0v397h-66v94h511v-94h-67v-397h-101v397h-175v-397h-102z" />
    <glyph glyph-name="rho" unicode="&#x3c1;" horiz-adv-x="546" 
d="M507 245c0 -76.667 -19.501 -138.5 -58.501 -185.5s-89.833 -70.5 -152.5 -70.5c-56 0 -100.333 18.333 -133 55v-224h-101v428c0 78.667 19.667 140.667 59 186s93 68 161 68c68.667 0 123.334 -23.333 164.001 -70s61 -109 61 -187zM402.999 245
c0 51.333 -10.833 91.5 -32.5 120.5s-51.5 43.5 -89.5 43.5c-37.333 0 -66.5 -14.333 -87.5 -43s-31.5 -69 -31.5 -121s10.5 -92.167 31.5 -120.5s50.5 -42.5 88.5 -42.5s67.667 14.333 89 43s32 68.667 32 120z" />
    <glyph glyph-name="uni03C2" unicode="&#x3c2;" horiz-adv-x="467" 
d="M312 -95c0 24 -5.33301 42.999 -16 56.999s-28.334 25.333 -53.001 34l-40 13c-56 18.667 -97.167 47.167 -123.5 85.5s-39.5 88.833 -39.5 151.5c0 78.667 20 141 60 187s93.667 69 161 69c88.667 0 151.334 -40.333 188.001 -121l-77 -46
c-27.333 49.333 -64 74 -110 74c-36.667 0 -65.667 -14.167 -87 -42.5s-32 -67.5 -32 -117.5c0 -44 9 -78.167 27 -102.5s47.667 -43.166 89 -56.499l45 -14c74 -26.667 111 -77 111 -151c0 -33.333 -7.66699 -68.333 -23 -105h-100c13.333 36 20 64.333 20 85z" />
    <glyph glyph-name="sigma" unicode="&#x3c3;" horiz-adv-x="558" 
d="M546 491l-0.000976562 -94.001h-111c38 -42 57 -95 57 -159c0 -74 -21 -134 -63 -180s-96.667 -69 -164 -69s-121.666 23.333 -162.999 70s-62 108.334 -62 185.001c0 75.333 20.833 135.333 62.5 180s97.167 67 166.5 67h277zM386.999 244.999
c0 48.667 -10.833 86.834 -32.5 114.501s-51.5 41.5 -89.5 41.5c-37.333 0 -67 -13.833 -89 -41.5s-33 -65.834 -33 -114.501c0 -50 11.167 -89.667 33.5 -119s51.833 -44 88.5 -44c37.333 0 67 14.5 89 43.5s33 68.833 33 119.5z" />
    <glyph glyph-name="tau" unicode="&#x3c4;" horiz-adv-x="433" 
d="M407 397h-156.001v-243c0 -48.667 28 -73 84 -73c21.333 0 40.333 1.33301 57 4v-86c-24 -6.66699 -49.667 -10 -77 -10c-53.333 0 -94.166 13.5 -122.499 40.5s-42.5 65.833 -42.5 116.5v251h-138v94h395v-94z" />
    <glyph glyph-name="upsilon" unicode="&#x3c5;" horiz-adv-x="521" 
d="M62 190v301h101v-309c0 -30.667 8.83301 -55.167 26.5 -73.5s41.167 -27.5 70.5 -27.5s52.833 9.16699 70.5 27.5s26.5 42.833 26.5 73.5v309h102v-301c0 -60.667 -18.333 -109.334 -55 -146.001c-36 -36.667 -84 -55 -144 -55s-108 18.333 -144 55
s-54 85.334 -54 146.001z" />
    <glyph glyph-name="phi" unicode="&#x3c6;" horiz-adv-x="679" 
d="M390 -10v-170.002h-101v169c-74.667 4 -134.834 29 -180.501 75s-68.5 106.333 -68.5 181s22.833 134.834 68.5 180.501s105.834 70.5 180.501 74.5v160h101v-161c75.333 -4 135.833 -28.5 181.5 -73.5s68.5 -105.167 68.5 -180.5s-22.833 -135.666 -68.5 -180.999
s-106.167 -70 -181.5 -74zM291 76.998v335.001c-47.333 -3.33301 -84.5 -19.5 -111.5 -48.5s-40.5 -68.833 -40.5 -119.5s13.5 -90.334 40.5 -119.001s64.167 -44.667 111.5 -48zM540 243.999c0 50.667 -13.5 90.499 -40.5 119.499s-64.167 45.167 -111.5 48.5v-335
c47.333 3.33301 84.5 19.333 111.5 48s40.5 68.334 40.5 119.001z" />
    <glyph glyph-name="chi" unicode="&#x3c7;" horiz-adv-x="467" 
d="M469 -95l0.000976562 -84.999c-13.333 -4.66699 -30.666 -7 -51.999 -7c-26.667 0 -48.834 6.66699 -66.501 20s-32.834 34.666 -45.501 63.999l-73 172l-109 -249h-112l164 350l-85 194c-6.66699 16 -14 27.167 -22 33.5s-19.667 9.5 -35 9.5
c-14 0 -22.667 -0.333008 -26 -1v85c14 4.66699 32 7 54 7c28 0 50.333 -6.66699 67 -20s31.334 -35 44.001 -65l62 -152l101 230h113l-158 -329l96 -215c8 -16.667 15.833 -28 23.5 -34s19.167 -9 34.5 -9c13.333 0 21.666 0.333008 24.999 1z" />
    <glyph glyph-name="psi" unicode="&#x3c8;" horiz-adv-x="697" 
d="M298 -180v169c-70.667 0 -127.667 21.333 -171 64s-65 99 -65 169v269h100v-262c0 -44 12.667 -79.833 38 -107.5s58 -41.5 98 -41.5v580h101v-580c40 0 72.5 13.667 97.5 41s37.5 63.333 37.5 108v262h101v-269c0 -70 -21.667 -126.333 -65 -169s-100.333 -64 -171 -64
v-169h-101z" />
    <glyph glyph-name="omega" unicode="&#x3c9;" horiz-adv-x="721" 
d="M681 236c0 -78.667 -16.666 -139.501 -49.999 -182.501s-80 -64.5 -140 -64.5c-60.667 0 -104.334 23 -131.001 69c-26.667 -46 -70.334 -69 -131.001 -69c-59.333 0 -105.666 21.667 -138.999 65s-50 104 -50 182c0 140 55 227.333 165 262l34 -86
c-34 -17.333 -58.667 -39.833 -74 -67.5s-23 -64.167 -23 -109.5c0 -50 8 -88.167 24 -114.5s39 -39.5 69 -39.5c24.667 0 43.667 8.83301 57 26.5s20 42.167 20 73.5v147h97v-147c0 -30.667 6.83301 -55 20.5 -73s32.5 -27 56.5 -27c30 0 53 13.167 69 39.5
s24 64.5 24 114.5c0 45.333 -7.66699 81.833 -23 109.5s-40 50.167 -74 67.5l34 86c110 -35.333 165 -122.666 165 -261.999z" />
    <glyph glyph-name="iotadieresis" unicode="&#x3ca;" horiz-adv-x="284" 
d="M65 141v350h101v-338c0 -24.667 4.83301 -42.667 14.5 -54s25.167 -17 46.5 -17c14 0 30 1 48 3v-86c-24.667 -6 -49.667 -9 -75 -9c-90 0 -135 50.333 -135 151zM-42 673c0 18 6.33301 33.165 19 45.498s28 18.5 46 18.5c17.333 0 32.333 -6.16699 45 -18.5
s19 -27.5 19 -45.5c0 -17.333 -6.33301 -32.166 -19 -44.499s-27.667 -18.5 -45 -18.5s-32.5 6.33301 -45.5 19s-19.5 27.334 -19.5 44.001zM144 672.998c0 18 6.33301 33.165 19 45.498s28 18.5 46 18.5c17.333 0 32.333 -6.16699 45 -18.5s19 -27.5 19 -45.5
c0 -17.333 -6.33301 -32.166 -19 -44.499s-27.667 -18.5 -45 -18.5s-32.5 6.33301 -45.5 19s-19.5 27.334 -19.5 44.001z" />
    <glyph glyph-name="upsilondieresis" unicode="&#x3cb;" horiz-adv-x="521" 
d="M62 190v301h101v-309c0 -30.667 8.83301 -55.167 26.5 -73.5s41.167 -27.5 70.5 -27.5s52.833 9.16699 70.5 27.5s26.5 42.833 26.5 73.5v309h102v-301c0 -60.667 -18.333 -109.334 -55 -146.001c-36 -36.667 -84 -55 -144 -55s-108 18.333 -144 55
s-54 85.334 -54 146.001zM90 674c0 17.333 6.5 32.166 19.5 44.499s28.167 18.5 45.5 18.5s32.333 -6.16699 45 -18.5s19 -27.166 19 -44.499s-6.33301 -32.333 -19 -45s-27.667 -19 -45 -19s-32.5 6.33301 -45.5 19s-19.5 27.667 -19.5 45zM295 674
c0 17.333 6.5 32.166 19.5 44.499s28.167 18.5 45.5 18.5s32.333 -6.16699 45 -18.5s19 -27.166 19 -44.499s-6.33301 -32.333 -19 -45s-27.667 -19 -45 -19s-32.5 6.33301 -45.5 19s-19.5 27.667 -19.5 45z" />
    <glyph glyph-name="omicrontonos" unicode="&#x3cc;" horiz-adv-x="535" 
d="M40 246c0 75.333 21.333 136.833 64 184.5s97 71.5 163 71.5c66.667 0 121.334 -24 164.001 -72s64 -109.333 64 -184c0 -75.333 -21.333 -137 -64 -185s-97.334 -72 -164.001 -72c-66 0 -120.333 24 -163 72s-64 109.667 -64 185zM392 245
c0 50 -11.333 89.833 -34 119.5s-52.667 44.5 -90 44.5c-38 0 -68.333 -14.667 -91 -44s-34 -69.333 -34 -120s11.167 -90.5 33.5 -119.5s52.5 -43.5 90.5 -43.5s68.333 14.667 91 44s34 69 34 119zM216 568l22 212h121v-18l-67 -194h-76z" />
    <glyph glyph-name="upsilontonos" unicode="&#x3cd;" horiz-adv-x="521" 
d="M62 190v301h101v-309c0 -30.667 8.83301 -55.167 26.5 -73.5s41.167 -27.5 70.5 -27.5s52.833 9.16699 70.5 27.5s26.5 42.833 26.5 73.5v309h102v-301c0 -60.667 -18.333 -109.334 -55 -146.001c-36 -36.667 -84 -55 -144 -55s-108 18.333 -144 55
s-54 85.334 -54 146.001zM205 568l22 212h121v-18l-67 -194h-76z" />
    <glyph glyph-name="omegatonos" unicode="&#x3ce;" horiz-adv-x="721" 
d="M681 236c0 -78.667 -16.666 -139.501 -49.999 -182.501s-80 -64.5 -140 -64.5c-60.667 0 -104.334 23 -131.001 69c-26.667 -46 -70.334 -69 -131.001 -69c-59.333 0 -105.666 21.667 -138.999 65s-50 104 -50 182c0 140 55 227.333 165 262l34 -86
c-34 -17.333 -58.667 -39.833 -74 -67.5s-23 -64.167 -23 -109.5c0 -50 8 -88.167 24 -114.5s39 -39.5 69 -39.5c24.667 0 43.667 8.83301 57 26.5s20 42.167 20 73.5v147h97v-147c0 -30.667 6.83301 -55 20.5 -73s32.5 -27 56.5 -27c30 0 53 13.167 69 39.5
s24 64.5 24 114.5c0 45.333 -7.66699 81.833 -23 109.5s-40 50.167 -74 67.5l34 86c110 -35.333 165 -122.666 165 -261.999zM309.001 567.999l22 212h121v-18l-67 -194h-76z" />
    <glyph glyph-name="uni0400" unicode="&#x400;" horiz-adv-x="509" 
d="M72 0v660h390v-93h-287v-172h217v-90h-217v-212h298v-93h-401zM227 724l-117 168v18h123l70 -186h-76z" />
    <glyph glyph-name="uni0401" unicode="&#x401;" horiz-adv-x="509" 
d="M72 0v660h390v-93h-287v-172h217v-90h-217v-212h298v-93h-401zM88 812c0 17.333 6.5 32.167 19.5 44.5s28.167 18.5 45.5 18.5c18 0 33.167 -6 45.5 -18s18.5 -27 18.5 -45c0 -17.333 -6.33301 -32.166 -19 -44.499s-27.667 -18.5 -45 -18.5s-32.5 6.16699 -45.5 18.5
s-19.5 27.166 -19.5 44.499zM312 811.001c0 18 6.33301 33.165 19 45.498s28 18.5 46 18.5c17.333 0 32.333 -6.16699 45 -18.5s19 -27.5 19 -45.5c0 -17.333 -6.33301 -32.166 -19 -44.499s-27.667 -18.5 -45 -18.5s-32.5 6.33301 -45.5 19s-19.5 27.334 -19.5 44.001z" />
    <glyph glyph-name="uni0402" unicode="&#x402;" horiz-adv-x="673" 
d="M426 -13l-20.999 90.999c42 8 73.5 21.333 94.5 40s31.5 45.334 31.5 80.001c0 36 -10.667 63.667 -32 83s-51 29 -89 29c-44 0 -83.667 -7.33301 -119 -22v-288h-103v567h-173v93h481v-93h-205v-187c38 14.667 81 22 129 22c66 0 118.5 -18 157.5 -54
s58.5 -86 58.5 -150c0 -62 -18.333 -110.5 -55 -145.5s-88.334 -56.833 -155.001 -65.5z" />
    <glyph glyph-name="uni0403" unicode="&#x403;" horiz-adv-x="459" 
d="M72 0v660h366v-93h-263v-567h-103zM209 724l69 186h123v-18l-117 -168h-75z" />
    <glyph glyph-name="uni0404" unicode="&#x404;" horiz-adv-x="620" 
d="M501 193l82.002 -47c-22.667 -50 -55.334 -88.667 -98.001 -116s-92.334 -41 -149.001 -41c-86.667 0 -157.834 31.667 -213.501 95s-83.5 145.333 -83.5 246s27.833 182.667 83.5 246s126.834 95 213.501 95c56 0 105.333 -13.667 148 -41s75.667 -66 99 -116l-82 -47
c-38.667 72.667 -93.334 109 -164.001 109c-50.667 0 -93 -17.5 -127 -52.5s-54.667 -82.833 -62 -143.5h246v-90h-247c6 -64 26 -114.333 60 -151s77.333 -55 130 -55c70.667 0 125.334 36.333 164.001 109z" />
    <glyph glyph-name="uni0405" unicode="&#x405;" horiz-adv-x="509" 
d="M30 138l78 47.999c37.333 -69.333 87 -104 149 -104c31.333 0 56.333 8 75 24s28 37.333 28 64c0 21.333 -6.16699 39 -18.5 53s-36.166 31.667 -71.499 53l-65 37c-48.667 30 -84.167 59 -106.5 87s-33.5 61 -33.5 99c0 50.667 18.5 92 55.5 124s83.5 48 139.5 48
c45.333 0 85.166 -11.333 119.499 -34s60.833 -54.334 79.5 -95.001l-78 -47c-29.333 55.333 -69.333 83 -120 83c-27.333 0 -49.333 -6.83301 -66 -20.5s-25 -32.5 -25 -56.5c0 -19.333 6 -35.666 18 -48.999s33.667 -29.333 65 -48l66 -38
c52 -31.333 89.333 -61.666 112 -90.999s34 -63.666 34 -102.999c0 -54.667 -19.333 -98.834 -58 -132.501s-88.334 -50.5 -149.001 -50.5c-52 0 -97.667 12.833 -137 38.5s-69.666 62.5 -90.999 110.5z" />
    <glyph glyph-name="uni0406" unicode="&#x406;" horiz-adv-x="247" 
d="M72 0v660h103v-660h-103z" />
    <glyph glyph-name="uni0407" unicode="&#x407;" horiz-adv-x="247" 
d="M72 0v660h103v-660h-103zM-53 812c0 17.333 6.5 32.167 19.5 44.5s28.167 18.5 45.5 18.5c18 0 33.167 -6 45.5 -18s18.5 -27 18.5 -45c0 -17.333 -6.33301 -32.166 -19 -44.499s-27.667 -18.5 -45 -18.5s-32.5 6.16699 -45.5 18.5s-19.5 27.166 -19.5 44.499z
M171 811.001c0 18 6.33301 33.165 19 45.498s28 18.5 46 18.5c17.333 0 32.333 -6.16699 45 -18.5s19 -27.5 19 -45.5c0 -17.333 -6.33301 -32.166 -19 -44.499s-27.667 -18.5 -45 -18.5s-32.5 6.33301 -45.5 19s-19.5 27.334 -19.5 44.001z" />
    <glyph glyph-name="uni0408" unicode="&#x408;" horiz-adv-x="343" 
d="M17 -1l0.000976562 89c31.333 -3.33301 51.666 -5 60.999 -5c30.667 0 53.167 6.5 67.5 19.5s21.5 34.167 21.5 63.5v494h103v-508c0 -54 -14.667 -94.667 -44 -122s-71.333 -41 -126 -41c-28 0 -55.667 3.33301 -83 10z" />
    <glyph glyph-name="uni0409" unicode="&#x409;" horiz-adv-x="889" 
d="M852 207c0 -63.333 -20 -113.668 -60 -151.001s-94.333 -56 -163 -56h-213v567h-182l-1 -50c-3.33301 -138 -11 -243.5 -23 -316.5s-30.667 -125.333 -56 -157s-61.333 -48.5 -108 -50.5c-15.333 0 -30 2.33301 -44 7v89c6.66699 -1.33301 14.667 -2 24 -2
c38.667 2 65.5 33.333 80.5 94s24.167 167.667 27.5 321l2 158h383v-245h110c68.667 -0.666992 123 -19.667 163 -57s60 -87.666 60 -150.999zM746 206.998c0 36.667 -10.333 65.167 -31 85.5s-49.667 30.5 -87 30.5h-109v-231h109c37.333 0 66.333 10.167 87 30.5
s31 48.5 31 84.5z" />
    <glyph glyph-name="uni040A" unicode="&#x40a;" horiz-adv-x="895" 
d="M72 0v660h103v-250h247v250h103v-250h110c68 0 122.167 -18.667 162.5 -56s60.5 -87 60.5 -149c0 -62.667 -20 -112.5 -60 -149.5s-94.333 -55.5 -163 -55.5h-213v317h-247v-317h-103zM525 92h110c37.333 0 66.333 10.167 87 30.5s31 47.833 31 82.5
s-10.333 62.167 -31 82.5s-49.667 30.5 -87 30.5h-110v-226z" />
    <glyph glyph-name="uni040B" unicode="&#x40b;" horiz-adv-x="701" 
d="M638 170l0.000976562 -170h-102v162c0 46.667 -11.333 82.667 -34 108s-54 38 -94 38c-42 0 -81 -7.33301 -117 -22v-286h-103v567h-173v93h480v-93h-204v-187c39.333 14.667 82 22 128 22c67.333 0 120.666 -20.5 159.999 -61.5s59 -97.833 59 -170.5z" />
    <glyph glyph-name="uni040C" unicode="&#x40c;" horiz-adv-x="587" 
d="M72 0v660h103v-660h-103zM302 352l265 -352h-124l-266 352l244 308h123zM254 724l69 186h123v-18l-117 -168h-75z" />
    <glyph glyph-name="uni040D" unicode="&#x40d;" horiz-adv-x="640" 
d="M526 668h42v-668h-103v448l-351 -456h-42v668h103v-447zM289 724l-117 168v18h123l70 -186h-76z" />
    <glyph glyph-name="uni040E" unicode="&#x40e;" horiz-adv-x="579" 
d="M455 660h107l-205 -508c-24.667 -58.667 -50 -100 -76 -124c-26.667 -25.333 -62.667 -38 -108 -38c-20 0 -40 3.33301 -60 10v89c12.667 -2.66699 28 -4 46 -4c39.333 0 69.333 20 90 60l-227 515h114l165 -388zM153 881l-0.000976562 29h82v-30c0 -25.333 6 -45 18 -59
s28.667 -21 50 -21s37.833 7 49.5 21s17.5 33.667 17.5 59v30h82v-29c0 -46.667 -13.5 -84.167 -40.5 -112.5s-63.167 -42.5 -108.5 -42.5s-81.666 14 -108.999 42s-41 65.667 -41 113z" />
    <glyph glyph-name="uni040F" unicode="&#x40f;" horiz-adv-x="625" 
d="M552 660v-660h-189v-141h-101v141h-190v660h103v-567h274v567h103z" />
    <glyph glyph-name="uni0410" unicode="&#x410;" horiz-adv-x="591" 
d="M465 0l-41 111h-257l-41 -111h-109l258 668h41l258 -668h-109zM391 199l-96 273l-96 -273h192z" />
    <glyph glyph-name="uni0411" unicode="&#x411;" horiz-adv-x="539" 
d="M72 0v660.001h383v-93h-280v-174h123c63.333 0 114 -18 152 -54c38 -35.333 57 -82.333 57 -141s-19.333 -106.334 -58 -143.001s-89 -55 -151 -55h-226zM175 90.001h116c35.333 0 62.833 9.66699 82.5 29s29.5 45.333 29.5 78s-9.83301 58.667 -29.5 78
s-47.167 29 -82.5 29h-116v-214z" />
    <glyph glyph-name="uni0412" unicode="&#x412;" horiz-adv-x="559" 
d="M526 190c0 -56 -18.999 -101.667 -56.999 -137s-88 -53 -150 -53h-247v660h204c59.333 0 106.666 -16 141.999 -48s53 -74 53 -126c0 -54.667 -19.667 -97.667 -59 -129c36 -13.333 64 -34.5 84 -63.5s30 -63.5 30 -103.5zM268.001 570l-94.999 -0.000976562v-181h96
c31.333 0 55.666 8 72.999 24s26 38.333 26 67s-8.66699 50.834 -26 66.501s-42 23.5 -74 23.5zM423.002 194.999c0 32.667 -9.83301 58.332 -29.5 76.999s-47.5 28 -83.5 28h-137v-210h136c36 0 64 9.33301 84 28s30 44.334 30 77.001z" />
    <glyph glyph-name="uni0413" unicode="&#x413;" horiz-adv-x="459" 
d="M72 0v660h366v-93h-263v-567h-103z" />
    <glyph glyph-name="uni0414" unicode="&#x414;" horiz-adv-x="638" 
d="M539 93h75v-234h-103v141h-396v-141h-103v234h46c51.333 47.333 77.333 187 78 419l2 148h401v-567zM168 93l268.001 -0.000976562v474h-202l-1 -50c-2.66699 -215.333 -24.334 -356.666 -65.001 -423.999z" />
    <glyph glyph-name="uni0415" unicode="&#x415;" horiz-adv-x="509" 
d="M72 0v660h390v-93h-287v-172h217v-90h-217v-212h298v-93h-401z" />
    <glyph glyph-name="uni0416" unicode="&#x416;" horiz-adv-x="885" 
d="M39 660h123l227 -308l-246 -352h-123l250 352zM391 0v660h103v-660h-103zM615 352l250 -352h-124l-245 352l227 308h123z" />
    <glyph glyph-name="uni0417" unicode="&#x417;" horiz-adv-x="528" 
d="M491 190c0 -60.667 -20.332 -109.334 -60.999 -146.001s-94.667 -55 -162 -55c-54 0 -101 13.167 -141 39.5s-70 63.833 -90 112.5l79 45c34.667 -68 84.667 -102 150 -102c36.667 0 66.167 10 88.5 30s33.5 47 33.5 81c0 32.667 -10.167 58.167 -30.5 76.5
s-49.833 27.5 -88.5 27.5h-76v89h75c30 0 53.5 8.33301 70.5 25s25.5 39 25.5 67c0 30.667 -8.33301 54.334 -25 71.001s-41 25 -73 25c-58 0 -101.333 -29.667 -130 -89l-79 46c40 92 110.667 138 212 138c61.333 0 109.666 -16.5 144.999 -49.5s53 -77.5 53 -133.5
c0 -62 -25.333 -108.333 -76 -139c32 -13.333 56.667 -33.833 74 -61.5s26 -60.167 26 -97.5z" />
    <glyph glyph-name="uni0418" unicode="&#x418;" horiz-adv-x="640" 
d="M526 668h42v-668h-103v448l-351 -456h-42v668h103v-447z" />
    <glyph glyph-name="uni0419" unicode="&#x419;" horiz-adv-x="640" 
d="M526 668h42v-668h-103v448l-351 -456h-42v668h103v-447zM177 881l-0.000976562 29h82v-30c0 -25.333 6 -45 18 -59s28.667 -21 50 -21s37.833 7 49.5 21s17.5 33.667 17.5 59v30h82v-29c0 -46.667 -13.5 -84.167 -40.5 -112.5s-63.167 -42.5 -108.5 -42.5
s-81.666 14 -108.999 42s-41 65.667 -41 113z" />
    <glyph glyph-name="uni041A" unicode="&#x41a;" horiz-adv-x="587" 
d="M72 0v660h103v-660h-103zM302 352l265 -352h-124l-266 352l244 308h123z" />
    <glyph glyph-name="uni041B" unicode="&#x41b;" horiz-adv-x="609" 
d="M136 660h400.999v-660h-103v567h-200l-1 -44c-2.66699 -138.667 -10.667 -246 -24 -322c-12.667 -74.667 -31.667 -128 -57 -160s-60.666 -48 -105.999 -48c-15.333 0 -30 2.33301 -44 7v89c5.33301 -1.33301 13.333 -2 24 -2c38.667 2 65.5 33.667 80.5 95
s23.833 168 26.5 320z" />
    <glyph glyph-name="uni041C" unicode="&#x41c;" horiz-adv-x="710" 
d="M597 668h40v-668h-103v406l-161 -237h-36l-162 238v-407h-103v668h42l241 -358z" />
    <glyph glyph-name="uni041D" unicode="&#x41d;" horiz-adv-x="636" 
d="M72 0v660h103v-263h285v263h103v-660h-103v304h-285v-304h-103z" />
    <glyph glyph-name="uni041E" unicode="&#x41e;" horiz-adv-x="674" 
d="M39 330c0 102 27.6689 184.333 83.002 247s126.666 94 213.999 94c88 0 159.833 -31.333 215.5 -94s83.5 -144.667 83.5 -246c0 -102 -28 -184.5 -84 -247.5s-127.667 -94.5 -215 -94.5c-86.667 0 -157.834 31.667 -213.501 95s-83.5 145.333 -83.5 246zM530.002 331
c0 74.667 -17.667 134.167 -53 178.5s-82 66.5 -140 66.5c-58.667 0 -105.334 -21.833 -140.001 -65.5s-52 -103.5 -52 -179.5s17.333 -136.167 52 -180.5s81.334 -66.5 140.001 -66.5c58 0 104.667 22.167 140 66.5s53 104.5 53 180.5z" />
    <glyph glyph-name="uni041F" unicode="&#x41f;" horiz-adv-x="627" 
d="M72 0v660h482v-660h-103v567h-276v-567h-103z" />
    <glyph glyph-name="uni0420" unicode="&#x420;" horiz-adv-x="534" 
d="M72 0v659.999h214c66.667 0 119.5 -18.167 158.5 -54.5s58.5 -85.166 58.5 -146.499c0 -62 -19.667 -111.5 -59 -148.5s-92 -55.5 -158 -55.5h-111v-255h-103zM175 347.999h110c36 0 63.833 9.66699 83.5 29s29.5 46.333 29.5 81s-9.83301 61.667 -29.5 81
s-47.5 29 -83.5 29h-110v-220z" />
    <glyph glyph-name="uni0421" unicode="&#x421;" horiz-adv-x="620" 
d="M39 330c0 100.667 27.834 182.667 83.501 246s126.834 95 213.501 95c57.333 0 107.166 -13.667 149.499 -41s74.833 -66 97.5 -116l-83 -47c-36.667 72.667 -91 109 -163 109c-57.333 0 -103.666 -22.333 -138.999 -67s-53 -104.334 -53 -179.001
c0 -75.333 17.667 -135.166 53 -179.499s81.666 -66.5 138.999 -66.5c72 0 126.333 36.333 163 109l83 -47c-22 -50 -54.333 -88.667 -97 -116s-92.667 -41 -150 -41c-86.667 0 -157.834 31.667 -213.501 95s-83.5 145.333 -83.5 246z" />
    <glyph glyph-name="uni0422" unicode="&#x422;" horiz-adv-x="524" 
d="M210 0v567h-195v93h494v-93h-196v-567h-103z" />
    <glyph glyph-name="uni0423" unicode="&#x423;" horiz-adv-x="579" 
d="M455 660h107l-205 -508c-24.667 -58.667 -50 -100 -76 -124c-26.667 -25.333 -62.667 -38 -108 -38c-20 0 -40 3.33301 -60 10v89c12.667 -2.66699 28 -4 46 -4c39.333 0 69.333 20 90 60l-227 515h114l165 -388z" />
    <glyph glyph-name="uni0424" unicode="&#x424;" horiz-adv-x="733" 
d="M417 63l0.000976562 -82.998h-103v83c-85.333 3.33301 -152.833 28.666 -202.5 75.999s-74.5 111.666 -74.5 192.999c0 84 25 149.333 75 196c50.667 48.667 118 74.334 202 77.001v75h103v-75c85.333 -3.33301 153.166 -29 203.499 -77s75.5 -113.333 75.5 -196
s-25.333 -147.334 -76 -194.001c-51.333 -47.333 -119 -72.333 -203 -75zM594.001 332.002c0 58 -15.333 102.5 -46 133.5s-74.667 47.167 -132 48.5v-361c56.667 1.33301 100.5 17.5 131.5 48.5s46.5 74.5 46.5 130.5zM315.001 153.002v360.999
c-56 -1.33301 -99.333 -17.666 -130 -48.999s-46 -76 -46 -134c0 -55.333 15.333 -98.333 46 -129s74 -47 130 -49z" />
    <glyph glyph-name="uni0425" unicode="&#x425;" horiz-adv-x="550" 
d="M530 0h-117l-138 244l-138 -244h-117l195 335l-186 325h117l130 -236l128 236h116l-184 -325z" />
    <glyph glyph-name="uni0426" unicode="&#x426;" horiz-adv-x="650" 
d="M525 -141v141h-453v660h103v-567h274v567h103v-567h74v-234h-101z" />
    <glyph glyph-name="uni0427" unicode="&#x427;" horiz-adv-x="589" 
d="M414 660h103.001v-660h-103v255c-40 -15.333 -84.333 -23 -133 -23c-74.667 0 -132.334 20.167 -173.001 60.5s-61 98.5 -61 174.5v193h103v-185c0 -99.333 47.667 -149 143 -149c42.667 0 83 7.66699 121 23v311z" />
    <glyph glyph-name="uni0428" unicode="&#x428;" horiz-adv-x="890" 
d="M72 0v660h103v-567h218v567h103v-567h219v567h103v-660h-746z" />
    <glyph glyph-name="uni0429" unicode="&#x429;" horiz-adv-x="916" 
d="M791 -141v141h-719v660h103v-567h218v567h103v-567h219v567h103v-567h74v-234h-101z" />
    <glyph glyph-name="uni042A" unicode="&#x42a;" horiz-adv-x="623" 
d="M151 0v567.001h-136v93h238v-245h110c68.667 -0.666992 123.167 -19.834 163.5 -57.501s60.5 -87.834 60.5 -150.501c0 -63.333 -20.167 -113.666 -60.5 -150.999s-94.833 -56 -163.5 -56h-212zM253 92.001h110c37.333 0 66.333 10.167 87 30.5s31 48.5 31 84.5
c0 36.667 -10.167 65.167 -30.5 85.5s-49.5 30.5 -87.5 30.5h-110v-231z" />
    <glyph glyph-name="uni042B" unicode="&#x42b;" horiz-adv-x="780" 
d="M72 0v659.999h103v-245h110c68 0 122 -19 162 -57c40.667 -36.667 61 -87 61 -151c0 -63.333 -20 -113.666 -60 -150.999s-94.333 -56 -163 -56h-213zM175 91.999h110c37.333 0 66.333 10.167 87 30.5s31 48.5 31 84.5c0 36.667 -10.167 65.167 -30.5 85.5
s-49.5 30.5 -87.5 30.5h-110v-231zM605 -0.000976562v660h103v-660h-103z" />
    <glyph glyph-name="uni042C" unicode="&#x42c;" horiz-adv-x="545" 
d="M72 0v659.999h103v-245h110c68 0 122 -19 162 -57c40.667 -36.667 61 -87 61 -151c0 -63.333 -20 -113.666 -60 -150.999s-94.333 -56 -163 -56h-213zM175 91.999h110c37.333 0 66.333 10.167 87 30.5s31 48.5 31 84.5c0 36.667 -10.167 65.167 -30.5 85.5
s-49.5 30.5 -87.5 30.5h-110v-231z" />
    <glyph glyph-name="uni042D" unicode="&#x42d;" horiz-adv-x="620" 
d="M581 330c0 -100.667 -27.8311 -182.667 -83.498 -246s-126.834 -95 -213.501 -95c-56.667 0 -106.334 13.667 -149.001 41s-75.334 66 -98.001 116l82 47c38.667 -72.667 93.334 -109 164.001 -109c52.667 0 96.167 18.333 130.5 55s54.5 87 60.5 151h-238v90h237
c-7.33301 61.333 -28 109.333 -62 144s-76.667 52 -128 52c-70.667 0 -125.334 -36.333 -164.001 -109l-82 47c23.333 50 56.333 88.667 99 116s92 41 148 41c86.667 0 157.834 -31.667 213.501 -95s83.5 -145.333 83.5 -246z" />
    <glyph glyph-name="uni042E" unicode="&#x42e;" horiz-adv-x="875" 
d="M836 331c0 -102.667 -26.668 -185.333 -80.001 -248s-122.666 -94 -207.999 -94c-81.333 0 -148.166 28.667 -200.499 86s-80.5 133.666 -84.5 228.999h-88v-304h-103v660h103v-263h91c11.333 84.667 42.333 151.334 93 200.001c51.333 49.333 114.333 74 189 74
c85.333 0 154.666 -31.167 207.999 -93.5s80 -144.5 80 -246.5zM730.999 331.001c0 76 -16.501 135.833 -49.501 179.5s-77.5 65.5 -133.5 65.5s-100.333 -21.833 -133 -65.5s-49 -103.5 -49 -179.5c0 -77.333 16.167 -137.833 48.5 -181.5s76.833 -65.5 133.5 -65.5
s101.334 21.833 134.001 65.5s49 104.167 49 181.5z" />
    <glyph glyph-name="uni042F" unicode="&#x42f;" horiz-adv-x="567" 
d="M290 660h204.002v-660h-102v240h-96l-148 -240h-112l158 257c-40.667 15.333 -72.834 40 -96.501 74s-35.5 73.667 -35.5 119c0 64 20.667 115 62 153s96.666 57 165.999 57zM392.002 332v236h-103c-38 0 -67.833 -10.5 -89.5 -31.5s-32.5 -49.833 -32.5 -86.5
s11 -65.5 33 -86.5s51.667 -31.5 89 -31.5h103z" />
    <glyph glyph-name="uni0430" unicode="&#x430;" horiz-adv-x="485" 
d="M424 313l0.000976562 -313h-94v50c-33.333 -40.667 -80 -61 -140 -61c-46.667 0 -84.334 13 -113.001 39s-43 59.667 -43 101c0 43.333 15.5 77.833 46.5 103.5s72.5 38.5 124.5 38.5h117v44c0 30.667 -8 54.167 -24 70.5s-38.667 24.5 -68 24.5
c-45.333 0 -85 -23 -119 -69l-62 56c44.667 70 108 105 190 105c57.333 0 102.5 -16.5 135.5 -49.5s49.5 -79.5 49.5 -139.5zM322.001 170l-0.000976562 27h-103c-54.667 0 -82 -21 -82 -63c0 -20 7.16699 -35.833 21.5 -47.5s32.833 -17.5 55.5 -17.5
c30.667 0 56.334 9.5 77.001 28.5s31 43.167 31 72.5z" />
    <glyph glyph-name="uni0431" unicode="&#x431;" horiz-adv-x="540" 
d="M501 239c0 -74.667 -21.0029 -135 -63.0029 -181s-96.667 -69 -164 -69c-70.667 0 -126.167 25 -166.5 75s-60.5 119.333 -60.5 208v93c0.666992 60 4.83398 109.5 12.501 148.5s21.834 73.833 42.501 104.5s49 54.667 85 72s82.333 30.666 139 39.999
c60 8.66699 105.667 18.667 137 30v-96c-30 -12 -73.667 -21.333 -131 -28c-78.667 -12.667 -129.667 -34.5 -153 -65.5s-35.666 -85.833 -36.999 -164.5c34.667 54.667 85 82 151 82c60.667 0 110.5 -23.167 149.5 -69.5s58.5 -106.166 58.5 -179.499zM396.997 238
c0 47.333 -11.499 85.334 -34.499 114.001s-52.833 43 -89.5 43s-66.334 -14.333 -89.001 -43s-34 -66.667 -34 -114c0 -46 11.5 -83.5 34.5 -112.5s52.5 -43.5 88.5 -43.5c36.667 0 66.5 14.167 89.5 42.5s34.5 66.166 34.5 113.499z" />
    <glyph glyph-name="uni0432" unicode="&#x432;" horiz-adv-x="495" 
d="M451 148c0 -44 -15.667 -79.667 -47 -107s-73 -41 -125 -41h-210v491h186c50 0 89.833 -11.833 119.5 -35.5s44.5 -56.167 44.5 -97.5s-15.667 -73 -47 -95c52.667 -20.667 79 -59 79 -115zM167 409v-115h89c45.333 0 68 19.333 68 58c0 38 -22.667 57 -68 57h-89z
M354 150c0 20.667 -7 36.667 -21 48s-34 17 -60 17h-106v-132h106c26 0 46 6 60 18s21 28.333 21 49z" />
    <glyph glyph-name="uni0433" unicode="&#x433;" horiz-adv-x="402" 
d="M69 0v491h314v-88h-213v-403h-101z" />
    <glyph glyph-name="uni0434" unicode="&#x434;" horiz-adv-x="553" 
d="M454 88h70v-229h-99v141h-319v-141h-98v229h45c18 19.333 31.167 48 39.5 86s13.5 92 15.5 162l4 155h342v-403zM158 88h195v315h-149l-1 -74c-2.66699 -110.667 -17.667 -191 -45 -241z" />
    <glyph glyph-name="uni0435" unicode="&#x435;" horiz-adv-x="504" 
d="M458 212h-316.001c5.33301 -43.333 19.5 -76.333 42.5 -99s53.5 -34 91.5 -34c45.333 0 85.333 19 120 57l55 -64c-47.333 -55.333 -106.666 -83 -177.999 -83c-69.333 0 -125.5 23.5 -168.5 70.5s-64.5 108.833 -64.5 185.5c0 75.333 20.833 137 62.5 185
s95.167 72 160.5 72c60 0 108.5 -20.5 145.5 -61.5s55.5 -94.833 55.5 -161.5c0 -26 -2 -48.333 -6 -67zM142.999 291h222.999c0 38.667 -9.66699 69 -29 91s-44.666 33 -75.999 33c-32 0 -58.333 -10.667 -79 -32s-33.667 -52 -39 -92z" />
    <glyph glyph-name="uni0436" unicode="&#x436;" horiz-adv-x="732" 
d="M21 491h120l170 -230l-183 -261h-117l183 260zM313 0v491h102v-491h-102zM535 263l185 -263h-120l-183 261l170 230h120z" />
    <glyph glyph-name="uni0437" unicode="&#x437;" horiz-adv-x="435" 
d="M395 140c0 -47.333 -15.999 -84.333 -47.999 -111s-76 -40 -132 -40c-82 0 -143.333 33 -184 99l67 55c26.667 -42.667 64 -64 112 -64c56.667 0 85 23 85 69c0 20.667 -7 36.667 -21 48s-34.333 17 -61 17h-55v82h52c21.333 0 37.833 5.16699 49.5 15.5
s17.5 24.5 17.5 42.5c0 18.667 -6.16699 33.167 -18.5 43.5s-29.833 15.5 -52.5 15.5c-42.667 0 -77 -19 -103 -57l-66 54c36.667 62 94.667 93 174 93c51.333 0 91.666 -12.333 120.999 -37s44 -59 44 -103c0 -46 -17.667 -81 -53 -105c48 -24.667 72 -63.667 72 -117z" />
    <glyph glyph-name="uni0438" unicode="&#x438;" horiz-adv-x="530" 
d="M420 498h41v-498h-101v299l-249 -307h-42v499h101v-299z" />
    <glyph glyph-name="uni0439" unicode="&#x439;" horiz-adv-x="530" 
d="M420 498h41v-498h-101v299l-249 -307h-42v499h101v-299zM125 728v36h82v-35c0 -54.667 22.333 -82 67 -82c44 0 66 27.333 66 82v35h83v-36c0 -46.667 -13.5 -84.167 -40.5 -112.5s-63.167 -42.5 -108.5 -42.5s-81.5 14.167 -108.5 42.5s-40.5 65.833 -40.5 112.5z" />
    <glyph glyph-name="uni043A" unicode="&#x43a;" horiz-adv-x="493" 
d="M69 0v491h101v-491h-101zM292 263l190 -263h-120l-189 261l178 230h118z" />
    <glyph glyph-name="uni043B" unicode="&#x43b;" horiz-adv-x="512" 
d="M105 491h338.999v-491h-102v403h-143l-2 -73c-3.33301 -126 -15.166 -212.833 -35.499 -260.5s-58.5 -72.5 -114.5 -74.5c-13.333 0 -25.666 1.66699 -36.999 5v86c9.33301 -1.33301 15.666 -2 18.999 -2c26.667 0 45 19.167 55 57.5s16 104.833 18 199.5z" />
    <glyph glyph-name="uni043C" unicode="&#x43c;" horiz-adv-x="623" 
d="M69 0v498h42l201 -255l201 255h41v-498h-101v282l-125 -160h-33l-125 160v-282h-101z" />
    <glyph glyph-name="uni043D" unicode="&#x43d;" horiz-adv-x="524" 
d="M69 0v491h101v-188h184v188h102v-491h-102v215h-184v-215h-101z" />
    <glyph glyph-name="uni043E" unicode="&#x43e;" horiz-adv-x="535" 
d="M40 246c0 75.333 21.333 136.833 64 184.5s97 71.5 163 71.5c66.667 0 121.334 -24 164.001 -72s64 -109.333 64 -184c0 -75.333 -21.333 -137 -64 -185s-97.334 -72 -164.001 -72c-66 0 -120.333 24 -163 72s-64 109.667 -64 185zM392 245
c0 50 -11.333 89.833 -34 119.5s-52.667 44.5 -90 44.5c-38 0 -68.333 -14.667 -91 -44s-34 -69.333 -34 -120s11.167 -90.5 33.5 -119.5s52.5 -43.5 90.5 -43.5s68.333 14.667 91 44s34 69 34 119z" />
    <glyph glyph-name="uni043F" unicode="&#x43f;" horiz-adv-x="521" 
d="M69 0v491h383v-491h-102v403h-180v-403h-101z" />
    <glyph glyph-name="uni0440" unicode="&#x440;" horiz-adv-x="555" 
d="M516 246c0 -76.667 -19.168 -138.667 -57.501 -186s-88.833 -71 -151.5 -71c-59.333 0 -105.666 20.333 -138.999 61v-230h-102v671h94v-63c32.667 49.333 81.667 74 147 74c62.667 0 113.167 -23.5 151.5 -70.5s57.5 -108.833 57.5 -185.5zM411.999 245
c0 51.333 -11.333 91.5 -34 120.5s-53 43.5 -91 43.5c-36 0 -65.167 -14.167 -87.5 -42.5s-33.5 -68.833 -33.5 -121.5c0 -52 11.167 -92.167 33.5 -120.5s51.5 -42.5 87.5 -42.5c38.667 0 69.167 14.333 91.5 43s33.5 68.667 33.5 120z" />
    <glyph glyph-name="uni0441" unicode="&#x441;" horiz-adv-x="486" 
d="M40 246c0 76 21.3291 137.667 63.9961 185s97.334 71 164.001 71c86.667 0 148.334 -40 185.001 -120l-76 -46c-27.333 48.667 -63.666 73 -108.999 73c-38 0 -68.333 -14.667 -91 -44s-34 -69 -34 -119c0 -50.667 11.333 -90.667 34 -120s53 -44 91 -44
c46.667 0 82.667 24 108 72l77 -45c-37.333 -80 -99 -120 -185 -120c-67.333 0 -122.166 23.833 -164.499 71.5s-63.5 109.5 -63.5 185.5z" />
    <glyph glyph-name="uni0442" unicode="&#x442;" horiz-adv-x="416" 
d="M157 0v403h-141v87l384 1v-88h-142v-403h-101z" />
    <glyph glyph-name="uni0443" unicode="&#x443;" horiz-adv-x="496" 
d="M373 491l107.998 0.000976562l-216 -550c-18.667 -46.667 -41.167 -80.334 -67.5 -101.001s-59.833 -31 -100.5 -31c-19.333 0 -42.666 3 -69.999 9v86c18.667 -2 35.334 -3 50.001 -3c23.333 0 42.333 5 57 15s27 27.667 37 53l21 54l-177 468h109l122 -351z" />
    <glyph glyph-name="uni0444" unicode="&#x444;" horiz-adv-x="672" 
d="M387 -11v-169h-102v169c-75.333 4.66699 -135 29.5 -179 74.5s-66 105.5 -66 181.5c0 77.333 22 138.333 66 183s103.667 68.667 179 72v250h102v-250c75.333 -4 135 -28.5 179 -73.5s66 -105.5 66 -181.5c0 -76.667 -22 -137.5 -66 -182.5s-103.667 -69.5 -179 -73.5z
M287 78v333.999c-47.333 -2.66699 -83.5 -18.167 -108.5 -46.5s-37.5 -68.833 -37.5 -121.5c0 -51.333 12.667 -91.166 38 -119.499s61.333 -43.833 108 -46.5zM531 244.999c0 52 -12.667 92.167 -38 120.5s-61.333 43.833 -108 46.5v-334c97.333 5.33301 146 61 146 167z
" />
    <glyph glyph-name="uni0445" unicode="&#x445;" horiz-adv-x="466" 
d="M455 0h-115l-107 178l-107 -178h-115l161 255l-150 236h115l96 -159l96 159h115l-151 -235z" />
    <glyph glyph-name="uni0446" unicode="&#x446;" horiz-adv-x="547" 
d="M419 -141v141h-350v491h101v-403h176v403h102v-403h70v-229h-99z" />
    <glyph glyph-name="uni0447" unicode="&#x447;" horiz-adv-x="493" 
d="M323 491l101.998 -0.000976562v-491h-102v183c-30 -11.333 -63.333 -17 -100 -17c-57.333 0 -102.166 16.833 -134.499 50.5s-48.5 80.834 -48.5 141.501v133h101v-127c0 -70.667 34 -106 102 -106c28.667 0 55.334 5 80.001 15v218z" />
    <glyph glyph-name="uni0448" unicode="&#x448;" horiz-adv-x="760" 
d="M69 0v491h101v-403h160v403h101v-403h159v403h102v-491h-623z" />
    <glyph glyph-name="uni0449" unicode="&#x449;" horiz-adv-x="791" 
d="M663 -141v141h-594v491h101v-403h160v403h101v-403h159v403h102v-403h70v-229h-99z" />
    <glyph glyph-name="uni044A" unicode="&#x44a;" horiz-adv-x="533" 
d="M123 0v403h-107v88h208v-159h84c58 0 103.833 -14.833 137.5 -44.5s50.5 -70.167 50.5 -121.5s-16.833 -91.833 -50.5 -121.5s-79.5 -44.5 -137.5 -44.5h-185zM224 88l81 0.000976562c58 0 87 26 87 78c0 25.333 -7.5 44.666 -22.5 57.999s-36.5 20 -64.5 20h-81v-156z
" />
    <glyph glyph-name="uni044B" unicode="&#x44b;" horiz-adv-x="671" 
d="M69 0v491h101v-159h85c56.667 0 101.834 -14.833 135.501 -44.5s50.5 -70.167 50.5 -121.5s-16.833 -91.833 -50.5 -121.5s-78.834 -44.5 -135.501 -44.5h-186zM501 0v491h101v-491h-101zM170 88h81c58.667 0 88 26 88 78s-29.333 78 -88 78h-81v-156z" />
    <glyph glyph-name="uni044C" unicode="&#x44c;" horiz-adv-x="479" 
d="M69 0v491h101v-159h85c56.667 0 102 -14.833 136 -44.5s51 -70.167 51 -121.5s-16.833 -91.833 -50.5 -121.5s-79.167 -44.5 -136.5 -44.5h-186zM170 88l81 0.000976562c58.667 0 88 26 88 78c0 25.333 -7.66699 44.666 -23 57.999s-37 20 -65 20h-81v-156z" />
    <glyph glyph-name="uni044D" unicode="&#x44d;" horiz-adv-x="486" 
d="M446 245c0 -76 -21.3311 -137.667 -63.998 -185s-97.334 -71 -164.001 -71c-86 0 -147.667 39.667 -185 119l74 45c27.333 -48.667 64.333 -73 111 -73c34 0 62 11.5 84 34.5s35.667 54.833 41 95.5h-160v80h158c-6 38 -19.833 67.667 -41.5 89s-49.167 32 -82.5 32
c-46.667 0 -83.334 -24.333 -110.001 -73l-74 44c36.667 80 98.334 120 185.001 120c67.333 0 122.166 -23.833 164.499 -71.5s63.5 -109.5 63.5 -185.5z" />
    <glyph glyph-name="uni044E" unicode="&#x44e;" horiz-adv-x="719" 
d="M680 246c0 -74.667 -21.168 -136.166 -63.501 -184.499s-95.833 -72.5 -160.5 -72.5c-59.333 0 -109 20.667 -149 62s-63 95.666 -69 162.999h-68v-214h-101v491h101v-189h71c10 61.333 34.333 110 73 146s86.334 54 143.001 54c64.667 0 118 -24 160 -72
s63 -109.333 63 -184zM576.999 245.001c0 50 -11.168 89.833 -33.501 119.5s-51.5 44.5 -87.5 44.5c-36.667 0 -66 -14.833 -88 -44.5s-33 -69.5 -33 -119.5s10.833 -89.667 32.5 -119s50.834 -44 87.501 -44s66.167 14.667 88.5 44s33.5 69 33.5 119z" />
    <glyph glyph-name="uni044F" unicode="&#x44f;" horiz-adv-x="496" 
d="M241 491l186 -0.000976562v-491h-101v166h-65l-117 -166h-116l133 181c-32 12.667 -57 31.834 -75 57.501s-27 55.5 -27 89.5c0 50.667 16.333 90.5 49 119.5s77 43.5 133 43.5zM326 251.999v151h-81c-26.667 0 -47.167 -6.5 -61.5 -19.5s-21.5 -31.5 -21.5 -55.5
s7.16699 -42.667 21.5 -56s34.833 -20 61.5 -20h81z" />
    </font>
</defs>
</svg>
